<svg width="20" height="20" viewBox="0 0 20 20" fill="none" xmlns="http://www.w3.org/2000/svg">
<path fill-rule="evenodd" clip-rule="evenodd" d="M9.93756 0C12.6717 0 15.143 1.11111 16.9832 2.91005C18.771 4.7619 19.8751 7.24868 19.8751 10C19.8751 12.7513 18.771 15.2381 16.9832 17.0899C15.143 18.8889 12.6717 20 9.93756 20C7.20342 20 4.73217 18.8889 2.89188 17.0899C1.10417 15.2381 0 12.7513 0 10C0 7.24868 1.10417 4.7619 2.89188 2.91005C4.73217 1.11111 7.20342 0 9.93756 0ZM16.142 3.75661C14.5646 2.16931 12.3562 1.16402 9.93756 1.16402C7.5189 1.16402 5.31055 2.16931 3.73316 3.75661C2.15577 5.34391 1.15675 7.56614 1.15675 10C1.15675 12.4339 2.15577 14.6561 3.73316 16.2434C5.31055 17.8307 7.5189 18.836 9.93756 18.836C12.3562 18.836 14.5646 17.8307 16.142 16.2434C17.7194 14.6561 18.7184 12.4339 18.7184 10C18.7184 7.56614 17.7194 5.34391 16.142 3.75661Z" fill="white"/>
<path fill-rule="evenodd" clip-rule="evenodd" d="M8.16816 5.62469L11.6463 9.99969L8.16816 14.3747C7.94626 14.6537 7.88915 15.0307 8.01833 15.3636C8.14752 15.6964 8.44337 15.9347 8.79445 15.9886C9.14554 16.0424 9.49851 15.9037 9.7204 15.6247L13.6954 10.6247C13.9861 10.2594 13.9861 9.74002 13.6954 9.37469L9.7204 4.37469C9.37738 3.94335 8.75182 3.87351 8.32318 4.21869C7.89454 4.56386 7.82513 5.19335 8.16816 5.62469Z" fill="white"/>
</svg>
