<svg width="150" height="150" viewBox="0 0 150 150" fill="none" xmlns="http://www.w3.org/2000/svg">
<path fill-rule="evenodd" clip-rule="evenodd" d="M75 0C95.614 0 114.474 8.33333 127.851 21.9298C141.447 35.5263 150 54.1667 150 75C150 95.614 141.447 114.474 127.851 127.851C114.474 141.447 95.614 150 75 150C54.1667 150 35.5263 141.447 21.9298 127.851C8.33333 114.474 0 95.614 0 75C0 54.1667 8.33333 35.5263 21.9298 21.9298C35.5263 8.33333 54.1667 0 75 0ZM121.711 28.2895C109.649 16.2281 93.2018 8.77193 75 8.77193C56.7982 8.77193 40.1316 16.2281 28.2895 28.2895C16.2281 40.1316 8.77193 56.7982 8.77193 75C8.77193 93.2018 16.2281 109.649 28.2895 121.711C40.1316 133.772 56.7982 141.009 75 141.009C93.2018 141.009 109.649 133.772 121.711 121.711C133.772 109.649 141.009 93.2018 141.009 75C141.009 56.7982 133.772 40.1316 121.711 28.2895ZM40.5702 58.9912C43.8596 52.8509 47.3684 46.9298 50.6579 41.0088C52.6316 37.9386 55.7018 37.0614 58.9912 37.0614C75.6579 37.0614 92.1053 37.0614 108.553 37.0614C110.307 37.5 111.623 38.1579 112.281 39.9123C113.596 42.3246 114.912 44.9561 116.228 47.3684C116.886 50 116.009 51.7544 113.816 52.8509C105.702 55.2632 97.5877 57.4561 89.4737 59.8684C87.0614 61.1842 87.2807 62.7193 89.0351 64.0351C95.614 70.3947 102.412 76.5351 109.211 82.6754C111.184 85.0877 110.965 87.5 109.43 89.9123C106.14 96.7105 102.632 103.289 99.3421 109.868C98.2456 111.623 96.7105 112.719 94.5175 112.719C76.9737 112.719 59.6491 112.719 42.1053 112.719C40.3509 112.719 38.1579 112.719 37.2807 110.965C35.9649 108.333 34.8684 105.921 33.5526 103.289C32.8947 100 33.9912 97.807 36.6228 96.7105C44.5175 94.5175 52.193 92.3246 60.0877 90.1316C62.0614 89.693 62.2807 89.693 60.0877 87.7193C53.5088 80.9211 46.7105 74.1228 40.1316 67.3246C38.3772 65.3509 38.8158 61.6228 40.5702 58.9912ZM58.114 46.0526C72.3684 46.2719 83.9912 46.2719 98.2456 46.2719C103.509 46.0526 103.07 47.5877 100.219 48.2456C93.8596 50 89.693 51.3158 83.3333 52.8509C82.0175 53.0702 78.9474 53.9474 78.2895 56.3596C77.8509 57.6754 77.193 59.2105 76.7544 60.5263C76.0965 62.2807 76.0965 64.0351 77.193 65.7895C84.2105 72.3684 91.0088 78.9474 97.807 85.5263C99.3421 86.6228 100 88.5965 98.9035 90.7895C96.9298 94.7368 95.1754 97.807 92.9825 101.535C92.3246 103.07 91.2281 103.947 90.1316 104.167C76.3158 104.167 63.8158 104.386 50 104.605C42.5439 104.605 45.1754 103.289 50 101.974C57.0175 100.439 62.2807 99.1228 69.2982 97.5877C70.8333 94.7368 72.3684 91.6667 73.9035 88.8158C74.3421 87.2807 74.1228 85.5263 72.807 84.2105C65.3509 77.4123 58.114 70.614 50.6579 63.8158C49.7807 62.5 49.5614 61.1842 50.2193 59.8684C53.0702 55.2632 55.4825 50.8772 58.114 46.0526Z" fill="black" fill-opacity="0.25"/>
</svg>
