<svg width="35" height="35" viewBox="0 0 35 35" fill="none" xmlns="http://www.w3.org/2000/svg">
<path d="M17.5 35C7.83504 35 0 27.165 0 17.5C0 7.83504 7.83504 0 17.5 0C27.165 0 35 7.83504 35 17.5C34.9891 27.1604 27.1604 34.9891 17.5 35ZM17.5 1.16667C8.47933 1.16667 1.16667 8.47933 1.16667 17.5C1.16667 26.5207 8.47933 33.8333 17.5 33.8333C26.5207 33.8333 33.8333 26.5207 33.8333 17.5C33.8231 8.48363 26.5164 1.17695 17.5 1.16667Z" fill="white"/>
<path d="M26.2503 18.0838H12.2503C11.9282 18.0838 11.667 17.8226 11.667 17.5004C11.667 17.1783 11.9282 16.9171 12.2503 16.9171H26.2503C26.5725 16.9171 26.8337 17.1783 26.8337 17.5004C26.8337 17.8226 26.5725 18.0838 26.2503 18.0838Z" fill="white"/>
<path d="M26.2503 23.917H12.2503C11.9282 23.917 11.667 23.6558 11.667 23.3337C11.667 23.0116 11.9282 22.7504 12.2503 22.7504H26.2503C26.5725 22.7504 26.8337 23.0116 26.8337 23.3337C26.8337 23.6558 26.5725 23.917 26.2503 23.917Z" fill="white"/>
<path d="M26.2503 12.2503H12.2503C11.9282 12.2503 11.667 11.9891 11.667 11.667C11.667 11.3448 11.9282 11.0836 12.2503 11.0836H26.2503C26.5725 11.0836 26.8337 11.3448 26.8337 11.667C26.8337 11.9891 26.5725 12.2503 26.2503 12.2503Z" fill="white"/>
<path d="M9.9165 12.2503H8.74984C8.42769 12.2503 8.1665 11.9891 8.1665 11.667C8.1665 11.3448 8.42769 11.0836 8.74984 11.0836H9.9165C10.2386 11.0836 10.4998 11.3448 10.4998 11.667C10.4998 11.9891 10.2386 12.2503 9.9165 12.2503Z" fill="white"/>
<path d="M9.9165 18.0838H8.74984C8.42769 18.0838 8.1665 17.8226 8.1665 17.5004C8.1665 17.1783 8.42769 16.9171 8.74984 16.9171H9.9165C10.2386 16.9171 10.4998 17.1783 10.4998 17.5004C10.4998 17.8226 10.2386 18.0838 9.9165 18.0838Z" fill="white"/>
<path d="M9.9165 23.917H8.74984C8.42769 23.917 8.1665 23.6558 8.1665 23.3337C8.1665 23.0116 8.42769 22.7504 8.74984 22.7504H9.9165C10.2386 22.7504 10.4998 23.0116 10.4998 23.3337C10.4998 23.6558 10.2386 23.917 9.9165 23.917Z" fill="white"/>
</svg>
