<?xml version="1.0" encoding="UTF-8"?>
<svg width="33px" height="64px" viewBox="0 0 33 64" xmlns="http://www.w3.org/2000/svg" xmlns:xlink="http://www.w3.org/1999/xlink" version="1.1">
 <!-- Generated by Pixelmator Pro 1.5.5 -->
 <path id="Путь" d="M2.299 0.704 L2.299 2.056 2.299 2.807 2.299 3.108 C2.299 3.859 2.584 4.16 2.869 4.16 3.154 4.31 3.296 4.16 3.439 3.859 3.866 2.807 3.296 0.854 5.149 0.704 5.861 0.553 6.431 1.004 7.001 1.455 7.856 2.357 8.141 3.559 8.141 4.761 8.426 6.714 8.284 7.165 8.284 8.367 L8.284 9.119 8.284 9.419 C8.284 10.171 8.568 10.471 8.711 10.471 9.139 10.621 9.281 10.471 9.423 10.171 9.851 9.119 9.139 7.165 11.133 7.015 11.846 6.865 12.416 7.315 12.986 7.766 13.841 8.668 14.126 9.87 14.126 11.072 14.411 13.026 14.268 13.477 14.268 14.679 L14.268 15.43 14.268 15.731 C14.268 16.482 14.553 16.782 14.696 16.782 15.123 16.933 15.266 16.782 15.408 16.482 15.836 15.43 15.123 13.477 17.118 13.326 17.831 13.176 18.401 13.627 18.971 14.078 19.826 14.979 20.111 16.181 20.111 17.384 20.396 19.337 20.253 19.788 20.253 20.99 20.111 21.291 20.253 21.591 20.253 21.892 L20.253 22.192 C20.253 22.793 20.538 23.094 20.681 23.244 20.966 23.244 21.251 23.094 21.393 22.793 21.821 21.741 21.108 19.788 23.103 19.638 23.816 19.638 24.386 19.938 24.956 20.389 25.811 21.441 26.096 22.493 26.096 23.845 26.238 25.648 26.238 26.099 26.096 27.301 26.096 27.602 26.096 27.902 26.238 28.203 L26.238 28.504 C26.238 29.105 26.523 29.405 26.666 29.555 26.951 29.555 27.236 29.405 27.378 29.105 27.806 28.053 27.093 26.099 29.088 25.949 29.801 25.949 30.371 26.25 30.941 26.7 31.796 27.752 31.938 28.804 32.081 30.156 32.223 31.058 32.223 32.711 32.223 33.613 32.223 33.913 32.223 34.364 32.081 34.815 31.796 36.919 31.083 37.67 31.083 37.67 31.083 37.67 30.086 38.722 28.946 38.572 26.951 38.121 28.091 35.115 27.093 34.815 27.093 34.815 26.523 34.665 26.238 35.867 L26.238 36.468 C26.096 37.971 26.381 38.572 26.238 39.924 26.238 40.225 26.238 40.675 26.096 41.126 25.811 43.23 25.098 43.981 25.098 43.981 25.098 43.981 24.101 45.033 22.961 44.883 20.966 44.432 22.106 41.427 21.108 41.126 21.108 41.126 20.538 40.976 20.253 42.178 L20.253 42.779 C20.111 44.282 20.396 44.883 20.253 46.235 20.253 46.536 20.253 46.987 20.111 47.438 19.826 49.541 19.113 50.293 19.113 50.293 19.113 50.293 18.116 51.345 16.976 51.194 14.981 50.743 16.121 47.738 15.123 47.438 15.123 47.438 14.553 47.287 14.268 48.49 L14.268 49.09 C14.126 50.593 14.411 51.194 14.268 52.547 14.268 52.998 14.268 53.298 14.126 53.749 13.983 55.853 13.128 56.604 13.128 56.604 13.128 56.604 12.131 57.656 10.991 57.506 8.996 57.055 10.136 54.2 9.139 53.749 9.139 53.749 8.568 53.599 8.426 54.801 8.284 54.951 8.284 55.252 8.284 55.402 8.141 56.905 8.426 57.506 8.284 58.858 8.284 59.309 8.284 59.609 8.141 60.06 7.999 62.164 7.144 62.915 7.144 62.915 7.144 62.915 6.146 63.967 5.006 63.817 3.011 63.366 4.151 60.361 3.154 60.06 3.154 60.06 2.584 59.91 2.441 61.112 2.299 61.262 2.299 61.563 2.299 61.713 L2.299 63.667 0.731 63.667 C0.731 63.216 0.731 62.615 0.731 61.563 0.874 60.361 1.159 59.159 2.014 58.257 2.441 57.656 3.154 57.355 3.866 57.355 5.719 57.506 5.006 59.609 5.576 60.661 5.719 60.962 5.861 61.112 6.146 60.962 6.431 60.812 6.574 60.511 6.716 59.91 6.716 59.76 6.716 59.76 6.716 59.609 6.716 59.309 6.716 59.008 6.716 58.708 6.716 57.506 6.574 57.055 6.716 55.252 6.859 54.049 7.144 52.847 7.999 51.946 8.426 51.345 9.139 51.044 9.708 51.044 11.703 51.194 10.991 53.298 11.561 54.35 11.703 54.651 11.846 54.801 12.131 54.651 12.416 54.5 12.558 54.2 12.701 53.599 12.701 53.448 12.701 53.448 12.701 53.298 12.701 52.998 12.701 52.697 12.701 52.396 12.558 51.194 12.558 50.743 12.701 48.94 12.843 47.738 13.128 46.536 13.983 45.634 14.411 45.033 15.123 44.733 15.693 44.733 17.688 44.883 16.976 46.987 17.546 48.039 17.688 48.189 17.831 48.339 18.116 48.339 18.401 48.189 18.543 47.888 18.686 47.287 18.686 47.137 18.686 46.987 18.686 46.987 18.686 46.686 18.686 46.386 18.686 46.085 18.543 44.883 18.543 44.432 18.686 42.629 18.828 41.427 19.113 40.225 19.968 39.323 20.396 38.722 20.966 38.421 21.678 38.421 23.673 38.572 22.961 40.675 23.531 41.727 23.531 41.878 23.816 42.028 24.101 42.028 24.386 41.878 24.528 41.577 24.528 40.976 24.671 40.826 24.671 40.826 24.671 40.675 24.671 40.375 24.671 40.074 24.671 39.774 24.528 38.572 24.528 38.121 24.671 36.318 24.813 35.115 24.956 33.913 25.811 33.012 26.238 32.711 26.523 32.411 26.951 32.26 26.238 31.96 25.668 31.359 25.668 31.359 25.668 31.359 24.956 30.607 24.671 28.654 24.671 28.203 24.528 27.752 24.528 27.452 24.528 26.099 24.671 25.498 24.528 23.845 24.528 23.695 24.528 23.545 24.528 23.244 24.243 22.192 23.673 22.342 23.673 22.342 22.676 22.643 23.958 25.648 21.821 25.949 20.681 26.25 19.683 25.047 19.683 25.047 19.683 25.047 18.971 24.296 18.686 22.342 18.686 21.892 18.543 21.441 18.543 21.14 18.543 19.788 18.686 19.187 18.686 17.534 18.543 17.384 18.543 17.233 18.543 16.933 18.258 15.731 17.688 16.031 17.688 16.031 16.691 16.332 17.973 19.187 15.836 19.638 14.696 19.938 13.698 18.736 13.698 18.736 13.698 18.736 12.986 17.985 12.701 16.031 12.701 15.58 12.558 15.13 12.558 14.829 12.558 13.326 12.701 12.875 12.701 11.222 12.558 11.072 12.558 10.922 12.558 10.621 12.273 9.419 11.703 9.72 11.703 9.72 10.706 10.02 11.988 12.875 9.851 13.326 8.711 13.627 7.714 12.425 7.714 12.425 7.714 12.425 7.001 11.673 6.716 9.72 6.716 9.269 6.716 8.818 6.574 8.518 6.574 7.015 6.716 6.564 6.716 4.911 6.716 4.761 6.574 4.611 6.574 4.31 6.431 3.108 5.719 3.408 5.719 3.408 4.721 3.709 6.004 6.564 3.866 7.015 2.726 7.315 1.729 6.113 1.729 6.113 1.729 6.113 1.016 5.362 0.731 3.408 0.731 2.958 0.731 2.507 0.731 2.206 L0.589 2.206 C0.589 1.605 0.589 1.154 0.731 0.704 Z M30.513 30.156 C30.513 30.006 30.513 29.856 30.513 29.555 30.228 28.504 29.658 28.654 29.658 28.654 28.661 28.954 29.658 31.509 28.091 32.26 29.516 32.561 28.946 34.364 29.516 35.416 29.516 35.566 29.801 35.716 30.086 35.716 30.228 35.566 30.513 35.266 30.513 34.665 30.513 34.514 30.513 34.514 30.513 34.364 30.656 34.063 30.656 33.763 30.656 33.462 30.513 32.411 30.656 31.208 30.513 30.156 Z" fill="#ffffff" fill-opacity="1" stroke="none"/>
</svg>
