<?xml version="1.0" encoding="UTF-8"?>
<svg width="33px" height="64px" viewBox="0 0 33 64" xmlns="http://www.w3.org/2000/svg" xmlns:xlink="http://www.w3.org/1999/xlink" version="1.1">
 <!-- Generated by Pixelmator Pro 1.5.5 -->
 <path id="Путь" d="M30.513 0.704 L30.513 2.056 30.513 2.807 30.513 3.108 C30.513 3.859 30.228 4.16 29.943 4.16 29.658 4.31 29.516 4.16 29.373 3.859 28.946 2.807 29.516 0.854 27.663 0.704 26.951 0.553 26.381 1.004 25.811 1.455 24.956 2.357 24.671 3.559 24.671 4.761 24.386 6.714 24.528 7.165 24.528 8.367 L24.528 9.119 24.528 9.419 C24.528 10.171 24.243 10.471 24.101 10.471 23.673 10.621 23.531 10.471 23.388 10.171 22.961 9.119 23.673 7.165 21.678 7.015 20.966 6.865 20.396 7.315 19.826 7.766 18.971 8.668 18.686 9.87 18.686 11.072 18.401 13.026 18.543 13.477 18.543 14.679 L18.543 15.43 18.543 15.731 C18.543 16.482 18.258 16.782 18.116 16.782 17.688 16.933 17.546 16.782 17.403 16.482 16.976 15.43 17.688 13.477 15.693 13.326 14.981 13.176 14.411 13.627 13.841 14.078 12.986 14.979 12.701 16.181 12.701 17.384 12.416 19.337 12.558 19.788 12.558 20.99 12.701 21.291 12.558 21.591 12.558 21.892 L12.558 22.192 C12.558 22.793 12.273 23.094 12.131 23.244 11.846 23.244 11.561 23.094 11.418 22.793 10.991 21.741 11.703 19.788 9.708 19.638 8.996 19.638 8.426 19.938 7.856 20.389 7.001 21.441 6.716 22.493 6.716 23.845 6.573 25.648 6.573 26.099 6.716 27.301 6.716 27.602 6.716 27.902 6.573 28.203 L6.573 28.504 C6.573 29.105 6.288 29.405 6.146 29.555 5.861 29.555 5.576 29.405 5.433 29.105 5.006 28.053 5.719 26.099 3.724 25.949 3.011 25.949 2.441 26.25 1.871 26.7 1.016 27.752 0.874 28.804 0.731 30.156 0.589 31.058 0.589 32.711 0.589 33.613 0.589 33.913 0.589 34.364 0.731 34.815 1.016 36.919 1.729 37.67 1.729 37.67 1.729 37.67 2.726 38.722 3.866 38.572 5.861 38.121 4.721 35.115 5.719 34.815 5.719 34.815 6.288 34.665 6.573 35.867 L6.573 36.468 C6.716 37.971 6.431 38.572 6.573 39.924 6.573 40.225 6.573 40.675 6.716 41.126 7.001 43.23 7.713 43.981 7.713 43.981 7.713 43.981 8.711 45.033 9.851 44.883 11.846 44.432 10.706 41.427 11.703 41.126 11.703 41.126 12.273 40.976 12.558 42.178 L12.558 42.779 C12.701 44.282 12.416 44.883 12.558 46.235 12.558 46.536 12.558 46.987 12.701 47.438 12.986 49.541 13.698 50.293 13.698 50.293 13.698 50.293 14.696 51.345 15.836 51.194 17.831 50.743 16.691 47.738 17.688 47.438 17.688 47.438 18.258 47.287 18.543 48.49 L18.543 49.09 C18.686 50.593 18.401 51.194 18.543 52.547 18.543 52.998 18.543 53.298 18.686 53.749 18.828 55.853 19.683 56.604 19.683 56.604 19.683 56.604 20.681 57.656 21.821 57.506 23.816 57.055 22.676 54.2 23.673 53.749 23.673 53.749 24.243 53.599 24.386 54.801 24.528 54.951 24.528 55.252 24.528 55.402 24.671 56.905 24.386 57.506 24.528 58.858 24.528 59.309 24.528 59.609 24.671 60.06 24.813 62.164 25.668 62.915 25.668 62.915 25.668 62.915 26.666 63.967 27.806 63.817 29.801 63.366 28.661 60.361 29.658 60.06 29.658 60.06 30.228 59.91 30.37 61.112 30.513 61.262 30.513 61.563 30.513 61.713 L30.513 63.667 32.08 63.667 C32.08 63.216 32.08 62.615 32.08 61.563 31.938 60.361 31.653 59.159 30.798 58.257 30.37 57.656 29.658 57.355 28.946 57.355 27.093 57.506 27.806 59.609 27.236 60.661 27.093 60.962 26.951 61.112 26.666 60.962 26.381 60.812 26.238 60.511 26.096 59.91 26.096 59.76 26.096 59.76 26.096 59.609 26.096 59.309 26.096 59.008 26.096 58.708 26.096 57.506 26.238 57.055 26.096 55.252 25.953 54.049 25.668 52.847 24.813 51.946 24.386 51.345 23.673 51.044 23.103 51.044 21.108 51.194 21.821 53.298 21.251 54.35 21.108 54.651 20.966 54.801 20.681 54.651 20.396 54.5 20.253 54.2 20.111 53.599 20.111 53.448 20.111 53.448 20.111 53.298 20.111 52.998 20.111 52.697 20.111 52.396 20.253 51.194 20.253 50.743 20.111 48.94 19.968 47.738 19.683 46.536 18.828 45.634 18.401 45.033 17.688 44.733 17.118 44.733 15.123 44.883 15.836 46.987 15.266 48.039 15.123 48.189 14.981 48.339 14.696 48.339 14.411 48.189 14.268 47.888 14.126 47.287 14.126 47.137 14.126 46.987 14.126 46.987 14.126 46.686 14.126 46.386 14.126 46.085 14.268 44.883 14.268 44.432 14.126 42.629 13.983 41.427 13.698 40.225 12.843 39.323 12.416 38.722 11.846 38.421 11.133 38.421 9.138 38.572 9.851 40.675 9.281 41.727 9.281 41.878 8.996 42.028 8.711 42.028 8.426 41.878 8.283 41.577 8.283 40.976 8.141 40.826 8.141 40.826 8.141 40.675 8.141 40.375 8.141 40.074 8.141 39.774 8.283 38.572 8.283 38.121 8.141 36.318 7.998 35.115 7.856 33.913 7.001 33.012 6.573 32.711 6.288 32.411 5.861 32.26 6.573 31.96 7.143 31.359 7.143 31.359 7.143 31.359 7.856 30.607 8.141 28.654 8.141 28.203 8.283 27.752 8.283 27.452 8.283 26.099 8.141 25.498 8.283 23.845 8.283 23.695 8.283 23.545 8.283 23.244 8.568 22.192 9.138 22.342 9.138 22.342 10.136 22.643 8.853 25.648 10.991 25.949 12.131 26.25 13.128 25.047 13.128 25.047 13.128 25.047 13.841 24.296 14.126 22.342 14.126 21.892 14.268 21.441 14.268 21.14 14.268 19.788 14.126 19.187 14.126 17.534 14.268 17.384 14.268 17.233 14.268 16.933 14.553 15.731 15.123 16.031 15.123 16.031 16.121 16.332 14.838 19.187 16.976 19.638 18.116 19.938 19.113 18.736 19.113 18.736 19.113 18.736 19.826 17.985 20.111 16.031 20.111 15.58 20.253 15.13 20.253 14.829 20.253 13.326 20.111 12.875 20.111 11.222 20.253 11.072 20.253 10.922 20.253 10.621 20.538 9.419 21.108 9.72 21.108 9.72 22.106 10.02 20.823 12.875 22.961 13.326 24.101 13.627 25.098 12.425 25.098 12.425 25.098 12.425 25.811 11.673 26.096 9.72 26.096 9.269 26.096 8.818 26.238 8.518 26.238 7.015 26.096 6.564 26.096 4.911 26.096 4.761 26.238 4.611 26.238 4.31 26.381 3.108 27.093 3.408 27.093 3.408 28.091 3.709 26.808 6.564 28.946 7.015 30.085 7.315 31.083 6.113 31.083 6.113 31.083 6.113 31.795 5.362 32.08 3.408 32.08 2.958 32.08 2.507 32.08 2.206 L32.223 2.206 C32.223 1.605 32.223 1.154 32.08 0.704 Z M2.298 30.156 C2.298 30.006 2.298 29.856 2.298 29.555 2.583 28.504 3.154 28.654 3.154 28.654 4.151 28.954 3.154 31.509 4.721 32.26 3.296 32.561 3.866 34.364 3.296 35.416 3.296 35.566 3.011 35.716 2.726 35.716 2.583 35.566 2.298 35.266 2.298 34.665 2.298 34.514 2.298 34.514 2.298 34.364 2.156 34.063 2.156 33.763 2.156 33.462 2.298 32.411 2.156 31.208 2.298 30.156 Z" fill="#ffffff" fill-opacity="1" stroke="none"/>
</svg>
