<svg width="33" height="65" viewBox="0 0 33 65" fill="none" xmlns="http://www.w3.org/2000/svg">
<path fill-rule="evenodd" clip-rule="evenodd" d="M30.6993 64.0236C30.6993 63.5728 30.6993 63.122 30.6993 62.6712C30.6993 62.3706 30.6993 62.0701 30.6993 61.9198C30.6993 61.7696 30.6993 61.6193 30.6993 61.6193C30.6993 60.8679 30.4143 60.5674 30.1293 60.5674C29.8443 60.4171 29.7018 60.5674 29.5593 60.8679C29.1318 61.9198 29.7018 63.8733 27.8493 64.0236C27.1368 64.1739 26.5668 63.7231 25.9969 63.2723C25.1419 62.3706 24.8569 61.1685 24.8569 59.9663C24.5719 58.0128 24.7144 57.562 24.7144 56.3598C24.7144 56.0593 24.7144 55.7588 24.7144 55.6085C24.7144 55.4582 24.7144 55.3079 24.7144 55.3079C24.7144 54.5566 24.4294 54.2561 24.2869 54.2561C23.8594 54.1058 23.7169 54.2561 23.5744 54.5566C23.1469 55.6085 23.8594 57.562 21.8644 57.7123C21.1519 57.8625 20.5819 57.4117 20.012 56.9609C19.157 56.0593 18.872 54.8571 18.872 53.655C18.587 51.7015 18.7295 51.2507 18.7295 50.0485C18.7295 49.748 18.7295 49.4474 18.7295 49.2971C18.7295 49.1469 18.7295 48.9966 18.7295 48.9966C18.7295 48.2453 18.4445 47.9447 18.302 47.9447C17.8745 47.7944 17.732 47.9447 17.5895 48.2453C17.162 49.2971 17.8745 51.2507 15.8795 51.4009C15.167 51.5512 14.597 51.1004 14.0271 50.6496C13.1721 49.748 12.8871 48.5458 12.8871 47.3436C12.6021 45.3901 12.7446 44.9393 12.7446 43.7372C12.8871 43.4366 12.7446 43.1361 12.7446 42.8355C12.7446 42.8355 12.7446 42.6853 12.7446 42.535C12.7446 41.9339 12.4596 41.6334 12.3171 41.4831C12.0321 41.4831 11.7471 41.6334 11.6046 41.9339C11.1771 42.9858 11.8896 44.9393 9.89462 45.0896C9.18214 45.0896 8.61215 44.789 8.04216 44.3382C7.18717 43.2863 6.90218 42.2345 6.90218 40.882C6.75968 39.0788 6.75968 38.628 6.90218 37.4258C6.90218 37.1253 6.90218 36.8247 6.75968 36.5242C6.75968 36.5242 6.75968 36.3739 6.75968 36.2237C6.75968 35.6226 6.47468 35.322 6.33219 35.1718C6.04719 35.1718 5.7622 35.322 5.6197 35.6226C5.1922 36.6745 5.90469 38.628 3.90973 38.7782C3.19724 38.7782 2.62725 38.4777 2.05726 38.0269C1.20227 36.975 1.05978 35.9231 0.917278 34.5707C0.77478 33.6691 0.77478 32.0161 0.77478 31.1145C0.77478 30.8139 0.77478 30.3631 0.917278 29.9123C1.20227 27.8085 1.91476 27.0572 1.91476 27.0572C1.91476 27.0572 2.91224 26.0053 4.05222 26.1556C6.04719 26.6064 4.90721 29.6118 5.90469 29.9123C5.90469 29.9123 6.47468 30.0626 6.75968 28.8604C6.75968 28.7102 6.75968 28.5599 6.75968 28.2593C6.90218 26.7566 6.61718 26.1556 6.75968 24.8031C6.75968 24.5026 6.75968 24.0518 6.90218 23.601C7.18717 21.4972 7.89966 20.7458 7.89966 20.7458C7.89966 20.7458 8.89714 19.694 10.0371 19.8442C12.0321 20.295 10.8921 23.3004 11.8896 23.601C11.8896 23.601 12.4596 23.7512 12.7446 22.5491C12.7446 22.3988 12.7446 22.2485 12.7446 21.948C12.8871 20.4453 12.6021 19.8442 12.7446 18.4918C12.7446 18.1913 12.7446 17.7404 12.8871 17.2896C13.1721 15.1859 13.8846 14.4345 13.8846 14.4345C13.8846 14.4345 14.882 13.3826 16.022 13.5329C18.017 13.9837 16.877 16.9891 17.8745 17.2896C17.8745 17.2896 18.4445 17.4399 18.7295 16.2377C18.7295 16.0875 18.7295 15.9372 18.7295 15.6367C18.872 14.134 18.587 13.5329 18.7295 12.1805C18.7295 11.7296 18.7295 11.4291 18.872 10.9783C19.0145 8.87451 19.8695 8.12316 19.8695 8.12316C19.8695 8.12316 20.8669 7.07127 22.0069 7.22154C24.0019 7.67235 22.8619 10.5275 23.8594 10.9783C23.8594 10.9783 24.4294 11.1286 24.5719 9.9264C24.7144 9.77613 24.7144 9.47559 24.7144 9.32532C24.8569 7.82262 24.5719 7.22154 24.7144 5.86911C24.7144 5.4183 24.7144 5.11776 24.8569 4.66695C24.9994 2.56317 25.8544 1.81182 25.8544 1.81182C25.8544 1.81182 26.8518 0.759931 27.9918 0.910201C29.9868 1.36101 28.8468 4.36641 29.8443 4.66695C29.8443 4.66695 30.4143 4.81722 30.5568 3.61506C30.6993 3.46479 30.6993 3.16425 30.6993 3.01398C30.6993 2.11236 30.6993 1.66155 30.6993 1.06047H32.2667C32.2667 1.51128 32.2667 2.11236 32.2667 3.16425C32.1242 4.36641 31.8393 5.56857 30.9843 6.47019C30.5568 7.07127 29.8443 7.37181 29.1318 7.37181C27.2793 7.22154 27.9918 5.11776 27.4218 4.06587C27.2793 3.76533 27.1368 3.61506 26.8518 3.76533C26.5668 3.9156 26.4243 4.21614 26.2818 4.81722C26.2818 4.96749 26.2818 4.96749 26.2818 5.11776C26.2818 5.4183 26.2818 5.71884 26.2818 6.01938C26.2818 7.22154 26.4243 7.67235 26.2818 9.47559C26.1393 10.6778 25.8544 11.8799 24.9994 12.7815C24.5719 13.3826 23.8594 13.6832 23.2894 13.6832C21.2944 13.5329 22.0069 11.4291 21.4369 10.3772C21.2944 10.0767 21.1519 9.9264 20.8669 10.0767C20.5819 10.2269 20.4394 10.5275 20.2969 11.1286C20.2969 11.2788 20.2969 11.2788 20.2969 11.4291C20.2969 11.7296 20.2969 12.0302 20.2969 12.3307C20.4394 13.5329 20.4394 13.9837 20.2969 15.7869C20.1544 16.9891 19.8695 18.1913 19.0145 19.0929C18.587 19.694 17.8745 19.9945 17.3045 19.9945C15.3095 19.8442 16.022 17.7404 15.452 16.6886C15.3095 16.5383 15.167 16.388 14.882 16.388C14.597 16.5383 14.4545 16.8388 14.312 17.4399C14.312 17.5902 14.312 17.7404 14.312 17.7404C14.312 18.041 14.312 18.3415 14.312 18.6421C14.4545 19.8442 14.4545 20.295 14.312 22.0983C14.1696 23.3004 13.8846 24.5026 13.0296 25.4042C12.6021 26.0053 12.0321 26.3058 11.3196 26.3058C9.32463 26.1556 10.0371 24.0518 9.46713 22.9999C9.46713 22.8496 9.18214 22.6994 8.89714 22.6994C8.61215 22.8496 8.46965 23.1502 8.46965 23.7512C8.32715 23.9015 8.32715 23.9015 8.32715 24.0518C8.32715 24.3523 8.32715 24.6529 8.32715 24.9534C8.46965 26.1556 8.46965 26.6064 8.32715 28.4096C8.18465 29.6118 8.04216 30.8139 7.18717 31.7156C6.75968 32.0161 6.47468 32.3166 6.04719 32.4669C6.75968 32.7674 7.32967 33.3685 7.32967 33.3685C7.32967 33.3685 8.04216 34.1199 8.32715 36.0734C8.32715 36.5242 8.46965 36.975 8.46965 37.2755C8.46965 38.628 8.32715 39.2291 8.46965 40.882C8.46965 41.0323 8.46965 41.1826 8.46965 41.4831C8.75464 42.535 9.32463 42.3847 9.32463 42.3847C10.3221 42.0842 9.03964 39.0788 11.1771 38.7782C12.3171 38.4777 13.3146 39.6799 13.3146 39.6799C13.3146 39.6799 14.0271 40.4312 14.312 42.3847C14.312 42.8355 14.4545 43.2863 14.4545 43.5869C14.4545 44.9393 14.312 45.5404 14.312 47.1934C14.4545 47.3436 14.4545 47.4939 14.4545 47.7944C14.7395 48.9966 15.3095 48.6961 15.3095 48.6961C16.307 48.3955 15.0245 45.5404 17.162 45.0896C18.302 44.789 19.2995 45.9912 19.2995 45.9912C19.2995 45.9912 20.012 46.7426 20.2969 48.6961C20.2969 49.1469 20.4394 49.5977 20.4394 49.8982C20.4394 51.4009 20.2969 51.8517 20.2969 53.5047C20.4394 53.655 20.4394 53.8052 20.4394 54.1058C20.7244 55.3079 21.2944 55.0074 21.2944 55.0074C22.2919 54.7069 21.0094 51.8517 23.1469 51.4009C24.2869 51.1004 25.2844 52.3025 25.2844 52.3025C25.2844 52.3025 25.9969 53.0539 26.2818 55.0074C26.2818 55.4582 26.2818 55.909 26.4243 56.2096C26.4243 57.7123 26.2818 58.1631 26.2818 59.816C26.2818 59.9663 26.4243 60.1166 26.4243 60.4171C26.5668 61.6193 27.2793 61.3187 27.2793 61.3187C28.2768 61.0182 26.9943 58.1631 29.1318 57.7123C30.2718 57.4117 31.2693 58.6139 31.2693 58.6139C31.2693 58.6139 31.9817 59.3652 32.2667 61.3187C32.2667 61.7696 32.2667 62.2204 32.2667 62.5209H32.4092C32.4092 63.122 32.4092 63.5728 32.2667 64.0236H30.6993ZM2.48475 34.5707C2.48475 34.721 2.48475 34.8712 2.48475 35.1718C2.76975 36.2237 3.33974 36.0734 3.33974 36.0734C4.33722 35.7728 3.33974 33.2183 4.90721 32.4669C3.48223 32.1664 4.05222 30.3631 3.48223 29.3112C3.48223 29.161 3.19724 29.0107 2.91224 29.0107C2.76975 29.161 2.48475 29.4615 2.48475 30.0626C2.48475 30.2129 2.48475 30.2129 2.48475 30.3631C2.34225 30.6637 2.34225 30.9642 2.34225 31.2647C2.48475 32.3166 2.34225 33.5188 2.48475 34.5707Z" fill="#9D9E9E"/>
</svg>
