<?xml version="1.0" encoding="UTF-8"?>
<svg width="33px" height="65px" viewBox="0 0 33 65" xmlns="http://www.w3.org/2000/svg" xmlns:xlink="http://www.w3.org/1999/xlink" version="1.1">
 <!-- Generated by Pixelmator Pro 1.5.5 -->
 <path id="Путь" d="M2.485 64.024 C2.485 63.573 2.485 63.122 2.485 62.671 2.485 62.37 2.485 62.07 2.485 61.92 2.485 61.77 2.485 61.619 2.485 61.619 2.485 60.868 2.77 60.567 3.055 60.567 3.34 60.417 3.482 60.567 3.625 60.868 4.052 61.92 3.482 63.873 5.335 64.024 6.047 64.174 6.617 63.723 7.187 63.272 8.042 62.37 8.327 61.168 8.327 59.966 8.612 58.013 8.47 57.562 8.47 56.36 8.47 56.059 8.47 55.759 8.47 55.608 8.47 55.458 8.47 55.308 8.47 55.308 8.47 54.557 8.755 54.256 8.897 54.256 9.325 54.106 9.467 54.256 9.61 54.557 10.037 55.608 9.325 57.562 11.32 57.712 12.032 57.862 12.602 57.412 13.172 56.961 14.027 56.059 14.312 54.857 14.312 53.655 14.597 51.701 14.454 51.251 14.454 50.048 14.454 49.748 14.454 49.447 14.454 49.297 14.454 49.147 14.454 48.997 14.454 48.997 14.454 48.245 14.74 47.945 14.882 47.945 15.31 47.794 15.452 47.945 15.594 48.245 16.022 49.297 15.31 51.251 17.305 51.401 18.017 51.551 18.587 51.1 19.157 50.65 20.012 49.748 20.297 48.546 20.297 47.344 20.582 45.39 20.439 44.939 20.439 43.737 20.297 43.437 20.439 43.136 20.439 42.835 20.439 42.835 20.439 42.685 20.439 42.535 20.439 41.934 20.724 41.633 20.867 41.483 21.152 41.483 21.437 41.633 21.579 41.934 22.007 42.986 21.294 44.939 23.289 45.089 24.002 45.089 24.572 44.789 25.142 44.338 25.997 43.286 26.282 42.234 26.282 40.882 26.424 39.079 26.424 38.628 26.282 37.426 26.282 37.125 26.282 36.825 26.424 36.524 26.424 36.524 26.424 36.374 26.424 36.224 26.424 35.623 26.709 35.322 26.852 35.172 27.137 35.172 27.422 35.322 27.564 35.623 27.992 36.674 27.279 38.628 29.274 38.778 29.987 38.778 30.557 38.478 31.127 38.027 31.982 36.975 32.124 35.923 32.267 34.571 32.409 33.669 32.409 32.016 32.409 31.114 32.409 30.814 32.409 30.363 32.267 29.912 31.982 27.808 31.269 27.057 31.269 27.057 31.269 27.057 30.272 26.005 29.132 26.156 27.137 26.606 28.277 29.612 27.279 29.912 27.279 29.912 26.709 30.063 26.424 28.86 26.424 28.71 26.424 28.56 26.424 28.259 26.282 26.757 26.567 26.156 26.424 24.803 26.424 24.503 26.424 24.052 26.282 23.601 25.997 21.497 25.284 20.746 25.284 20.746 25.284 20.746 24.287 19.694 23.147 19.844 21.152 20.295 22.292 23.3 21.294 23.601 21.294 23.601 20.724 23.751 20.439 22.549 20.439 22.399 20.439 22.248 20.439 21.948 20.297 20.445 20.582 19.844 20.439 18.492 20.439 18.191 20.439 17.74 20.297 17.29 20.012 15.186 19.299 14.434 19.299 14.434 19.299 14.434 18.302 13.383 17.162 13.533 15.167 13.984 16.307 16.989 15.31 17.29 15.31 17.29 14.74 17.44 14.454 16.238 14.454 16.087 14.454 15.937 14.454 15.637 14.312 14.134 14.597 13.533 14.454 12.18 14.454 11.729 14.454 11.429 14.312 10.978 14.17 8.874 13.315 8.123 13.315 8.123 13.315 8.123 12.317 7.071 11.177 7.221 9.182 7.672 10.322 10.527 9.325 10.978 9.325 10.978 8.755 11.129 8.612 9.926 8.47 9.776 8.47 9.476 8.47 9.325 8.327 7.823 8.612 7.221 8.47 5.869 8.47 5.418 8.47 5.118 8.327 4.667 8.185 2.563 7.33 1.812 7.33 1.812 7.33 1.812 6.332 0.76 5.192 0.91 3.197 1.361 4.337 4.366 3.34 4.667 3.34 4.667 2.77 4.817 2.627 3.615 2.485 3.465 2.485 3.164 2.485 3.014 2.485 2.112 2.485 1.661 2.485 1.06 L0.917 1.06 0.917 3.164 C1.06 4.366 1.345 5.568 2.2 6.47 2.627 7.071 3.34 7.372 4.052 7.372 5.905 7.221 5.192 5.118 5.762 4.066 5.905 3.765 6.047 3.615 6.332 3.765 6.617 3.916 6.76 4.216 6.902 4.817 L6.902 5.118 6.902 6.019 C6.902 7.221 6.76 7.672 6.902 9.476 7.045 10.678 7.33 11.88 8.185 12.781 8.612 13.383 9.325 13.683 9.895 13.683 11.89 13.533 11.177 11.429 11.747 10.377 11.89 10.077 12.032 9.926 12.317 10.077 12.602 10.227 12.745 10.527 12.887 11.129 L12.887 11.429 12.887 12.331 C12.745 13.533 12.745 13.984 12.887 15.787 13.03 16.989 13.315 18.191 14.17 19.093 14.597 19.694 15.31 19.994 15.88 19.994 17.875 19.844 17.162 17.74 17.732 16.688 17.875 16.538 18.017 16.388 18.302 16.388 18.587 16.538 18.729 16.839 18.872 17.44 L18.872 17.74 18.872 18.642 C18.729 19.844 18.729 20.295 18.872 22.098 19.014 23.3 19.299 24.503 20.154 25.404 20.582 26.005 21.152 26.306 21.864 26.306 23.859 26.156 23.147 24.052 23.717 23 23.717 22.849 24.002 22.699 24.287 22.699 24.572 22.849 24.714 23.15 24.714 23.751 24.857 23.901 24.857 23.901 24.857 24.052 L24.857 24.953 C24.714 26.156 24.714 26.606 24.857 28.41 24.999 29.612 25.142 30.814 25.997 31.716 26.424 32.016 26.709 32.317 27.137 32.467 26.424 32.767 25.854 33.368 25.854 33.368 25.854 33.368 25.142 34.12 24.857 36.073 24.857 36.524 24.714 36.975 24.714 37.275 24.714 38.628 24.857 39.229 24.714 40.882 L24.714 41.483 C24.429 42.535 23.859 42.385 23.859 42.385 22.862 42.084 24.144 39.079 22.007 38.778 20.867 38.478 19.869 39.68 19.869 39.68 19.869 39.68 19.157 40.431 18.872 42.385 18.872 42.835 18.729 43.286 18.729 43.587 18.729 44.939 18.872 45.54 18.872 47.193 18.729 47.344 18.729 47.494 18.729 47.794 18.445 48.997 17.875 48.696 17.875 48.696 16.877 48.395 18.16 45.54 16.022 45.089 14.882 44.789 13.885 45.991 13.885 45.991 13.885 45.991 13.172 46.743 12.887 48.696 12.887 49.147 12.745 49.598 12.745 49.898 12.745 51.401 12.887 51.852 12.887 53.505 12.745 53.655 12.745 53.805 12.745 54.106 12.46 55.308 11.89 55.007 11.89 55.007 10.892 54.707 12.175 51.852 10.037 51.401 8.897 51.1 7.9 52.302 7.9 52.302 7.9 52.302 7.187 53.054 6.902 55.007 6.902 55.458 6.902 55.909 6.76 56.21 6.76 57.712 6.902 58.163 6.902 59.816 6.902 59.966 6.76 60.117 6.76 60.417 6.617 61.619 5.905 61.319 5.905 61.319 4.907 61.018 6.19 58.163 4.052 57.712 2.912 57.412 1.915 58.614 1.915 58.614 1.915 58.614 1.202 59.365 0.917 61.319 L0.917 62.521 0.775 62.521 C0.775 63.122 0.775 63.573 0.917 64.024 Z M30.699 34.571 L30.699 35.172 C30.414 36.224 29.844 36.073 29.844 36.073 28.847 35.773 29.844 33.218 28.277 32.467 29.702 32.166 29.132 30.363 29.702 29.311 29.702 29.161 29.987 29.011 30.272 29.011 30.414 29.161 30.699 29.461 30.699 30.063 L30.699 30.363 C30.842 30.664 30.842 30.964 30.842 31.265 30.699 32.317 30.842 33.519 30.699 34.571 Z" fill="#9d9e9e" fill-opacity="1" stroke="none"/>
</svg>
