<svg width="95" height="61" viewBox="0 0 95 61" fill="none" xmlns="http://www.w3.org/2000/svg">
<path d="M69.8772 9.72444L69.343 9.49729L69.44 9.29295C70.1812 7.56584 69.3643 5.53811 67.6341 4.79919L65.7498 3.98176C63.9958 3.24562 61.9876 4.05911 61.2464 5.78622L61.1227 5.96954L60.5619 5.72138C59.5945 5.30355 58.4859 5.74662 58.0668 6.71235C57.8544 7.17141 57.8651 7.67681 58.0427 8.16273C58.212 8.57724 58.5188 8.92744 58.9043 9.12369L51.1439 27.1352C50.0047 29.8014 49.342 30.3372 49.0208 30.2782C45.2739 29.244 41.2908 31.1566 39.748 34.7143L32.134 52.3227C32.0004 52.6279 32.1374 52.9737 32.4431 53.1069C32.544 53.1434 32.6422 53.1561 32.7376 53.1449C32.9523 53.1199 33.1319 53.0024 33.2262 52.7743L40.8403 35.1659C42.1552 32.1413 45.5432 30.5153 48.7166 31.3994L48.7671 31.4176C50.3252 31.7182 51.3824 29.5923 52.2572 27.5601L60.0259 9.62002L67.4064 12.7874L59.5828 30.8787L59.5617 30.9053C59.4519 31.2076 59.3394 31.4861 59.2269 31.7646C58.5728 33.4092 57.8976 35.0804 59.2811 35.9563C62.072 37.7053 63.2126 41.2634 61.916 44.2376L61.6069 45.2158C61.4733 45.5209 61.6104 45.8668 61.916 46C62.2217 46.1332 62.5683 45.9962 62.7019 45.6911L63.011 44.7129C64.5355 41.2055 63.1978 36.9948 59.9121 34.9417C59.4172 34.6376 59.7437 33.7068 60.343 32.2134C60.4555 31.9348 60.5652 31.6325 60.6778 31.354L68.5197 13.2123C68.7959 13.3007 69.0666 13.3415 69.3289 13.3109C69.9729 13.2357 70.5779 12.8273 70.8634 12.1667C71.2642 11.2513 70.8208 10.1451 69.8772 9.72444ZM62.3148 6.24052C62.7887 5.12363 64.1065 4.60789 65.2492 5.07763L67.1335 5.89506C68.2552 6.39139 68.7952 7.70354 68.2973 8.82321L68.2003 9.02755L63.5174 7.0169L62.2205 6.46865L62.3148 6.24052ZM69.7501 11.7417C69.6742 11.9195 69.5422 12.0314 69.3808 12.0985C69.2194 12.1656 69.0258 12.1641 68.8478 12.0884L59.5563 8.08252C59.3783 8.0068 59.2662 7.87513 59.199 7.71408C59.1319 7.55304 59.1335 7.35984 59.2095 7.18209C59.2854 7.00434 59.4174 6.89243 59.5788 6.82533C59.6237 6.79596 59.6952 6.78761 59.7429 6.78204C59.8622 6.76812 59.9842 6.778 60.088 6.83826L60.6488 7.08643L62.9902 8.09175L69.3794 10.8441C69.7327 10.9717 69.902 11.3862 69.7501 11.7417Z" fill="#FEFEFE"/>
<path d="M60.9218 43.1728C61.362 42.1805 60.8514 40.9132 59.5105 39.5739C58.2789 38.3425 56.4748 37.1779 54.3886 36.2876C51.7947 35.1911 49.6487 35.0315 48.4947 35.9141C48.1409 36.1967 47.8908 36.5395 47.795 36.9609L46.913 39.1387C46.0359 38.2519 45.5964 37.3864 45.7471 36.8139C45.7444 36.7901 45.7654 36.7635 45.7627 36.7397C45.7599 36.7159 45.781 36.6894 45.802 36.6628C45.9173 36.408 45.7886 36.1336 45.56 36.0396C45.3049 35.9246 45.0298 36.0533 44.9356 36.2814C44.8962 36.3584 44.8807 36.4326 44.8652 36.5068L40.0001 49.0002C39.9086 49.2522 40.0135 49.5295 40.2659 49.6206C40.343 49.6599 40.4173 49.6753 40.5127 49.6642C40.6797 49.6447 40.8355 49.53 40.8904 49.3788L45.1718 38.3045C45.4237 38.8059 45.8243 39.3382 46.3707 39.8775C46.5067 40.0064 46.6426 40.1353 46.7785 40.2642C46.8079 40.309 46.8345 40.33 46.8878 40.3721C48.0733 41.4158 49.6854 42.3857 51.4688 43.1666C54.472 44.4566 57.3541 44.9163 59.1628 44.4639L57.7219 47.2377C57.6038 47.4686 57.6876 47.7725 57.9189 47.8902C58.1502 48.008 58.4547 47.9242 58.5728 47.6933L60.7067 43.6081C60.7855 43.4541 60.867 43.324 60.9218 43.1728ZM60.0343 42.818C60.016 42.8684 59.9739 42.9216 59.9345 42.9986L59.9134 43.0251C59.0861 44.0144 55.7743 44.015 51.8275 42.3045C50.2249 41.623 48.7937 40.7527 47.6964 39.8434L48.1437 38.7055C48.7835 39.8371 50.2131 40.9006 52.1102 41.6201C55.7529 43.0042 57.7503 43.1329 58.227 42.0398C58.303 41.8621 58.365 41.5653 58.2224 41.1718C57.8139 40.158 56.0676 38.866 53.7261 37.8607C53.471 37.7458 53.1959 37.8744 53.1016 38.1025L52.0328 40.5434C49.7951 39.5984 48.8525 38.3573 48.7341 37.5509C48.7203 37.4319 48.7064 37.3129 48.7429 37.2121C48.7402 37.1883 48.7612 37.1617 48.7585 37.1379C48.8078 36.9391 48.9103 36.7824 49.09 36.6649C49.7316 36.1557 51.3856 36.035 54.0327 37.1735C55.9942 38.0302 57.7155 39.1079 58.8645 40.2525C59.8537 41.2709 60.3015 42.2078 60.0343 42.818ZM52.9204 40.8982L53.7769 38.9164C56.3313 40.0898 57.4437 41.3351 57.3578 41.6347C57.2819 41.8124 56.329 42.1408 52.9204 40.8982Z" fill="#FEFEFE"/>
<path fill-rule="evenodd" clip-rule="evenodd" d="M4.70189 52.5674C5.24208 52.1156 5.69672 51.6995 6.35994 51.1208C6.73539 50.8284 7.15255 50.5034 7.57394 50.2371C7.69908 50.1396 7.86806 50.0389 8.03704 49.9383C9.00498 49.3082 9.78549 49.1339 10.2365 49.2783C10.865 49.4394 10.978 49.7851 10.8302 50.1791C10.1492 51.7322 6.21183 53.3431 9.16944 55.2529C10.1909 55.9754 11.7023 56.1613 13.2365 56.0506C15.9081 55.8284 17.9486 54.7966 19.7989 53.572C22.661 51.7142 23.1488 51.1483 24.7256 49.796C25.101 49.5035 25.5182 49.1786 25.8958 48.9154C26.0626 48.7854 26.2316 48.6848 26.3567 48.5873C27.3247 47.9572 28.1511 47.8091 28.6 47.9242C29.2306 48.1146 29.3437 48.4603 29.1499 48.8281C28.471 50.4105 24.5775 52.0183 27.4913 53.9313C28.5544 54.6213 30.068 54.8365 31.6 54.6965C34.2737 54.5036 36.3142 53.4718 38.1624 52.2179C41.0266 50.3894 41.5124 49.7941 43.0912 48.4712C43.4646 48.1494 43.8838 47.8538 44.2593 47.5613C44.4283 47.4606 44.5972 47.36 44.7224 47.2625C45.6903 46.6324 46.4708 46.4581 46.9657 46.5994C47.5963 46.7898 47.7072 47.1061 47.5155 47.5033C46.8366 49.0857 42.941 50.6642 45.8569 52.6065C46.9201 53.2965 48.4315 53.4823 49.9656 53.3716C52.5934 53.1526 54.636 52.1501 56.4863 50.9256C59.4318 49.0028 59.9197 48.4368 61.5403 47.0814C61.9136 46.7596 62.3329 46.4639 62.7105 46.2008C62.8773 46.0708 63.0025 45.9733 63.1715 45.8727C64.1394 45.2426 64.922 45.0976 65.4148 45.2095C66.0453 45.4 66.1146 45.7488 65.9646 46.1135C65.2857 47.6959 61.3922 49.3037 64.306 51.2166C65.3691 51.9066 66.8389 52.125 68.3709 51.985C71.0446 51.7921 73.1289 50.7571 74.9354 49.5357C77.7975 47.678 78.3271 47.0795 79.8621 45.7597C80.2793 45.4348 80.6547 45.1423 81.074 44.8466C81.1992 44.7491 81.3681 44.6485 81.5371 44.5478C82.505 43.9177 83.2856 43.7435 83.7804 43.8847C84.411 44.0751 84.4781 44.3947 84.3303 44.7887C83.6513 46.371 79.7119 47.9527 82.6716 49.8918C83.691 50.585 85.2024 50.7708 86.7365 50.6602C89.4082 50.438 91.4946 49.4323 93.2989 48.1816C94.8572 47.1845 95.7354 46.5314 96.4424 45.9496L93.7796 44.4609C93.0329 45.1045 92.3301 45.745 91.0284 46.6351C90.6905 46.8364 90.3963 47.0345 90.0563 47.2065C88.0639 48.2938 87.391 47.5167 87.391 47.5167C86.1978 46.2463 92.1741 44.1934 89.4499 41.8539C87.9916 40.5731 84.8399 40.8595 84.8399 40.8595C84.8399 40.8595 82.5585 40.9945 79.35 42.9363C78.5886 43.3746 77.9565 43.774 77.4538 44.1347C75.3991 45.5804 75.0158 46.3747 72.6628 47.9599C72.3248 48.1612 72.0307 48.3593 71.6927 48.5606C69.7421 49.6155 69.0274 48.8709 69.0274 48.8709C67.8322 47.5711 73.8544 45.5444 71.128 43.1756C69.626 41.898 66.4743 42.1843 66.4743 42.1843C66.4743 42.1843 64.1929 42.3194 60.9844 44.2611C60.2229 44.6994 59.5929 45.1282 59.0902 45.4888C57.0773 46.902 56.6502 47.6995 54.2993 49.314C53.9613 49.5153 53.6233 49.7167 53.2415 49.9211C51.293 51.0053 50.5784 50.2607 50.5784 50.2607C49.4269 48.9578 55.4032 46.9048 52.679 44.5654C51.1769 43.2878 48.0252 43.5741 48.0252 43.5741C48.0252 43.5741 45.7438 43.7092 42.5353 45.651C41.8177 46.0861 41.1856 46.4855 40.6829 46.8462C38.6282 48.2918 38.2449 49.0862 35.8481 50.6745C35.5539 50.8727 35.216 51.074 34.878 51.2753C32.9273 52.3301 32.2127 51.5855 32.2127 51.5855C31.0613 50.2826 37.0397 48.259 34.3133 45.8902C32.8551 44.6094 29.6596 44.8989 29.6596 44.8989C29.6596 44.8989 27.3782 45.034 24.1697 46.9758C23.452 47.4109 22.8221 47.8397 22.3193 48.2003C20.2626 49.6167 19.8793 50.411 17.4845 52.0287C17.1904 52.2268 16.8503 52.3988 16.5124 52.6001C14.5617 53.655 13.8909 52.9072 13.8909 52.9072C12.6978 51.6368 18.674 49.5838 15.9477 47.215C14.4915 45.9636 11.296 46.2531 11.296 46.2531C11.296 46.2531 9.01464 46.3882 5.84785 48.2974C5.0885 48.765 4.45641 49.1645 3.9537 49.5251C3.11304 50.0871 2.57496 50.5682 2.03689 51.0493L4.70189 52.5674Z" fill="#FEFEFE" fill-opacity="0.8"/>
</svg>
