<svg width="35" height="35" viewBox="0 0 35 35" fill="none" xmlns="http://www.w3.org/2000/svg">
<path d="M17.5 35C7.83504 35 0 27.165 0 17.5C0 7.83504 7.83504 0 17.5 0C27.165 0 35 7.83504 35 17.5C34.9891 27.1604 27.1604 34.9891 17.5 35ZM17.5 1.16667C8.47933 1.16667 1.16667 8.47933 1.16667 17.5C1.16667 26.5207 8.47933 33.8333 17.5 33.8333C26.5207 33.8333 33.8333 26.5207 33.8333 17.5C33.8231 8.48363 26.5164 1.17695 17.5 1.16667Z" fill="white"/>
<path d="M25.2217 18.0147H12.868C12.5837 18.0147 12.3533 17.7842 12.3533 17.5C12.3533 17.2157 12.5837 16.9852 12.868 16.9852H25.2217C25.5059 16.9852 25.7364 17.2157 25.7364 17.5C25.7364 17.7842 25.5059 18.0147 25.2217 18.0147Z" fill="white"/>
<path d="M25.2217 23.162H12.868C12.5837 23.162 12.3533 22.9316 12.3533 22.6473C12.3533 22.363 12.5837 22.1326 12.868 22.1326H25.2217C25.5059 22.1326 25.7364 22.363 25.7364 22.6473C25.7364 22.9316 25.5059 23.162 25.2217 23.162Z" fill="white"/>
<path d="M25.2217 12.8674H12.868C12.5837 12.8674 12.3533 12.637 12.3533 12.3527C12.3533 12.0684 12.5837 11.838 12.868 11.838H25.2217C25.5059 11.838 25.7364 12.0684 25.7364 12.3527C25.7364 12.637 25.5059 12.8674 25.2217 12.8674Z" fill="white"/>
<path d="M10.809 12.8674H9.77951C9.49524 12.8674 9.26477 12.637 9.26477 12.3527C9.26477 12.0684 9.49524 11.838 9.77951 11.838H10.809C11.0932 11.838 11.3237 12.0684 11.3237 12.3527C11.3237 12.637 11.0932 12.8674 10.809 12.8674Z" fill="white"/>
<path d="M10.809 18.0147H9.77951C9.49524 18.0147 9.26477 17.7842 9.26477 17.5C9.26477 17.2157 9.49524 16.9852 9.77951 16.9852H10.809C11.0932 16.9852 11.3237 17.2157 11.3237 17.5C11.3237 17.7842 11.0932 18.0147 10.809 18.0147Z" fill="white"/>
<path d="M10.809 23.162H9.77951C9.49524 23.162 9.26477 22.9316 9.26477 22.6473C9.26477 22.363 9.49524 22.1326 9.77951 22.1326H10.809C11.0932 22.1326 11.3237 22.363 11.3237 22.6473C11.3237 22.9316 11.0932 23.162 10.809 23.162Z" fill="white"/>
</svg>
