<svg width="32" height="32" viewBox="0 0 32 32" fill="none" xmlns="http://www.w3.org/2000/svg">
<path d="M9.01301 6.04567L6.70532 3.85944C5.36929 4.8311 4.27617 5.92422 3.30451 7.26025L5.73366 9.6894C5.00491 10.7825 4.51908 11.9971 4.15471 13.3331H0.753901C0.632444 14.1833 0.510986 15.155 0.510986 16.1266C0.510986 16.8554 0.510986 17.4627 0.632444 18.1914H4.03325C4.27617 19.6489 4.762 20.8635 5.49074 22.0781L3.06159 24.5072C3.9118 25.8432 5.12637 27.0578 6.34095 28.0295L8.64864 25.6003C9.86321 26.4505 11.1992 27.0578 12.6567 27.4222V30.823C13.5069 30.9445 14.4786 31.0659 15.4503 31.0659C16.179 31.0659 16.7863 31.0659 17.515 30.9445V27.5437C19.094 27.3007 20.5515 26.6934 21.8875 25.8432L24.3167 28.2724C25.6527 27.3007 26.7458 26.2076 27.7175 24.8716L25.2883 22.4424C26.1385 21.1064 26.7458 19.6489 26.9887 18.07H30.3895C30.511 17.4627 30.511 16.7339 30.511 16.0052C30.511 15.0335 30.3895 14.1833 30.2681 13.2117H26.7458C26.3814 11.7542 25.7741 10.4181 24.9239 9.20357L27.3531 6.77442C26.3814 5.55984 25.1669 4.34527 23.8308 3.49507L21.4017 5.92422C20.1871 5.19547 18.8511 4.70964 17.515 4.46673V1.18738C16.9077 1.06592 16.179 1.06592 15.4503 1.06592C14.4786 1.06592 13.6284 1.18738 12.6567 1.30883V4.70964C3.54742 10.1752 6.70532 22.6854 15.3288 22.5639C18.0009 22.5639 20.5515 21.5922 22.2519 19.5275C23.8308 17.7056 24.1952 15.2764 23.5879 13.2117C23.5879 12.9688 23.4665 12.8473 23.345 12.6044C22.009 9.08211 18.1223 6.89588 14.843 7.62462C12.0494 8.35337 9.98467 11.1469 11.3207 14.0619C12.2924 16.2481 14.843 17.3412 17.0292 16.491C18.3652 16.0052 18.9725 14.5477 18.3652 13.2117C18.0009 12.4829 17.3936 11.9971 16.6648 11.7542" stroke="#9D9E9E" stroke-miterlimit="22.9256"/>
</svg>
