<svg width="20" height="20" viewBox="0 0 20 20" fill="none" xmlns="http://www.w3.org/2000/svg">
<path fill-rule="evenodd" clip-rule="evenodd" d="M9.92716 0C12.6584 0 15.1271 1.11111 16.9655 2.91005C18.7513 4.7619 19.8543 7.24868 19.8543 10C19.8543 12.7513 18.7513 15.2381 16.9655 17.0899C15.1271 18.8889 12.6584 20 9.92716 20C7.19588 20 4.72722 18.8889 2.88886 17.0899C1.10302 15.2381 0 12.7513 0 10C0 7.24868 1.10302 4.7619 2.88886 2.91005C4.72722 1.11111 7.19588 0 9.92716 0ZM16.1251 3.75661C14.5493 2.16931 12.3433 1.16402 9.92716 1.16402C7.51102 1.16402 5.30499 2.16931 3.72925 3.75661C2.15351 5.34391 1.15554 7.56614 1.15554 10C1.15554 12.4339 2.15351 14.6561 3.72925 16.2434C5.30499 17.8307 7.51102 18.836 9.92716 18.836C12.3433 18.836 14.5493 17.8307 16.1251 16.2434C17.7008 14.6561 18.6988 12.4339 18.6988 10C18.6988 7.56614 17.7008 5.34391 16.1251 3.75661Z" fill="white"/>
<path fill-rule="evenodd" clip-rule="evenodd" d="M8.15914 5.62469L11.6336 9.99969L8.15914 14.3747C7.93747 14.6537 7.88042 15.0307 8.00947 15.3636C8.13852 15.6964 8.43407 15.9347 8.78478 15.9886C9.1355 16.0424 9.4881 15.9037 9.70976 15.6247L13.6806 10.6247C13.971 10.2594 13.971 9.74002 13.6806 9.37469L9.70976 4.37469C9.3671 3.94335 8.74219 3.87351 8.314 4.21869C7.88581 4.56386 7.81647 5.19335 8.15914 5.62469Z" fill="white"/>
</svg>
