<svg line="5" class="out_img_175" xmlns="http://www.w3.org/2000/svg"
     xmlns:xlink="http://www.w3.org/1999/xlink" viewBox="0 0 2690.25 800.36">
    <defs xmlns="http://www.w3.org/2000/svg"><style>.cls-1{isolation:isolate;}.cls-2{fill:#005ea8;}.cls-3{fill:#383c3d;}.cls-4{fill:#1f252f;}.cls-10,.cls-11,.cls-12,.cls-13,.cls-14,.cls-15,.cls-16,.cls-4,.cls-5,.cls-6,.cls-7,.cls-8,.cls-9{fill-rule:evenodd;}.cls-5{fill:#4c4f57;}.cls-6{fill:#3d414b;}.cls-46,.cls-52,.cls-7{fill:none;}.cls-7{stroke:#2d313e;stroke-linecap:round;stroke-linejoin:round;stroke-width:0.57px;}.cls-8{fill:#3c3f47;}.cls-9{fill:#282932;}.cls-10{fill:#8a8e99;}.cls-11{fill:#c6cfda;}.cls-12{fill:#4c535e;}.cls-13{fill:#282d39;}.cls-14{fill:#606671;}.cls-15{fill:#1a202c;}.cls-16{fill:#fff;}.cls-17,.cls-44{fill:#ebebeb;}.cls-18{fill:#d7d9dc;}.cls-19,.cls-30,.cls-31,.cls-32,.cls-37{opacity:0.17;}.Graphic-Style-11,.cls-19,.cls-28,.cls-30,.cls-31,.cls-32,.cls-34,.cls-35,.cls-37,.cls-38,.cls-39,.cls-40,.cls-41,.cls-42,.cls-43,.cls-44,.cls-45{mix-blend-mode:multiply;}.cls-19{fill:url(#linear-gradient);}.cls-20{fill:#363636;}.cls-21{fill:#2972b5;}.cls-22{fill:#003d73;}.cls-23{fill:#8dacd7;}.cls-24{fill:#1a171c;}.cls-25,.cls-45{fill:#d8d8d8;}.cls-26{fill:#a7a9ae;}.cls-27{fill:#2b2c7c;}.cls-29{fill:url(#linear-gradient-2);}.cls-30{fill:url(#linear-gradient-3);}.cls-31{fill:url(#linear-gradient-4);}.cls-32{fill:url(#linear-gradient-5);}.cls-33{fill:url(#linear-gradient-6);}.cls-34{opacity:0.33;fill:url(#linear-gradient-7);}.Graphic-Style-11,.cls-35{opacity:0.28;}.cls-36{fill:url(#linear-gradient-8);}.cls-37{fill:url(#linear-gradient-21);}.cls-38{opacity:0.45;fill:url(#linear-gradient-22);}.cls-39,.cls-40,.cls-41,.cls-42{opacity:0.34;}.cls-39{fill:url(#linear-gradient-23);}.Graphic-Style-11{fill:url(#linear-gradient-24);}.cls-40{fill:url(#linear-gradient-25);}.cls-41{fill:url(#linear-gradient-26);}.cls-42{fill:url(#linear-gradient-27);}.cls-43{fill:#a5a6a8;}.cls-47{fill:url(#linear-gradient-28);}.cls-48{opacity:0.59;fill:url(#linear-gradient-29);}.cls-49,.cls-50,.cls-51{mix-blend-mode:lighten;}.cls-49{fill:url(#linear-gradient-30);}.cls-50{fill:url(#linear-gradient-31);}.cls-51{fill:url(#linear-gradient-32);}.cls-52{stroke:#bababa;stroke-miterlimit:10;stroke-width:2.07px;}.cls-53{fill:#a1a1a5;}.cls-54{fill:#747378;}</style><linearGradient id="linear-gradient" x1="2071.69" y1="210.73" x2="2096.97" y2="529.47" gradientUnits="userSpaceOnUse"><stop offset="0.44" stop-color="#fff" stop-opacity="0"/><stop offset="0.52" stop-color="#a6a6a6" stop-opacity="0.35"/><stop offset="1"/></linearGradient><linearGradient id="linear-gradient-2" x1="1748.67" y1="147.92" x2="1750.13" y2="170.83" gradientUnits="userSpaceOnUse"><stop offset="0.33" stop-color="#fff" stop-opacity="0.55"/><stop offset="0.39" stop-color="silver" stop-opacity="0.66"/><stop offset="0.46" stop-color="#858585" stop-opacity="0.77"/><stop offset="0.53" stop-color="#545454" stop-opacity="0.85"/><stop offset="0.62" stop-color="#2f2f2f" stop-opacity="0.92"/><stop offset="0.71" stop-color="#141414" stop-opacity="0.96"/><stop offset="0.82" stop-color="#050505" stop-opacity="0.99"/><stop offset="1"/></linearGradient><linearGradient id="linear-gradient-3" x1="1423.34" y1="-170.83" x2="1499.49" y2="789.15" xmlns:xlink="http://www.w3.org/1999/xlink" xlink:href="#linear-gradient"/><linearGradient id="linear-gradient-4" x1="1558.84" y1="97.41" x2="1566.23" y2="190.55" xmlns:xlink="http://www.w3.org/1999/xlink" xlink:href="#linear-gradient"/><linearGradient id="linear-gradient-5" x1="1270.15" y1="117.56" x2="1272.95" y2="152.92" xmlns:xlink="http://www.w3.org/1999/xlink" xlink:href="#linear-gradient"/><linearGradient id="linear-gradient-6" x1="1179.58" y1="126.79" x2="1196.51" y2="391.88" gradientUnits="userSpaceOnUse"><stop offset="0" stop-color="#fff" stop-opacity="0.55"/><stop offset="0.05" stop-color="#efefef" stop-opacity="0.58"/><stop offset="0.37" stop-color="#898989" stop-opacity="0.76"/><stop offset="0.65" stop-color="#3f3f3f" stop-opacity="0.89"/><stop offset="0.87" stop-color="#111" stop-opacity="0.97"/><stop offset="1"/></linearGradient><linearGradient id="linear-gradient-7" x1="47.23" y1="508.55" x2="46.31" y2="599.19" gradientUnits="userSpaceOnUse"><stop offset="0.17" stop-color="#fff" stop-opacity="0"/><stop offset="0.28" stop-color="#a6a6a6" stop-opacity="0.35"/><stop offset="1"/></linearGradient><linearGradient id="linear-gradient-8" x1="1257.44" y1="434.15" x2="1761.25" y2="1083.4" gradientUnits="userSpaceOnUse"><stop offset="0"/><stop offset="0.67" stop-color="#e6e6e6" stop-opacity="0.1"/><stop offset="0.7" stop-color="#fff" stop-opacity="0"/><stop offset="1"/></linearGradient><linearGradient id="linear-gradient-21" x1="1762.76" y1="133.27" x2="1762.07" y2="200.61" xmlns:xlink="http://www.w3.org/1999/xlink" xlink:href="#linear-gradient"/><linearGradient id="linear-gradient-22" x1="1721" y1="146.66" x2="1681.41" y2="306.04" gradientUnits="userSpaceOnUse"><stop offset="0.49" stop-color="#fff"/><stop offset="0.5" stop-color="#f1f1f1"/><stop offset="0.54" stop-color="#bfbfbf"/><stop offset="0.58" stop-color="#919191"/><stop offset="0.62" stop-color="#6a6a6a"/><stop offset="0.66" stop-color="#494949"/><stop offset="0.71" stop-color="#2e2e2e"/><stop offset="0.76" stop-color="#1a1a1a"/><stop offset="0.82" stop-color="#0b0b0b"/><stop offset="0.89" stop-color="#030303"/><stop offset="1"/></linearGradient><linearGradient id="linear-gradient-23" x1="520.71" y1="204.41" x2="740.45" y2="405.71" gradientUnits="userSpaceOnUse"><stop offset="0" stop-color="#fff" stop-opacity="0"/><stop offset="0.13" stop-color="#a6a6a6" stop-opacity="0.35"/><stop offset="0.96"/></linearGradient><linearGradient id="linear-gradient-24" x1="2159.16" y1="236.84" x2="2361.84" y2="498.03" xmlns:xlink="http://www.w3.org/1999/xlink" xlink:href="#linear-gradient-8"/><linearGradient id="linear-gradient-25" x1="457.33" y1="245.33" x2="513" y2="307.22" xmlns:xlink="http://www.w3.org/1999/xlink" xlink:href="#linear-gradient-23"/><linearGradient id="linear-gradient-26" x1="792.48" y1="191.55" x2="815.95" y2="245.42" gradientUnits="userSpaceOnUse"><stop offset="0" stop-color="#fff" stop-opacity="0"/><stop offset="0.05" stop-color="#a6a6a6" stop-opacity="0.35"/><stop offset="0.4"/></linearGradient><linearGradient id="linear-gradient-27" x1="482.07" y1="303.31" x2="541.73" y2="440.25" xmlns:xlink="http://www.w3.org/1999/xlink" xlink:href="#linear-gradient-26"/><linearGradient id="linear-gradient-28" x1="1423.87" y1="144.85" x2="1320.2" y2="-26.77" gradientUnits="userSpaceOnUse"><stop offset="0" stop-color="#1db6ff" stop-opacity="0.3"/><stop offset="1" stop-color="#1db6ff"/></linearGradient><linearGradient id="linear-gradient-29" x1="1511.38" y1="355.97" x2="1307.1" y2="17.76" xmlns:xlink="http://www.w3.org/1999/xlink" xlink:href="#linear-gradient-28"/><linearGradient id="linear-gradient-30" x1="1696.66" y1="259.4" x2="1562.32" y2="113.09" gradientUnits="userSpaceOnUse"><stop offset="0" stop-color="#fff" stop-opacity="0"/><stop offset="1" stop-color="#fff" stop-opacity="0.7"/></linearGradient><linearGradient id="linear-gradient-31" x1="1632.18" y1="270.25" x2="1489.23" y2="114.56" xmlns:xlink="http://www.w3.org/1999/xlink" xlink:href="#linear-gradient-30"/><linearGradient id="linear-gradient-32" x1="1415.56" y1="281.05" x2="1303.09" y2="158.55" xmlns:xlink="http://www.w3.org/1999/xlink" xlink:href="#linear-gradient-30"/></defs>
    <g xmlns="http://www.w3.org/2000/svg" class="cls-28"><path class="cls-33" d="M1180.74,178.69c-5.48,1.23-12.57,2.86-16.55,3.67q-4.25-10-7.59-19.92c-.22-.62-.77-.82-1.58-.67-15.82-2.17-35.36,14.38-45.38,32.39-50.28,11.31-107.85,25.3-127.3,32.61l-4.11,4.68a211,211,0,0,0,13.21,22.31c5.2,0,32.1-.15,66.3-.39a422.74,422.74,0,0,0-46.52,35.4c-44.26,1.87-104.84,6.37-170.79,13.88-10.19-19.86-32.46-24.41-65.15-24.41a308.26,308.26,0,0,0-50.85,4.53c-.37.05-.74.13-1.09.18a818.76,818.76,0,0,0-36.12-77.62L687,205c-5.39-10-20.41-23.93-30.43-26.87-.4-1.69.68,1.69,0,0,31.6.2,86.07,2.26,110.18,3.38C847,161.1,967.24,136,1118.05,133.05q13.9-.21,28.26-.22h30.38a34.42,34.42,0,0,0-2.6,6.74,26,26,0,0,0-.91,8.9C1173.52,152.63,1170.93,156.31,1180.74,178.69Zm27.51,73.38c.18,1.57.3,3.09.38,4.53,3.81,5.2,10.64,13.69,15.75,19.73l10.49-.07c-5.34-8.71-10.2-16.8-14.65-24.31C1216.22,252,1212.23,252,1208.25,252.07Zm129.62-118.21c-25.48-.45-62.65-.71-98.19-.86,1.14,2.44,2.31,4.86,3.52,7.29,1.73,3.47,3.54,7,5.41,10.41A52,52,0,0,1,1263.8,157q24.18-8.27,49.11-15.81Q1325.32,137.45,1337.87,133.86Zm-240,119.23h0c-13.73,8.34-26.09,16.5-37.11,24.34l67-.45c-3.12-5.5-8.57-14.83-13.37-24C1104.71,253,1098.74,253.09,1097.9,253.09Zm309.5-117.6,9,7.94L1454.3,177c17.49,1.3,35,2.84,52.43,4.49l10.83,5c-2.52,11.42-7.22,23.4-12.91,35.07l59.48,52.59,29.38-.2,55.83-112.46c12.61.36,21.86,2.23,44.7,3.18l2.19-9.91v0c3.93.18,7.76.37,11.49.53l-4.67-3.17C1618.73,145.55,1481.12,137.64,1407.4,135.49Zm83,111.91c-45.5,2.51-89.25,3.58-124,4.23-2.34,7.36-6.07,18.46-8.73,23.82l173.83-1.18-37.59-32.84C1492.76,243.46,1491.58,245.45,1490.41,247.4Zm-111-106c-36.57,9-70.44,19-101.64,29.64.59.91,1.12,1.83,1.62,2.76h0c19.93-1.27,36.92-1.82,53.29-1.82,28.19,0,56.4.94,84.6,2.52Z"/></g>
    <g xmlns="http://www.w3.org/2000/svg" id="буквы"><path class="cls-17" d="M981.78,397.29a24,24,0,0,0,8.41,1.58c3,0,4.42-.79,4.42-2.06s-1.44-1.92-5.09-2.9c-5.48-1.54-9.13-3.86-9.13-7.62,0-4.47,4.85-7.92,13-7.92a27.07,27.07,0,0,1,8.75,1.27l-1.83,5.45a20.75,20.75,0,0,0-7-1.2c-2.65,0-4.09.75-4.09,1.87,0,1.28,1.73,1.77,5.82,3,5.81,1.69,8.41,4.09,8.41,7.62,0,4.36-4.33,8.08-13.8,8.08a28.44,28.44,0,0,1-9.51-1.54Z"/><path class="cls-17" d="M1051.9,378.74h8.7v19.64H1073v5.67H1051.9Z"/><path class="cls-17" d="M1129.7,378.74v25.31H1121V378.74Z"/><path class="cls-17" d="M1179.39,379.12a81.28,81.28,0,0,1,10.34-.57c6.2,0,10.14.79,13.31,2.52a10.47,10.47,0,0,1,5.87,9.73,11.64,11.64,0,0,1-5.63,10.44c-3.55,2.17-8.89,3.11-15.23,3.11a66.71,66.71,0,0,1-8.66-.45Zm8.7,19.9a13,13,0,0,0,1.83.08c5.62.07,9.81-2.37,9.81-8.08,0-4.95-3.8-7.28-9-7.28a16.75,16.75,0,0,0-2.65.15Z"/><path class="cls-17" d="M1277.58,393.84H1266v4.66h13v5.55h-21.72V378.74h21v5.56H1266v4.06h11.63Z"/><path class="cls-17" d="M1327.51,379.12a89.88,89.88,0,0,1,10.48-.57c5,0,8.51.53,11,2a6.07,6.07,0,0,1,3.17,5.49c0,3.15-3,5.37-5.53,6.12v.11c2.12.75,3.32,2.37,4.14,4.55,1,2.59,2,6.27,2.64,7.24h-8.84a25.5,25.5,0,0,1-2.26-5.86c-.87-3-2.07-3.64-4.76-3.64h-1.4v9.5h-8.6Zm8.6,10.55h2.26c3.27,0,5.15-1.24,5.15-3.12s-1.59-3-4.47-3a18.62,18.62,0,0,0-2.94.15Z"/><path class="cls-17" d="M1454.72,385.61h-.09l-6.16,2.18-1.39-5.07,8.94-3.08h7.07v24.41h-8.37Z"/><path class="cls-17" d="M1505.57,379.23c7.93,0,11,3.46,11,6.38,0,2.11-1.54,4.14-4.33,5.26V391c2.69.79,5.53,2.74,5.53,6,0,4.5-4.81,7.55-12.59,7.55-8.61,0-12.12-3.68-12.12-6.84,0-2.93,2.07-4.84,5.29-6v-.07c-2.84-1.24-4.33-3.2-4.33-5.34,0-4.24,5-7,11.54-7Zm-.1,20.65c2,0,3.41-1.08,3.41-2.51,0-1.77-1.77-3-4-3.42-1.88.38-3,1.5-3,3s1.44,2.92,3.55,2.92Zm-.24-16.14c-2.07,0-3.07,1.09-3.07,2.36s1.68,2.26,3.74,2.78a2.94,2.94,0,0,0,2.5-2.51c0-1.32-1-2.63-3.12-2.63Z"/><path class="cls-17" d="M1553.53,404.47c-8.94,0-12.26-6.16-12.26-12.58,0-6.61,3.51-12.66,12.31-12.66,9.13,0,12.25,6.35,12.25,12.58,0,7.21-3.89,12.66-12.25,12.66Zm.1-5.07c2.21,0,3.55-2.29,3.55-7.55s-1.29-7.51-3.6-7.51-3.65,2.25-3.65,7.51,1.39,7.55,3.65,7.55Z"/></g>
    <path xmlns="http://www.w3.org/2000/svg" class="cls-39" d="M775.28,278.24a308.36,308.36,0,0,0-50.85,4.53l-1.09.19a817.78,817.78,0,0,0-36.12-77.63L687,205c-6.63-12.27-16.92-26.87-30.44-26.87-2.1,0-4.89-.48-7.14.06-42.13,33.68-155.57,144.65-168.16,159-6.14,4.75-8.82,13.78-8.88,20.9h0c15.65,1.86,33,4.06,51.21,6.51,47.89-16,105.29-29.25,164.85-40,50.62-9.1,102.77-16.37,151.95-22C830.25,282.78,808,278.24,775.28,278.24Z"/>
    <path xmlns="http://www.w3.org/2000/svg" class="cls-41" d="M848.18,187.94a112.48,112.48,0,0,1-7.78,14.7c-29.61,8.16-58.86,17.73-86.29,31.48h0a26.33,26.33,0,0,1-3.65-9.2C781.27,207.15,811.78,194.25,848.18,187.94Z"/>
    <g xmlns="http://www.w3.org/2000/svg" id="стекло_2" data-name="стекло 2"><path class="cls-46" d="M1679.66,135.66l-.55,0"/><path class="cls-47" d="M1432.74,27.28c-63,8-139.15,30.61-195.49,55.1-27.27,11.85-48,25-64.14,35.43.06.15,1.59.37,15.3.5,0,0,16.51-16.83,30.65-12.81,10,2.84,11.92,6.88,14.52,13.54,46.37.38,109.05.46,153.77,1.59,44-11,88.32-20.23,131.38-27.36Zm83.79-6.85a517.08,517.08,0,0,0-51.87,2.8l84.12,65.36q12.83-1.87,25.43-3.48c5.56-19.67,9-39.78,11.72-60.06A488.63,488.63,0,0,0,1516.53,20.43Z"/><path class="cls-46" d="M1705.11,271.4c.05.21.08.26.08.13"/><path class="cls-48" d="M1679.12,135.62l-77.95-53.33c-1,4.84-2.06,9.36-3.09,13.24l-3.1,9.93q-34,3.24-66,7.63-3.67.5-7.33,1c-2.43.34-4.86.69-7.27,1l-7.23,1.07-7.71,1.19q-8.84,1.38-17.49,2.84l-4.2.71-5.93,1q-33.76,5.93-65,13l157.32,139.09,30.25-.2,44.59-.3c5.55.09,11.16.11,16.76.07,16.77-.13,33.59-.87,49.38-2.23,38.86-3.36,71.48-10.5,81.66-21.64a37,37,0,0,0,7.56-13.93c1.33-3.44,2.79-8.18,4.18-18.52Zm109.55,14.28-2.5-6.47S1612.55,20.07,1611.64,19.84l-1,7.44-.34,2.38L1794.1,162A69.2,69.2,0,0,0,1788.67,149.9Zm-409.24-8.49q-14.15,3.48-27.76,7.17l-.11,0q-3.84,1-7.64,2.09l-5.8,1.62c-129.52,36.54-221.08,85-277.34,125.11l291.94-1.95,54.79-.37,18.83-.13,17.38-.11,87.8-.59Zm417.84,32.39-188.53-134c-1.4,9-3.48,21.62-5.78,33.59l196.55,133.19A131.42,131.42,0,0,0,1797.27,173.8Z"/><path class="cls-49" d="M1579.25,107,1709.65,271c-7.54.72-15.33,1.29-23.27,1.72L1557.52,109.47C1564.69,108.62,1572,107.82,1579.25,107Z"/><path class="cls-50" d="M1471.83,122l122.55,151.86,44.59-.3c5.55.1,11.15.12,16.76.08L1529,113.09Q1499.58,117.11,1471.83,122Z"/><path class="cls-51" d="M1351.67,148.58l-.11,0q-3.84,1-7.64,2.09l-5.8,1.62L1426.34,275l17.38-.11Zm-29,8.24q-19.62,5.81-38,12l68.09,106.7,54.79-.37Z"/></g>
</svg>