<svg xmlns="http://www.w3.org/2000/svg" xmlns:xlink="http://www.w3.org/1999/xlink" viewBox="0 0 2690.25 800.36"><defs><style>.cls-1{isolation:isolate;}.cls-2{fill:#005ea8;}.cls-3{fill:#ebedf0;}.cls-4{fill:#383c3d;}.cls-5{fill:#a7a9ae;}.cls-6{fill:#1f252f;}.cls-10,.cls-11,.cls-12,.cls-13,.cls-14,.cls-15,.cls-16,.cls-17,.cls-18,.cls-6,.cls-7,.cls-8,.cls-9{fill-rule:evenodd;}.cls-7{fill:#4c4f57;}.cls-8{fill:#3d414b;}.cls-46,.cls-52,.cls-9{fill:none;}.cls-9{stroke:#2d313e;stroke-linecap:round;stroke-linejoin:round;stroke-width:0.57px;}.cls-10{fill:#3c3f47;}.cls-11{fill:#282932;}.cls-12{fill:#8a8e99;}.cls-13{fill:#c6cfda;}.cls-14{fill:#4c535e;}.cls-15{fill:#282d39;}.cls-16{fill:#606671;}.cls-17{fill:#1a202c;}.cls-18{fill:#fff;}.cls-19{fill:#ebebeb;}.cls-20{fill:#d7d9dc;}.cls-21{fill:#d8d8d8;}.cls-22{fill:#a5a6a8;}.cls-23,.cls-36,.cls-37,.cls-38,.cls-43{opacity:0.17;}.cls-23,.cls-34,.cls-36,.cls-37,.cls-38,.cls-40,.cls-41,.cls-43,.cls-44,.cls-45{mix-blend-mode:multiply;}.cls-23{fill:url(#linear-gradient);}.cls-24{fill:#909193;}.cls-25{fill:#363636;}.cls-26{fill:#2972b5;}.cls-27{fill:#003d73;}.cls-28{fill:#a6a6a5;}.cls-29{fill:#8dacd7;}.cls-30{fill:#1a171c;}.cls-31{fill:#646363;}.cls-32{fill:#4a4a49;}.cls-33{fill:#2b2c7c;}.cls-35{fill:url(#linear-gradient-2);}.cls-36{fill:url(#linear-gradient-3);}.cls-37{fill:url(#linear-gradient-4);}.cls-38{fill:url(#linear-gradient-5);}.cls-39{fill:url(#linear-gradient-6);}.cls-40{opacity:0.33;fill:url(#linear-gradient-7);}.cls-41{opacity:0.28;}.cls-42{fill:url(#linear-gradient-8);}.cls-43{fill:url(#linear-gradient-19);}.cls-44{opacity:0.45;fill:url(#linear-gradient-20);}.cls-45{opacity:0.34;fill:url(#linear-gradient-21);}.cls-47{fill:url(#linear-gradient-22);}.cls-48{opacity:0.59;fill:url(#linear-gradient-23);}.cls-49,.cls-50,.cls-51{mix-blend-mode:lighten;}.cls-49{fill:url(#linear-gradient-24);}.cls-50{fill:url(#linear-gradient-25);}.cls-51{fill:url(#linear-gradient-26);}.cls-52{stroke:#bababa;stroke-miterlimit:10;stroke-width:2.07px;}.cls-53{fill:#a1a1a5;}.cls-54{fill:#747378;}.cls-55{fill:#6a777a;}</style><linearGradient id="linear-gradient" x1="2071.69" y1="210.73" x2="2096.97" y2="529.47" gradientUnits="userSpaceOnUse"><stop offset="0.44" stop-color="#fff" stop-opacity="0"/><stop offset="0.52" stop-color="#a6a6a6" stop-opacity="0.35"/><stop offset="1"/></linearGradient><linearGradient id="linear-gradient-2" x1="1748.67" y1="147.92" x2="1750.13" y2="170.83" gradientUnits="userSpaceOnUse"><stop offset="0.33" stop-color="#fff" stop-opacity="0.55"/><stop offset="0.39" stop-color="silver" stop-opacity="0.66"/><stop offset="0.46" stop-color="#858585" stop-opacity="0.77"/><stop offset="0.53" stop-color="#545454" stop-opacity="0.85"/><stop offset="0.62" stop-color="#2f2f2f" stop-opacity="0.92"/><stop offset="0.71" stop-color="#141414" stop-opacity="0.96"/><stop offset="0.82" stop-color="#050505" stop-opacity="0.99"/><stop offset="1"/></linearGradient><linearGradient id="linear-gradient-3" x1="1423.34" y1="-170.83" x2="1499.49" y2="789.15" xlink:href="#linear-gradient"/><linearGradient id="linear-gradient-4" x1="1558.84" y1="97.41" x2="1566.23" y2="190.55" xlink:href="#linear-gradient"/><linearGradient id="linear-gradient-5" x1="1270.15" y1="117.56" x2="1272.95" y2="152.92" xlink:href="#linear-gradient"/><linearGradient id="linear-gradient-6" x1="1175.43" y1="61.83" x2="1201.22" y2="465.64" xlink:href="#linear-gradient-2"/><linearGradient id="linear-gradient-7" x1="47.23" y1="508.55" x2="46.31" y2="599.19" gradientUnits="userSpaceOnUse"><stop offset="0.17" stop-color="#fff" stop-opacity="0"/><stop offset="0.28" stop-color="#a6a6a6" stop-opacity="0.35"/><stop offset="1"/></linearGradient><linearGradient id="linear-gradient-8" x1="1257.44" y1="434.15" x2="1761.25" y2="1083.4" gradientUnits="userSpaceOnUse"><stop offset="0"/><stop offset="0.67" stop-color="#e6e6e6" stop-opacity="0.1"/><stop offset="0.7" stop-color="#fff" stop-opacity="0"/><stop offset="1"/></linearGradient><linearGradient id="linear-gradient-19" x1="1762.76" y1="133.27" x2="1762.07" y2="200.61" xlink:href="#linear-gradient"/><linearGradient id="linear-gradient-20" x1="1721" y1="146.66" x2="1681.41" y2="306.04" gradientUnits="userSpaceOnUse"><stop offset="0.49" stop-color="#fff"/><stop offset="0.5" stop-color="#f1f1f1"/><stop offset="0.54" stop-color="#bfbfbf"/><stop offset="0.58" stop-color="#919191"/><stop offset="0.62" stop-color="#6a6a6a"/><stop offset="0.66" stop-color="#494949"/><stop offset="0.71" stop-color="#2e2e2e"/><stop offset="0.76" stop-color="#1a1a1a"/><stop offset="0.82" stop-color="#0b0b0b"/><stop offset="0.89" stop-color="#030303"/><stop offset="1"/></linearGradient><linearGradient id="linear-gradient-21" x1="581.32" y1="245.9" x2="780.61" y2="467.47" gradientUnits="userSpaceOnUse"><stop offset="0" stop-color="#fff" stop-opacity="0"/><stop offset="0.13" stop-color="#a6a6a6" stop-opacity="0.35"/><stop offset="0.96"/></linearGradient><linearGradient id="linear-gradient-22" x1="1423.87" y1="144.86" x2="1320.2" y2="-26.78" gradientUnits="userSpaceOnUse"><stop offset="0" stop-color="#1db6ff" stop-opacity="0.3"/><stop offset="1" stop-color="#1db6ff"/></linearGradient><linearGradient id="linear-gradient-23" x1="1511.38" y1="355.97" x2="1307.11" y2="17.77" xlink:href="#linear-gradient-22"/><linearGradient id="linear-gradient-24" x1="1696.66" y1="259.4" x2="1562.32" y2="113.09" gradientUnits="userSpaceOnUse"><stop offset="0" stop-color="#fff" stop-opacity="0"/><stop offset="1" stop-color="#fff" stop-opacity="0.7"/></linearGradient><linearGradient id="linear-gradient-25" x1="1632.18" y1="270.25" x2="1489.23" y2="114.56" xlink:href="#linear-gradient-24"/><linearGradient id="linear-gradient-26" x1="1415.56" y1="281.04" x2="1303.1" y2="158.55" xlink:href="#linear-gradient-24"/></defs><g class="cls-1"><g id="Слой_2" data-name="Слой 2"><g id="_180" data-name="180"><path class="cls-2" d="M1517.56,186.39c-2.53,11.45-7.23,23.4-12.91,35.08l-44.84-39.64Q1488.73,183.78,1517.56,186.39Zm-174-8.82c-23,0-34.52,0-61.36,2.17,3.91,9.76,4.87,19.83,5.11,26.91,3.07,3.84,5.89,7.22,8.16,9.71a62.87,62.87,0,0,1,16.82-.14c3.63-1,7.17-2.22,10.55-2.22,9.5,0,19.31,2.15,27.75,7.36,21.13,5.25,18.51,13.21,18.07,23.09,0,0-.9,3-2.25,7.19,34.75-.65,78.49-1.74,124-4.24,1.18-2,2.36-3.94,3.54-6l-70.72-61.78C1396.68,178.34,1370.1,177.57,1343.56,177.57Zm-150.47,26.36q-5.34,2.35-10.53,4.72c18.9,10.16,24.23,29.55,25.72,43.71l12.15-.05C1208.63,232.41,1199.76,216.59,1193.09,203.93Zm-95.2,49.16,16.49-.12c-1.32-2.51-2.58-5-3.74-7.43Q1104.09,249.32,1097.89,253.09Zm-106.45.67c5.19,0,32.1-.16,66.3-.39,14.37-9.55,29.82-18.8,46.19-27.73a45.05,45.05,0,0,1,0-16.91,49.72,49.72,0,0,1,2.33-7.57c-51.44,10.74-109.27,23.71-128,30.29A210,210,0,0,0,991.44,253.76Z"/><path class="cls-3" d="M579.1,215.71l.27.34q-7,5.83-14,11.68h0c-56.51,17.92-145.55,51.72-192.9,80.18,18.76-19.42,89-53,136.24-69.61l5.15-1.79c8-2.79,16.08-5.47,24-8l5-1.61C555.45,222.82,567.7,219.08,579.1,215.71Z"/><path class="cls-4" d="M546.87,205.47c1.36,4.34,1.36,3.06,2.27,7.59-2.71.72-4.92,1-9.11,1.85-1.47.31-3.17.7-5.22,1.2-5.23,1.29-12.72,3.38-24.22,7.06q-2.55.81-5.37,1.74-2.5.81-5.23,1.72c-1-4.21-.9-2.71-1.9-6.92C513.37,211.48,529.87,207.71,546.87,205.47Z"/><path class="cls-4" d="M540,214.91c.2,1.15,1.67,7.21,2.83,11.94l-5,1.61h0c-1.22-4.81-2.79-11.14-3.07-12.35C536.86,215.61,538.56,215.22,540,214.91Z"/><path class="cls-4" d="M510.59,223.17c.27,1.54,1.95,8.13,3.27,13.33l-5.15,1.79c-1.37-5.18-3.14-11.87-3.49-13.38Q508,224,510.59,223.17Z"/><path class="cls-5" d="M565.37,227.72h0c-42.82,35.94-104.42,93-134.82,122.42-9.23-.57-59.37-34.49-58.09-42.25C419.82,279.44,508.86,245.64,565.37,227.72Z"/><path class="cls-6" d="M374.88,226.37c22,18.57,46.76,97.14,58.18,126.1,9.44,25-16,47.87-33.75,59L107.2,481.22,87.51,450.36a4,4,0,0,1-.73-2.66l-2-136.76,0-1.67,0-1.37c46.66-30.16,79.91-50.25,139.22-60.43,52.12-8.95,125-18,150.82-20.43C375,227,374.66,226.18,374.88,226.37Z"/><polygon class="cls-7" points="116.37 491.42 89.51 448.78 89.5 448.19 87.45 310.48 87.34 308.21 92.97 304.77 94.23 446.55 119.35 484.63 116.37 491.42"/><path class="cls-8" d="M197.32,171.81c71.91-9.83,143.53,26.24,177.27,54.3.33.29-.48.85-.14,1.13-.34,7.69-10.23,22-19.43,23.06-33.6,3.87-89.74-9.93-131.13-2.83-59.31,10.18-92.56,30.27-139.22,60.43l0-1.92C82.86,245,117.09,182.77,197.32,171.81Z"/><path class="cls-9" d="M88.17,448.84,404.79,381.5c10.61-6.62,20.71-35.62,23-39"/><path class="cls-10" d="M107.13,481s78.15,104.85,85.7,120.46,131.85-17,131.85-17L310,468.72c-1.17-9.27-1.77-7,5.18-13.3,27.19-24.71,34.11-40.77,68.27-56.69L175.11,461.26Z"/><path class="cls-11" d="M225.29,604.62c39.15-4.34,92.2-18.9,92.2-18.9l-28-112.59c-1.18-9.27-4-7.47,2.92-13.79,27.19-24.71,10.55-31.55,44.71-47.47L201,453.73c-17.38,5-45.28,15.17-30.63,41.39,4.82,11.85,51,98.32,51,98.32S223.27,598.36,225.29,604.62Z"/><path class="cls-6" d="M307.4,606c12.38-3,17.28-21.49,17.28-21.49-6.13-112.12-24.39-134.35,74-188.12,1.93-1.06,4.82-6.14,6.1-8.21L295,426.43C263.78,475.17,292.61,555.65,307.4,606Z"/><path class="cls-7" d="M220,230.55c27.21-6.05,49-9.13,63.59-11.57,3.75-3.41-11-.75-17.14-.46-42.11,2-100,23.34-112.26,30.13-9.21,5.1-11.85,8.28-11,10C163.85,250.08,192.17,236.73,220,230.55Z"/><path class="cls-9" d="M85.9,307.81c47.21-30.57,79-49.72,138.16-59.88,42.33-7.26,98.85,5.64,130.36,2.22,11.85-1.28,19.93-18.16,19.65-22.8"/><polygon class="cls-7" points="107.95 394.3 378.5 349.44 380.08 358.68 109.54 403.54 107.95 394.3"/><path class="cls-7" d="M135.42,362.61A13.86,13.86,0,0,1,115.94,366a14.26,14.26,0,0,1-3.38-19.7A13.86,13.86,0,0,1,132,342.91a14.23,14.23,0,0,1,3.38,19.7Zm-3-20.21a14.48,14.48,0,0,0-20.35,3.49,14.9,14.9,0,0,0,3.54,20.58A14.47,14.47,0,0,0,135.93,363a14.88,14.88,0,0,0-3.53-20.58Z"/><polygon class="cls-7" points="123.12 354.11 123.28 355.03 124.15 355.36 124.86 354.76 124.7 353.84 123.83 353.51 123.12 354.11"/><path class="cls-7" d="M124.22,351.64l-.34-2a.72.72,0,0,0-.28-.46.7.7,0,0,0-1.09.69l.34,2,.75.28Z"/><path class="cls-7" d="M120,356.89a.75.75,0,0,0-.25.48.82.82,0,0,0,.16.52.73.73,0,0,0,.48.25.68.68,0,0,0,.51-.16l1.51-1.27-.14-.8-.76-.29Z"/><path class="cls-7" d="M128.6,355.41h0l-1.85-.69-.61.52.13.8,1.85.69a.68.68,0,0,0,.54,0,.73.73,0,0,0,.36-.39.77.77,0,0,0,0-.54A.76.76,0,0,0,128.6,355.41Z"/><path class="cls-7" d="M135,358.68a.25.25,0,0,1-.12,0l-3.12-.06a.38.38,0,0,1-.21-.07.39.39,0,0,1-.13-.2,1,1,0,0,0-.34-.55,1.05,1.05,0,0,0-.6-.26,1,1,0,0,0-.63.13,2.8,2.8,0,0,1-1.13.34,2.71,2.71,0,0,1-1.16-.17l-1-.37,1,5.95-1.26.22L125.14,357l-.76-.28-.62.52,1.15,6.68-1.26.22-1-5.95-.81.68a2.76,2.76,0,0,1-2.21.6,1.08,1.08,0,0,0-.64.08,1.16,1.16,0,0,0-.48.45,1.1,1.1,0,0,0-.14.64.34.34,0,0,1,0,.22.33.33,0,0,1-.17.14l-2.93,1.09a.19.19,0,0,1-.13,0A.26.26,0,0,1,115,362a.29.29,0,0,1,0-.13.24.24,0,0,1,0-.12l1.6-2.71a.35.35,0,0,1,.17-.15.41.41,0,0,1,.22,0,1,1,0,0,0,.65,0,1.07,1.07,0,0,0,.72-1,2.9,2.9,0,0,1,.27-1.16,2.84,2.84,0,0,1,.72-.93l.81-.68-5.61-2.1.44-1.21,6.3,2.36.62-.52-.14-.8-6.29-2.36.44-1.21,5.6,2.1-.18-1.05a2.76,2.76,0,0,1,0-1.18,2.81,2.81,0,0,1,.54-1.06,1.1,1.1,0,0,0,.24-.61,1.11,1.11,0,0,0-.14-.64,1.14,1.14,0,0,0-.48-.44.41.41,0,0,1-.17-.15.36.36,0,0,1,0-.23l.51-3.11a.34.34,0,0,1,.06-.12l.12-.06a.3.3,0,0,1,.13,0,.43.43,0,0,1,.1.09l1.52,2.76a.35.35,0,0,1,0,.22.41.41,0,0,1-.1.21,1.07,1.07,0,0,0-.31.57,1.16,1.16,0,0,0,.08.66,1.13,1.13,0,0,0,.43.49,2.66,2.66,0,0,1,.86.81,2.94,2.94,0,0,1,.45,1.1l.17,1.05,4.59-3.85.82,1-5.15,4.32.14.8.75.29,5.15-4.33.82,1-4.58,3.85,1,.37a2.56,2.56,0,0,1,1,.64,2.77,2.77,0,0,1,.64,1,1.14,1.14,0,0,0,.4.52,1.13,1.13,0,0,0,.62.19,1.07,1.07,0,0,0,.62-.2.39.39,0,0,1,.21-.06.32.32,0,0,1,.21.08l2.41,2a.26.26,0,0,1,.07.11.2.2,0,0,1,0,.13.21.21,0,0,1-.08.11Zm-3.82-14.47a12.31,12.31,0,0,0-17.28,3,12.64,12.64,0,0,0,3,17.48,12.31,12.31,0,0,0,17.28-3,12.64,12.64,0,0,0-3-17.48Z"/><polygon class="cls-7" points="208.98 352.33 204.82 328.08 209.02 327.36 210.62 336.65 215.21 335.87 213.62 326.57 217.91 325.83 222.07 350.08 217.78 350.82 215.95 340.17 211.35 340.96 213.18 351.61 208.98 352.33"/><polygon class="cls-7" points="145.96 353.49 138.75 339.42 142.94 338.7 147.43 347.66 148.98 337.66 152.91 336.99 150.54 352.21 152.24 362.07 147.57 362.87 145.96 353.49"/><polygon class="cls-7" points="172.51 358.59 176.27 357.94 173.13 339.66 179.07 355.01 182.58 354.4 182.65 337.76 185.84 356.3 190.24 355.55 186.08 331.3 179.25 332.47 179.22 344.35 174.91 333.21 168.35 334.34 172.51 358.59"/><path class="cls-7" d="M227.81,339.13,227.73,328l3.6,10.54-3.52.61Zm2.89-15.49-6.49,1.11-.22,25,3.88-.66,0-5.8,4.83-.83,1.87,5.48,4.28-.73Z"/><path class="cls-7" d="M196,344.59l-.07-11.15L199.5,344l-3.52.6Zm2.89-15.49-6.49,1.11-.22,25,3.89-.67,0-5.8,4.83-.83,1.87,5.49,4.28-.74Z"/><path class="cls-7" d="M159.51,350.85l-.07-11.15L163,350.25l-3.52.6Zm2.89-15.49-6.49,1.11-.22,25,3.89-.67,0-5.8,4.83-.83,1.87,5.49,4.28-.74Z"/><path class="cls-12" d="M105.71,499.75s73.59,105.64,80.77,121.31,121.64-15.24,121.64-15.24l-26-106.77c-1.2-9.27,2.29-18.81,5.44-27.21,10.22-27.26,49.56-39.56,88.53-53.46L168.28,480.93Z"/><path class="cls-12" d="M350.52,249.76l.81.74c2.92,2.72,5.52,5.35,7.73,7.85C367.2,267.5,397.28,358.11,404,376c3.58,9.93,6.43,24.44-.4,32.21-3.16,3.6-7.3,4.08-11.62,5.39L105.78,500l-18.6-31a4.34,4.34,0,0,1-.71-2.66L82.81,329.77l0-1.67-.05-1.37c42.73-29.48,73.19-49.1,127.87-58.48C259.2,259.9,327.49,251.75,350.52,249.76Z"/><path class="cls-13" d="M189.63,616.37,90.68,467l0-.58-3.52-139L87,325.08l5.16-3.36L95,464.79,197.47,617.51C202.42,627.27,192.45,622.34,189.63,616.37Z"/><path class="cls-14" d="M323.18,253.16c.92,1.52,1.83,3,2.73,4.61C345.08,291,358.84,334,374.67,381c15.67,43.58-41.5,49.46-73.69,60.11L167.16,481.4c-47.74,14.5-51.43-46.7-53.35-83.07l-3.93-73.21c-.09-1.61-.19-3.23-.3-4.85v-.08q-.33-5-.39-10.06c30.94-20.17,58.56-34,101.56-41.42C246.35,262.6,292.78,256.59,323.18,253.16Z"/><path class="cls-14" d="M185.05,192.41c67-9,134.33,28.8,165.47,57.35-23,2-91.32,10.14-139.94,18.49-54.68,9.38-85.14,29-127.87,58.48l-.08-1.92C80.21,263.92,111,202.31,185.05,192.41Z"/><path class="cls-9" d="M87.77,467.4l284.47-75.7c11.54-3.07,23.55-6,33.22-11.15"/><path class="cls-8" d="M216.52,624.61c36.13-3.81,91.6-18.79,91.6-18.79L285,494.16c-1.2-9.26-2.77-19.35,3.58-25.57,24.8-24.3,56.21-34.77,87.58-50.21l-184,55.37c-16,4.81-41.65,14.55-27.77,40.89,4.62,11.89,48.42,98.77,48.42,98.77S214.57,618.35,216.52,624.61Z"/><path class="cls-15" d="M289.12,610.65c11.4-2.78,19-4.83,19-4.83-11.48-113-36.43-134.37,68-187.44L278.6,447.73C250.42,496,274.79,560.25,289.12,610.65Z"/><path class="cls-13" d="M201.51,250.12c44.74-10.44,72.64-10.18,72.31-16.6s-34.71-27-89.15-20.75S106,262.72,108.59,280,156.77,260.57,201.51,250.12Z"/><path class="cls-16" d="M206.72,251.32c48-10.88,77.79-11.17,77.55-17.31s-36.55-25.22-94.81-18.16-84.94,49.39-82.56,65.89S158.74,262.19,206.72,251.32Z"/><path class="cls-13" d="M206.72,251.31c25.07-5.68,45.17-8.47,58.62-10.72,3.43-3.35-10.21-.88-15.84-.67-38.9,1.44-92.1,22-103.36,28.6-8.45,5-10.84,8.11-10.08,9.89C155.13,270.07,181.13,257.12,206.72,251.31Z"/><path class="cls-17" d="M202.74,241c33.24-5.7,56.65-4.63,56.14-11s-34.42-11.77-67.6-7.07-51.3,20-50.13,28.68S169.5,246.74,202.74,241Z"/><path class="cls-9" d="M83.84,326.66c43.24-29.89,72.35-48.59,126.91-58,51.14-8.78,126.79-17.49,143-18.51"/><polygon class="cls-13" points="105.35 413.24 349.21 372.96 350.8 382.2 106.93 422.48 105.35 413.24"/><path class="cls-18" d="M130.32,382a12.09,12.09,0,0,1-18,3.09A15.13,15.13,0,0,1,109,365.36a12.1,12.1,0,0,1,18-3.08,15.12,15.12,0,0,1,3.38,19.7Zm-3.06-20.21A12.64,12.64,0,0,0,108.5,365,15.81,15.81,0,0,0,112,385.57a12.63,12.63,0,0,0,18.75-3.22,15.8,15.8,0,0,0-3.53-20.58Z"/><polygon class="cls-18" points="118.84 373.34 119 374.26 119.81 374.6 120.46 374.01 120.3 373.09 119.49 372.75 118.84 373.34"/><path class="cls-18" d="M119.82,370.89l-.33-2a.73.73,0,0,0-.27-.46.63.63,0,0,0-.49-.13.64.64,0,0,0-.41.28.78.78,0,0,0-.1.52l.34,2,.7.29Z"/><path class="cls-18" d="M116,376.07a.71.71,0,0,0-.23.48.78.78,0,0,0,.16.51.64.64,0,0,0,.44.26.58.58,0,0,0,.47-.15l1.38-1.25-.14-.8-.7-.29Z"/><path class="cls-18" d="M123.92,374.71h0l-1.71-.72-.57.51.14.81,1.72.71a.6.6,0,0,0,.49,0,.71.71,0,0,0,.33-.39.84.84,0,0,0,0-.54A.67.67,0,0,0,123.92,374.71Z"/><path class="cls-18" d="M129.83,378.05a.21.21,0,0,1-.11,0l-2.88-.1a.28.28,0,0,1-.2-.08.35.35,0,0,1-.12-.19,1.16,1.16,0,0,0-.32-.56,1,1,0,0,0-.56-.27,1,1,0,0,0-.58.12,2.27,2.27,0,0,1-1,.33,2.47,2.47,0,0,1-1.07-.18l-.92-.38,1,5.94-1.16.2-1.15-6.68L120,376l-.57.51,1.15,6.68-1.16.2-1-5.95-.74.67a2.33,2.33,0,0,1-2,.57.86.86,0,0,0-.59.08,1,1,0,0,0-.43.43,1.17,1.17,0,0,0-.12.64.33.33,0,0,1,0,.22.25.25,0,0,1-.16.14l-2.68,1.05a.13.13,0,0,1-.12,0,.19.19,0,0,1-.11-.07.25.25,0,0,1,0-.12.19.19,0,0,1,0-.13l1.44-2.68a.36.36,0,0,1,.16-.14.28.28,0,0,1,.2,0,1,1,0,0,0,.6,0,1,1,0,0,0,.48-.38,1.21,1.21,0,0,0,.18-.62,3,3,0,0,1,.23-1.15,2.65,2.65,0,0,1,.65-.92l.74-.67-5.21-2.17.39-1.2,5.85,2.44.57-.52-.14-.8-5.85-2.43.39-1.21,5.21,2.17-.18-1.05a2.93,2.93,0,0,1,0-1.18,2.75,2.75,0,0,1,.48-1,1.1,1.1,0,0,0,.22-.61,1.3,1.3,0,0,0-.14-.64,1.12,1.12,0,0,0-.45-.44.33.33,0,0,1-.15-.16.37.37,0,0,1,0-.23l.44-3.09a.18.18,0,0,1,0-.12.24.24,0,0,1,.11-.06.25.25,0,0,1,.12,0,.29.29,0,0,1,.09.1l1.44,2.77a.33.33,0,0,1,0,.22.34.34,0,0,1-.09.2,1.08,1.08,0,0,0-.27.57,1.19,1.19,0,0,0,.48,1.15,2.88,2.88,0,0,1,.81.82,3,3,0,0,1,.42,1.11l.18,1,4.18-3.78.77,1-4.7,4.24.14.81.7.29,4.7-4.25.77,1-4.18,3.78.92.38a2.67,2.67,0,0,1,.92.65,3,3,0,0,1,.6,1,1.1,1.1,0,0,0,.38.52.94.94,0,0,0,.57.2.84.84,0,0,0,.57-.19.36.36,0,0,1,.2-.06.34.34,0,0,1,.19.09l2.25,2a.19.19,0,0,1,.07.11.33.33,0,0,1,0,.14.25.25,0,0,1-.08.1Zm-3.71-14.48a10.73,10.73,0,0,0-15.94,2.73,13.42,13.42,0,0,0,3,17.48,10.75,10.75,0,0,0,15.94-2.73,13.42,13.42,0,0,0-3-17.48Z"/><polygon class="cls-18" points="198.17 372.68 194.01 348.43 197.88 347.76 199.47 357.06 203.71 356.33 202.12 347.04 206.07 346.36 210.24 370.61 206.28 371.29 204.45 360.64 200.22 361.37 202.04 372.01 198.17 372.68"/><polygon class="cls-18" points="139.94 373.02 133.09 358.88 136.96 358.22 141.22 367.21 142.53 357.26 146.15 356.64 144.16 371.8 145.85 381.66 141.55 382.4 139.94 373.02"/><polygon class="cls-18" points="164.55 378.45 168.01 377.86 164.87 359.57 170.56 374.96 173.8 374.4 173.65 357.81 176.83 376.34 180.89 375.64 176.73 351.39 170.43 352.48 170.56 364.33 166.43 353.16 160.38 354.2 164.55 378.45"/><path class="cls-18" d="M215.4,359.75l-.22-11.13,3.46,10.57-3.24.56Zm2.47-15.42-6,1,.13,24.95,3.58-.62-.11-5.79,4.45-.76,1.8,5.5,4-.68Z"/><path class="cls-18" d="M186.05,364.79l-.21-11.13,3.46,10.57-3.25.56Zm2.48-15.42-6,1,.12,24.94,3.58-.61-.11-5.79,4.46-.77,1.8,5.5,4-.68Z"/><path class="cls-18" d="M152.43,370.56l-.22-11.13L155.67,370l-3.24.56Zm2.47-15.42-6,1,.13,24.94,3.58-.61-.11-5.79,4.45-.77,1.8,5.5,4-.67Z"/><path class="cls-4" d="M2689.09,479.37c1.51,2.95,1.3,7,.72,10.73-159.18,58.11-358.77,61.43-696.06,61.43-123.14,0-663.28-9.3-767.94-10.55-357.9-4.28-726.69,41.85-1205.26,83.58l-9.68.84A150.61,150.61,0,0,1,0,613.44c488.59-42.19,862.8-89.7,1225.81-85.36,104.66,1.24,644.8,10.55,767.94,10.55C2329.5,538.63,2530.27,536.71,2689.09,479.37Z"/><path class="cls-19" d="M2686.61,477c.83.78,1.66,1.56,2.48,2.35-158.82,57.34-359.59,59.26-695.34,59.26-123.14,0-663.28-9.31-767.94-10.55C862.8,523.74,488.59,571.25,0,613.44L24.88,584c-2.24,7-4.18,14.38-5.91,22.45C480.36,566.23,839.63,520,1185.34,520.35h2.49q19.45,0,38.85.26c104.66,1.25,646,10.66,769.16,10.66,334.13,0,519.74,0,690.77-54.25Z"/><path class="cls-20" d="M2689.81,490.1c-.27,1.7-.62,3.31-.92,4.7q-13.48,5.25-27.34,10c-156.22,53.13-352,56.27-667.8,56.27-123.14,0-663.28-9.31-767.94-10.56-355.47-4.24-721.68,41.23-1195.5,82.74q-5-4.4-9.76-8.65h0C499.12,582.83,867.91,536.7,1225.81,541c104.66,1.25,644.8,10.55,767.94,10.55C2331,551.53,2530.63,548.21,2689.81,490.1Z"/><path class="cls-19" d="M2625.48,424.39,2581.86,415c.08-.61.18-1.41.39-2.62-15-5.36-30.2-9.36-46.18-9.63h0c-239-56.85-453-99.13-696.6-140-.86-22.29-3.6-67.39-10.64-74.1,206.66,15.65,545.62,97.18,744.88,198,5.29,3.19,9.43,5.88,12.39,8C2598.29,403.43,2611.61,413.41,2625.48,424.39ZM2250.35,279.52a43.86,43.86,0,0,0-2.16,5.61c5.43,8,13.24,21.2,27.84,50.69,12.53,2.39,117,24.93,156.48,34.86.59-1.54,1.2-3.07,1.82-4.61-9.46-16.14-20.44-29.17-35.22-40.54-41.17-14-140-43.21-148.7-46.14Zm5,52.86,1.86-6.49C2250.09,306,2243.8,294,2228,273.55c-87.67-22.49-150.52-36.53-223.16-49.93l-5.21,5.2,31.07,56.23,3.94.82Z"/><path class="cls-4" d="M2582.25,412.36c-.21,1.21-.31,2-.39,2.62a22,22,0,0,1-1.05,5.18c-2.75-.6-4.83-1.39-9-2.52-1.44-.4-3.13-.84-5.19-1.32-5.24-1.25-12.85-2.8-24.76-4.8l-5.58-.91-5.43-.85c.9-3.58.58-3.11,1.11-5.52.09-.41.21-.9.36-1.5,1.23,0,2.47,0,3.7,0h0C2552.05,403,2567.26,407,2582.25,412.36Z"/><path class="cls-4" d="M2571.85,417.64c-.51,1.66-3.54,14.44-4.21,17.24-1.69-.16-3.4-.34-5.13-.53l0-.31c.48-2.35,3.65-15.91,4.11-17.72C2568.72,416.8,2570.41,417.24,2571.85,417.64Z"/><path class="cls-4" d="M2541.9,411.52c-.72,2.34-4,17.19-4.67,19.68l-5.31-.74,0-.22c.56-2.34,3.79-17.29,4.37-19.63Z"/><path class="cls-19" d="M2536.06,402.73c-1.23,0-2.47,0-3.7,0-.15.6-.27,1.09-.36,1.5-237.94-51.14-449-94.68-679.49-124.89h0l-13-16.57C2083.1,303.6,2297,345.88,2536.06,402.73Z"/><path class="cls-4" d="M2533.55,349.85c-1.63,3.8-.87,2.92-2.93,6.57-2.3-1.11-4-2.24-7.38-4.12-1.19-.66-2.59-1.4-4.3-2.27-4.37-2.21-10.77-5.21-20.86-9.49q-2.23-1-4.73-2l-4.62-1.92c1.82-3.46,1-2.4,2.79-5.88C2506.92,334.13,2520.51,341.32,2533.55,349.85Z"/><path class="cls-4" d="M2523.24,352.3c-.7,1.18-2.47,3.91-3.58,5.85l-4.25-2c1.09-2,2.86-4.81,3.53-6.08C2520.65,350.9,2522.05,351.64,2523.24,352.3Z"/><path class="cls-21" d="M2519.66,358.15c23.78,11.43,41.93,21.23,54,28.5-199.26-100.79-538.22-182.32-744.88-198-5.82-4.62-9.47-7.47-13.87-11h0c311.38,27.35,548.87,110.2,675.13,166.77h0l4.47,2q11,5,20.85,9.67Z"/><path class="cls-4" d="M2498.08,340.54c-.94,1.58-2.43,4-3.52,5.9l-4.47-2h0c1-1.89,2.43-4.29,3.26-5.88Q2495.84,339.59,2498.08,340.54Z"/><path class="cls-22" d="M2434.33,366.07c-.62,1.54-1.23,3.07-1.82,4.61-39.44-9.93-144-32.47-156.48-34.86-14.6-29.49-22.41-42.67-27.84-50.69a43.86,43.86,0,0,1,2.16-5.61c7.87,10,18.32,25.12,31.54,51C2306.81,334.79,2352.42,343.12,2434.33,366.07Z"/><path class="cls-21" d="M2399.11,325.53c14.78,11.37,25.76,24.4,35.22,40.54-81.91-22.95-127.52-31.28-152.44-35.6-13.22-25.83-23.67-41-31.54-51l.06-.13C2259.09,282.32,2357.94,311.51,2399.11,325.53Z"/><path class="cls-23" d="M1654.72,333c495.71,7.35,753.84,43.13,860.18,86.27C2260.21,370.66,2009.5,355.43,1654.72,333Z"/><polygon class="cls-22" points="2257.17 325.89 2255.31 332.38 2034.66 285.88 2035.94 279.84 2257.17 325.89"/><path class="cls-21" d="M2257.17,325.89l-221.23-46.05-31.07-56.22c72.64,13.4,135.49,27.44,223.16,49.93C2243.8,294,2250.09,306,2257.17,325.89Zm-200.82-48.4,192.74,40.92c-5.46-13-10.93-25.57-24.94-42.46-76.16-20-134.94-33-195.46-44.85Z"/><path class="cls-24" d="M2249.09,318.41l-192.74-40.92-27.66-46.39C2089.21,243,2148,256,2224.15,276,2238.16,292.84,2243.63,305.38,2249.09,318.41Z"/><polygon class="cls-22" points="2004.87 223.62 2035.94 279.84 2034.66 285.88 2030.73 285.05 1999.66 228.82 2004.87 223.62"/><path class="cls-19" d="M1852.51,280c1.89,21,2.3,41.62.19,56.34-18.82-19.56-39-40.33-54.2-55.28,18.37-9.67,22-51.15,17.62-82.78a89.84,89.84,0,0,0-7.53-25.15c2.42,2,4.46,3.66,6.36,5.19,4.4,3.55,8,6.39,13.87,11,7,6.71,9.78,51.81,10.64,74.1l13,16.57Z"/><path class="cls-25" d="M1724.9,156l1,.07c0,.19,0,.39,0,.59Z"/><path class="cls-25" d="M1718.53,151.68l2.58,1.75-2.82-.23C1718.37,152.68,1718.45,152.17,1718.53,151.68Z"/><path class="cls-20" d="M1799.51,206.56l-73.63-49.9c0-.2,0-.4,0-.59l51.4,3.56,19.94,14.17A131.42,131.42,0,0,1,1799.51,206.56Zm-82-44.67-9.79-6.7-11.49-.53-2.19,9.93c-22.85-1-32.08-2.84-44.69-3.18l-24.48,49.3c21.23,0,71.85,6.68,71.85,6.68s7.55,50.32,8.39,54c6.6-.57,13-1.25,19.19-2q4.41-.57,8.64-1.21c26-3.94,46.2-10,53.82-18.39a37,37,0,0,0,7.57-13.93c1.33-3.43,2.79-8.17,4.18-18.51l-73.21-50.09Z"/><path class="cls-24" d="M1624.09,211.33c21.23-.52,72,4.89,72,4.89s10.7,59.47,11.64,63.13c-21,2.35-45.81-5.73-68-5.55l-46.23.06Z"/><path class="cls-26" d="M1368.66,244.45s-.9,3-2.25,7.19c-2.35,7.36-6.06,18.44-8.73,23.8l-14.62.1c-4.67-4-13.56-6.72-23.9-8.54a53.9,53.9,0,0,0-25-5.8c-3.6,0-7.39,1.42-11.28,2.4-9.47-.36-17.45-.36-21.59-.36-5.23-6.26-9.74-12-14.24-18.06-1.13-1.53-2.58-3.51-4.26-5.85-.33-12.29-2.73-34.59-20-47.91q19.74-7.93,41.24-15.59,6.78-2.42,13.75-4.78c.57.91,1.12,1.83,1.63,2.76a53.77,53.77,0,0,1,2.77,5.93c3.91,9.76,4.87,19.83,5.11,26.91,3.07,3.84,5.89,7.22,8.16,9.71a62.87,62.87,0,0,1,16.82-.14c3.63-1,7.17-2.22,10.55-2.22,9.5,0,19.31,2.15,27.75,7.36C1371.72,226.61,1369.1,234.57,1368.66,244.45ZM1263.79,157a51.88,51.88,0,0,0-15.28-6.33q-2.84-5.2-5.43-10.41-1.8-3.61-3.5-7.28c-2.26-4.87-4.38-9.79-6.38-14.8l-1.44-3.7c-1.57-3.84-6.82-8.21-12.7-9A117.46,117.46,0,0,0,1205.47,118c-4.88,5.2-9,10.42-10.09,13.58-.15.43-.3.87-.44,1.31a37.59,37.59,0,0,0-1.42,6.9,46,46,0,0,0,0,9.16l1.7,9.78a109.94,109.94,0,0,0,7.82,20.81c16.6-6.64,33.65-13,51-19.11Q1258.89,158.7,1263.79,157Z"/><path class="cls-27" d="M1343.06,275.54l-108.2.72q-7.86-12.87-14.43-23.95c-11.8-19.9-20.67-35.72-27.34-48.38q9.38-4.12,19.19-8.21c3.46-1.43,7-2.87,10.53-4.3,17.25,13.32,19.65,35.62,20,47.91,1.68,2.34,3.13,4.32,4.26,5.85,4.5,6,9,11.8,14.24,18.06,4.14,0,12.12,0,21.59.36,3.89-1,7.68-2.4,11.28-2.4a53.9,53.9,0,0,1,25,5.8C1329.5,268.82,1338.39,271.52,1343.06,275.54ZM1195.19,158.71l-1.7-9.78a46,46,0,0,1,0-9.16,37.59,37.59,0,0,1,1.42-6.9c.14-.44.29-.88.44-1.31,1.13-3.16,5.21-8.38,10.09-13.58a117.46,117.46,0,0,1,13.59-12.48c-2.46-.33-7.16-1.64-12.4.6a66.18,66.18,0,0,0-18.44,11.77,51.34,51.34,0,0,0-11.69,15,34.26,34.26,0,0,0-2.53,6.74,26.82,26.82,0,0,0-.81,8.9c.33,4.16-2.3,7.86,7.73,30.63,1.08,2.43,2.3,5.09,3.68,8q9.11-3.84,18.41-7.57A109.94,109.94,0,0,1,1195.19,158.71Z"/><path class="cls-26" d="M1223.25,276.34l-57.7.39c-3.22-8.9-8.76-17.71-18.26-24a48,48,0,0,0-9.85-5c-2.44-4.51-4.79-9.07-6.83-13.39q22.13-11.94,47.92-23.89l4-1.85c18.9,10.16,24.23,29.55,25.72,43.71h0c.16,1.48.28,2.9.36,4.24q-1.52-2.07-3-4.22h0q1.53,2.15,3,4.22a216.13,216.13,0,0,0,14.6,18.23Zm-56.14-87.41c-1-2.21-2-4.39-3.14-6.52a53.64,53.64,0,0,0-7.43-11c-2.53-2.84-6.47-3.85-10.19-4.24h0c-8.15,6.64-18.59,17.73-21.33,23.61-.15.31-.27.61-.38.9a35.71,35.71,0,0,0-1.55,6,44.29,44.29,0,0,0-.34,11.33l1.07,6.17q21.87-11.12,45.46-21.48C1168.55,192.1,1167.84,190.51,1167.11,188.93Z"/><path class="cls-28" d="M1696.23,154.66l-2.19,9.93c-22.85-1-32.08-2.84-44.69-3.18l-55.84,112.45-29.38.2-59.48-52.59h0c5.68-11.68,10.38-23.63,12.91-35.08l-10.84-4.93Q1480.55,179,1454.3,177l-37.92-33.53C1485,145.12,1612.87,150.79,1696.23,154.66Zm-202.29,86.78c-1.18,2-2.36,4-3.54,6-45.5,2.5-89.24,3.59-124,4.24-2.35,7.36-6.06,18.44-8.73,23.8l173.84-1.17ZM1277.8,171.05c.57.91,1.12,1.83,1.63,2.76,19.93-1.27,36.92-1.82,53.29-1.82,28.19,0,56.41.93,84.6,2.52l-37.89-33.11C1342.86,150.42,1309,160.43,1277.8,171.05Zm-34.72-30.77q2.6,5.21,5.43,10.41a51.88,51.88,0,0,1,15.28,6.33q24.21-8.28,49.12-15.82h0C1296.33,140.89,1270.19,140.58,1243.08,140.28Zm-8.22,136-11.61.08v-1.51a216.13,216.13,0,0,1-14.6-18.23c-.08-1.34-.2-2.76-.36-4.24l12.15-.05Q1227,263.41,1234.86,276.26ZM754.11,234.12c27.43-13.75,56.68-23.32,86.29-31.48a112.48,112.48,0,0,0,7.78-14.7c1.15-2.56,2.26-5.16,3.36-7.82a345.34,345.34,0,0,0-101.68,41c.14,1.27.34,2.54.6,3.79a26.33,26.33,0,0,0,3.65,9.2Zm426.81-55-1.31.18c-4.43.85-9.7,1.9-15.64,3.12a53.64,53.64,0,0,0-7.43-11c-2.53-2.84-6.47-3.85-10.19-4.24h0c-13.39,1.64-19.26,5.35-23.82,10a78,78,0,0,0-13,17.1c-50.26,11.29-107.75,25.27-127.17,32.58l-4.13,4.68a210,210,0,0,0,13.22,22.31c5.19,0,32.1-.16,66.3-.39a421.54,421.54,0,0,0-46.52,35.41c-44.27,1.86-104.85,6.36-170.8,13.87h0c-10.17-19.87-32.45-24.41-65.14-24.41a309.49,309.49,0,0,0-50.85,4.52l-1.09.2a817.78,817.78,0,0,0-36.12-77.63L687,205c-6.63-12.27-16.91-22.81-30.43-22.81v-4.06c31.12,0,84.6,2.19,110.17,3.38C847,161.1,967.25,136,1118.05,133c-120.57,13.57-246.7,56.59-340.91,118.65,119.93-58.8,237.52-102.23,366.85-112.42,6.52.08,17.1.18,30,.31a26.82,26.82,0,0,0-.81,8.9C1173.52,152.64,1170.89,156.34,1180.92,179.11ZM1127.72,277l-66.94.45c11-7.85,23.37-16,37.11-24.34l16.49-.12C1119.18,262.17,1124.61,271.49,1127.72,277Z"/><path class="cls-27" d="M1165.55,276.73l-10.88.07-27,.18c-3.11-5.49-8.54-14.81-13.34-24-1.32-2.51-2.58-5-3.74-7.43q9.58-5.55,20-11.15c2,4.32,4.39,8.88,6.83,13.39a48,48,0,0,1,9.85,5C1156.79,259,1162.33,267.83,1165.55,276.73ZM1122.75,209a44.29,44.29,0,0,1,.34-11.33,35.71,35.71,0,0,1,1.55-6c.11-.29.23-.59.38-.9,2.74-5.88,13.18-17,21.33-23.61-13.39,1.64-19.26,5.35-23.82,10a78.34,78.34,0,0,0-13,17.11,59.86,59.86,0,0,0-3.3,7,50.83,50.83,0,0,0-2.32,7.57,45.05,45.05,0,0,0,0,16.91q9.75-5.31,19.89-10.46Z"/><path class="cls-29" d="M1506.72,181.46l10.84,4.93q-28.83-2.56-57.75-4.56L1454.3,177Q1480.54,178.92,1506.72,181.46Zm-174-9.47c-16.37,0-33.36.55-53.29,1.82a53.77,53.77,0,0,1,2.77,5.93c26.84-2.22,38.39-2.17,61.36-2.17,26.54,0,53.12.77,79.66,2.09l-5.9-5.15C1389.13,172.92,1360.91,172,1332.72,172Zm-165.61,16.93c-1-2.2-2-4.38-3.14-6.51,5.94-1.22,11.21-2.27,15.64-3.12l1.31-.18c1.08,2.43,2.3,5.09,3.68,8q-7.74,3.27-15.32,6.61C1168.55,192.1,1167.84,190.51,1167.11,188.92Zm-57.59,5.27a58.2,58.2,0,0,0-3.29,7c-51.44,10.74-109.27,23.71-128,30.29l4.13-4.68C1001.77,219.46,1059.26,205.48,1109.52,194.19Z"/><path class="cls-30" d="M1816.12,197.63a89.9,89.9,0,0,0-7.53-25.16c-5.07-10.9-12.52-21.29-22.42-29.05-5.35-.44-12.24-1-20.08-1.56L1610.28,29.66c.23-1.53.35-2.39.35-2.39l1-7.44c-12.35-8.42-20.93-13.81-23.38-14.29C1573.91,2.68,1551.5,1,1517.49,1,1402.64,1,1220,48,1125.93,126.23q-4.07,3.36-7.88,6.81,13.89-.19,28.26-.22h30.22a51.34,51.34,0,0,1,11.69-15l-15-.07a372.1,372.1,0,0,1,56.68-31.88,737.87,737.87,0,0,1,98.14-35.57,813.49,813.49,0,0,1,104.66-23.08l86,66c-43.06,7.14-87.37,16.33-131.38,27.37-46.6-1.19-105.29-2-154.15-2.43,2,5,4.12,9.93,6.38,14.8,35.56.15,72.79.4,98.28.87q-12.52,3.57-24.95,7.33Q1288,148.73,1263.79,157q-4.89,1.68-9.76,3.39c-17.37,6.09-34.42,12.47-51,19.11q-9.3,3.73-18.41,7.57-7.74,3.27-15.32,6.61-23.55,10.35-45.46,21.48-10.14,5.15-19.89,10.46c-16.37,8.93-31.82,18.18-46.19,27.73a421.54,421.54,0,0,0-46.52,35.41q-5.21,4.62-10.05,9.31c25.8-1.09,49.39-1.47,70.27-1.13,97.59,1.6,400.67.7,465.8.7,148.93,0,228.13.33,261.26-17.25C1816.87,270.74,1820.55,229.26,1816.12,197.63ZM1608.74,39.78l142,100.95c-17.28-1.26-36.82-2.63-54-3.83L1603,73.37C1605.26,61.4,1607.33,48.78,1608.74,39.78ZM1595,105.45l3.1-9.92c1-3.88,2.07-8.4,3.09-13.24l77.95,53.33c-25.67-1.85-69.59-5-76.83-5.48l-29-22.49Q1584.05,106.49,1595,105.45ZM1464.66,23.23a514.09,514.09,0,0,1,51.87-2.81,486.87,486.87,0,0,1,69.39,4.63c-2.66,20.28-6.15,40.38-11.71,60.06q-12.6,1.61-25.43,3.48h0Zm77.6,88.09,21.39,16.42c-32.94-1.9-65.91-3.42-98.06-4.64Q1502.42,116.47,1542.26,111.32ZM1178,209.54q-1.2-2-2.33-4a49.5,49.5,0,0,1,6.37,2.79,49.5,49.5,0,0,0-6.37-2.79Q1176.76,207.52,1178,209.54Zm179.72,65.9-14.62.1-108.2.72-11.61.08-57.7.39-10.88.07-27,.18-66.94.45c11-7.85,23.37-16,37.11-24.34q6.18-3.76,12.75-7.55,9.58-5.55,20-11.15,22.13-11.94,47.92-23.89h0l4-1.85h0q5.19-2.37,10.53-4.72,9.38-4.12,19.19-8.21c3.46-1.43,7-2.87,10.53-4.3q19.74-7.93,41.24-15.59,6.78-2.42,13.75-4.78c31.2-10.62,65.06-20.63,101.63-29.65l37.89,33.11,5.9,5.15,70.72,61.78,37.58,32.83Zm436.65-39.62a37,37,0,0,1-7.57,13.93c-7.62,8.35-27.83,14.45-53.82,18.39q-4.23.64-8.64,1.21c-6.17.79-12.59,1.47-19.19,2a651,651,0,0,1-66.15,2.16l-45.45.31-29.38.2-59.48-52.59h0l-44.84-39.64L1454.3,177l-37.92-33.53-9-7.94-2.59-.07,2-.44.59.51c72,2.12,293.64,16.37,295.65,16.52l95.46,65.31C1797.12,227.65,1795.66,232.39,1794.33,235.82Zm5.18-29.26-73.63-49.9-1-.66,1,.07,51.4,3.56,19.94,14.17A131.42,131.42,0,0,1,1799.51,206.56Z"/><path class="cls-19" d="M1707.72,155.19l-11.49-.53c-83.36-3.87-211.27-9.54-279.85-11.24l-9-7.94c72,2.12,204.79,9.69,289.52,16.06l6.13.46ZM1239.58,133q1.7,3.66,3.5,7.28c27.11.3,53.25.61,69.83.92h0q12.42-3.76,24.95-7.33C1312.37,133.4,1275.14,133.15,1239.58,133Zm-93.27-.18q-14.36,0-28.26.22c-120.57,13.57-246.7,56.59-340.91,118.65,119.93-58.8,237.52-102.23,366.85-112.42,6.52.08,17.1.18,30,.31a34.26,34.26,0,0,1,2.53-6.74h-30.22ZM2667.58,459.64c-53.74,8.74-367.71.8-709.62-10.68l-.19,5.66c313.31,10.48,591.89,18.84,633.72,15.83,29.55-2.13,54.18-5.51,76.23-10.69l-.13-.12Zm-99.94-24.76c26.78,2.7,49.81,3.24,71.46.63-11.27,4.05-20.94,4.41-33.7,4.41-129.52,0-212.12-47.5-663.78-68.26-258.33-11.87-892.85,9.87-940.45-73.57,48.19,66.81,682.12,54.54,940.45,66.42,321.14,14.76,484.51,50.89,590.3,65.95l5.31.74c8.81,1.21,17.22,2.28,25.28,3.15C2564.24,434.54,2566,434.72,2567.64,434.88ZM1958,449l-.19,5.66c-413.28-13.83-887-31.36-957.52-31.36-35.11,0-71.09,1.9-106.88,5.17,34.49-9.32,71.13-13.28,106.88-13.28C1068.24,415.15,1534.53,434.75,1958,449Zm-770.13,71.39h-2.49C980.74,448.15,683.36,392.8,513,369.88l-7.92-1.05-84.6-8c7.88-8.58,17.46-18.33,28.38-29,1.06-1,2.12-2.06,3.2-3.11,30.4-29.38,70.52-65.08,113.34-101q6.95-5.85,14-11.68c16.79-13.93,33.87-27.8,50.83-41.26a54.79,54.79,0,0,1,9.13-1.69l.62,5.39c-2,.13-3.57.28-4.77.47-64.46,53-166.73,139.32-197.8,175.24,10.23,1,22.05,2.34,35,3.87,15.65,1.86,33,4.06,51.21,6.51,95.49,12.92,235.12,34.34,369.65,64.31C1004.09,453.57,1111.45,484.05,1187.83,520.35Zm-61.9-394.12q-4.07,3.36-7.88,6.81C967.25,136,847,161.1,766.76,181.49c-25.57-1.19-79-3.42-110.17-3.38-6.78,0-12.5.12-16.64.38l-.62-5.39c25.49-3,82.13-1.35,107.83,0C830.27,150.13,949.9,128.07,1125.93,126.23ZM1011.22,288.78q-5.21,4.62-10.05,9.31h0c-126.42,5.33-305.69,27.77-477.55,66.49,47.88-16,105.3-29.26,164.85-40,50.61-9.1,102.78-16.37,151.95-22C906.37,295.14,967,290.64,1011.22,288.78Z"/><path class="cls-19" d="M851.54,180.12c-1.1,2.66-2.21,5.26-3.36,7.82-36.4,6.31-66.91,19.21-97.72,37-.26-1.25-.46-2.52-.6-3.79A345.34,345.34,0,0,1,851.54,180.12Z"/><path class="cls-24" d="M848.18,187.94a112.48,112.48,0,0,1-7.78,14.7c-29.61,8.16-58.86,17.73-86.29,31.48h0a26.33,26.33,0,0,1-3.65-9.2C781.27,207.15,811.78,194.25,848.18,187.94Z"/><path class="cls-28" d="M840.42,302.65h0c-49.17,5.6-101.34,12.87-151.95,22,12.1-13.86,23.81-28,36-41.86a309.49,309.49,0,0,1,50.85-4.52C808,278.24,830.25,282.78,840.42,302.65Z"/><path class="cls-31" d="M484.48,333.77c-1.37,1.41-2.45,2.56-3.18,3.39h0c-6.14,4.75-8.82,13.77-8.88,20.89h0c15.65,1.86,33,4.06,51.21,6.51q8-2.67,16.38-5.25a85.11,85.11,0,0,0-6.36-10.64C521.22,330.85,502.2,328.06,484.48,333.77Z"/><path class="cls-28" d="M724.43,282.76l-1.09.2a817.78,817.78,0,0,0-36.12-77.63L687,205c-6.63-12.27-16.92-26.87-30.44-26.87-2.09,0-4.26,4.32-6.51,4.85-39.69,31.74-143.22,127.8-165.6,150.81,17.72-5.71,36.74-2.92,49.16,14.92A85.11,85.11,0,0,1,540,359.33c44.36-13.68,95.56-25.2,148.47-34.71C700.57,310.76,712.28,296.6,724.43,282.76Z"/><path class="cls-3" d="M656.59,178.11C614.46,211.8,493.88,322.82,481.3,337.16h0c-6.14,4.75-8.82,13.77-8.88,20.89h0c-13-1.53-24.8-2.84-35-3.87C468.45,318.28,570.72,232,635.18,179,636.38,178.77,658.84,177.57,656.59,178.11Z"/><path class="cls-20" d="M2639.17,435.42l-.07.09c-21.65,2.61-44.68,2.07-71.46-.63.67-2.8,3.7-15.58,4.21-17.24,4.13,1.13,6.21,1.92,9,2.52a22,22,0,0,0,1.05-5.18l43.62,9.41Q2632.25,429.75,2639.17,435.42Zm-97.27-23.9c-.72,2.34-4,17.19-4.67,19.68,8.81,1.21,17.22,2.28,25.28,3.15l0-.31c.48-2.35,3.65-15.91,4.11-17.72C2561.42,415.07,2553.81,413.52,2541.9,411.52Zm125.82,48.24c-22,5.18-46.68,8.56-76.23,10.69-41.83,3-320.41-5.35-633.72-15.83-413.28-13.83-887-31.36-957.52-31.36-35.11,0-71.09,1.9-106.88,5.17l-.1.46c110.82,24.68,218.18,55.16,294.56,91.46h0q19.45,0,38.85.26c104.66,1.25,646,10.66,769.16,10.66,334.13,0,519.74,0,690.77-54.25q-9.39-8.83-18.89-17.26Zm-28.55-24.34c9.38,7.69,18.9,15.78,28.41,24.22-53.74,8.74-367.71.8-709.62-10.68-423.43-14.21-889.72-33.81-957.71-33.81-35.75,0-72.39,4-106.88,13.28l-.1.46c-134.53-30-274.16-51.39-369.65-64.31,171.86-38.72,351.13-61.16,477.55-66.49h0c47.6,83.44,682.12,61.7,940.45,73.57,451.66,20.76,534.26,68.26,663.78,68.26,12.76,0,22.43-.36,33.7-4.41Zm-102.85-24.81c-.58,2.34-3.81,17.29-4.37,19.63l0,.22c-105.79-15.06-269.16-51.19-590.3-65.95-258.33-11.88-892.26.39-940.45-66.42,25.8-1.09,49.39-1.47,70.27-1.13,97.59,1.6,400.67.7,465.8.7,148.93,0,228.13.33,261.26-17.25,15.17,14.95,35.38,35.72,54.2,55.28,2.11-14.72,1.7-35.31-.19-56.34C2083,309.56,2294.06,353.1,2532,404.24c-.53,2.41-.21,1.94-1.11,5.52Zm-21.42,8.66c-106.34-43.14-364.47-78.92-860.18-86.27C2009.5,355.43,2260.21,370.66,2514.9,419.27Zm-2216,8.34q11.83-4.14,24-8.15l5-1.64c23.09-7.58,46.87-14.81,71.12-21.7,44.27-11.68,71.36-16.83,114-26.23h0c170.38,22.92,467.76,78.27,672.36,150.46h0C839.63,520,480.36,566.23,19,606.42c11.54-25,28.05-42.82,55.2-65C104.08,517,142.11,494.36,186,473.49q20.85-9.93,43.39-19.32c20.59-8.59,42.13-16.84,64.44-24.74ZM513,369.88h0c-27.19,1.72-54,5.29-107.62,15.78l6.37-10.47c3.25-5.33,6-9.81,7.47-12.29.81-1.32,1.26-2.07,1.26-2.07l84.6,8Z"/><path class="cls-5" d="M405.36,385.67C459,375.18,485.79,371.61,513,369.89c-42.65,9.4-69.74,14.55-114,26.23C401,392.75,403.21,389.18,405.36,385.67Z"/><path class="cls-4" d="M331.52,396c1.42,4.32,1.39,3,2.36,7.56-2.71.76-4.91,1-9.1,2-1.46.32-3.16.72-5.2,1.25-5.22,1.35-12.68,3.53-24.14,7.33l-5.35,1.79h0c-1.66.55-3.4,1.15-5.21,1.78-1-4.2-.93-2.71-2-6.9C298.09,402.36,314.54,398.41,331.52,396Z"/><path class="cls-4" d="M324.78,405.5c.22,1.17,1.84,7.53,3.07,12.32l-5,1.64h0c-1.29-4.84-3-11.46-3.31-12.7C321.62,406.22,323.32,405.82,324.78,405.5Z"/><path class="cls-4" d="M295.44,414.08c.29,1.56,2.1,8.31,3.49,13.53l-5.15,1.82c-1.43-5.19-3.32-12-3.69-13.55h0Z"/><path class="cls-32" d="M138.25,470.28a413,413,0,0,1,47.7,3.21C142.11,494.36,104.08,517,74.17,541.43c-10.24-.74-20.49-1.38-30.78-1.8,28.44-24,58.22-47.32,88.36-69.27C133.91,470.3,136.08,470.28,138.25,470.28Z"/><path class="cls-5" d="M24.88,584c4.59-14.56,10.38-27.88,17.88-43.82l.63-.52c10.29.42,20.54,1.06,30.78,1.8-27.15,22.17-43.66,40-55.2,65C20.7,598.35,22.64,591,24.88,584Z"/></g><g id="Изменяемый_цвет" data-name="Изменяемый цвет"><path class="cls-33" d="M2661.55,504.76h0c-4.62,3.7-9,7.26-13.12,10.7-21.5,11.72-43.5,22.35-66.61,30.08C2230.61,663,1062.2,592,757.49,741.51c-212.8-51.14-427.11-69.6-647-69.6-10.12,0-20.27,1-30.42,2C62.17,660,45.23,646.2,30.31,633.21c473.82-41.51,840-87,1195.5-82.74,104.66,1.25,644.8,10.56,767.94,10.56C2309.53,561,2505.33,557.89,2661.55,504.76Z"/><path class="cls-33" d="M2581.82,545.55c23.11-7.73,45.11-18.36,66.61-30.08-81.59,67.7-76.32,86.19-225.3,167.26-157,85.45-681,112.7-697.92,112.7-99.24,0-115.9,4.93-395.53,4.93l-215.93-7.88c-256.22-13.17-637.26-38.65-888.9-42.75q-21.61-.36-41.91-.49C150.24,726.49,113.52,700,80,673.87c10.15-.92,20.3-2,30.42-2,219.93,0,434.24,18.46,647,69.6C1062.2,592,2230.61,663,2581.82,545.55Z"/><path class="cls-33" d="M1308.11,800.18l-899.4-7.31c-4.76-3.19-10-6.74-15.7-10.7l869.67,16.89C1279.29,799.59,1294.49,800,1308.11,800.18Z"/><path class="cls-33" d="M393,782.17l-76.6-1.49c-3-5.78-5.8-11.67-8.24-17.57l805.58,29.37c56.66,2.91,107.23,5.23,148.93,6.58Z"/><path class="cls-33" d="M308.17,763.11l-79.43-2.9q-2.16-5.15-3.89-10.48c251.64,4.1,632.68,29.58,888.9,42.75Z"/></g><g id="shadow"><g class="cls-34"><path class="cls-35" d="M1774,157.26l-52.89-3.83,3.78,2.57h0l52.42,3.63Z"/></g><path class="cls-36" d="M2667.58,459.64c-9.51-8.44-19-16.53-28.41-24.21q-6.91-5.69-13.69-11L2581.86,415a21.88,21.88,0,0,1-1.05,5.17c-2.75-.59-4.82-1.38-9-2.51-.51,1.66-3.54,14.44-4.21,17.24-1.69-.17-3.4-.34-5.12-.53l0-.31c.48-2.35,3.66-15.91,4.12-17.72-5.25-1.25-12.86-2.8-24.77-4.8-.72,2.34-4,17.21-4.67,19.68l-5.31-.75,0-.21c.56-2.34,3.79-17.3,4.38-19.63l-5.44-.86c.9-3.57.58-3.1,1.12-5.51.08-.41.2-.9.35-1.5,1.23,0,2.47,0,3.7,0h0c16,.27,31.19,4.27,46.18,9.63-.09.55-.16,1-.23,1.41q21.58,5.22,43.46,10.62c-13.87-11-27.19-21-39.39-29.73-3-2.13-7.08-4.82-12.34-8-71.3-42.84-352-173.29-758.79-209h0c-2-1.66-4.26-3.46-6.93-5.67a73.55,73.55,0,0,1,8.1,25.63c4.43,31.63.75,73.11-17.62,82.78-33.13,17.58-112.33,17.25-261.26,17.25-65.13,0-368.21.9-465.8-.7-20.88-.34-44.47,0-70.27,1.13q4.85-4.69,10.05-9.31c-44.27,1.86-104.85,6.36-170.8,13.87-49.18,5.6-101.33,12.87-151.95,22-59.56,10.71-117,23.95-164.85,40-18.23-2.45-35.56-4.65-51.21-6.51-13-1.53-24.8-2.84-35-3.87C468.45,318.28,570.72,232,635.19,179c1.19-.19,2.8-.34,4.76-.47,4.14-.26,9.86-.37,16.64-.38,31.12,0,84.6,2.19,110.17,3.38C847,161.1,967.25,136,1118.05,133q3.83-3.45,7.87-6.81c-176,1.85-295.64,23.9-378.76,46.9-25.7-1.38-82.34-3.06-107.83,0a54.79,54.79,0,0,0-9.13,1.69c-17,13.46-34.05,27.33-50.83,41.25q-7.05,5.84-14,11.68c-42.81,36-82.92,71.65-113.33,101-9.23-.57-21.4-1.25-34.65-1.94v0L380.34,363.3l-101-3.83c-2.61,2.83-5.14,5.89-7.58,9.12,9-.25,106,4.34,140,6.61l7.47-12.29-28.88-2.07,30.14-30.41,28.38,1.43c-10.93,10.64-20.51,20.4-28.38,29l84.6,8,7.92,1.06c170.38,22.91,467.77,78.26,672.36,150.46h2.48c-76.37-36.3-183.73-66.78-294.55-91.46l.1-.46c35.79-3.26,71.77-5.17,106.88-5.17,70.52,0,544.24,17.53,957.52,31.36,313.31,10.48,591.88,18.84,633.72,15.83,29.54-2.13,54.18-5.51,76.22-10.69ZM2281.89,330.47c24.92,4.31,70.53,12.65,152.44,35.6-.62,1.54-1.23,3.07-1.82,4.61-39.44-9.93-144-32.47-156.49-34.86-14.59-29.49-22.4-42.68-27.83-50.69a43.86,43.86,0,0,1,2.16-5.61C2258.22,289.47,2268.67,304.64,2281.89,330.47Zm-32.8-12.06-192.74-40.92-27.66-46.39C2089.21,243,2148,256,2224.15,276,2238.16,292.84,2243.63,305.37,2249.09,318.41Zm-213.16-38.57,221.23,46.05-1.85,6.49-220.65-46.5-3.93-.83-31.07-56.23,5.2-5.2Z"/><path class="cls-37" d="M1718,156l-5-4.66c-81.35-6.66-227.79-13.64-305.6-15.85l9,7.93C1493.44,145.33,1638.45,152.25,1718,156Z"/><path class="cls-38" d="M1312.91,141.2h0q12.42-3.76,25-7.33c-53.41-1-99.63-1.23-133-1.24q1.62,3.48,3.34,7C1235.81,139.93,1271.71,140.44,1312.91,141.2Z"/><g class="cls-34"><path class="cls-39" d="M1180.74,178.69c-5.48,1.23-12.57,2.86-16.55,3.67q-4.25-10-7.59-19.92c-.22-.62-.77-.82-1.58-.67-15.82-2.17-35.36,14.38-45.38,32.39-50.28,11.31-107.85,25.3-127.3,32.61l-4.11,4.68a211,211,0,0,0,13.21,22.31c5.2,0,32.1-.15,66.3-.39a422.74,422.74,0,0,0-46.52,35.4c-44.26,1.87-104.84,6.37-170.79,13.88-10.19-19.86-32.46-24.41-65.15-24.41a308.26,308.26,0,0,0-50.85,4.53c-.37.05-.74.13-1.09.18a818.76,818.76,0,0,0-36.12-77.62L687,205c-5.39-10-20.41-23.93-30.43-26.87-.4-1.69.68,1.69,0,0,31.6.2,86.07,2.26,110.18,3.38C847,161.1,967.24,136,1118.05,133.05q13.9-.21,28.26-.22h30.38a34.42,34.42,0,0,0-2.6,6.74,26,26,0,0,0-.91,8.9C1173.52,152.63,1170.93,156.31,1180.74,178.69Zm27.51,73.38c.18,1.57.3,3.09.38,4.53,3.81,5.2,10.64,13.69,15.75,19.73l10.49-.07c-5.34-8.71-10.2-16.8-14.65-24.31C1216.22,252,1212.23,252,1208.25,252.07Zm129.62-118.21c-25.48-.45-62.65-.71-98.19-.86,1.14,2.44,2.31,4.86,3.52,7.29,1.73,3.47,3.54,7,5.41,10.41A52,52,0,0,1,1263.8,157q24.18-8.27,49.11-15.81Q1325.32,137.45,1337.87,133.86Zm-240,119.23h0c-13.73,8.34-26.09,16.5-37.11,24.34l67-.45c-3.12-5.5-8.57-14.83-13.37-24C1104.71,253,1098.74,253.09,1097.9,253.09Zm309.5-117.6,9,7.94L1454.3,177c17.49,1.3,35,2.84,52.43,4.49l10.83,5c-2.52,11.42-7.22,23.4-12.91,35.07l59.48,52.59,29.38-.2,55.83-112.46c12.61.36,21.86,2.23,44.7,3.18l2.19-9.91v0c3.93.18,7.76.37,11.49.53l-4.67-3.17C1618.73,145.55,1481.12,137.64,1407.4,135.49Zm83,111.91c-45.5,2.51-89.25,3.58-124,4.23-2.34,7.36-6.07,18.46-8.73,23.82l173.83-1.18-37.59-32.84C1492.76,243.46,1491.58,245.45,1490.41,247.4Zm-111-106c-36.57,9-70.44,19-101.64,29.64.59.91,1.12,1.83,1.62,2.76h0c19.93-1.27,36.92-1.82,53.29-1.82,28.19,0,56.4.94,84.6,2.52Z"/></g><path class="cls-40" d="M19,606.42c11.54-25,28.05-42.82,55.2-65-10.24-.74-20.49-1.38-30.79-1.8l-.61.51h0c-7.51,16-13.3,29.28-17.9,43.84C22.64,591,20.7,598.36,19,606.42Z"/><g class="cls-41"><path class="cls-42" d="M2689.09,479.37a14.21,14.21,0,0,1,1.11,7.17,35.22,35.22,0,0,1-.39,3.56c-159.18,58.11-358.77,61.43-696.06,61.43-123.14,0-663.28-9.3-767.94-10.55-357.9-4.28-726.69,41.85-1205.25,83.58l-9.69.84A150.61,150.61,0,0,1,0,613.44c488.59-42.19,862.8-89.7,1225.81-85.36,104.66,1.24,644.8,10.55,767.94,10.55C2329.5,538.63,2530.27,536.71,2689.09,479.37Z"/><path class="cls-42" d="M2689.81,490.1c-.27,1.7-.62,3.31-.92,4.7q-13.47,5.26-27.33,10c-156.23,53.13-352,56.27-667.81,56.27-123.14,0-663.28-9.3-767.94-10.56C870.34,546.23,504.14,591.7,30.32,633.21h0q-5-4.4-9.75-8.65C499.12,582.83,867.91,536.7,1225.81,541c104.66,1.25,644.8,10.55,767.94,10.55C2331,551.53,2530.63,548.21,2689.81,490.1Z"/><path class="cls-42" d="M2667.72,459.76q9.48,8.42,18.88,17.26c-171,54.3-356.63,54.25-690.75,54.25-123.14,0-664.5-9.41-769.16-10.66q-19.41-.23-38.87-.25h0c-76.37-36.3-183.73-66.78-294.55-91.46l.1-.46c35.79-3.26,71.77-5.17,106.88-5.17,70.52,0,544.24,17.53,957.52,31.36,313.31,10.48,591.88,18.84,633.72,15.83,29.54-2.13,54.18-5.51,76.22-10.69Z"/><path class="cls-42" d="M2661.56,504.76h0c-4.63,3.7-9,7.26-13.13,10.7-21.5,11.72-43.5,22.36-66.61,30.08C2230.62,663,1062.2,592,757.49,741.52c-212.8-51.15-427.1-69.61-647-69.61-10.11,0-20.27,1-30.42,2C62.18,660,45.24,646.2,30.32,633.21c473.82-41.51,840-87,1195.49-82.74,104.66,1.26,644.8,10.56,767.94,10.56C2309.53,561,2505.33,557.89,2661.56,504.76Z"/><path class="cls-42" d="M2581.82,545.55c23.11-7.72,45.11-18.36,66.61-30.08-81.59,67.7-76.32,86.19-225.3,167.26-157,85.45-681,112.7-697.92,112.7-99.24,0-115.9,4.92-395.53,4.92l-215.94-7.87c-256.22-13.18-637.26-38.65-888.89-42.75q-21.61-.35-41.9-.49C150.25,726.49,113.52,700,80,673.87c10.15-.92,20.31-2,30.42-2,219.94,0,434.24,18.46,647,69.61C1062.2,592,2230.62,663,2581.82,545.55Z"/><path class="cls-42" d="M1308.12,800.18l-899.41-7.31c-4.76-3.19-10-6.74-15.69-10.71l869.69,16.89C1279.3,799.59,1294.5,800,1308.12,800.18Z"/><path class="cls-42" d="M393,782.16l-76.61-1.48c-3-5.79-5.8-11.68-8.24-17.58l805.57,29.38c56.68,2.91,107.25,5.22,149,6.57Z"/><path class="cls-42" d="M185.94,473.49q20.87-9.93,43.4-19.32C280.87,432.66,338.41,413.3,399,396.12c44.27-11.68,71.36-16.83,114-26.23,170.38,22.91,467.77,78.26,672.36,150.46h0C839.63,520,480.36,566.23,19,606.42c11.54-25,28.05-42.82,55.2-65C104.08,517,142.11,494.36,185.94,473.49Z"/><path class="cls-42" d="M308.17,763.1l-79.43-2.89q-2.16-5.15-3.89-10.48c251.63,4.1,632.67,29.57,888.89,42.75Z"/><path class="cls-42" d="M505.06,368.83l7.92,1.06c-27.19,1.72-54,5.29-107.62,15.78h0c2.22-3.63,4.4-7.2,6.38-10.46l7.47-12.29,1.26-2.07Z"/><path class="cls-42" d="M405.36,385.67C459,375.18,485.79,371.61,513,369.89c-42.65,9.4-69.74,14.55-114,26.23,2.07-3.38,4.24-6.95,6.38-10.46Z"/></g><path class="cls-43" d="M1797.27,173.8l-19.93-14.17h0L1724.9,156l74.61,50.56A131.89,131.89,0,0,0,1797.27,173.8Z"/><path class="cls-44" d="M1725.29,167.22l73.22,50.09c-1.39,10.34-2.85,15.08-4.18,18.51a37.07,37.07,0,0,1-7.57,13.94c-7.61,8.34-27.83,14.44-53.82,18.39-2.81.42-5.7.82-8.64,1.2-6.16.79-12.58,1.47-19.19,2a653.76,653.76,0,0,1-66.14,2.15l-45.46.31,55.84-112.45c12.61.34,21.84,2.22,44.69,3.18l2.19-9.93h0l11.48.54h0l9.79,6.7Z"/><path class="cls-45" d="M775.28,278.24a308.36,308.36,0,0,0-50.85,4.53l-1.09.19a817.78,817.78,0,0,0-36.12-77.63L687,205c-6.63-12.27-16.92-26.87-30.44-26.87-2.1,0-4.89-.48-7.14.06-42.13,33.68-155.57,144.65-168.16,159-6.14,4.75-8.82,13.78-8.88,20.9h0c15.65,1.86,33,4.06,51.21,6.51,47.89-16,105.29-29.25,164.85-40,50.62-9.1,102.77-16.37,151.95-22C830.25,282.78,808,278.24,775.28,278.24Z"/></g><g id="стекло_2" data-name="стекло 2"><path class="cls-46" d="M1679.66,135.66l-.55,0"/><path class="cls-47" d="M1432.74,27.27c-63,8-139.16,30.61-195.49,55.1-27.27,11.86-48,25-64.14,35.43.06.15,1.58.37,15.29.51,0,0,16.51-16.84,30.66-12.81,9.94,2.83,11.91,6.88,14.51,13.53,46.38.39,109.06.46,153.78,1.6,44-11,88.32-20.23,131.37-27.37Zm83.79-6.85a514.59,514.59,0,0,0-51.88,2.81l84.13,65.35q12.83-1.86,25.43-3.47c5.56-19.68,9-39.78,11.71-60.06A486.87,486.87,0,0,0,1516.53,20.42Z"/><path class="cls-46" d="M1705.11,271.4c.05.21.08.26.08.13"/><path class="cls-48" d="M1679.11,135.62l-77.95-53.33c-1,4.83-2.05,9.36-3.08,13.23l-3.1,9.93q-34,3.22-66,7.64-7.35,1-14.61,2.06-10.87,1.57-21.51,3.3c-4.45.71-8.87,1.45-13.25,2.19l-7.79,1.35q-33.75,5.92-65,13l157.33,139.09,30.25-.2,44.59-.3c5.55.09,11.15.12,16.76.07h0c10.28-.07,20.57-.38,30.65-.92q3-.15,5.88-.35l1-.06q6-.39,11.87-.89c38.86-3.36,71.48-10.5,81.65-21.64a37,37,0,0,0,7.57-13.93c1.33-3.43,2.79-8.17,4.18-18.51Zm109.56,14.27-2.5-6.47S1612.55,20.06,1611.64,19.83l-1,7.44s-.12.86-.35,2.38L1794.1,162A69.94,69.94,0,0,0,1788.67,149.89Zm-409.24-8.49q-14.15,3.49-27.76,7.17c-4.57,1.23-9.08,2.49-13.56,3.75-129.52,36.53-221.07,85-277.33,125.11l291.94-2,54.79-.37,18.83-.12,17.37-.12,87.81-.59Zm417.84,32.4-188.53-134c-1.41,9-3.48,21.62-5.78,33.59l196.55,133.18A131.84,131.84,0,0,0,1797.27,173.8Z"/><path class="cls-49" d="M1579.25,107,1709.65,271c-7.54.72-15.33,1.29-23.27,1.72L1557.52,109.47C1564.69,108.62,1572,107.82,1579.25,107Z"/><path class="cls-50" d="M1471.83,122l122.55,151.86,44.59-.3c5.55.1,11.15.12,16.76.08L1529,113.09Q1499.58,117.11,1471.83,122Z"/><path class="cls-51" d="M1351.67,148.57c-4.57,1.23-9.08,2.49-13.56,3.75L1426.34,275l17.37-.12Zm-29,8.24q-19.62,5.82-38,12l68.09,106.69,54.79-.37Z"/></g><g id="стекло_1" data-name="стекло 1"><path class="cls-52" d="M1118.05,133c91.46-82.32,281.3-132,399.43-132,34,0,56.43,1.66,70.78,4.51h0v0c-3,26.9-6.72,53.63-14.06,79.61-207.11,26.41-462.15,105.65-573,213h0"/><line class="cls-52" x1="1531.51" y1="274.27" x2="1060.78" y2="277.43"/><polyline class="cls-52" points="1608.74 39.78 1797.27 173.8 1799.51 206.56"/><path class="cls-52" d="M1387.35,120.63c-51-1.29-108.23-1.9-153.78-2.15"/><path class="cls-52" d="M1187,118.32h-13.09"/><path class="cls-52" d="M1563.65,127.74c-32.94-1.9-65.91-3.42-98.05-4.64"/><path class="cls-52" d="M1602.29,130.14c1.46.12,37.14,2.61,77.28,5.46"/><path class="cls-52" d="M1696.58,136.81c19,1.35,38.05,2.73,54.17,3.91"/><path class="cls-52" d="M1766.09,141.86c8.39.63,15.31,1.17,20.08,1.57l7.93,18.6"/><path class="cls-52" d="M1601.17,82.29c1.16,0,197.34,135,197.34,135-2.13,15.65-5.09,22.84-11.75,32.45-15.08,17.71-84.78,24.85-147.79,23.79l-74.84.51"/></g><g id="болты"><ellipse class="cls-53" cx="1600.24" cy="331.09" rx="13.47" ry="14.48"/><ellipse class="cls-54" cx="1600.24" cy="331.09" rx="9.52" ry="10.24"/><circle class="cls-54" cx="758.24" cy="334.29" r="4.94"/><circle class="cls-54" cx="646.88" cy="355.9" r="4.94"/><circle class="cls-54" cx="526.26" cy="383.27" r="4.94"/><circle class="cls-54" cx="862.8" cy="317" r="4.94"/><ellipse class="cls-53" cx="871.33" cy="346.67" rx="13.47" ry="14.48"/><ellipse class="cls-54" cx="871.33" cy="346.67" rx="9.52" ry="10.24"/><g class="cls-34"><ellipse class="cls-53" cx="486.87" cy="610.92" rx="13.47" ry="14.48"/><ellipse class="cls-54" cx="486.87" cy="610.92" rx="9.52" ry="10.24"/></g></g><g id="буквы"><path class="cls-55" d="M981.78,397.29a24,24,0,0,0,8.41,1.58c3,0,4.42-.79,4.42-2.06s-1.44-1.92-5.09-2.9c-5.48-1.54-9.13-3.86-9.13-7.62,0-4.47,4.85-7.92,13-7.92a27.07,27.07,0,0,1,8.75,1.27l-1.83,5.45a20.75,20.75,0,0,0-7-1.2c-2.65,0-4.09.75-4.09,1.87,0,1.28,1.73,1.77,5.82,3,5.81,1.69,8.41,4.09,8.41,7.62,0,4.36-4.33,8.08-13.8,8.08a28.44,28.44,0,0,1-9.51-1.54Z"/><path class="cls-55" d="M1051.9,378.74h8.7v19.64H1073v5.67H1051.9Z"/><path class="cls-55" d="M1129.7,378.74v25.31H1121V378.74Z"/><path class="cls-55" d="M1179.39,379.12a81.28,81.28,0,0,1,10.34-.57c6.2,0,10.14.79,13.31,2.52a10.47,10.47,0,0,1,5.87,9.73,11.64,11.64,0,0,1-5.63,10.44c-3.55,2.17-8.89,3.11-15.23,3.11a66.71,66.71,0,0,1-8.66-.45Zm8.7,19.9a13,13,0,0,0,1.83.08c5.62.07,9.81-2.37,9.81-8.08,0-4.95-3.8-7.28-9-7.28a16.75,16.75,0,0,0-2.65.15Z"/><path class="cls-55" d="M1277.58,393.84H1266v4.66h13v5.55h-21.72V378.74h21v5.56H1266v4.06h11.63Z"/><path class="cls-55" d="M1327.51,379.12a89.88,89.88,0,0,1,10.48-.57c5,0,8.51.53,11,2a6.07,6.07,0,0,1,3.17,5.49c0,3.15-3,5.37-5.53,6.12v.11c2.12.75,3.32,2.37,4.14,4.55,1,2.59,2,6.27,2.64,7.24h-8.84a25.5,25.5,0,0,1-2.26-5.86c-.87-3-2.07-3.64-4.76-3.64h-1.4v9.5h-8.6Zm8.6,10.55h2.26c3.27,0,5.15-1.24,5.15-3.12s-1.59-3-4.47-3a18.62,18.62,0,0,0-2.94.15Z"/><path class="cls-55" d="M1454.72,385.61h-.09l-6.16,2.18-1.39-5.07,8.94-3.08h7.07v24.41h-8.37Z"/><path class="cls-55" d="M1505.57,379.23c7.93,0,11,3.46,11,6.38,0,2.11-1.54,4.14-4.33,5.26V391c2.69.79,5.53,2.74,5.53,6,0,4.5-4.81,7.55-12.59,7.55-8.61,0-12.12-3.68-12.12-6.84,0-2.93,2.07-4.84,5.29-6v-.07c-2.84-1.24-4.33-3.2-4.33-5.34,0-4.24,5-7,11.54-7Zm-.1,20.65c2,0,3.41-1.08,3.41-2.51,0-1.77-1.77-3-4-3.42-1.88.38-3,1.5-3,3s1.44,2.92,3.55,2.92Zm-.24-16.14c-2.07,0-3.07,1.09-3.07,2.36s1.68,2.26,3.74,2.78a2.94,2.94,0,0,0,2.5-2.51c0-1.32-1-2.63-3.12-2.63Z"/><path class="cls-55" d="M1553.53,404.47c-8.94,0-12.26-6.16-12.26-12.58,0-6.61,3.51-12.66,12.31-12.66,9.13,0,12.25,6.35,12.25,12.58,0,7.21-3.89,12.66-12.25,12.66Zm.1-5.07c2.21,0,3.55-2.29,3.55-7.55s-1.29-7.51-3.6-7.51-3.65,2.25-3.65,7.51,1.39,7.55,3.65,7.55Z"/></g></g></g></svg>