<svg width="290" height="90" viewBox="0 0 290 90" fill="none" xmlns="http://www.w3.org/2000/svg">
<path d="M52.2396 32.4883C51.3238 33.3448 53.2707 43.0696 52.4971 44.0964L40.5755 41.5526C38.1136 41.4837 34.0388 41.3705 30.4219 41.2833C36.6601 36.5631 44.174 33.973 52.2396 32.4883Z" fill="#646567"/>
<path d="M41.2381 35.7703C40.5216 36.184 36.4436 38.5414 35.6172 39.0176C35.6366 39.0295 35.6905 39.0596 35.7109 39.0682C35.7734 39.1016 35.8618 39.1394 35.9264 39.1674C36.06 39.2191 36.2022 39.2665 36.3326 39.3031L41.8037 36.0935L41.2381 35.7703Z" fill="#4B4B4D"/>
<path d="M40.972 33.8084C40.3697 33.4463 40.0099 33.1716 38.8172 32.7363C38.5855 32.8742 40.1198 31.9681 33.3633 35.9578C34.1821 36.2444 34.4978 36.4103 35.5181 37.0288L40.972 33.8084Z" fill="#4B4B4D"/>
<path d="M45.6987 48.8428L45.8506 50.5936C45.8022 50.0085 45.7526 49.4256 45.6987 48.8428Z" fill="#1A171C"/>
<path d="M38.5191 56.5568C35.9559 60.0326 35.3396 64.4392 35.9268 68.7392L41.7621 67.7835L35.9257 68.7392C36.1832 70.1689 36.2813 70.7206 36.3158 70.9102V70.9177V70.9296L36.3212 70.9565V70.9727V70.9813V70.9975L41.7761 67.7771C40.7741 63.1021 40.6298 58.007 43.1929 53.9861C41.0866 55.2456 40.5468 55.6324 38.5191 56.5568ZM36.3201 70.936V70.949V70.936Z" fill="#1A171C"/>
<path d="M41.8038 36.0938L36.3413 39.3001C38.41 42.1941 39.9097 48.4808 40.2448 52.0632L45.6998 48.8428C45.3302 44.8812 43.9522 39.4693 41.8082 36.097L41.8038 36.0938Z" fill="#1A171C"/>
<path d="M40.6359 35.4168C39.7276 35.5095 39.2794 35.6043 38.6696 35.7142L40.9742 33.8071L35.4794 37.062L33.2168 38.9346L35.1842 38.6372C35.3027 38.7908 35.4511 38.9187 35.6205 39.0132L41.2382 35.7702L40.6359 35.4168Z" fill="#1A171C"/>
<path d="M35.9329 39.1643C35.3489 38.9252 36.0568 39.2344 36.3401 39.3001C36.2108 39.2635 36.0686 39.2161 35.934 39.1643H35.9329Z" fill="#1A171C"/>
<path d="M26.1814 54.3686C25.5425 54.4764 25.6147 55.4234 26.2676 55.4234C27.0304 55.4234 26.9356 54.2437 26.1814 54.3686Z" fill="#1A171C"/>
<path d="M25.287 39.0888C15.0515 43.0688 20.3524 43.6269 29.3812 38.8948C29.7044 38.7289 30.7689 38.1687 30.7366 37.811C30.2119 37.2259 26.0207 38.799 25.287 39.0888Z" fill="#1A171C"/>
<path d="M38.7869 32.7534L38.7998 32.7459L38.8085 32.7405C24.7805 33.9299 14.9932 40.0088 14.1636 42.1442C19.1994 37.7925 26.7295 36.5201 33.3632 35.9566L38.7869 32.7534Z" fill="#1A171C"/>
<path d="M11.8257 56.0625C11.9276 56.55 12.0644 57.0296 12.2351 57.4976C14.1044 57.1237 15.8639 56.8285 17.6556 56.5021L17.8474 56.4676C18.4076 56.0366 19.1855 55.3977 18.7998 54.9075L11.8257 56.0625Z" fill="#1A171C"/>
<path d="M16.7841 54.0498C15.0749 54.2159 13.3769 54.4817 11.6987 54.846C11.6987 54.9322 11.6987 55.0184 11.7063 55.1035C13.8891 54.8449 16.0799 54.6514 18.2785 54.5228C17.8004 54.3078 17.2989 54.1491 16.7841 54.0498Z" fill="#1A171C"/>
<path d="M45.6987 48.8427L40.2437 52.0631C39.8839 48.2113 38.5608 42.4687 36.3542 39.3215C34.1121 39.8602 31.2904 40.3128 28.5742 40.3343C23.9865 42.1088 17.2085 44.686 12.5465 46.3247C12.5174 46.398 12.4894 46.4713 12.4614 46.5402C12.4226 48.7565 12.8632 51.5362 13.3233 53.6857C21.5925 53.2472 31.9627 52.66 40.2426 52.0598C40.3385 53.1707 40.3332 53.1049 40.5454 55.5615C41.3847 55.0648 45.9519 52.368 46.0015 52.34L45.6987 48.8427Z" fill="#646567"/>
<path d="M17.8024 56.5031C17.8175 56.4912 17.8336 56.4805 17.8487 56.4675L17.658 56.502C16.8457 56.6496 16.0311 56.7929 15.2188 56.9384C15.6971 57.4027 16.1518 57.9177 16.6032 58.4144C19.871 58.8648 22.0981 60.7578 23.6819 63.4373C25.173 65.966 35.9408 68.8169 35.9278 68.7415C35.9278 68.2028 34.6425 61.8126 38.5201 56.5559C32.4025 56.5645 23.8909 56.5548 17.8024 56.5031Z" fill="#646567"/>
<path d="M28.9578 39.7967C31.2645 40.0542 31.8668 39.662 35.683 39.0501C35.4873 38.9512 35.3159 38.8103 35.181 38.6374L33.2136 38.9348L35.5204 37.0277C34.472 36.3931 34.152 36.2326 33.3655 35.9568C26.72 36.5246 19.1964 37.7959 14.1638 42.1444C13.6509 43.4061 13.1844 44.6882 12.6909 45.9595C15.7756 44.6052 20.5862 43.2854 28.9578 39.7967ZM25.0715 38.8637C26.1091 38.4435 31.1051 36.5407 31.7246 37.4684C31.7742 38.2334 29.0677 39.4078 28.362 39.7181C16.9058 44.7 17.3648 41.9871 25.0715 38.8637Z" fill="#646567"/>
<path d="M18.2754 54.5227C16.0803 54.6498 13.8896 54.8434 11.7031 55.1034C11.7185 55.4257 11.7585 55.7462 11.8227 56.0624L18.799 54.9074C18.6541 54.743 18.4755 54.6118 18.2754 54.5227Z" fill="#646567"/>
<path d="M19.9428 49.0054C21.5988 48.2663 23.0964 47.6587 23.7881 47.4055C23.7978 47.3247 23.8065 47.2428 23.8205 47.162C22.1052 47.7341 20.3835 48.2685 18.7081 48.944H18.4765L18.4409 48.7404C21.9792 47.3063 30.0329 44.6052 36.2453 43.3662C33.2134 44.3424 25.7835 46.8355 20.8242 49.0916C20.5322 49.0561 20.237 49.0281 19.9428 49.0054Z" fill="#C0000F"/>
<path d="M33.6156 43.5278C33.1784 42.7323 32.8697 41.8727 32.7009 40.9808C32.9983 40.909 33.2856 40.8443 33.5628 40.7869C33.7934 41.7221 34.0056 42.4838 34.4011 43.3285L33.6156 43.5278ZM31.1742 44.1603C31.0977 43.9028 31.0169 43.6453 30.9393 43.3878C31.2949 43.5785 31.6493 43.7659 32.0113 43.9415C32.536 43.8047 33.0424 43.6743 33.5133 43.5548C32.8668 43.2423 32.2031 42.9676 31.5739 42.6077C31.9381 42.069 32.2753 41.5238 32.6438 40.9916C32.2739 41.0778 31.8892 41.1711 31.4899 41.2717C31.2076 41.6574 30.9512 42.0604 30.6667 42.4482C30.5848 42.1455 30.5116 41.8427 30.4512 41.5389C30.128 41.6219 29.8048 41.7091 29.4729 41.8007C29.6949 42.6756 29.9438 43.5483 30.2142 44.4102C30.5331 44.3262 30.8542 44.2421 31.172 44.1592L31.1742 44.1603ZM28.2889 45.0718C30.3694 44.7313 29.8231 43.8198 29.1691 41.9472C28.9073 42.0194 28.6423 42.0916 28.3718 42.1681C28.7597 43.4729 29.1336 44.2066 28.3815 44.3305C27.8008 44.4253 27.4679 43.2682 27.3041 42.473C27.0003 42.5599 26.6921 42.6497 26.3797 42.7424C26.9173 44.1947 26.704 45.3303 28.2867 45.0707L28.2889 45.0718ZM19.356 50.0893C20.3073 49.9676 21.1876 49.8738 21.8103 49.807C25.3658 47.9345 32.1848 45.4413 35.7478 44.2141C31.3132 45.0868 24.8206 47.191 19.3538 50.0882L19.356 50.0893ZM25.174 43.8791C24.7862 44.5115 24.3875 45.172 23.977 45.8033L24.1031 46.244C24.5804 46.0554 25.5845 45.7505 26.8257 45.3993C26.746 45.1698 26.6673 44.936 26.5941 44.7001C26.148 44.8078 25.7041 44.9252 25.2656 45.0685C25.5242 44.6742 25.8528 44.1991 26.2935 43.6065C26.2267 43.308 26.1857 43.0678 26.1491 42.8113C25.2671 43.0714 24.3495 43.3497 23.3963 43.6463C23.4545 43.8985 23.5166 44.1499 23.5827 44.4005C24.1092 44.221 24.6382 44.0468 25.1697 43.878L25.174 43.8791ZM22.2392 46.995C24.1785 46.6782 23.8176 45.6277 23.086 43.7422L22.2499 44.0062C22.5279 44.7604 23.0774 46.0695 22.2812 46.1998C21.6455 46.3076 21.3794 45.1224 21.2393 44.3273L20.3041 44.6289C20.7448 46.4983 21.0389 47.191 22.2348 46.9939L22.2392 46.995ZM23.7885 47.4065C23.7982 47.3257 23.8068 47.2438 23.8208 47.163C21.6832 47.8763 19.4152 48.5637 17.3197 49.5431C17.2798 49.7919 17.2485 50.0419 17.2119 50.2908C19.4788 49.1595 22.4557 47.8924 23.7885 47.4065ZM18.4014 46.8398C18.6632 46.7967 18.9347 46.7094 19.1319 46.6771C20.3774 46.4692 19.5768 47.6468 18.9606 46.9626C18.7332 47.0391 18.118 47.2503 17.8304 47.3462C18.3464 48.7037 21.0163 47.692 20.831 46.5608C20.6456 45.4295 19.1987 46.022 18.9994 46.0565C18.2904 46.1729 18.647 45.3788 19.314 45.7592C19.6372 45.6439 19.9604 45.5566 20.2966 45.4704C19.9346 45.1321 19.3926 45.0394 18.8895 45.1213C17.3089 45.3767 17.1473 47.0521 18.396 46.8387L18.4014 46.8398Z" fill="white"/>
<path d="M40.2436 52.0642C31.9528 52.6643 21.5762 53.2494 13.3242 53.69C13.3824 53.9615 13.4427 54.2287 13.5041 54.4959C14.5191 54.3149 15.673 54.1533 16.7838 54.0499C19.5496 54.6338 19.2867 55.3665 17.8494 56.4676C17.8343 56.4805 17.8181 56.4913 17.8031 56.5032C23.8969 56.5549 32.415 56.5613 38.5197 56.557C39.2017 56.2457 39.8772 55.9106 40.5474 55.5658C40.3254 53.0091 40.3157 52.9014 40.2436 52.0642ZM26.2673 55.4236C25.6143 55.4236 25.5422 54.4722 26.1811 54.3688C26.9353 54.2438 27.0301 55.4236 26.2673 55.4236Z" fill="#929395"/>
<path d="M28.3618 39.718C29.061 39.4142 31.774 38.2355 31.7244 37.4684C31.1071 36.5407 26.1089 38.4435 25.0713 38.8636C17.1781 42.0636 17.1566 44.5901 28.3618 39.718ZM25.4937 39.0091C27.9642 38.061 30.3669 37.3984 30.7386 37.811C30.7709 38.1687 29.7021 38.729 29.3832 38.8949C20.3091 43.6495 14.9597 43.0139 25.4937 39.0091Z" fill="#929395"/>
<path d="M28.5741 40.3342C31.2946 40.3127 34.112 39.858 36.3541 39.3215C36.3503 39.3137 36.3456 39.3065 36.3401 39.2999C36.1216 39.251 35.9109 39.1719 35.7141 39.065L35.6861 39.051C31.8882 39.6598 31.2687 40.0552 28.9609 39.7977C20.5786 43.2864 15.7776 44.6051 12.6897 45.9605C12.6412 46.0823 12.5949 46.204 12.5464 46.3247C17.2084 44.6859 23.9864 42.1087 28.5741 40.3342Z" fill="#929395"/>
<path d="M289.974 42.8606C289.791 43.6547 289.475 44.3948 289.143 45.134C288.265 45.2191 287.353 45.3042 286.415 45.3915C275.26 46.4225 260.213 47.5463 251.308 47.5463C238.117 47.5463 173.417 47.4946 160.652 47.5711C106.053 47.8943 42.3771 64.9089 2.22595 66.7491C1.58524 66.7793 0.951002 66.8048 0.323226 66.8256C0.170408 66.1061 0.0624584 65.3778 0 64.6449C0.521471 64.6288 1.04833 64.6083 1.5795 64.5868C2.29778 64.5566 3.02396 64.5207 3.75804 64.479C43.9835 62.2875 106.741 45.6985 160.651 45.3774C173.416 45.301 238.117 45.3527 251.307 45.3527C261.201 45.3516 278.68 43.9671 289.974 42.8606Z" fill="#7C7C7B"/>
<path d="M21.9104 83.025C20.5098 82.9388 19.3537 82.8645 18.4907 82.8041C18.2558 82.149 18.035 81.4907 17.8389 80.8292L18.8958 80.8949C44.3283 82.4529 91.1012 84.9891 124.086 84.9891C178.34 84.9891 225.233 83.7307 267.047 58.9307C256.506 66.4004 240.127 74.5899 239.556 74.8215C235.541 76.4549 231.113 77.8889 226.392 79.1484C197.288 86.9156 156.989 88.0544 133.138 88.0544C113.426 88.0555 41.9407 84.2597 21.9104 83.025Z" fill="#A9ABB0"/>
<path d="M255.319 35.0538C253.813 34.8919 252.298 34.83 250.783 34.8685C250.676 35.2994 250.765 35.1615 250.655 35.5968L251.625 35.6679C251.625 35.6841 251.615 35.7099 251.609 35.7423C251.574 35.9276 251.501 36.3553 251.435 36.7712L252.486 36.8951C252.536 36.3844 252.586 35.8532 252.623 35.7455C254.756 35.9157 256.126 36.0536 257.071 36.1657C257.05 36.2519 256.998 36.8358 256.944 37.3918C257.279 37.4284 257.614 37.4618 257.947 37.4995C257.967 36.9414 257.983 36.3704 258.009 36.2907C258.763 36.3984 259.139 36.4706 259.632 36.5234C259.771 36.0612 259.691 36.1808 259.74 35.7153C258.277 35.4384 256.804 35.2068 255.319 35.0538Z" fill="#1A171C"/>
<path d="M255.319 35.0538C253.813 34.892 252.298 34.8298 250.784 34.8674C250.676 35.3037 250.765 35.1615 250.655 35.5968L251.625 35.6679C251.625 35.684 251.615 35.7099 251.609 35.7422C247.664 35.2477 242.603 34.7133 237.197 34.1864C240.315 32.7793 243.544 31.3302 243.548 31.3302C243.556 31.329 243.565 31.329 243.573 31.3302C244.851 30.646 246.187 29.95 247.56 29.3337L247.659 29.3574C250.527 30.7927 253.119 32.7208 255.319 35.0538Z" fill="#FAFAFA"/>
<path d="M241.724 26.3904L240.755 26.1673C239.294 25.8319 237.835 25.5055 236.377 25.188L235.356 24.9671C216.474 20.8901 198.363 18.2149 188.433 17.1396L197.383 24.6396C198.697 25.8323 199.16 26.5175 198.892 27.1629C198.204 28.835 195.885 31.339 188.577 31.7624C192.148 31.6816 194.898 31.6493 196.476 31.6816C203.442 31.8249 210.043 32.2203 216.315 32.7461C229.317 33.8418 240.911 35.5204 251.438 36.7713C251.507 36.3554 251.577 35.9277 251.612 35.7424C247.667 35.2478 242.606 34.7134 237.2 34.1866C235.733 34.0444 234.242 33.9032 232.74 33.7621L231.262 33.6252C230.428 33.5477 229.595 33.4715 228.762 33.3968L227.989 33.3268L227.551 33.2923L226.541 33.2018C224.728 33.0391 222.931 32.8786 221.178 32.7299L220.35 32.6577L216.356 32.3173C211.881 31.9402 207.925 31.6191 205.043 31.3907C202.749 28.3179 200.371 25.2494 197.831 22.3813C197.607 22.127 197.382 21.8756 197.155 21.6271C196.589 21 196.018 20.3891 195.444 19.7944C208.408 21.1261 235.248 26.3257 247.569 29.336L247.669 29.3597C250.534 30.7949 253.125 32.7223 255.324 35.0539C256.808 35.2069 258.281 35.4385 259.751 35.7111C259.699 36.1766 259.78 36.057 259.643 36.5192C259.15 36.4664 258.769 36.391 258.019 36.2865C257.993 36.3662 257.977 36.9329 257.958 37.4953C266.047 38.3174 273.496 38.7279 280.476 38.2054C269.543 33.5768 255.65 29.6129 241.724 26.3904Z" fill="#EDEDED"/>
<path d="M252.49 36.8951C253.999 37.0703 255.485 37.2355 256.949 37.3907C257.002 36.8347 257.056 36.2508 257.076 36.1646C256.131 36.0568 254.76 35.9146 252.627 35.7444C252.59 35.8532 252.541 36.3844 252.49 36.8951Z" fill="#EDEDED"/>
<path d="M247.565 29.3361C246.191 29.9523 244.855 30.6484 243.579 31.3325C243.57 31.3314 243.561 31.3314 243.553 31.3325C243.553 31.3325 240.321 32.7816 237.202 34.1888C235.735 34.0465 234.244 33.9054 232.742 33.7643C233.336 33.2271 233.765 32.5326 233.979 31.7614C234.194 30.9902 234.186 30.1739 233.955 29.4073C233.724 28.6407 233.281 27.9552 232.677 27.4304C232.072 26.9056 231.331 26.563 230.54 26.4424C229.748 26.3219 228.939 26.4282 228.205 26.7492C227.472 27.0702 226.845 27.5925 226.396 28.2557C225.948 28.9189 225.697 29.6956 225.672 30.4958C225.647 31.296 225.85 32.0867 226.257 32.7763C226.343 32.9222 226.438 33.0628 226.541 33.1975C224.728 33.0348 222.931 32.8743 221.178 32.7256C213.603 26.2977 202.402 22.7056 197.152 21.6207C196.588 20.9979 196.018 20.3892 195.444 19.7944C208.404 21.1261 235.244 26.3257 247.565 29.3361Z" fill="#C6C7C8"/>
<path d="M234.854 23.1926C234.704 23.615 234.803 23.4835 234.648 23.9037L235.609 24.0804C235.576 24.1699 235.469 24.5534 235.355 24.9671L236.376 25.188C236.431 24.8765 236.503 24.5683 236.592 24.2647C238.694 24.6644 240.039 24.9488 240.969 25.1632C240.941 25.2387 240.852 25.689 240.754 26.1674L241.723 26.3904C241.793 25.9056 241.856 25.4541 241.888 25.3841C242.622 25.5694 242.991 25.6858 243.477 25.7914C243.665 25.3464 243.571 25.4563 243.672 24.9995C240.803 24.1343 237.894 23.435 234.854 23.1926Z" fill="#1A171C"/>
<path d="M230.731 30.1333C230.828 30.2975 230.874 30.4868 230.864 30.6772C230.853 30.8676 230.786 31.0506 230.671 31.203C230.557 31.3553 230.399 31.4703 230.219 31.5333C230.039 31.5963 229.845 31.6045 229.66 31.5569C229.476 31.5093 229.309 31.408 229.182 31.2659C229.055 31.1237 228.973 30.9471 228.946 30.7583C228.919 30.5694 228.949 30.3769 229.032 30.2051C229.115 30.0333 229.246 29.8898 229.411 29.7928C229.52 29.7283 229.64 29.6859 229.766 29.668C229.891 29.6502 230.019 29.6573 230.142 29.6889C230.264 29.7206 230.38 29.7761 230.481 29.8523C230.582 29.9286 230.667 30.0241 230.731 30.1333Z" fill="#7B7C7E"/>
<path d="M232.518 30.9704L233.437 30.9607C233.389 31.4591 233.236 31.9419 232.989 32.3773C232.742 32.8126 232.405 33.1909 232.002 33.4872L231.535 32.6964C232.075 32.2706 232.427 31.6516 232.518 30.9704ZM232.96 28.8155C232.707 28.387 232.367 28.0163 231.962 27.7273L231.51 28.5268C232.06 28.9509 232.421 29.5732 232.517 30.2604L233.435 30.2517C233.381 29.7451 233.219 29.256 232.96 28.8177V28.8155ZM228.952 29.0138C228.633 29.2015 228.378 29.4793 228.218 29.8121C228.058 30.1449 228 30.5177 228.052 30.8834C228.104 31.2491 228.263 31.5912 228.509 31.8665C228.755 32.1418 229.077 32.3378 229.435 32.4299C229.793 32.522 230.17 32.506 230.518 32.3838C230.867 32.2617 231.171 32.0389 231.393 31.7437C231.615 31.4485 231.744 31.0941 231.765 30.7254C231.785 30.3566 231.696 29.9901 231.508 29.6721C231.383 29.4611 231.218 29.2767 231.022 29.1296C230.826 28.9824 230.603 28.8753 230.366 28.8144C230.128 28.7534 229.881 28.7399 229.639 28.7744C229.396 28.809 229.162 28.8911 228.952 29.0159V29.0138ZM229.071 31.1104C228.974 30.9462 228.928 30.7569 228.939 30.5664C228.949 30.3759 229.016 30.1929 229.131 30.0404C229.245 29.888 229.403 29.773 229.583 29.71C229.763 29.6469 229.958 29.6387 230.142 29.6864C230.327 29.734 230.493 29.8354 230.621 29.9776C230.748 30.1199 230.83 30.2967 230.856 30.4855C230.883 30.6744 230.853 30.867 230.77 31.0388C230.687 31.2107 230.555 31.3541 230.391 31.4509C230.171 31.5808 229.909 31.6182 229.661 31.5548C229.414 31.4913 229.201 31.3323 229.071 31.1126V31.1104ZM228.413 27.3998L228.879 28.1906C229.199 28.0555 229.542 27.9848 229.889 27.9826C230.236 27.9804 230.579 28.0467 230.901 28.1777L231.352 27.3793C230.889 27.1725 230.387 27.0674 229.88 27.0709C229.373 27.0744 228.873 27.1866 228.413 27.3998ZM228.944 33.0821L228.767 33.3967C229.601 33.4686 230.434 33.5447 231.267 33.6251L230.931 33.0563C230.296 33.3241 229.581 33.3334 228.94 33.0821H228.944ZM227.632 31.9648C227.46 31.6744 227.346 31.3536 227.296 31.0199L226.375 31.0286C226.476 31.9018 226.895 32.7074 227.551 33.2922L227.992 33.3321L228.322 32.7438C228.041 32.533 227.805 32.2681 227.627 31.9648H227.632ZM226.894 28.739C226.595 29.2178 226.414 29.7606 226.366 30.3228L227.284 30.3132C227.324 29.9687 227.432 29.6357 227.602 29.333C227.771 29.0304 227.998 28.7641 228.271 28.5494L227.804 27.7597C227.439 28.0246 227.129 28.3571 226.889 28.739H226.894Z" fill="#A7A8AA"/>
<path d="M233.546 28.4707C232.967 27.5217 232.037 26.8387 230.959 26.5693C229.88 26.2999 228.739 26.4657 227.781 27.031C226.824 27.5963 226.128 28.5156 225.843 29.5902C225.558 30.6649 225.707 31.8085 226.258 32.7739C226.344 32.9201 226.439 33.0608 226.543 33.1952L227.552 33.2857C226.895 32.7017 226.475 31.8964 226.374 31.0231L227.294 31.0145C227.398 31.7004 227.768 32.3178 228.324 32.733L227.993 33.3213L228.765 33.3913L228.942 33.0767C229.582 33.3268 230.295 33.3175 230.929 33.0508L231.265 33.6197L232.743 33.7565C233.464 33.102 233.938 32.2191 234.084 31.2563C234.23 30.2935 234.04 29.3098 233.546 28.4707ZM231.962 27.7295C232.372 28.0222 232.715 28.3985 232.969 28.8337C233.223 29.2688 233.382 29.7529 233.435 30.2538L232.517 30.2625C232.421 29.5753 232.06 28.953 231.511 28.5289L231.962 27.7295ZM231.348 27.3793L230.897 28.1777C230.575 28.0466 230.231 27.9803 229.885 27.9826C229.538 27.9848 229.195 28.0555 228.875 28.1906L228.409 27.3998C228.869 27.1865 229.369 27.0744 229.876 27.0708C230.383 27.0673 230.885 27.1725 231.348 27.3793ZM227.28 30.3131L226.362 30.3228C226.41 29.7605 226.591 29.2178 226.89 28.739C227.128 28.3574 227.437 28.025 227.8 27.7596L228.267 28.5494C227.994 28.7641 227.767 29.0304 227.597 29.333C227.428 29.6356 227.32 29.9687 227.28 30.3131ZM230.85 32.2309C230.532 32.4187 230.166 32.5081 229.797 32.4876C229.428 32.4671 229.074 32.3377 228.779 32.1158C228.483 31.8938 228.261 31.5894 228.138 31.2408C228.016 30.8923 228 30.5154 228.092 30.1577C228.184 29.8001 228.381 29.4777 228.656 29.2315C228.931 28.9853 229.273 28.8263 229.639 28.7745C230.005 28.7228 230.377 28.7806 230.71 28.9408C231.043 29.1009 231.321 29.3561 231.508 29.6742C231.76 30.1006 231.832 30.6094 231.708 31.0887C231.585 31.5681 231.276 31.9789 230.85 32.2309ZM232.002 33.4872L231.535 32.6964C232.074 32.2711 232.427 31.6529 232.518 30.9725L233.437 30.9628C233.389 31.4609 233.236 31.9432 232.989 32.3782C232.742 32.8132 232.405 33.1911 232.002 33.4872Z" fill="#EDEDED"/>
<path d="M221.177 32.7242L220.348 32.652C213.13 26.9073 203.11 23.5673 197.83 22.3746C197.606 22.1203 197.381 21.8689 197.154 21.6204C202.401 22.7032 213.602 26.2964 221.177 32.7242Z" fill="#EDEDED"/>
<path d="M220.348 32.6524L216.354 32.3119C211.88 31.9348 207.923 31.6138 205.041 31.3854C202.747 28.3126 200.37 25.2441 197.83 22.376C203.108 23.5676 213.126 26.9076 220.348 32.6524Z" fill="#A7A8AA"/>
<path d="M226.392 79.1494C213.531 84.4632 192.619 90.0001 144.775 90.0001C135.247 90.0001 55.2417 88.2579 23.0549 83.9439C22.6756 83.6272 22.2942 83.3208 21.9106 83.0249C41.9409 84.2596 113.427 88.0554 133.138 88.0554C156.989 88.0554 197.289 86.9165 226.392 79.1494Z" fill="#A9ABB0"/>
<path d="M182.612 29.9211C189.236 29.2833 193.782 28.5205 195.88 27.1435C196.404 26.8009 196.774 26.4195 196.987 25.9928L187.679 18.1277L186.245 16.9156L184.744 15.6464L173.148 5.84186C173.137 5.90074 173.12 5.95846 173.098 6.01424C172.134 8.44921 170.267 8.92327 166.643 9.2465C165.8 9.32084 164.862 9.38657 163.818 9.46198C162.618 9.55464 161.278 9.66454 159.781 9.82938C161.572 11.4649 163.858 13.5389 166.432 15.8446C166.932 16.2928 167.445 16.7496 167.965 17.2151L169.085 18.2117C169.771 18.8201 170.469 19.4378 171.178 20.0649L171.738 20.5594C173.127 21.7823 174.554 23.0278 175.991 24.2733C178.198 26.1911 180.433 28.1003 182.612 29.9211ZM188.43 17.1397L197.383 24.6396C198.697 25.8323 199.16 26.5175 198.892 27.1629C198.204 28.8351 195.885 31.339 188.577 31.7624C176.941 32.0231 156.578 32.7935 139.476 33.4863L139.458 33.0327C139.496 32.6017 139.516 32.1815 139.515 31.7624L140.485 31.7258L146.619 31.4887L152.886 31.2452L154.861 31.1688L162.391 30.8778C163.228 30.8642 164.054 30.848 164.869 30.8294C170.126 30.7141 174.889 30.5191 179.047 30.2185C177.496 28.8178 175.814 27.3019 174.058 25.7364C172.619 24.4435 171.134 23.1258 169.648 21.8092L169.046 21.277C168.118 20.457 167.192 19.6414 166.277 18.8388C166.097 18.6815 165.918 18.5242 165.738 18.369C165.357 18.035 164.978 17.7042 164.602 17.3767C164.071 16.9141 163.546 16.4595 163.029 16.0127C160.494 13.8234 158.15 11.842 156.235 10.2959C150.094 11.2171 141.854 13.122 130.777 17.5394C129.503 18.0472 128.19 18.5892 126.839 19.1652C126.336 19.3807 125.828 19.6005 125.316 19.8246C124.513 19.5542 123.721 19.3074 122.956 19.0876C123.977 18.6287 124.977 18.1887 125.957 17.7678C143.858 10.0686 155.083 8.5117 161.991 7.91697C163.019 7.82862 163.951 7.76182 164.792 7.70148C168.228 7.44937 170.213 7.27051 171.269 6.02071C171.557 5.6682 171.774 5.26267 171.908 4.82693C172.069 4.33131 172.039 3.65362 171.507 2.96191L188.43 17.1397Z" fill="#363636"/>
<path d="M184.744 15.6463L186.245 16.9155C184.09 16.7097 182.488 16.6052 181.551 16.6052C181.551 16.6052 176.193 16.8433 167.966 17.2215C167.445 16.7561 166.932 16.2992 166.432 15.851L171.065 15.6356C169.018 13.8901 166.432 11.6857 163.822 9.47378C164.866 9.39406 165.803 9.32833 166.647 9.2583L174.099 15.4976L174.603 15.4739C176.03 15.4545 177.475 15.4287 178.924 15.4287C180.864 15.419 182.816 15.4664 184.744 15.6463Z" fill="black"/>
<path d="M177.59 21.8479C177.59 22.5827 176.984 23.4091 175.991 24.2796C174.554 23.0341 173.127 21.7886 171.738 20.5658C172.625 20.1122 173.553 19.7825 174.509 19.7825C175.868 19.7825 177.59 20.5324 177.59 21.8479Z" fill="#929395"/>
<path d="M196.987 25.9929C196.772 26.4239 196.404 26.801 195.881 27.1436C193.783 28.5173 189.236 29.2833 182.612 29.9212C180.434 28.1003 178.195 26.1911 175.991 24.2798C176.985 23.4092 177.59 22.5829 177.59 21.8481C177.59 20.5325 175.866 19.7826 174.51 19.7826C173.553 19.7826 172.625 20.1123 171.739 20.5659L171.179 20.0714C170.47 19.4451 169.772 18.8273 169.085 18.2182C176.676 17.8702 181.549 17.6526 181.551 17.6526C182.477 17.6526 184.056 17.7549 186.174 17.9564H186.19C186.691 17.96 187.19 18.0167 187.679 18.1256L196.987 25.9929ZM164.869 30.8284C170.126 30.7131 174.889 30.5181 179.047 30.2175C177.497 28.8168 175.815 27.3009 174.058 25.7354C171.48 27.4657 167.916 29.2693 164.869 30.8284Z" fill="#EDEDED"/>
<path d="M171.509 2.96068C172.041 3.65238 172.071 4.33008 171.91 4.82569C171.776 5.26144 171.559 5.66696 171.271 6.01947C171.271 4.80091 170.367 3.55864 169.379 3.07488C166.444 2.06211 162.753 1.46845 157.376 1.48892L164.794 7.70024C163.951 7.76166 163.019 7.82846 161.993 7.91573C159.114 5.47106 156.369 3.14707 154.482 1.55895C141.503 2.33146 122.433 11.1814 108.369 18.593L115.089 18.2697C114.086 18.5531 113.103 19.0638 112.534 19.8729C109.113 20.0496 105.45 20.2414 102.228 20.4116C116.671 12.4711 140.482 0.465373 155.435 0.0333273C162.476 -0.170305 166.855 0.572037 170.255 1.90911C170.736 2.17607 171.162 2.53306 171.509 2.96068Z" fill="black"/>
<path d="M170.01 24.4251C170.353 24.9455 170.684 25.4734 171.009 26.0046C168.208 27.429 165.892 28.4493 163.828 29.4114C163.632 28.6637 163.435 27.9138 163.218 27.1715C165.265 25.9863 167.24 24.6481 169.267 23.4177C169.528 23.7431 169.78 24.0749 170.01 24.4251Z" fill="#EDEDED"/>
<path d="M169.648 21.8081C171.134 23.1247 172.619 24.4467 174.058 25.7353C171.48 27.4656 167.917 29.2692 164.869 30.8283C164.055 30.8462 163.229 30.8624 162.391 30.8767L154.861 31.1676C155.643 30.6785 156.413 30.1689 157.198 29.6894C163.231 26.0014 158.677 28.4181 168.99 22.2164C169.206 22.0872 169.425 21.9492 169.648 21.8081ZM171.009 26.01C170.686 25.4789 170.353 24.9509 170.011 24.4305C169.78 24.0804 169.528 23.7485 169.267 23.4232C167.24 24.6536 165.271 25.9885 163.218 27.1769C163.434 27.9192 163.632 28.6691 163.828 29.4168C165.893 28.4493 168.208 27.429 171.009 26.0047V26.01Z" fill="#929395"/>
<path d="M169.047 21.2756L169.649 21.8079C169.426 21.949 169.206 22.0869 168.992 22.2162C158.679 28.4178 163.23 26.0012 157.2 29.6892C156.415 30.1687 155.645 30.6783 154.863 31.1674L152.886 31.245C154.038 30.4983 156.872 28.712 160.017 26.7597C163.162 24.8074 166.64 22.6806 169.047 21.2756Z" fill="#EDEDED"/>
<path d="M166.277 18.8376C167.192 19.6403 168.118 20.4538 169.046 21.2758C166.64 22.6765 163.172 24.8033 160.018 26.7588C161.065 23.4091 163.368 20.7027 166.277 18.8376Z" fill="#929395"/>
<path d="M163.03 16.0115C163.547 16.4575 164.071 16.9122 164.603 17.3755C154.17 17.856 140.265 18.5057 126.84 19.164C128.191 18.5894 129.504 18.0474 130.778 17.5382L163.03 16.0115Z" fill="black"/>
<path d="M152.245 21.474C152.147 21.7024 152.048 21.9287 151.949 22.1528C145.442 21.6065 138.871 21.0754 132.327 21.0754C131.185 21.0754 130.037 21.0969 128.885 21.14C128.348 20.9245 127.807 20.7144 127.263 20.5097C128.955 20.4203 130.647 20.3718 132.327 20.3718C138.97 20.3761 145.641 20.9181 152.245 21.474Z" fill="#B2BDD6"/>
<path d="M151.948 22.1527C150.52 25.385 148.868 28.2089 146.623 30.7818H140.514C140.42 29.3542 139.739 27.9514 138.78 26.861C137.173 25.0294 133.164 22.8746 128.885 21.1442C130.035 21.1026 131.182 21.081 132.327 21.0796C138.871 21.0796 145.442 21.6064 151.948 22.1527Z" fill="#3458AD"/>
<path d="M139.518 31.7603C139.518 32.1794 139.499 32.6039 139.461 33.0305L139.479 33.4841L133.321 33.7362C133.143 33.1293 132.87 32.5543 132.512 32.0328L139.518 31.7603Z" fill="#363636"/>
<path d="M133.321 33.7352L130.767 33.8429C130.65 33.2313 130.414 32.6486 130.072 32.1277L132.512 32.0339C132.869 32.5548 133.142 33.129 133.321 33.7352Z" fill="#363636"/>
<path d="M130.768 33.8407L125.352 34.0659C125.056 33.4455 124.675 32.869 124.221 32.3528L130.073 32.1255C130.414 32.6464 130.65 33.2291 130.768 33.8407Z" fill="#363636"/>
<path d="M118.923 18.1006L125.958 17.7688C124.978 18.189 123.977 18.6289 122.957 19.0886C121.341 18.6243 119.833 18.2838 118.578 18.119L118.923 18.1006Z" fill="black"/>
<path d="M125.352 34.0659L124.382 34.1068C124.162 33.5731 123.856 33.0786 123.477 32.6426C123.405 32.5596 123.324 32.4756 123.239 32.3905L124.215 32.3528C124.672 32.8686 125.054 33.4451 125.352 34.0659Z" fill="#363636"/>
<path d="M125.317 19.8245C124.983 19.9682 124.646 20.1165 124.307 20.2695C123.411 19.9463 122.632 19.6888 122.036 19.5045L122.287 19.3936L122.956 19.0908C123.722 19.3063 124.514 19.553 125.317 19.8245Z" fill="#363636"/>
<path d="M124.307 20.2684L124.154 20.3373C122.944 20.3977 121.439 20.4752 119.751 20.5614C120.525 20.198 121.286 19.8453 122.036 19.5034C122.632 19.6877 123.411 19.9495 124.307 20.2684Z" fill="#363636"/>
<path d="M112.451 32.8073L123.245 32.3904C123.33 32.4755 123.411 32.5595 123.483 32.6425C123.862 33.0785 124.167 33.573 124.388 34.1067C120.536 34.2683 117.241 34.4084 114.761 34.5161C113.831 33.8933 112.862 33.3301 111.86 32.83L112.451 32.8073Z" fill="#363636"/>
<path d="M121.123 21.7176C119.873 22.2987 118.593 22.9092 117.283 23.5492C116.52 23.2454 115.855 22.962 115.333 22.6959C116.841 21.9467 118.313 21.2353 119.75 20.5615C121.438 20.4753 122.943 20.3977 124.153 20.3374C123.799 20.4947 123.442 20.6549 123.081 20.8179C122.437 21.1103 121.784 21.4102 121.123 21.7176Z" fill="#363636"/>
<path d="M121.749 19.415L122.287 19.3892L122.035 19.5034L121.749 19.415Z" fill="#1F3A78"/>
<path d="M118.578 18.1158L115.087 18.2806C115.533 18.1538 115.99 18.068 116.452 18.0242C117.162 17.9762 117.875 18.0069 118.578 18.1158Z" fill="#1F3A78"/>
<path d="M139.518 31.7601L132.515 32.0316C132.208 31.5839 131.861 31.1655 131.477 30.7818C128.097 27.3664 121.312 25.1566 117.285 23.5491C118.596 22.9091 119.876 22.2986 121.125 21.7175C121.787 21.4093 122.44 21.1094 123.085 20.8178L124.157 20.3362L124.31 20.2683C124.633 20.3836 124.972 20.5054 125.322 20.6347C125.829 20.8232 126.363 21.0236 126.912 21.238C131.179 22.8972 136.393 25.2622 138.055 27.1638C138.928 28.1637 139.348 29.4199 139.475 30.7839C139.502 31.1029 139.517 31.4304 139.518 31.7601ZM122.036 19.5012L121.749 19.4129C121.534 19.3504 121.358 19.3051 121.21 19.262C118.639 18.6027 116.652 18.872 115.203 19.5238C115.059 19.5897 114.922 19.6706 114.796 19.7652C114.422 20.0313 114.148 20.4153 114.019 20.8555C113.932 21.1727 113.971 21.5109 114.126 21.8004L114.139 21.8252C114.297 22.0946 114.716 22.3822 115.325 22.6936C116.833 21.9444 118.305 21.233 119.742 20.5592C120.521 20.1979 121.286 19.8453 122.036 19.5012Z" fill="#A7A8AA"/>
<path d="M117.282 23.5491C116.649 23.8594 116.008 24.1762 115.359 24.4994C114.561 24.2042 113.948 23.9488 113.473 23.6288C114.1 23.3114 114.72 23.0003 115.332 22.6958C115.855 22.9619 116.52 23.2453 117.282 23.5491Z" fill="#363636"/>
<path d="M113.473 23.6289C113.948 23.9521 114.561 24.2043 115.359 24.4995C114.431 24.9628 113.489 25.4411 112.533 25.9346C112.152 25.7909 111.771 25.6541 111.391 25.5241C111.387 25.2447 111.39 24.9667 111.401 24.6902C112.099 24.3282 112.79 23.9744 113.473 23.6289Z" fill="#363636"/>
<path d="M130.073 32.1253L124.226 32.3527L124.218 32.3419C122.386 30.2625 117.446 27.7521 112.539 25.9345C113.495 25.441 114.437 24.9627 115.365 24.4994C116.023 24.7439 116.808 25.0144 117.745 25.3699C119.376 25.9884 127.182 29.3294 128.802 30.6913C128.839 30.7204 128.873 30.7506 128.91 30.7818C129.358 31.1732 129.75 31.6254 130.073 32.1253ZM112.716 22.9048C112.575 22.7038 112.458 22.4868 112.368 22.2583C112.326 22.1506 112.285 22.0428 112.249 21.9211C112.149 21.608 112.11 21.2791 112.131 20.9514H112.043C111.889 21.419 111.763 21.8954 111.665 22.3779C111.617 22.6193 111.576 22.8617 111.54 23.1052C111.465 23.6277 111.419 24.1539 111.401 24.6814C112.099 24.3223 112.79 23.9686 113.473 23.6202C113.178 23.4307 112.922 23.1881 112.716 22.9048Z" fill="#A7A8AA"/>
<path d="M111.86 32.8301C112.862 33.3302 113.831 33.8934 114.761 34.5162L111.655 34.6509C110.59 34.1122 109.347 33.5229 108.137 32.9745L111.86 32.8301Z" fill="#363636"/>
<path d="M165.739 18.3679C165.918 18.5231 166.097 18.6804 166.278 18.8377C163.369 20.7027 161.066 23.4092 160.019 26.7589C156.872 28.7112 154.038 30.4975 152.886 31.2452L146.623 31.4877L146.628 31.4823L146.623 30.783C148.868 28.2102 150.52 25.3819 151.948 22.154C152.047 21.9299 152.146 21.7036 152.245 21.4752C145.641 20.9193 138.97 20.3773 132.326 20.3773C130.647 20.3773 128.955 20.4258 127.262 20.5152C127 20.4161 126.736 20.3202 126.473 20.2254C138.735 19.6296 155.669 18.8334 165.739 18.3679ZM140.514 30.782C140.536 31.0959 140.527 31.4113 140.488 31.7236L146.623 31.4866L146.628 31.4812L146.623 30.782H140.514ZM95.7953 21.8243C91.727 23.6918 87.6899 25.624 83.684 27.6208C77.0741 27.5906 70.1086 27.2976 68.3308 27.2976H68.083C69.3608 29.7293 70.4048 34.2426 71.0524 36.3253L71.0621 36.3598C73.2277 36.2456 75.125 36.1173 76.906 36.1173C78.8454 36.1173 80.6371 36.2682 82.4913 36.7509C82.8045 36.5842 83.1155 36.4151 83.4244 36.2434C86.2925 36.1357 89.0205 35.9999 91.6882 35.8437C92.5717 35.305 93.4458 34.7767 94.3106 34.2588C90.0785 33.8989 84.8164 33.0618 84.8164 31.3498C84.8323 31.2565 84.8822 31.1724 84.9565 31.1138C84.8663 30.974 84.8178 30.8115 84.8164 30.6451C84.8164 29.9631 90.0214 27.7576 97.8359 25.564C98.6085 24.2442 100.438 23.6451 101.882 23.5072C102.668 23.4318 103.734 23.5255 104.979 23.7529C107.115 23.267 109.354 22.8058 111.659 22.3889C111.757 21.9062 111.884 21.4298 112.038 20.9623C105.569 21.2963 98.8153 21.6562 95.7953 21.8243Z" fill="#A8A8A7"/>
<path d="M112.533 25.9347C112.219 26.097 111.901 26.2615 111.582 26.4281L111.419 26.3656C111.403 26.0844 111.393 25.8032 111.391 25.5242C111.77 25.6571 112.151 25.7939 112.533 25.9347Z" fill="#363636"/>
<path d="M111.655 34.6508L111.515 34.6573C106.494 34.8728 101.904 35.1884 97.3103 35.488C97.1423 34.5635 97.0011 33.637 96.916 32.7115C98.4108 31.833 99.8764 30.9861 101.313 30.1709C101.852 30.3659 102.47 30.5846 103.172 30.8508L103.319 30.9079C101.941 31.6836 100.535 32.4888 99.1032 33.3234L108.137 32.9743C109.347 33.5228 110.591 34.1078 111.655 34.6508Z" fill="#363636"/>
<path d="M111.582 26.428L111.426 26.5088C111.426 26.4614 111.426 26.4129 111.419 26.3655L111.582 26.428Z" fill="#363636"/>
<path d="M111.665 22.3867C111.617 22.6281 111.576 22.8705 111.54 23.114C109.852 23.42 108.2 23.7497 106.602 24.0944C106.035 23.9598 105.492 23.8434 104.986 23.7507C107.116 23.2648 109.358 22.8037 111.665 22.3867Z" fill="#B2BDD6"/>
<path d="M111.419 26.3655C111.419 26.4129 111.419 26.4614 111.427 26.5088C109.373 27.5797 107.251 28.7222 105.059 29.9361C104.358 29.6678 103.691 29.4146 103.08 29.1743C105.295 27.9353 107.442 26.7677 109.521 25.6716C110.106 25.8785 110.745 26.1112 111.419 26.3655Z" fill="#363636"/>
<path d="M111.54 23.114C111.465 23.6365 111.419 24.1627 111.401 24.6903C111.078 24.8562 110.755 25.025 110.431 25.1967C109.096 24.7571 107.799 24.3821 106.606 24.0945C108.201 23.7497 109.852 23.42 111.54 23.114Z" fill="#3458AD"/>
<path d="M111.391 25.5241C111.391 25.8031 111.403 26.0843 111.419 26.3655C110.744 26.1113 110.106 25.8785 109.521 25.6717L110.427 25.1965C110.746 25.3021 111.068 25.412 111.391 25.5241Z" fill="#363636"/>
<path d="M111.405 24.6902C111.394 24.9667 111.391 25.2447 111.395 25.5241C111.072 25.4164 110.749 25.3022 110.431 25.2009C110.755 25.0271 111.08 24.8568 111.405 24.6902Z" fill="#363636"/>
<path d="M123.245 32.3906L112.451 32.8075L111.86 32.8302C109.619 31.6935 107.176 30.7464 105.059 29.9362C107.25 28.7209 109.373 27.5785 111.427 26.5089L111.582 26.4281C115.786 28.0227 121.25 30.42 123.245 32.3906ZM106.645 24.7409C106.118 24.6036 105.582 24.5021 105.041 24.4371C103.956 24.2905 102.853 24.3472 101.789 24.6041C101.395 24.7031 101.01 24.8365 100.638 25.0027C100.279 25.1675 99.9689 25.4225 99.7376 25.7429C99.4144 26.1922 99.2819 26.7524 99.5598 27.2793C99.8378 27.8062 101.204 28.4332 103.08 29.1702C105.295 27.9311 107.442 26.7636 109.521 25.6675C108.218 25.2117 107.187 24.8885 106.645 24.7452V24.7409Z" fill="#A7A8AA"/>
<path d="M105.059 29.936C104.485 30.2549 103.905 30.5782 103.319 30.9057L103.172 30.8486C102.47 30.5825 101.854 30.3637 101.313 30.1687C101.906 29.8319 102.495 29.4997 103.08 29.1721C103.691 29.4135 104.358 29.6677 105.059 29.936Z" fill="#363636"/>
<path d="M140.488 31.7236L139.518 31.7602C139.518 31.4306 139.502 31.103 139.472 30.782C139.341 29.4179 138.924 28.1617 138.052 27.1618C136.394 25.2623 131.176 22.8974 126.909 21.236C126.36 21.0205 125.826 20.8212 125.319 20.6327C124.969 20.5034 124.63 20.3816 124.307 20.2663C124.647 20.1155 124.983 19.9672 125.317 19.8214C125.7 19.9496 126.086 20.0843 126.473 20.2222C126.736 20.317 127 20.4129 127.263 20.512C127.806 20.7145 128.346 20.9246 128.885 21.1423C133.164 22.8726 137.173 25.0318 138.78 26.8591C139.739 27.9494 140.42 29.3522 140.514 30.7798C140.536 31.0945 140.527 31.4106 140.488 31.7236ZM117.282 23.5492C116.649 23.8595 116.008 24.1763 115.359 24.4995C116.017 24.7441 116.803 25.0145 117.739 25.3701C119.37 25.9885 127.176 29.3296 128.797 30.6914C128.833 30.7205 128.868 30.7507 128.904 30.782C129.355 31.1729 129.749 31.6252 130.073 32.1255L132.513 32.0318C132.206 31.5841 131.859 31.1657 131.475 30.782C128.094 27.3665 121.309 25.1567 117.282 23.5492ZM112.533 25.9346C112.218 26.097 111.901 26.2615 111.582 26.4281C115.784 28.0227 121.25 30.4146 123.245 32.3905L124.221 32.3528L124.212 32.3421C122.383 30.2626 117.439 27.7522 112.533 25.9346ZM112.368 22.2617C112.458 22.4902 112.575 22.7072 112.716 22.9082C112.92 23.1944 113.176 23.44 113.47 23.6322C114.097 23.3147 114.717 23.0037 115.33 22.6991C114.716 22.3878 114.297 22.1001 114.145 21.8307L114.132 21.806C113.976 21.5164 113.938 21.1782 114.024 20.8611C114.154 20.4208 114.427 20.0368 114.801 19.7707C114.928 19.6762 115.064 19.5953 115.208 19.5294C116.657 18.8829 118.644 18.6082 121.216 19.2676C121.36 19.3053 121.539 19.3559 121.755 19.4184L122.293 19.3926L122.963 19.0898C121.346 18.6254 119.838 18.285 118.583 18.1201L115.092 18.285C114.089 18.5683 113.106 19.079 112.537 19.8882C112.405 20.0738 112.296 20.2755 112.214 20.4883C112.214 20.5023 112.204 20.5163 112.198 20.5303C112.164 20.6719 112.143 20.8161 112.133 20.9613C112.112 21.289 112.151 21.6179 112.251 21.931C112.285 22.043 112.326 22.1561 112.368 22.2617ZM103.318 30.908C104.167 31.2388 106.105 32.0544 108.136 32.9745L111.859 32.8301C109.618 31.6934 107.175 30.7464 105.058 29.9362C104.483 30.2551 103.905 30.579 103.324 30.908H103.318ZM99.5588 27.2836C99.2808 26.7567 99.4133 26.1965 99.7365 25.7472C99.9678 25.4268 100.278 25.1718 100.637 25.007C101.008 24.8408 101.393 24.7074 101.788 24.6083C102.852 24.3515 103.955 24.2948 105.04 24.4413C105.581 24.5064 106.117 24.6079 106.644 24.7452C107.183 24.8842 108.217 25.2128 109.52 25.6718L110.426 25.1966C109.091 24.757 107.793 24.3821 106.601 24.0944C106.034 23.9597 105.491 23.8434 104.985 23.7507C103.739 23.5234 102.674 23.4275 101.887 23.5051C100.443 23.643 98.6139 24.242 97.8414 25.5619C97.7661 25.6907 97.7016 25.8254 97.6485 25.9648L97.6323 26.0079C97.6051 26.1173 97.586 26.2286 97.5752 26.3408C97.5378 26.6993 97.5745 27.0616 97.683 27.4053C98.1764 28.9827 99.1558 29.3932 101.316 30.1711C101.909 29.8342 102.498 29.502 103.083 29.1744C101.204 28.4375 99.8464 27.8266 99.5598 27.2836H99.5588Z" fill="#1F3A78"/>
<path d="M108.137 32.9745L99.103 33.3236C100.535 32.4889 101.94 31.6838 103.319 30.908C104.168 31.2388 106.106 32.0544 108.137 32.9745ZM97.571 26.3408L97.502 26.3602C96.8017 28.4224 96.7133 30.5622 96.9159 32.717C98.4106 31.8385 99.8763 30.9917 101.313 30.1764C99.1526 29.3985 98.1732 28.9913 97.6798 27.4107C97.5702 27.0654 97.5331 26.7011 97.571 26.3408Z" fill="#A7A8AA"/>
<path d="M97.6284 26.0078C97.5846 26.1249 97.5426 26.2423 97.5023 26.3601C90.6133 28.3124 85.821 30.2582 84.9579 31.1115C84.8678 30.9717 84.8192 30.8092 84.8179 30.6429C84.8179 29.9609 90.0229 27.7554 97.8374 25.5618C97.7622 25.6906 97.6977 25.8253 97.6446 25.9647L97.6284 26.0078Z" fill="#B2BDD6"/>
<path d="M97.6281 26.0078C97.6008 26.1172 97.5817 26.2285 97.5709 26.3407L97.502 26.3601C97.5422 26.2409 97.5842 26.1235 97.6281 26.0078Z" fill="#B2BDD6"/>
<path d="M96.916 32.7114C97.0011 33.6369 97.1423 34.5635 97.3103 35.4879C95.4475 35.6097 93.5836 35.7293 91.6895 35.8413C92.5729 35.3026 93.4471 34.7743 94.3119 34.2564C95.1903 33.7307 96.0584 33.2157 96.916 32.7114Z" fill="#363636"/>
<path d="M97.5063 26.3601C96.806 28.4223 96.7176 30.562 96.9202 32.7169C96.0582 33.2197 95.1902 33.7347 94.316 34.2619C90.0839 33.9021 84.8218 33.0649 84.8218 31.3529C84.8377 31.2596 84.8876 31.1755 84.9618 31.1169C85.8205 30.2582 90.6108 28.3124 97.5063 26.3601Z" fill="#3458AD"/>
<path d="M76.906 36.115C78.8454 36.115 80.6371 36.2658 82.4914 36.7485C79.5823 38.2925 76.3964 39.6306 73.0359 40.8082C70.5837 40.8502 68.0507 40.888 65.7095 40.9224C67.4732 39.2945 69.1852 37.7451 71.0567 36.3229L71.0664 36.3574C73.2277 36.2432 75.125 36.115 76.906 36.115Z" fill="#929395"/>
<path d="M71.0525 36.3231C69.181 37.7453 67.469 39.2946 65.7052 40.9226C61.7414 40.9786 58.3152 41.0217 56.726 41.0411C60.0484 37.6638 63.7299 34.6597 67.7049 32.0824C67.6198 31.8863 67.5304 31.6924 67.4356 31.4974C63.225 34.2234 59.3451 37.429 55.8738 41.0497H55.7801C54.7662 41.0497 53.6802 40.9862 52.7762 40.7513L52.6318 40.7147V40.6759C52.6318 39.1675 53.0984 37.6376 54.0702 36.5278C57.6709 32.4175 61.6046 29.4653 67.4302 26.2729C67.6842 26.589 67.9041 26.931 68.0863 27.2933C69.3609 29.7272 70.4049 34.2405 71.0525 36.3231Z" fill="#929395"/>
<path d="M67.4358 31.4973C67.5306 31.6923 67.6201 31.8863 67.7052 32.0824C63.7297 34.6596 60.0478 37.6637 56.7252 41.0411L55.874 41.0508C59.3453 37.4297 63.2252 34.2237 67.4358 31.4973Z" fill="#0E3599"/>
<path d="M52.2397 32.4885C57.3704 27.6961 64.184 25.552 66.4617 25.6641C66.7935 25.6802 67.1157 25.9022 67.4314 26.275C61.6133 29.4674 57.6753 32.4163 54.0714 36.5299C53.1017 37.6396 52.633 39.1685 52.633 40.6779V40.7167C50.3952 40.1511 47.2685 39.6781 48.5388 36.991L48.5765 36.9554C48.918 36.3889 49.2888 35.8404 49.6873 35.3124C50.4547 34.2989 51.3087 33.354 52.2397 32.4885Z" fill="#DADADA"/>
<path d="M5.86772 59.1999C9.69687 56.0312 16.7001 54.0423 25.2225 52.3529H25.2289C43.0225 48.8254 67.4369 46.6038 83.4258 37.7C93.3509 37.3423 185.888 32.9227 196.479 33.1414C233.136 33.8956 260.256 40.9516 282.214 38.9595C282.586 39.124 282.954 39.2895 283.318 39.4562C283.732 39.6451 284.14 39.835 284.541 40.0261C285.776 40.6108 286.959 41.2059 288.089 41.8114C276.811 42.8824 260.666 44.1203 251.307 44.1203C238.116 44.1203 173.416 44.0697 160.651 44.1451C106.898 44.4683 44.3499 60.9593 4.10937 63.2273C3.73551 63.2488 3.36272 63.2682 2.99316 63.2876C3.44784 61.7361 4.43691 60.3829 5.86772 59.1999ZM192.046 56.5634C107.266 58.2561 57.8866 72.9133 15.0247 72.9133C11.9691 72.9133 8.89311 72.6062 5.81924 72.255C7.90727 74.3279 10.5265 75.9182 13.3612 77.5645C15.1465 78.6042 17.0179 79.6676 18.8959 80.8937C44.3284 82.4517 91.1013 84.9879 124.086 84.9879C178.34 84.9879 225.234 83.7295 267.047 58.9294C270.965 56.6051 274.841 54.0678 278.674 51.3175C244.251 57.8208 223.87 55.9278 192.04 56.5645L192.046 56.5634ZM46.1761 40.0153C46.1761 39.3904 47.3613 38.1051 48.5389 36.991L48.5766 36.9555C48.9181 36.3889 49.2889 35.8404 49.6874 35.3124C49.6584 35.3339 49.1121 35.7315 48.4129 36.3478C47.829 36.8582 47.2808 37.4079 46.7719 37.993C46.1557 38.7113 45.571 39.449 45.0179 40.206C43.1863 42.7057 41.7329 45.396 40.8041 48.2716C50.0182 46.6555 59.7559 44.895 68.5929 42.2467C63.6239 42.3544 56.654 42.5171 55.456 42.5171C53.1373 42.5171 46.1761 42.3307 46.1761 40.0153Z" fill="#DADADA"/>
<path d="M18.8959 80.8937L17.839 80.8279C16.4807 80.7446 15.1878 80.6642 13.9603 80.5866C13.6523 79.6054 13.45 78.594 13.3569 77.5698C15.1465 78.6041 17.0234 79.6676 18.8959 80.8937Z" fill="#A9ABB0"/>
<path d="M25.2224 52.3528C16.7001 54.0422 9.69682 56.0311 5.86768 59.1998C9.38222 55.8102 16.4544 53.8881 25.2224 52.3528Z" fill="#EBF3F5"/>
<path d="M169.085 18.2181L167.97 17.2215C176.197 16.8433 181.553 16.6052 181.555 16.6052C182.492 16.6052 184.096 16.713 186.249 16.9155L187.683 18.1265C187.194 18.0177 186.695 17.961 186.194 17.9574H186.178C184.06 17.7559 182.481 17.6536 181.555 17.6536C181.555 17.6536 176.679 17.869 169.089 18.2192L169.085 18.2181ZM165.745 18.3679C165.363 18.0339 164.984 17.7031 164.608 17.3756C154.175 17.8561 140.27 18.5058 126.846 19.1641C126.343 19.3796 125.835 19.5994 125.322 19.8235C125.706 19.9517 126.091 20.0864 126.478 20.2243C138.735 19.6295 155.669 18.8333 165.739 18.3679H165.745ZM68.3308 27.2943C70.1064 27.2943 77.0741 27.5906 83.6841 27.6175C87.6899 25.6293 91.7266 23.6972 95.7943 21.821C98.811 21.6486 105.569 21.2931 112.043 20.9591C112.091 20.8136 112.142 20.6693 112.196 20.5281C112.202 20.5141 112.207 20.5001 112.212 20.4861C112.294 20.2733 112.403 20.0716 112.535 19.886C109.114 20.0627 105.451 20.2544 102.229 20.4247C99.7075 20.5583 97.4557 20.6811 95.7975 20.7759C91.7306 22.6434 87.6939 24.5756 83.6873 26.5724C77.0773 26.5423 70.1118 26.2492 68.3341 26.2492C68.0468 26.2492 67.7594 26.2521 67.4721 26.2578L67.4344 26.2783C67.6884 26.5944 67.9083 26.9364 68.0906 27.2986L68.3308 27.2943ZM288.09 41.8125C276.812 42.8835 260.666 44.1214 251.308 44.1214C238.117 44.1214 173.417 44.0708 160.652 44.1462C106.899 44.4694 44.3507 60.9604 4.11018 63.2284C3.73631 63.2499 3.36352 63.2693 2.99397 63.2887C2.43802 63.316 1.88746 63.3408 1.34229 63.3631C1.41052 63.7833 1.48989 64.1902 1.58039 64.5838C2.29867 64.5536 3.02486 64.5177 3.75894 64.476C43.9844 62.2846 106.742 45.6955 160.652 45.3745C173.417 45.298 238.118 45.3497 251.308 45.3497C261.202 45.3497 278.681 43.9652 289.975 42.8587C289.366 42.5082 288.738 42.1595 288.09 41.8125ZM5.86745 59.1999C9.38199 55.8093 16.4542 53.8882 25.2222 52.3529H25.2287C43.0223 48.8255 68.3545 46.0748 83.4255 37.7C93.3507 37.3423 101.589 36.5504 111.515 36.1151C122.735 35.6228 185.887 32.9227 196.479 33.1415C233.136 33.8957 260.255 40.9517 282.214 38.9595C281.643 38.7052 281.062 38.4539 280.473 38.2053C273.491 38.7279 266.042 38.3131 257.955 37.4953C257.622 37.4619 257.287 37.4285 256.951 37.3876C255.488 37.2346 254.001 37.0694 252.493 36.892L251.443 36.7681C240.917 35.5172 229.323 33.8385 216.319 32.7428C210.047 32.2149 203.446 31.8216 196.48 31.6783C194.902 31.646 192.152 31.6783 188.582 31.7591C176.946 32.0199 156.582 32.7902 139.48 33.483L133.322 33.7351L130.768 33.8429L125.353 34.068L124.384 34.109C120.532 34.2706 117.236 34.4107 114.757 34.5184L111.651 34.6531L111.511 34.6595C106.49 34.875 101.9 35.1907 97.3059 35.4902C95.443 35.612 93.5791 35.7316 91.685 35.8436C89.0173 35.9998 86.2893 36.1399 83.4212 36.2433C83.113 36.4143 82.802 36.5835 82.4881 36.7508C79.5791 38.2948 76.3932 39.6329 73.0327 40.8105C72.1937 41.105 71.3429 41.3891 70.4803 41.6628C71.3422 41.3884 72.193 41.1043 73.0327 40.8105C70.5805 40.8525 68.0475 40.8903 65.7062 40.9247C61.7435 40.9808 58.3173 41.0239 56.7281 41.0432L55.877 41.0529H55.7832C54.7694 41.0529 53.6833 40.9894 52.7794 40.7545L52.635 40.7179C50.3972 40.1522 47.2705 39.6792 48.5408 36.9922C47.361 38.1062 46.178 39.3916 46.178 40.0165C46.178 42.3318 53.1392 42.5182 55.4589 42.5182C56.657 42.5182 63.6268 42.3588 68.5959 42.2478C59.761 44.8961 50.0212 46.6512 40.8071 48.2727L40.3837 48.3471C35.9522 49.1271 31.6479 49.877 27.6302 50.684C26.1829 50.9713 24.7765 51.2701 23.4111 51.5804C12.4214 54.0682 4.31812 57.2832 2.99505 63.2898C3.44756 61.7362 4.43663 60.3829 5.86745 59.1999Z" fill="#EDEDED"/>
<path d="M286.413 45.3916C283.853 47.4746 281.273 49.4499 278.674 51.3174C244.251 57.8207 223.869 55.9277 192.04 56.5644C107.265 58.256 57.8862 72.9132 15.0243 72.9132C11.9688 72.9132 8.89276 72.6061 5.81888 72.2549C4.22851 70.7071 3.00099 68.8261 2.22461 66.7471C42.3757 64.9069 106.051 47.8923 160.65 47.5691C173.416 47.4926 238.117 47.5443 251.307 47.5443C260.212 47.5443 275.259 46.4227 286.413 45.3916Z" fill="#2B2C7C"/>
<path d="M250.349 44.8971C260.287 44.8971 277.431 43.5859 289.408 42.4535C287.862 41.6296 286.223 40.8223 284.492 40.0315C284.061 39.8311 283.611 39.6317 283.163 39.4346C283.081 39.3969 282.48 39.0736 282.397 39.037C258.694 40.6725 232.668 33.5896 193.585 33.2761C186.451 33.2189 155.522 34.3233 131.835 35.2768C121.672 35.6852 112.991 36.17 107.416 36.4706C117.069 38.1363 126.736 39.8246 136.635 41.2231C146.299 42.4837 155.84 43.7432 165.327 44.8928C189.536 44.8594 238.738 44.8971 250.349 44.8971Z" fill="#EDEDED"/>
<path style="mix-blend-mode:multiply" opacity="0.28" d="M5.86737 59.1999C9.69652 56.0312 16.6997 54.0423 25.2221 52.3529H25.2286C43.0222 48.8254 67.4365 46.6038 83.4254 37.7C93.3506 37.3423 185.888 32.9227 196.479 33.1414C233.136 33.8956 260.256 40.9516 282.214 38.9595C282.586 39.1239 282.954 39.2895 283.318 39.4562C283.732 39.6451 284.139 39.835 284.541 40.0261C285.776 40.6108 286.958 41.2059 288.089 41.8114C276.81 42.8823 260.665 44.1203 251.307 44.1203C238.116 44.1203 173.416 44.0697 160.651 44.1451C106.898 44.4683 44.3496 60.9593 4.10902 63.2273C3.73515 63.2488 3.36236 63.2682 2.99281 63.2876C3.44748 61.7361 4.43655 60.3829 5.86737 59.1999ZM192.046 56.5634C107.265 58.256 57.8863 72.9133 15.0244 72.9133C11.9688 72.9133 8.89276 72.6062 5.81888 72.255C7.90692 74.3279 10.5261 75.9182 13.3608 77.5645C15.1461 78.6042 17.0176 79.6676 18.8955 80.8937C44.328 82.4516 91.101 84.9879 124.086 84.9879C178.34 84.9879 225.233 83.7295 267.047 58.9294C270.965 56.6051 274.841 54.0678 278.673 51.3175C244.251 57.8208 223.869 55.9277 192.04 56.5645L192.046 56.5634ZM286.414 45.3917C283.853 47.4747 281.273 49.4499 278.674 51.3175C244.251 57.8208 223.869 55.9277 192.04 56.5645C107.265 58.256 57.8863 72.9133 15.0244 72.9133C11.9688 72.9133 8.89276 72.6062 5.81888 72.255C4.22852 70.7072 3.00099 68.8261 2.22461 66.7472C42.3757 64.907 106.051 47.8923 160.651 47.5691C173.416 47.4926 238.117 47.5443 251.307 47.5443C260.212 47.5443 275.259 46.4227 286.414 45.3917ZM21.9069 83.0248C20.5063 82.9386 19.3502 82.8643 18.4872 82.804C18.2523 82.1489 18.0314 81.4906 17.8353 80.8291L18.8923 80.8948C44.3248 82.4527 91.0977 84.989 124.083 84.989C178.336 84.989 225.23 83.7305 267.044 58.9305C256.502 66.4003 240.123 74.5897 239.552 74.8214C235.538 76.4547 231.11 77.8888 226.388 79.1483C197.285 86.9154 156.985 88.0542 133.134 88.0542C113.426 88.0553 41.9405 84.2596 21.9101 83.0248H21.9069ZM226.388 79.1461C213.527 84.46 192.615 89.9968 144.772 89.9968C135.243 89.9968 55.238 88.2546 23.0511 83.9406C22.6719 83.6239 22.2905 83.3175 21.9069 83.0216C41.9372 84.2563 113.423 88.0521 133.134 88.0521C156.988 88.0553 197.288 86.9165 226.392 79.1494L226.388 79.1461ZM18.8955 80.8937L17.8386 80.828C16.4803 80.7447 15.1874 80.6642 13.9599 80.5866C13.6519 79.6054 13.4496 78.5941 13.3565 77.5699C15.1461 78.6042 17.023 79.6676 18.8955 80.8937ZM46.1758 40.0153C46.1758 39.3904 47.361 38.1051 48.5386 36.991L48.5763 36.9555C48.9178 36.3889 49.2886 35.8404 49.6871 35.3124C49.658 35.3339 49.1118 35.7315 48.4125 36.3478C47.8287 36.8582 47.2804 37.4078 46.7716 37.993C46.1553 38.7113 45.5706 39.449 45.0176 40.206C43.186 42.7057 41.7325 45.396 40.8038 48.2716C50.0179 46.6555 59.7556 44.895 68.5926 42.2467C63.6235 42.3544 56.6537 42.5171 55.4556 42.5171C53.137 42.5171 46.1758 42.3307 46.1758 40.0153Z" fill="url(#paint0_linear)"/>
<path style="mix-blend-mode:multiply" d="M165.738 18.3679L166.277 18.8377C163.368 20.7027 161.065 23.4092 160.018 26.7589C156.872 28.7112 154.037 30.4975 152.886 31.2452L146.623 31.4877L146.628 31.4823L146.623 30.783C148.868 28.2102 150.519 25.3819 151.949 22.1551C152.048 21.9302 152.147 21.7036 152.245 21.4752C145.641 20.9193 138.97 20.3773 132.326 20.3773C129.263 20.3773 126.16 20.5378 123.083 20.8191L124.154 20.3374C136.509 19.7341 155.209 18.8549 165.738 18.3679ZM83.684 27.6197C77.0741 27.5906 70.1086 27.2965 68.3308 27.2965H68.083C69.3608 29.7282 70.4049 34.2416 71.0513 36.3242C71.0513 36.3361 71.0588 36.3468 71.0621 36.3587C73.2277 36.2434 75.125 36.1163 76.906 36.1163C78.8454 36.1163 80.6382 36.2671 82.4913 36.7498C82.806 36.5828 83.1162 36.4136 83.4255 36.2423C86.2936 36.1346 89.0216 35.9988 91.6893 35.8426C92.5728 35.3025 93.4469 34.7742 94.3117 34.2577C90.0785 33.8979 84.8186 33.0607 84.8186 31.3487C84.8339 31.2555 84.8835 31.1713 84.9576 31.1127C84.8679 30.9728 84.8197 30.8103 84.8186 30.644C84.8186 29.6938 94.9463 25.7773 108.146 23.0676C108.174 22.8662 108.202 22.6938 108.227 22.5569C108.312 22.0617 108.466 21.5806 108.682 21.1272C103.951 21.3739 99.5771 21.6088 95.7953 21.8243C91.727 23.6932 87.6899 25.6251 83.684 27.6197ZM247.667 29.3598L247.567 29.335C243.625 28.3728 238.194 27.1801 232.21 25.9724C219.49 23.3941 204.258 20.6995 195.443 19.7944C196.021 20.3913 196.591 20.9997 197.152 21.6196C197.38 21.8695 197.606 22.1209 197.829 22.3738C200.369 25.2429 202.745 28.3104 205.04 31.3832C207.927 31.6116 211.883 31.9326 216.353 32.3108C217.646 32.4186 218.981 32.5328 220.346 32.6513L221.176 32.7224C222.9 32.8722 224.677 33.0284 226.467 33.1878L227.568 33.287C229.237 33.4367 230.916 33.5897 232.582 33.7459C233.444 33.8257 234.295 33.9065 235.143 33.9873L237.2 34.1844C242.606 34.7113 247.667 35.2457 251.612 35.7413C251.618 35.7068 251.624 35.6831 251.628 35.667L250.658 35.5948C250.766 35.1638 250.683 35.3017 250.786 34.8665C252.301 34.828 253.816 34.8899 255.322 35.0518C253.123 32.721 250.531 30.7945 247.665 29.3598H247.667Z" fill="url(#paint1_linear)"/>
<path style="mix-blend-mode:multiply" d="M152.244 21.4741C145.641 20.9182 138.969 20.3762 132.326 20.3762C129.263 20.3762 126.16 20.5368 123.083 20.818C122.436 21.1099 108.175 22.8651 108.147 23.0665C94.9417 25.7762 84.8193 29.6927 84.8193 30.643C84.8204 30.8092 84.8686 30.9717 84.9583 31.1116C84.8842 31.1702 84.8347 31.2544 84.8193 31.3476C84.8193 33.0596 90.0793 33.8968 94.3125 34.2566C93.4505 34.7738 92.5764 35.3021 91.69 35.8415C97.3303 35.5097 102.704 35.1024 108.582 34.7975C109.545 34.7479 110.523 34.7012 111.516 34.6574L115.555 34.4818L119.865 34.2976C122.405 34.1898 125.33 34.0659 128.526 33.9334L130.294 33.8601C132.321 33.7772 134.442 33.6888 136.63 33.6005C135.661 32.9415 134.615 32.4018 133.517 31.993L146.621 31.4866L146.627 31.4812L146.621 30.7819C148.867 28.2091 150.517 25.3808 151.948 22.154C152.048 21.9291 152.147 21.7025 152.244 21.4741Z" fill="url(#paint2_linear)"/>
<path style="mix-blend-mode:multiply" d="M196.987 25.9926C196.771 26.4236 196.404 26.8007 195.88 27.1444C193.782 28.517 189.236 29.2831 182.612 29.9209C180.433 28.1001 178.194 26.1909 175.991 24.2796C174.553 23.0351 173.127 21.7886 171.738 20.5657L171.178 20.0712C170.469 19.4448 169.771 18.8271 169.085 18.218C176.674 17.87 181.547 17.6523 181.548 17.6523C182.476 17.6523 184.055 17.7547 186.173 17.9562H186.189C186.69 17.9598 187.189 18.0165 187.678 18.1253L196.987 25.9926ZM169.648 21.808L169.046 21.2757C168.119 20.4558 167.193 19.6402 166.277 18.8375C163.368 20.7025 161.066 23.409 160.018 26.7587C156.872 28.711 154.038 30.4973 152.886 31.2451L154.86 31.1686L162.391 30.8777C163.228 30.864 164.054 30.8479 164.869 30.8292C170.126 30.7139 174.889 30.5189 179.048 30.2194C177.496 28.8187 175.815 27.3017 174.06 25.7362C172.618 24.4466 171.135 23.1246 169.648 21.808Z" fill="url(#paint3_linear)"/>
<path style="mix-blend-mode:multiply" opacity="0.33" d="M49.6884 35.3125C49.2899 35.8405 48.9191 36.389 48.5776 36.9556L48.5399 36.9911C47.3601 38.1041 46.1771 39.3895 46.1771 40.0144C46.1771 42.3297 53.1383 42.5161 55.4591 42.5161C56.6561 42.5161 63.6292 42.3567 68.5971 42.2446C59.7591 44.8951 50.0203 46.6523 40.8062 48.2685C41.7338 45.3928 43.1894 42.7025 45.0199 40.2029C45.5705 39.4487 46.1577 38.7107 46.7729 37.9899C47.2817 37.4047 47.83 36.855 48.4138 36.3447C49.1131 35.7316 49.6593 35.3394 49.6884 35.3125Z" fill="url(#paint4_linear)"/>
<path style="mix-blend-mode:multiply" opacity="0.34" d="M76.9059 36.115C75.1249 36.115 73.2276 36.2421 71.062 36.3574C71.062 36.3456 71.0545 36.3348 71.0512 36.3229C70.4048 34.2403 69.3607 29.727 68.0829 27.2952C67.9007 26.933 67.6807 26.591 67.4268 26.2749C61.6087 29.4673 57.6707 32.4162 54.0668 36.5298C53.0971 37.6395 52.6284 39.1684 52.6284 40.6779V40.7166L52.7728 40.7544C53.6767 40.9882 54.7628 41.0517 55.7766 41.0517H55.8704L56.7215 41.042C58.3118 41.0226 61.7369 40.9795 65.6997 40.9235C68.0452 40.889 70.5793 40.8513 73.0261 40.8093C76.3877 39.6317 79.5682 38.2946 82.4816 36.7496C80.6381 36.2658 78.841 36.115 76.9059 36.115Z" fill="url(#paint5_linear)"/>
<path d="M169.379 3.07505C166.444 2.06228 162.753 1.46754 157.377 1.48909L164.795 7.69934C168.231 7.4483 170.215 7.26837 171.271 6.01964C171.271 4.8 170.368 3.55558 169.379 3.07505ZM154.482 1.56667C141.501 2.33918 122.432 11.1891 108.368 18.6007L115.156 18.2774C115.692 18.1131 116.247 18.019 116.808 17.9973C117.562 18.0038 118.101 18.0673 118.695 18.1051L125.96 17.7614C143.858 10.0675 155.083 8.51171 161.991 7.91698C159.113 5.47231 156.367 3.14832 154.482 1.56451V1.56667Z" fill="url(#paint6_linear)"/>
<path opacity="0.59" d="M173.148 5.84497C173.137 5.90398 173.121 5.96175 173.098 6.01736C171.653 9.66981 168.175 8.91454 159.782 9.83465C164.939 14.5441 174.201 22.8908 182.612 29.9199C190.892 29.1237 195.927 28.1249 196.987 25.9927L173.148 5.84497ZM156.233 10.2947C154.417 10.5673 152.417 10.9261 150.214 11.4098L149.653 11.5348L149.05 11.6738L148.584 11.7816C148.399 11.8257 148.212 11.8699 148.025 11.9162C147.075 12.1468 146.091 12.4014 145.073 12.6801C144.394 12.8669 143.699 13.0648 142.989 13.2738L142.653 13.3729C142.314 13.4727 141.973 13.5762 141.628 13.6832L141.545 13.7091L140.858 13.9245C140.346 14.0862 139.826 14.2539 139.298 14.4277C129.147 17.7677 116.036 23.4575 99.0991 33.3224L146.613 31.4908L151.024 31.3206L158.219 31.0415L161.928 30.8982L162.384 30.881C162.783 30.8745 163.18 30.868 163.569 30.8594L164.69 30.8368H164.742C170.044 30.7215 174.845 30.5254 179.033 30.2237C171.984 23.8433 162.099 15.0257 156.237 10.2947H156.233Z" fill="url(#paint7_linear)"/>
<path d="M145.077 12.6823C144.398 12.8691 143.703 13.067 142.993 13.276L142.657 13.3751C142.319 13.4764 141.977 13.5798 141.632 13.6854L141.549 13.7113L140.862 13.9268C140.35 14.0884 139.83 14.2561 139.302 14.4299L151.034 31.3174L158.229 31.0394L145.077 12.6823ZM150.218 11.4099L149.657 11.5349L149.055 11.6739L148.588 11.7816C148.403 11.8258 148.216 11.87 148.029 11.9163L161.936 30.8929L162.392 30.8746C162.792 30.8681 163.188 30.8616 163.577 30.853L164.699 30.8304H164.75L150.218 11.4099Z" fill="url(#paint8_linear)"/>
<path opacity="0.46" d="M181.024 35.9353C181.617 35.9353 182.099 35.4519 182.099 34.8557C182.099 34.2595 181.617 33.7761 181.024 33.7761C180.43 33.7761 179.948 34.2595 179.948 34.8557C179.948 35.4519 180.43 35.9353 181.024 35.9353Z" fill="black"/>
<path opacity="0.46" d="M84.4525 40.0529C84.9101 40.0529 85.281 39.6805 85.281 39.2212C85.281 38.7618 84.9101 38.3894 84.4525 38.3894C83.995 38.3894 83.624 38.7618 83.624 39.2212C83.624 39.6805 83.995 40.0529 84.4525 40.0529Z" fill="black"/>
<path opacity="0.46" d="M68.3774 45.7732C68.8349 45.7732 69.2059 45.4008 69.2059 44.9414C69.2059 44.482 68.8349 44.1096 68.3774 44.1096C67.9198 44.1096 67.5488 44.482 67.5488 44.9414C67.5488 45.4008 67.9198 45.7732 68.3774 45.7732Z" fill="black"/>
<path opacity="0.46" d="M55.7898 44.0342C56.0594 44.0342 56.2779 43.8152 56.2779 43.5451C56.2779 43.2749 56.0594 43.0559 55.7898 43.0559C55.5203 43.0559 55.3018 43.2749 55.3018 43.5451C55.3018 43.8152 55.5203 44.0342 55.7898 44.0342Z" fill="black"/>
<path opacity="0.46" d="M48.2449 43.0969C48.5145 43.0969 48.733 42.8779 48.733 42.6078C48.733 42.3376 48.5145 42.1187 48.2449 42.1187C47.9754 42.1187 47.7568 42.3376 47.7568 42.6078C47.7568 42.8779 47.9754 43.0969 48.2449 43.0969Z" fill="black"/>
<path opacity="0.46" d="M43.0375 64.5796C43.4951 64.5796 43.8661 64.2072 43.8661 63.7478C43.8661 63.2884 43.4951 62.916 43.0375 62.916C42.5799 62.916 42.209 63.2884 42.209 63.7478C42.209 64.2072 42.5799 64.5796 43.0375 64.5796Z" fill="black"/>
<path d="M119.198 39.2557C119.442 39.3318 119.697 39.3632 119.952 39.3484C120.215 39.3312 120.338 39.2536 120.33 39.1405C120.323 39.0273 120.193 38.9799 119.866 38.9131C119.375 38.8054 119.04 38.6222 119.019 38.2904C118.994 37.895 119.403 37.562 120.123 37.5168C120.384 37.4949 120.647 37.5167 120.9 37.5814L120.77 38.0727C120.567 38.0145 120.356 37.9919 120.145 38.0059C119.912 38.02 119.789 38.0954 119.796 38.1945C119.802 38.2936 119.958 38.341 120.324 38.424C120.846 38.5414 121.088 38.7397 121.107 39.0521C121.132 39.4367 120.771 39.7901 119.937 39.8429C119.652 39.864 119.366 39.8355 119.09 39.7589L119.198 39.2557Z" fill="#6A777A"/>
<path d="M122.268 37.4146L123.034 37.3672L123.141 39.104L124.238 39.034L124.269 39.536L122.408 39.6492L122.268 37.4146Z" fill="#6A777A"/>
<path d="M126.117 37.1709L126.257 39.4098L125.49 39.4583L125.35 37.2194L126.117 37.1709Z" fill="#6A777A"/>
<path d="M127.491 37.1192C127.791 37.0644 128.094 37.0284 128.398 37.0114C128.946 36.977 129.297 37.0255 129.584 37.1601C129.748 37.2286 129.89 37.343 129.991 37.4898C130.092 37.6365 130.149 37.8094 130.155 37.9876C130.174 38.1714 130.143 38.3569 130.066 38.5248C129.989 38.6928 129.868 38.8369 129.716 38.9422C129.415 39.1577 128.95 39.2654 128.391 39.302C128.137 39.3217 127.882 39.3246 127.627 39.3107L127.491 37.1192ZM128.368 38.8301C128.422 38.8338 128.476 38.8338 128.53 38.8301C129.025 38.8053 129.38 38.5662 129.349 38.0619C129.322 37.6234 128.974 37.4392 128.517 37.4672C128.439 37.4708 128.361 37.4802 128.284 37.4952L128.368 38.8301Z" fill="#6A777A"/>
<path d="M133.218 38.0651L132.193 38.1297L132.219 38.5413L133.367 38.4691L133.397 38.9604L131.484 39.0811L131.344 36.8422L133.198 36.7258L133.229 37.2171L132.141 37.2861L132.163 37.6449L133.188 37.5802L133.218 38.0651Z" fill="#6A777A"/>
<path d="M134.531 36.6754C134.835 36.6216 135.142 36.5856 135.45 36.5677C135.881 36.5397 136.204 36.5677 136.427 36.6819C136.517 36.724 136.593 36.7898 136.647 36.8723C136.702 36.9548 136.733 37.0507 136.736 37.1495C136.755 37.4285 136.499 37.6419 136.284 37.7216V37.7313C136.374 37.7602 136.456 37.8094 136.523 37.8752C136.591 37.941 136.642 38.0215 136.674 38.1105C136.773 38.3346 136.889 38.6492 136.946 38.7365L136.167 38.7861C136.07 38.6274 135.993 38.4578 135.936 38.2808C135.843 38.02 135.733 37.9694 135.496 37.9845L135.373 37.992L135.426 38.8324L134.672 38.8809L134.531 36.6754ZM135.346 37.5611L135.546 37.5481C135.833 37.5298 135.992 37.4102 135.977 37.2443C135.962 37.0784 135.82 36.99 135.566 37.0062C135.48 37.0094 135.394 37.0195 135.309 37.0364L135.346 37.5611Z" fill="#6A777A"/>
<path d="M143.452 38.3271L143.429 37.9651L143.794 37.6785C144.333 37.2648 144.599 37.0213 144.589 36.8015C144.58 36.6452 144.442 36.5407 144.158 36.558C143.951 36.5797 143.752 36.6539 143.581 36.7735L143.347 36.3586C143.63 36.1863 143.951 36.0878 144.281 36.0721C144.921 36.0322 145.319 36.28 145.346 36.7056C145.367 37.0514 145.071 37.352 144.759 37.5794L144.498 37.7625V37.769L145.455 37.7087L145.486 38.2L143.452 38.3271Z" fill="#6A777A"/>
<path d="M147.45 36.4374H147.442L146.912 36.6636L146.761 36.223L147.531 35.8997L148.154 35.8599L148.289 38.0147L147.553 38.061L147.45 36.4374Z" fill="#6A777A"/>
<path d="M151.04 37.8852C150.252 37.9347 149.926 37.4079 149.89 36.8401C149.854 36.2561 150.13 35.7023 150.904 35.6549C151.709 35.6043 152.019 36.1484 152.054 36.7C152.094 37.3367 151.781 37.8399 151.044 37.8852H151.04ZM151.021 37.4359C151.215 37.424 151.321 37.2139 151.292 36.7485C151.263 36.283 151.136 36.0923 150.932 36.102C150.729 36.1117 150.623 36.3175 150.652 36.7873C150.681 37.257 150.817 37.4466 151.016 37.4337L151.021 37.4359Z" fill="#6A777A"/>
<path d="M154.199 35.4352C154.496 35.3811 154.796 35.3451 155.098 35.3275C155.505 35.3016 155.752 35.3103 155.977 35.3824C156.202 35.4546 156.378 35.5979 156.392 35.8199C156.404 36.0052 156.284 36.197 155.961 36.3176V36.3241C156.313 36.378 156.537 36.5676 156.553 36.8337C156.555 36.9373 156.529 37.0395 156.478 37.1296C156.427 37.2196 156.352 37.2942 156.262 37.3455C156.059 37.4845 155.708 37.5804 155.098 37.6181C154.847 37.6382 154.595 37.6411 154.344 37.6267L154.199 35.4352ZM155.008 36.2142L155.161 36.2045C155.485 36.184 155.639 36.0849 155.63 35.9416C155.621 35.7983 155.489 35.738 155.231 35.7542C155.147 35.7575 155.064 35.7673 154.981 35.7832L155.008 36.2142ZM155.069 37.1742C155.141 37.1757 155.213 37.1732 155.284 37.1667C155.538 37.1516 155.75 37.0589 155.737 36.8585C155.724 36.6581 155.5 36.6096 155.212 36.6279L155.03 36.6398L155.069 37.1742Z" fill="#6A777A"/>
<path d="M158.693 35.1517C158.997 35.0979 159.304 35.0619 159.613 35.044C160.044 35.016 160.367 35.044 160.589 35.1593C160.679 35.2012 160.755 35.267 160.81 35.3495C160.865 35.432 160.896 35.528 160.899 35.6269C160.917 35.9049 160.662 36.1182 160.446 36.1979V36.2087C160.535 36.2375 160.617 36.2866 160.685 36.3522C160.752 36.4178 160.803 36.4981 160.835 36.5869C160.934 36.811 161.05 37.131 161.107 37.2139L160.328 37.2624C160.231 37.1038 160.154 36.9341 160.097 36.7571C160.004 36.4964 159.895 36.4468 159.657 36.4619L159.534 36.4694L159.587 37.3098L158.833 37.3572L158.693 35.1517ZM159.508 36.0374L159.708 36.0244C159.995 36.0061 160.154 35.8865 160.139 35.7206C160.124 35.5547 159.983 35.4674 159.728 35.4836C159.642 35.4867 159.556 35.4964 159.471 35.5127L159.508 36.0374Z" fill="#6A777A"/>
<defs>
<linearGradient id="paint0_linear" x1="135.319" y1="42.1551" x2="187.136" y2="108.929" gradientUnits="userSpaceOnUse">
<stop/>
<stop offset="0.67" stop-color="#E6E6E6" stop-opacity="0.1"/>
<stop offset="0.7" stop-color="white" stop-opacity="0"/>
<stop offset="1"/>
</linearGradient>
<linearGradient id="paint1_linear" x1="161.027" y1="8.39101" x2="162.33" y2="52.4381" gradientUnits="userSpaceOnUse">
<stop stop-color="white" stop-opacity="0"/>
<stop offset="0.83"/>
</linearGradient>
<linearGradient id="paint2_linear" x1="118.397" y1="20.804" x2="118.912" y2="42.4278" gradientUnits="userSpaceOnUse">
<stop offset="0.4" stop-color="white" stop-opacity="0"/>
<stop offset="0.48" stop-color="#A6A6A6" stop-opacity="0.35"/>
<stop offset="1"/>
</linearGradient>
<linearGradient id="paint3_linear" x1="71325.6" y1="2090.68" x2="71395.5" y2="4709.04" gradientUnits="userSpaceOnUse">
<stop stop-color="white" stop-opacity="0"/>
<stop offset="0.83"/>
</linearGradient>
<linearGradient id="paint4_linear" x1="54.8622" y1="29.308" x2="54.6844" y2="46.9529" gradientUnits="userSpaceOnUse">
<stop offset="0.17" stop-color="white" stop-opacity="0"/>
<stop offset="0.28" stop-color="#A6A6A6" stop-opacity="0.35"/>
<stop offset="1"/>
</linearGradient>
<linearGradient id="paint5_linear" x1="60.569" y1="30.9584" x2="78.1105" y2="50.4608" gradientUnits="userSpaceOnUse">
<stop stop-color="white" stop-opacity="0"/>
<stop offset="0.13" stop-color="#A6A6A6" stop-opacity="0.35"/>
<stop offset="0.96"/>
</linearGradient>
<linearGradient id="paint6_linear" x1="144.024" y1="18.87" x2="131.392" y2="-2.04486" gradientUnits="userSpaceOnUse">
<stop stop-color="#1DB8FF" stop-opacity="0.3"/>
<stop offset="1" stop-color="#1DB8FF"/>
</linearGradient>
<linearGradient id="paint7_linear" x1="142102" y1="11054.5" x2="139651" y2="-3400.66" gradientUnits="userSpaceOnUse">
<stop stop-color="#1DB8FF" stop-opacity="0.3"/>
<stop offset="1" stop-color="#1DB8FF"/>
</linearGradient>
<linearGradient id="paint8_linear" x1="160.26" y1="31.8561" x2="142.519" y2="12.5337" gradientUnits="userSpaceOnUse">
<stop stop-color="white" stop-opacity="0"/>
<stop offset="1" stop-color="white" stop-opacity="0.7"/>
</linearGradient>
</defs>
</svg>
