<svg width="289" height="90" viewBox="0 0 289 90" fill="none" xmlns="http://www.w3.org/2000/svg">
<path d="M75.8083 22.9842C70.2062 23.6143 64.5967 24.3724 59.0886 25.593C56.9951 26.0553 54.909 26.5893 52.8806 27.2898C52.0049 27.5891 51.1635 27.9804 50.3703 28.4569C50.5712 28.5947 45.4543 31.4031 45.6381 31.5537C45.8807 31.7491 49.1552 40.3399 49.3785 40.5534L56.932 39.5806L67.0065 30.7261L75.8083 22.9842Z" fill="#A9ABB0"/>
<path d="M50.4967 28.0511L44.9214 31.2707C44.9406 31.2824 44.9941 31.3113 45.0144 31.3198C45.0774 31.3529 45.165 31.3903 45.2281 31.417C45.3617 31.4693 45.5028 31.5152 45.6321 31.5515L51.0514 28.3758L50.4967 28.0511Z" fill="#4B4B4D"/>
<path d="M50.2282 26.1119C49.6308 25.7531 49.275 25.4798 48.0908 25.0441L42.6812 28.2359C43.4934 28.521 43.8065 28.6844 44.8185 29.3037L50.2282 26.1119Z" fill="#4B4B4D"/>
<path d="M54.9209 41.0116L55.0716 42.7468C55.0224 42.1681 54.9733 41.5893 54.9209 41.0116Z" fill="#1A171C"/>
<path d="M47.7982 48.6584C45.2558 52.1022 44.6456 56.4707 45.228 60.7346L51.016 59.7874L45.227 60.7357C45.4813 62.1527 45.5796 62.6984 45.6138 62.8863V62.8959V62.9077V62.9344V62.9504V62.9589V62.9749L51.0257 59.7832C50.0307 55.1508 49.8875 50.101 52.431 46.1147C50.346 47.3588 49.8106 47.7421 47.7982 48.6584ZM45.617 62.9098V62.9226V62.9098Z" fill="#1A171C"/>
<path d="M51.0599 28.3779L45.6406 31.5537C47.6925 34.4219 49.1801 40.6528 49.5114 44.2033L54.9232 41.0116C54.5556 37.0851 53.1898 31.7213 51.0631 28.379L51.0599 28.3779Z" fill="#1A171C"/>
<path d="M49.898 27.7052C48.9971 27.797 48.5536 27.892 47.9477 27.9999L50.2336 26.1109L44.7833 29.3368L42.5391 31.1927L44.4905 30.898C44.609 31.0497 44.7565 31.1763 44.9244 31.2707L50.4997 28.0511L49.898 27.7052Z" fill="#1A171C"/>
<path d="M45.2333 31.4191C44.6552 31.1821 45.3562 31.4885 45.6383 31.5537C45.509 31.5174 45.368 31.4715 45.2344 31.4191H45.2333Z" fill="#1A171C"/>
<path d="M35.5616 46.4886C34.9268 46.5953 34.9984 47.535 35.646 47.535C36.4037 47.535 36.3054 46.3647 35.5616 46.4886Z" fill="#1A171C"/>
<path d="M34.6736 31.3454C24.5264 35.29 29.7801 35.8432 38.7346 31.1522C39.0552 30.9877 40.1122 30.4324 40.0801 30.079C39.5597 29.4991 35.4025 31.0582 34.6736 31.3454Z" fill="#1A171C"/>
<path d="M48.0686 25.0644L48.0814 25.0569H48.0899C34.1671 26.2401 24.4591 32.266 23.6362 34.3824C28.6313 30.0683 36.0993 28.8083 42.6802 28.2487L48.0686 25.0644Z" fill="#1A171C"/>
<path d="M21.3223 48.1682C21.4235 48.651 21.5589 49.1259 21.7273 49.5895C23.5815 49.2201 25.3277 48.9275 27.1049 48.6028L27.2952 48.5687C27.8509 48.1415 28.6214 47.5083 28.2388 47.0235L21.3223 48.1682Z" fill="#1A171C"/>
<path d="M26.2395 46.1725C24.5442 46.3381 22.86 46.602 21.1953 46.9627C21.1953 47.0481 21.1953 47.1325 21.2039 47.2168C23.369 46.9606 25.542 46.7687 27.7229 46.6413C27.2483 46.428 26.7505 46.2707 26.2395 46.1725Z" fill="#1A171C"/>
<path d="M54.921 41.0116L49.5091 44.2087C49.1533 40.3922 47.8398 34.7049 45.6512 31.5804C43.4272 32.1143 40.6337 32.5639 37.9342 32.5852C33.3848 34.344 26.6617 36.8972 22.0364 38.5224C22.0086 38.595 21.9808 38.6666 21.952 38.736C21.9145 40.9326 22.3506 43.6876 22.8069 45.8179C31.0101 45.3844 41.2952 44.8014 49.5081 44.2066C49.6042 45.3075 49.5989 45.2424 49.8084 47.6771L55.2202 44.4842L54.921 41.0116Z" fill="#646567"/>
<path d="M27.2517 48.604L27.2976 48.5687L27.1085 48.6029C26.3027 48.7503 25.4948 48.8923 24.689 49.0364C25.1624 49.4956 25.6144 50.006 26.0612 50.4983C29.3036 50.9447 31.5115 52.8209 33.0835 55.4777C34.5594 57.9839 45.2398 60.8094 45.227 60.7357C45.227 60.2018 43.951 53.8684 47.7972 48.6584C41.7324 48.6616 33.2898 48.6552 27.2517 48.604Z" fill="#646567"/>
<path d="M38.3158 32.047C40.6028 32.3022 41.2013 31.9135 44.9855 31.3059C44.7912 31.2087 44.6211 31.0693 44.4875 30.898L42.5339 31.1927L44.822 29.3026C43.7832 28.6737 43.4658 28.5146 42.6846 28.2348C36.0972 28.7944 28.6314 30.0576 23.6406 34.3685C23.133 35.6179 22.6691 36.8897 22.1797 38.1487C25.2393 36.8149 30.011 35.5036 38.3158 32.047ZM34.46 31.1223C35.4891 30.7047 40.4446 28.8189 41.0602 29.7341C41.1083 30.4933 38.4248 31.6562 37.7248 31.9648C26.3604 36.9057 26.8167 34.2179 34.46 31.1223Z" fill="#646567"/>
<path d="M27.7197 46.6412C25.5424 46.7687 23.3694 46.9605 21.2007 47.2168C21.216 47.5365 21.2556 47.8546 21.3193 48.1682L28.238 47.0235C28.0946 46.8605 27.9178 46.7302 27.7197 46.6412Z" fill="#646567"/>
<path d="M29.3741 41.1728C31.0167 40.4403 32.5011 39.838 33.1883 39.5881C33.1979 39.508 33.2054 39.4269 33.2203 39.3457C31.5179 39.9138 29.8112 40.4435 28.1483 41.1119H27.9196C27.9068 41.0436 27.8951 40.9774 27.8833 40.9101C31.3971 39.4931 39.3813 36.8192 45.5444 35.588C42.534 36.5512 35.1664 39.0222 30.244 41.2593C29.9576 41.2187 29.6659 41.1952 29.3741 41.1728Z" fill="#C0000F"/>
<path d="M42.9333 35.7439C42.4993 34.9555 42.1927 34.1035 42.0249 33.2195C42.3209 33.1512 42.6052 33.086 42.8798 33.0273C43.1075 33.9531 43.3191 34.7091 43.7102 35.5453L42.9333 35.7439ZM40.5116 36.3696C40.4347 36.1144 40.3556 35.8592 40.2787 35.604C40.6303 35.7941 40.9829 35.9788 41.3409 36.1529C41.8614 36.0183 42.3637 35.888 42.8307 35.7695C42.1895 35.4598 41.5322 35.1875 40.907 34.8309C41.2683 34.3023 41.6028 33.7566 41.9683 33.2291C41.602 33.3131 41.2202 33.4053 40.8226 33.5057C40.5426 33.889 40.2883 34.2884 40.0072 34.6718C39.926 34.3728 39.8523 34.0727 39.7935 33.7705C39.4729 33.8527 39.1523 33.9403 38.8242 34.03C39.0443 34.8971 39.2901 35.762 39.5594 36.6174C39.8779 36.5362 40.1964 36.4519 40.5116 36.3696ZM37.6497 37.2741C39.7123 36.9367 39.1715 36.0333 38.5217 34.1773C38.2631 34.2489 38.0002 34.3215 37.732 34.3973C38.1156 35.6894 38.4865 36.4166 37.7416 36.5394C37.1645 36.6334 36.8353 35.4876 36.6676 34.6995C36.3673 34.785 36.0616 34.8747 35.7517 34.9665C36.2914 36.4059 36.0798 37.5304 37.6497 37.2741ZM28.7892 42.246C29.7318 42.1264 30.606 42.0324 31.2226 41.9673C34.7439 40.1103 41.5141 37.6404 45.0471 36.4241C40.6516 37.2901 34.2117 39.3788 28.7892 42.246ZM34.5601 36.0909C34.1743 36.7178 33.7789 37.3723 33.3717 37.9981C33.4145 38.1444 33.4562 38.2896 33.4978 38.4359C33.9702 38.249 34.9673 37.9468 36.1973 37.5987C36.1183 37.3702 36.0413 37.1395 35.9686 36.9057C35.5251 37.0125 35.0848 37.1289 34.6509 37.2709C34.9074 36.879 35.2334 36.4081 35.6705 35.8218C35.6031 35.526 35.5636 35.2879 35.5262 35.0327C34.652 35.2911 33.7394 35.5666 32.7968 35.8603C32.8545 36.1112 32.9165 36.359 32.9806 36.6078C33.5071 36.4298 34.0329 36.2582 34.558 36.0931L34.5601 36.0909ZM31.649 39.1802C33.5726 38.8598 33.2146 37.824 32.489 35.9564L31.6597 36.2169C31.9354 36.9644 32.4794 38.2629 31.6907 38.3921C31.0602 38.4989 30.7951 37.3243 30.6573 36.5362C30.3505 36.6334 30.0406 36.7338 29.7296 36.8352C30.1689 38.689 30.4574 39.3745 31.6469 39.1802H31.649ZM33.1901 39.5881C33.1997 39.508 33.2071 39.4269 33.2221 39.3457C31.0986 40.0537 28.8544 40.7392 26.7704 41.7046C26.7309 41.9513 26.6999 42.2001 26.6636 42.4467C28.9132 41.3255 31.8659 40.0697 33.1879 39.5881H33.1901ZM27.8413 39.0264C28.0999 38.9837 28.3703 38.8962 28.5658 38.8652C29.8002 38.658 29.0072 39.8262 28.3959 39.1482L27.2738 39.5283C27.7857 40.8738 30.4339 39.8711 30.2512 38.7499C30.0684 37.6286 28.6321 38.2159 28.4344 38.2501C27.7312 38.3654 28.0849 37.5774 28.7454 37.9554C29.0606 37.8411 29.3866 37.7536 29.7211 37.6692C29.3609 37.3339 28.8245 37.2421 28.3254 37.3232C26.7598 37.5763 26.6005 39.2368 27.8391 39.0264H27.8413Z" fill="white"/>
<path d="M49.5093 44.2087C41.2868 44.8045 30.9943 45.3833 22.8081 45.8201C22.8669 46.0902 22.9267 46.354 22.9876 46.6188C23.9933 46.4394 25.1389 46.2803 26.2397 46.1767C28.9841 46.7566 28.7222 47.4816 27.2977 48.573L27.2517 48.6082C33.2962 48.6605 41.7453 48.6659 47.7994 48.6627C48.4769 48.354 49.1459 48.0219 49.8106 47.6792C49.5873 45.1452 49.5809 45.0299 49.5093 44.2087ZM35.6463 47.535C34.9986 47.535 34.927 46.591 35.5618 46.4885C36.3056 46.3647 36.404 47.535 35.6463 47.535Z" fill="#929395"/>
<path d="M37.7247 31.9691C38.4182 31.668 41.1081 30.4987 41.06 29.7384C40.4466 28.8189 35.489 30.7048 34.4598 31.1266C26.6306 34.2927 26.6103 36.7979 37.7247 31.9691ZM34.8787 31.2654C37.3292 30.3267 39.7135 29.67 40.0822 30.079C40.1142 30.4325 39.0541 30.9888 38.7367 31.1522C29.7373 35.8657 24.4302 35.2388 34.8787 31.2654Z" fill="#929395"/>
<path d="M37.9386 32.5799C40.6381 32.5585 43.4317 32.1079 45.6556 31.575C45.6517 31.5677 45.6475 31.5606 45.6428 31.5537C45.4259 31.5049 45.2167 31.4269 45.0208 31.322L44.992 31.3081C41.2248 31.9125 40.6103 32.3044 38.3223 32.0492C30.0143 35.5079 25.248 36.816 22.1851 38.1572C22.1381 38.2779 22.0911 38.3986 22.043 38.5192C26.6608 36.8918 33.3839 34.3386 37.9386 32.5799Z" fill="#929395"/>
<path d="M284.542 52.1289C285.717 53.1902 286.799 54.349 287.777 55.593C251.073 59.0101 182.405 53.4188 158.407 53.4188C113.123 53.4188 41.2791 61.7032 1.91508 62.4282C1.85951 61.1255 1.82531 59.811 1.79646 58.4772C27.9045 53.4893 89.1906 45.8991 127.652 45.3321C195.339 44.3347 221.25 48.7299 284.487 52.1866L284.542 52.1289ZM8.17973 52.8956C5.76557 54.3906 3.76819 55.8621 1.77295 57.2545C27.8639 52.2656 89.1777 44.6721 127.652 44.1019C194.824 43.112 220.854 47.4325 283.049 50.8763L283.072 50.8486C282.826 50.6414 282.577 50.4296 282.324 50.2132C251.805 48.5046 196.679 35.7877 178.604 35.7877C143.222 35.7877 90.2528 36.0205 49.9238 41.9919C33.062 44.4917 18.4103 47.9899 8.1776 52.8956H8.17973Z" fill="#DADADA"/>
<path d="M224.57 69.0254C223.147 69.0254 191.348 68.1925 173.38 68.1925C142.777 68.1925 93.069 69.5668 60.9827 78.0593C48.7997 78.0924 34.3927 78.2537 21.7886 78.1576C23.0892 79.3536 24.3855 80.5933 25.7513 81.8214C30.6127 83.0547 37.4855 84.7536 44.8583 86.16C96.4236 86.2945 173.065 87.0378 220.796 84.7611C242.311 79.5618 260.573 71.1739 276.124 62.7635C259.854 65.8026 241.809 69.0254 224.57 69.0254Z" fill="#EDEDED"/>
<path d="M44.8584 86.159C96.4237 86.2936 173.065 87.0368 220.796 84.7601C206.347 88.2554 191.532 90.0145 176.666 90C171.944 90 66.6425 89.0037 59.6309 88.3427C54.7758 87.8836 49.7092 87.0859 44.8584 86.159Z" fill="#A9ABB0"/>
<path d="M197.928 27.041L197.874 26.9844C197.767 26.8702 197.66 26.7559 197.538 26.6427C197.272 26.379 196.989 26.1163 196.693 25.8546C195.071 24.1942 193.498 22.6212 191.949 21.1145C188.154 17.4187 184.506 14.1148 180.647 10.876C177.992 8.64955 175.24 6.45193 172.272 4.18062C170.817 3.19747 169.256 2.38011 167.619 1.7438C164.849 0.672756 161.051 -0.27976 157.131 0.0758317C157.131 0.0758317 146.676 0.589464 135.82 4.64727C135.979 5.09577 136.141 5.54746 136.319 5.99916C142.337 3.8891 148.903 2.39839 156.115 1.96912L162.86 8.6346C154.592 9.80282 147.431 11.6502 140.377 14.3049C137.685 15.3172 135.009 16.4469 132.293 17.7027L132.263 17.7166L131.887 17.8917C131.063 18.2747 130.234 18.6706 129.4 19.0792L129.429 19.1411L129.263 19.1465C128.521 19.5095 127.772 19.8829 127.019 20.2666C125.344 21.1166 123.64 22.0143 121.904 22.9597L120.988 23.4605C120.598 23.6741 120.206 23.8905 119.813 24.1098C119.397 24.3404 118.979 24.5739 118.559 24.8103C117.433 25.441 116.289 26.0917 115.125 26.7623C113.175 27.8843 111.16 29.0632 109.081 30.299C108.089 30.8863 107.08 31.4868 106.053 32.1005L105.479 32.4454C104.617 32.9601 103.741 33.4855 102.852 34.0215C101.913 34.5861 100.958 35.1613 99.9873 35.7472C109.308 35.2218 123.143 34.7797 138.795 34.4796C151.841 34.2308 166.153 34.0792 180.166 34.06C200.699 34.0215 201.273 30.6087 197.928 27.041ZM185.164 18.1779C180.996 17.2991 176.474 17.0695 173.892 16.9061L167.087 10.0495L167.081 10.0004C169.566 9.68002 172.886 9.19735 174.698 8.74993C178.86 12.4682 184.586 17.7817 185.164 18.1726V18.1779ZM158.829 1.86661C162.783 1.59964 165.996 2.44538 168.422 3.67126C169.152 4.04074 171.001 5.54212 172.566 6.8481C172.246 7.10224 171.704 7.29873 170.879 7.41405C169.036 7.67247 167.117 8.03767 165.337 8.29716L158.829 1.86661ZM164.553 10.3079L171.209 16.9969L167.973 17.0524V16.9008L161.775 10.6432L164.553 10.3079ZM173.127 32.5693L163.7 32.7572L157.857 32.8725L151.19 33.0039L138.732 33.2505L127.137 33.4812L122.008 33.5826L105.631 33.903L107.503 32.8351L108.217 32.4294C109.867 31.4918 111.462 30.5873 113.001 29.716C115.05 28.5584 117.01 27.4585 118.904 26.4142L119.287 26.2006C120.3 25.6432 121.295 25.1018 122.273 24.5764C122.922 24.2248 123.566 23.8816 124.203 23.547C124.603 23.3335 125.001 23.1274 125.395 22.9213C126.998 22.0894 128.56 21.3003 130.105 20.5507C130.383 20.4161 130.66 20.283 130.937 20.1513C131.522 19.8715 132.106 19.5974 132.688 19.3291C132.938 19.2127 133.189 19.0984 133.436 18.9852C134.488 18.5082 135.537 18.0498 136.585 17.6098C138.141 16.9563 139.701 16.3423 141.287 15.7646C146.761 13.7603 152.494 12.1873 159.187 10.9443L165.404 17.0877C159.778 17.1859 150.938 17.3418 142.44 17.4988C142.754 17.9544 143.075 18.4061 143.402 18.8539C150.497 18.7588 157.716 18.6627 159.817 18.6627C162.389 18.6627 164.769 18.6627 167.025 18.6948L167.922 19.5811L170.511 22.1439L177.17 28.725L180.9 32.4112L173.127 32.5693ZM196.495 30.4207C194.396 31.3818 190.846 32.1667 185.947 32.3845L183.655 32.3984L181.784 30.5638L179.929 28.7432L173.403 22.3425L170.669 19.6665L169.79 18.8047L169.842 18.7535C174.647 18.8921 179.441 19.2889 184.203 19.942C187.56 20.4236 191.177 24.3426 196.921 30.1933C196.783 30.2779 196.639 30.3539 196.492 30.4207H196.495Z" fill="black"/>
<path d="M120.599 17.9857C117.356 18.0562 114.47 18.1203 112.635 18.1726C117.2 15.2147 122.163 12.2151 127.62 9.60742C128.046 8.79958 128.556 8.03897 129.142 7.33826C120.814 11.081 113.57 15.7689 107.289 19.973C111.471 19.7701 115.624 19.5971 119.636 19.4529C119.923 18.9423 120.245 18.4521 120.599 17.9857Z" fill="black"/>
<path d="M151.187 33.0039L138.728 33.2506C138.414 32.9081 138.104 32.56 137.799 32.2062C137.664 32.0539 137.532 31.9001 137.403 31.7449C136.319 30.4635 135.296 29.1244 134.34 27.7469C133.681 26.7986 133.054 25.8333 132.458 24.8509C132.056 24.186 131.668 23.5168 131.296 22.8433L131.04 22.3746C130.714 21.7716 130.402 21.1665 130.103 20.5592C130.381 20.4247 130.658 20.2916 130.935 20.1599C131.52 19.8801 132.104 19.606 132.686 19.3376C132.84 19.6035 132.999 19.8715 133.161 20.131C133.569 20.7942 133.994 21.4498 134.429 22.0884C134.535 22.2443 134.641 22.3998 134.75 22.555C135.223 23.2384 135.7 23.9026 136.168 24.5391C136.987 25.6528 137.771 26.6801 138.455 27.5782C138.64 27.8238 138.816 28.0576 138.983 28.2819C139.745 29.3059 140.508 30.2766 141.392 31.3359C142.047 31.3359 142.856 31.2676 143.743 31.2291C144.894 31.1704 146.18 31.1512 147.45 31.3658C148.775 31.5836 150.077 32.0588 151.187 33.0039ZM131.803 17.7262L128.836 17.7978C129.017 18.2249 129.205 18.6521 129.4 19.0792C130.235 18.6713 131.064 18.2755 131.887 17.8918C131.858 17.833 131.831 17.7839 131.803 17.7262ZM129.142 7.33505C128.556 8.03777 128.046 8.80055 127.621 9.61062C127.221 10.3542 126.922 11.1474 126.731 11.9695C126.582 12.7238 126.557 13.4976 126.658 14.26C124.575 14.1383 122.262 15.803 120.621 17.9601L121.133 17.9473L120.621 17.9601L120.599 17.9889C120.245 18.4553 119.924 18.9456 119.637 19.4561C119.452 19.784 119.283 20.1212 119.132 20.4663C118.894 20.9998 118.709 21.5552 118.579 22.1247C118.464 22.681 118.423 23.2501 118.457 23.8172C118.464 23.9763 118.477 24.1376 118.493 24.3031C118.509 24.4686 118.531 24.6405 118.558 24.8135C118.978 24.5772 119.396 24.3437 119.812 24.113C120.207 23.893 120.599 23.6766 120.987 23.4638L121.903 22.9629L121.765 22.1727C121.707 21.579 121.719 20.9804 121.8 20.3894C121.85 20.0436 121.93 19.7028 122.039 19.3707C122.054 19.3259 122.069 19.2799 122.085 19.2351C122.202 18.9073 122.512 18.4481 122.917 17.9377L122.946 17.9035C123.987 16.6221 125.672 15.031 126.676 14.4277C126.768 14.3732 126.853 14.3262 126.932 14.2888C127.228 14.1468 127.432 14.134 127.488 14.3006C127.879 15.4507 128.324 16.6125 128.82 17.7775L128.832 17.8053L131.8 17.7337L131.792 17.7166C131.096 16.3551 130.535 14.9883 130.205 13.6727L129.917 12.0175C129.827 11.0277 129.899 10.0271 130.238 9.08097C130.375 8.75669 130.554 8.45215 130.772 8.17544C131.325 7.41941 132.195 6.48397 133.047 5.6927C133.824 4.97298 134.587 4.37178 135.087 4.13365C133.085 3.85388 130.828 5.31896 129.142 7.33825V7.33505ZM126.364 32.3664C125.497 31.1086 124.696 29.8073 123.962 28.4677C123.492 27.6064 123.073 26.7178 122.709 25.8066C122.546 25.3958 122.401 24.9879 122.275 24.5829C121.296 25.1082 120.301 25.6496 119.289 26.2071L118.906 26.4206C119.14 27.2594 119.421 28.084 119.749 28.8905C120.255 30.1388 120.826 31.3603 121.458 32.55C121.542 32.7113 121.628 32.8704 121.714 33.0327C121.812 33.2164 121.913 33.3979 122.013 33.5816L127.143 33.4801C126.994 33.2708 126.845 33.0573 126.697 32.8394L126.364 32.3664ZM68.4099 35.3958L67.0089 35.4033C66.8822 35.4034 66.757 35.4299 66.6412 35.4813C66.5217 35.5335 66.4146 35.6105 66.327 35.7071C66.2393 35.8036 66.1732 35.9177 66.1328 36.0416C66.0924 36.1656 66.0788 36.2967 66.0927 36.4263C66.1067 36.5559 66.1479 36.6811 66.2138 36.7937L67.0067 38.1445L72.7926 37.7237C72.3114 37.0042 71.6592 36.415 70.8944 36.0088C70.1296 35.6025 69.276 35.392 68.4099 35.3958Z" fill="#646363"/>
<path d="M287.777 55.593C251.073 59.01 182.405 53.4188 158.407 53.4188C113.123 53.4188 41.2791 61.7032 1.91509 62.4282C1.26818 62.4389 0.629813 62.4485 0 62.457C0.00961819 62.6055 0.0203051 62.756 0.034198 62.9077C0.658312 62.8991 1.29204 62.8892 1.93539 62.8778C41.3027 62.1506 113.13 53.8695 158.407 53.8695C182.477 53.8695 251.49 59.4895 288.107 56.0126C287.995 55.8685 287.884 55.7286 287.777 55.593Z" fill="#EDEDED"/>
<path d="M127.652 45.3353C195.339 44.3379 221.251 48.7331 284.487 52.1897L284.543 52.1289C284.052 51.6836 283.569 51.2746 283.072 50.8475L283.05 50.8752C220.852 47.4314 194.824 43.1109 127.652 44.1008C89.179 44.6679 27.8641 52.2613 1.771 57.2502C1.77883 57.6603 1.78738 58.0689 1.79664 58.4761C27.9047 53.4925 89.1907 45.9023 127.652 45.3353Z" fill="#EDEDED"/>
<path d="M159.243 27.3902C160.316 27.3667 161.388 27.3332 162.459 27.2898L162.855 27.2738C163.906 25.9155 165.056 24.2689 164.993 22.8582C164.993 22.8134 164.987 22.7686 164.983 22.7258C164.976 22.6541 164.965 22.5828 164.95 22.5123C161.31 22.7846 157.285 23.0462 153.048 23.3324C156.482 23.8129 158.244 25.2096 159.243 27.3902Z" fill="#EDEDED"/>
<path d="M164.993 22.367C164.965 21.7562 164.711 21.1924 164.122 20.7097C161.271 20.6553 158.403 20.7161 155.535 20.8453C152.72 20.9724 149.215 21.1358 145.359 21.3558C145.491 21.5124 145.622 21.6683 145.754 21.8235C149.454 21.6163 152.817 21.4593 155.535 21.3365C158.403 21.2063 161.271 21.1465 164.122 21.1999C164.546 21.5238 164.839 21.9886 164.95 22.5101C164.965 22.5112 164.979 22.5112 164.994 22.5101C164.996 22.461 164.995 22.414 164.993 22.367Z" fill="#EDEDED"/>
<path d="M119.131 20.4631C119.282 20.1179 119.451 19.7807 119.637 19.4529C115.622 19.597 111.472 19.7732 107.289 19.9729C100.44 20.305 93.5029 20.7204 86.9272 21.2415C87.1878 21.5525 87.427 21.8807 87.6433 22.2239C96.9857 21.4273 107.66 20.8122 119.131 20.4631Z" fill="#EDEDED"/>
<path d="M178.604 35.7898C196.678 35.7898 251.809 48.5035 282.323 50.2163C281.851 49.8148 281.361 49.3898 280.839 48.9104C229.447 31.4714 207.841 24.24 191.948 21.1133C193.497 22.6201 195.07 24.193 196.692 25.8535C196.988 26.1151 197.271 26.3778 197.537 26.6416C197.657 26.738 197.767 26.8452 197.867 26.9619C197.888 26.9865 197.907 27.01 197.926 27.0345C201.271 30.6022 200.697 34.015 180.161 34.0535C166.148 34.0727 151.84 34.2243 138.79 34.4731C123.138 34.7732 109.303 35.2153 99.9823 35.7407L87.6411 36.6376L72.7863 37.7172L67.0069 38.1444L66.2192 36.7936C66.1534 36.681 66.1121 36.5558 66.0982 36.4262C66.0842 36.2966 66.0979 36.1655 66.1383 36.0415C66.1786 35.9176 66.2448 35.8035 66.3325 35.707C66.4201 35.6104 66.5272 35.5334 66.6467 35.4812L80.7534 21.8811L80.7406 21.8672C74.7559 22.4417 68.7798 23.1155 62.854 24.1097C58.7128 24.8059 54.2959 25.5075 50.4262 27.2171C50.0596 27.3788 49.7028 27.5617 49.3575 27.7649L49.9057 27.7019L50.7938 28.2134C51.4641 27.8449 52.1649 27.5348 52.8884 27.2865C54.9189 26.585 57.0029 26.0543 59.0964 25.5897C64.6045 24.3681 70.2108 23.611 75.8161 22.981L67.0069 30.7261L56.9356 39.5806C55.1943 39.7942 53.5147 40.0124 51.8967 40.2352C51.1358 40.3399 50.3877 40.4466 49.6524 40.5556C42.6835 41.5679 36.8549 42.6678 31.9218 43.8242C30.0581 44.2621 28.3214 44.7073 26.7002 45.159C29.0941 43.1195 28.8921 43.0137 31.4954 41.0521C30.8963 41.1126 30.2964 41.1785 29.6958 41.2497L29.4607 41.2774C27.8224 42.4734 26.8135 43.2519 26.0569 43.8776C25.0951 44.6721 24.5393 45.222 23.6117 46.0699C16.5082 48.2782 11.8626 50.6157 8.17773 52.8956C18.4104 47.9899 33.0621 44.4916 49.9228 41.995C90.2519 36.0236 143.221 35.7898 178.604 35.7898ZM195.877 23.1892C204.435 25.0409 229.925 33.2398 246.974 38.4466C250.959 39.6639 250.96 39.9608 254.854 41.4547L254.917 41.507L260.603 46.2493C258.764 45.9802 256.863 45.6833 254.917 45.3662C252.345 44.9465 249.688 44.4906 246.974 44.009C236.309 42.1168 224.751 39.8316 213.882 37.8614C212.657 37.6371 211.44 37.4186 210.231 37.2057C209.676 36.6878 209.095 36.1379 208.498 35.5613C207.002 34.1229 205.399 32.5361 203.807 30.9471C200.936 28.0842 198.077 25.2181 195.877 23.1924V23.1892Z" fill="#EDEDED"/>
<path d="M210.625 35.0103C210.777 35.1715 210.946 35.3403 211.117 35.5068C218.859 36.0675 226.559 37.3553 234.228 38.5534L234.505 38.5972C234.585 38.0564 234.458 37.5056 234.149 37.0541L234.123 37.0488C223.716 34.7999 219.832 33.0444 207.25 30.9333C208.626 32.6418 210.044 34.3845 210.625 35.0103Z" fill="#EDEDED"/>
<path d="M205.811 29.1617C205.761 29.029 205.743 28.8865 205.757 28.7454C205.771 28.6043 205.817 28.4683 205.893 28.348C205.991 28.1812 206.142 28.0509 206.321 27.9766C206.5 27.9023 206.698 27.888 206.886 27.9358C215.35 30.4036 225.281 33.4288 232.455 35.7898C233.1 35.9939 233.663 36.3959 234.066 36.9388C233.675 36.2302 233.024 35.7011 232.25 35.4631C225.078 33.1031 215.148 30.0779 206.684 27.6091C206.496 27.5613 206.298 27.5755 206.119 27.6495C205.939 27.7236 205.789 27.8536 205.689 28.0202C205.587 28.1838 205.538 28.3752 205.55 28.5677C205.562 28.7603 205.633 28.9444 205.755 29.0944L205.811 29.1617Z" fill="#EDEDED"/>
<path d="M170.72 19.6184C172.051 19.6355 173.267 19.6622 174.353 19.6974L176.493 22.2111L173.481 22.1823C173.466 22.2218 173.453 22.2634 173.438 22.3051L173.4 22.3435L179.927 28.7442L179.939 28.7303H182.055L185.944 32.3855C190.843 32.1719 194.393 31.3796 196.492 30.4217C196.639 30.3545 196.782 30.2782 196.92 30.1932C191.176 24.3436 187.558 20.4246 184.202 19.9419C179.44 19.2888 174.646 18.8921 169.841 18.7534L169.789 18.8047L170.669 19.6664L170.72 19.6184Z" fill="#EDEDED"/>
<path d="M177.17 28.7292L170.513 22.1502H170.512L169.012 22.2901L174.901 28.5893L177.17 28.7292Z" fill="#EDEDED"/>
<path d="M167.923 19.5906L167.026 18.7043C164.77 18.6776 162.39 18.6723 159.818 18.6723C157.717 18.6723 150.498 18.7684 143.403 18.8634C143.663 19.2137 143.926 19.5621 144.193 19.9088C153.077 19.7316 163.093 19.5618 167.923 19.5906Z" fill="#EDEDED"/>
<path d="M118.902 26.4216C117.009 27.466 115.049 28.5659 112.999 29.7234C115.23 29.4144 117.479 29.1372 119.745 28.8916C119.417 28.0851 119.136 27.2604 118.902 26.4216Z" fill="#EDEDED"/>
<path d="M103.391 31.2536C103.529 31.229 103.666 31.2034 103.804 31.1799C105.554 30.866 107.312 30.5723 109.078 30.2989C111.162 29.0631 113.177 27.8842 115.122 26.7623C110.882 27.3656 106.947 28.0629 103.512 28.8787C105.212 26.8733 111.078 25.3965 118.491 24.2998C118.475 24.1354 118.462 23.973 118.455 23.8139C110.362 25.0142 104.121 26.6683 103.146 28.9684C103.049 29.1915 103.004 29.4335 103.014 29.6764C103.014 29.7383 103.023 29.8003 103.03 29.8601C103.015 29.9615 103.01 30.0641 103.014 30.1665C103.025 30.5591 103.156 30.9388 103.391 31.2536Z" fill="#EDEDED"/>
<path d="M254.917 41.5103V41.5444L254.854 41.4921C250.96 39.9971 250.959 39.7013 246.974 38.4829V38.4498C229.925 33.243 204.44 25.0441 195.876 23.1925C198.077 25.2214 200.936 28.0885 203.807 30.9504C205.402 32.5393 207.005 34.1261 208.501 35.5645C209.098 36.1401 209.676 36.6911 210.234 37.2101C211.44 37.4236 212.657 37.6418 213.885 37.8646C224.753 39.8348 236.312 42.12 246.977 44.0122V44.0453C249.691 44.528 252.348 44.9829 254.92 45.4036V45.3695C256.868 45.6898 258.768 45.9835 260.606 46.2526L254.917 41.5103ZM205.892 28.348C205.817 28.4683 205.771 28.6043 205.757 28.7454C205.742 28.8865 205.761 29.029 205.811 29.1617L205.755 29.0944C205.634 28.9444 205.562 28.7603 205.551 28.5677C205.539 28.3752 205.588 28.1838 205.69 28.0202C205.79 27.8536 205.94 27.7236 206.119 27.6495C206.299 27.5755 206.497 27.5613 206.685 27.6091C215.148 30.0779 225.077 33.101 232.254 35.4631C233.028 35.7011 233.679 36.2302 234.07 36.9388C233.667 36.396 233.103 35.9939 232.459 35.7898C225.285 33.4288 215.36 30.4047 206.89 27.9358C206.702 27.887 206.502 27.9008 206.322 27.9752C206.142 28.0495 205.991 28.1804 205.892 28.348ZM234.505 38.5993L234.227 38.5555C226.558 37.3574 218.859 36.0696 211.117 35.5079C210.942 35.3424 210.777 35.1737 210.625 35.0124C210.044 34.391 208.626 32.644 207.248 30.9397C219.829 33.0487 223.715 34.8042 234.122 37.0542L234.148 37.0595C234.456 37.5094 234.583 38.0581 234.505 38.5972V38.5993Z" fill="#A8A8A7"/>
<path d="M137.403 31.7448C136.318 30.4634 135.296 29.1243 134.34 27.7468C133.681 26.7986 133.054 25.8333 132.458 24.8508C132.056 24.1859 131.668 23.5167 131.296 22.8433L131.04 22.3745C130.714 21.7715 130.401 21.1664 130.103 20.5592C128.558 21.3067 126.993 22.0979 125.393 22.9298C124.999 23.1359 124.601 23.343 124.201 23.5555C123.564 23.8908 122.92 24.234 122.271 24.5849C122.396 24.99 122.541 25.3979 122.704 25.8087C123.069 26.7197 123.488 27.6082 123.958 28.4698C124.692 29.8093 125.493 31.1105 126.359 32.3685L126.688 32.8447C126.837 33.0583 126.985 33.2718 127.134 33.4854L138.728 33.2548C138.413 32.9123 138.103 32.5642 137.799 32.2104C137.664 32.0552 137.532 31.9 137.403 31.7448Z" fill="#A8A8A7"/>
<path d="M179.939 28.7292L179.926 28.7431L181.78 30.5638L183.652 32.3983L185.944 32.3844L182.055 28.7292H179.939Z" fill="#A8A8A7"/>
<path d="M174.901 28.5894L169.012 22.2891L170.508 22.1492L167.919 19.5864C163.089 19.5576 153.072 19.7274 144.194 19.9068C143.927 19.5608 143.663 19.2123 143.404 18.8613C143.074 18.4143 142.754 17.9626 142.442 17.5062C142.045 16.9367 141.661 16.3587 141.289 15.7721C139.707 16.3498 138.147 16.9638 136.587 17.6173C135.537 18.058 134.488 18.5164 133.439 18.9927C133.188 19.1059 132.937 19.2201 132.69 19.3365C132.844 19.6024 133.004 19.8704 133.165 20.1299C133.573 20.7931 133.999 21.4487 134.433 22.0873C134.539 22.2432 134.646 22.3987 134.754 22.5539C135.228 23.2374 135.704 23.9016 136.172 24.538C136.991 25.6518 137.775 26.679 138.459 27.5771C138.644 27.8227 138.82 28.0565 138.987 28.2808C139.749 29.3048 140.512 30.2755 141.396 31.3348C142.051 31.3348 142.86 31.2665 143.747 31.228C144.898 31.1693 146.185 31.1501 147.454 31.3647C148.776 31.5868 150.078 32.062 151.188 33.0071L157.855 32.8757L163.698 32.7604L173.127 32.5692L180.903 32.4155L177.17 28.725L174.901 28.5894ZM162.855 27.2738C162.723 27.2802 162.591 27.2856 162.459 27.2898C161.39 27.3347 160.318 27.3681 159.243 27.3902C158.244 25.2097 156.482 23.8151 153.045 23.3324C157.282 23.0505 161.307 22.7846 164.947 22.5123C164.836 21.9908 164.542 21.526 164.118 21.2021C161.267 21.1487 158.4 21.2085 155.531 21.3377C152.814 21.4615 149.451 21.6185 145.751 21.8257C145.618 21.6705 145.487 21.5146 145.355 21.358C149.211 21.138 152.717 20.9746 155.531 20.8475C158.4 20.7183 161.267 20.6575 164.118 20.7119C164.707 21.1924 164.962 21.7584 164.989 22.3692C164.989 22.4162 164.989 22.4632 164.989 22.5091C164.989 22.5804 164.986 22.6517 164.979 22.7227C164.979 22.7654 164.986 22.8102 164.988 22.8551C165.056 24.2689 163.906 25.9155 162.855 27.2738Z" fill="#A8A8A7"/>
<path d="M173.438 22.304C173.452 22.2624 173.466 22.2207 173.481 22.1812L176.493 22.21L174.348 19.6974C173.267 19.6622 172.051 19.6355 170.715 19.6184L170.667 19.6664L173.395 22.3424L173.438 22.304Z" fill="#A8A8A7"/>
<path d="M130.208 13.6684C130.538 14.984 131.099 16.3508 131.795 17.7123L131.803 17.7294C131.831 17.7839 131.858 17.8362 131.887 17.8917L132.263 17.7166L132.293 17.7027C135.009 16.4469 137.685 15.3172 140.377 14.3048C138.794 11.6545 137.435 8.87624 136.316 5.99916C136.142 5.54746 135.975 5.09576 135.817 4.64727C135.757 4.47748 135.699 4.30983 135.642 4.14111C135.585 3.97239 135.381 3.98734 135.084 4.12937C134.584 4.36749 133.821 4.96869 133.044 5.68842C132.189 6.47969 131.321 7.41512 130.769 8.17115C130.551 8.44787 130.371 8.75241 130.234 9.07668C129.896 10.0228 129.824 11.0234 129.914 12.0133L130.208 13.6684Z" fill="#A8A8A7"/>
<path d="M121.905 22.9587C123.643 22.014 125.348 21.1163 127.02 20.2656C127.772 19.8818 128.52 19.5085 129.264 19.1454L129.401 19.0781C129.206 18.651 129.017 18.2238 128.837 17.7967L128.824 17.7689C128.328 16.6039 127.883 15.4421 127.492 14.292C127.437 14.1255 127.232 14.1383 126.936 14.2803C126.857 14.3177 126.772 14.3647 126.68 14.4191C125.676 15.0224 123.991 16.6103 122.95 17.8949L122.921 17.9302C122.512 18.4395 122.206 18.8987 122.089 19.2265C122.073 19.2714 122.058 19.3173 122.043 19.3622C121.934 19.6942 121.854 20.0351 121.805 20.3809C121.723 20.9719 121.711 21.5704 121.769 22.1642L121.905 22.9587Z" fill="#A8A8A7"/>
<path d="M121.451 32.551C120.819 31.3613 120.248 30.1398 119.741 28.8915C117.474 29.1371 115.226 29.4144 112.996 29.7234C111.455 30.5948 109.86 31.4992 108.212 32.4368L107.498 32.8426L105.626 33.9104L122.003 33.5901C121.902 33.4064 121.802 33.2249 121.703 33.0412C121.617 32.8725 121.534 32.7123 121.451 32.551Z" fill="#A8A8A7"/>
<path d="M103.513 28.8787C106.948 28.0629 110.887 27.3656 115.123 26.7622C116.288 26.0916 117.433 25.441 118.557 24.8102C118.53 24.6372 118.509 24.4664 118.492 24.2998C111.079 25.3965 105.213 26.8733 103.513 28.8787Z" fill="#A8A8A7"/>
<path d="M109.079 30.2989C107.312 30.5723 105.554 30.866 103.805 31.1799C103.667 31.2034 103.53 31.229 103.392 31.2536C103.158 30.9387 103.026 30.559 103.016 30.1665C103.012 30.0641 103.017 29.9615 103.032 29.8601C103.024 29.8003 103.019 29.7383 103.016 29.6764C103.006 29.4335 103.051 29.1915 103.147 28.9684C104.123 26.6683 110.364 25.0174 118.456 23.8139C118.423 23.2468 118.464 22.6777 118.579 22.1214C118.709 21.5519 118.894 20.9965 119.132 20.463C107.66 20.8122 96.9864 21.4241 87.6439 22.2239C87.4277 21.8807 87.1885 21.5525 86.9279 21.2415C84.9637 18.9168 83.0935 19.5757 82.6596 20.038L80.7488 21.8811L66.6421 35.4812C66.7578 35.4299 66.8831 35.4033 67.0097 35.4032L68.4108 35.3958C69.2767 35.3921 70.1301 35.6027 70.8947 36.0089C71.6592 36.4151 72.3112 37.0043 72.7924 37.7237L87.6471 36.643L99.9883 35.7471C100.959 35.1605 101.914 34.5853 102.854 34.0214C103.743 33.4861 104.618 32.9607 105.48 32.4453L106.055 32.1004C107.08 31.4875 108.088 30.887 109.079 30.2989Z" fill="#A8A8A7"/>
<path d="M26.6938 45.1559C28.315 44.7042 30.0517 44.2589 31.9155 43.8211L31.488 41.0447C28.8857 43.0106 29.0877 43.1163 26.6938 45.1559Z" fill="#A8A8A7"/>
<path d="M254.917 41.5103V41.5444L254.854 41.4921C250.96 39.9971 250.959 39.7013 246.974 38.4829V38.4498C229.925 33.243 204.44 25.0441 195.876 23.1925C198.077 25.2214 200.936 28.0885 203.807 30.9504C205.402 32.5393 207.005 34.1261 208.501 35.5645C209.098 36.1401 209.676 36.6911 210.234 37.2101C211.44 37.4236 212.657 37.6418 213.885 37.8646C224.753 39.8348 236.312 42.12 246.977 44.0122V44.0453C249.691 44.528 252.348 44.9829 254.92 45.4036V45.3695C256.868 45.6898 258.768 45.9835 260.606 46.2526L254.917 41.5103ZM205.892 28.348C205.817 28.4683 205.771 28.6043 205.757 28.7454C205.742 28.8865 205.761 29.029 205.811 29.1617L205.755 29.0944C205.634 28.9444 205.562 28.7603 205.551 28.5677C205.539 28.3752 205.588 28.1838 205.69 28.0202C205.79 27.8536 205.94 27.7236 206.119 27.6495C206.299 27.5755 206.497 27.5613 206.685 27.6091C215.148 30.0779 225.077 33.101 232.254 35.4631C233.028 35.7011 233.679 36.2302 234.07 36.9388C233.667 36.396 233.103 35.9939 232.459 35.7898C225.285 33.4288 215.36 30.4047 206.89 27.9358C206.702 27.887 206.502 27.9008 206.322 27.9752C206.142 28.0495 205.991 28.1804 205.892 28.348ZM234.505 38.5993L234.227 38.5555C226.558 37.3574 218.859 36.0696 211.117 35.5079C210.942 35.3424 210.777 35.1737 210.625 35.0124C210.044 34.391 208.626 32.644 207.248 30.9397C219.829 33.0487 223.715 34.8042 234.122 37.0542L234.148 37.0595C234.456 37.5094 234.583 38.0581 234.505 38.5972V38.5993Z" fill="#A9ABB0"/>
<path d="M137.403 31.7448C136.318 30.4634 135.296 29.1243 134.34 27.7468C133.681 26.7986 133.054 25.8333 132.458 24.8508C132.056 24.1859 131.668 23.5167 131.296 22.8433L131.04 22.3745C130.714 21.7715 130.401 21.1664 130.103 20.5592C128.558 21.3067 126.993 22.0979 125.393 22.9298C124.999 23.1359 124.601 23.343 124.201 23.5555C123.564 23.8908 122.92 24.234 122.271 24.5849C122.396 24.99 122.541 25.3979 122.704 25.8087C123.069 26.7197 123.488 27.6082 123.958 28.4698C124.692 29.8093 125.493 31.1105 126.359 32.3685L126.688 32.8447C126.837 33.0583 126.985 33.2718 127.134 33.4854L138.728 33.2548C138.413 32.9123 138.103 32.5642 137.799 32.2104C137.664 32.0552 137.532 31.9 137.403 31.7448Z" fill="#A9ABB0"/>
<path d="M179.939 28.7292L179.926 28.7431L181.78 30.5638L183.652 32.3983L185.944 32.3844L182.055 28.7292H179.939Z" fill="#A9ABB0"/>
<path d="M174.901 28.5894L169.012 22.2891L170.508 22.1492L167.919 19.5864C163.089 19.5576 153.072 19.7274 144.194 19.9068C143.927 19.5608 143.663 19.2123 143.404 18.8613C143.074 18.4143 142.754 17.9626 142.442 17.5062C142.045 16.9367 141.661 16.3587 141.289 15.7721C139.707 16.3498 138.147 16.9638 136.587 17.6173C135.537 18.058 134.488 18.5164 133.439 18.9927C133.188 19.1059 132.937 19.2201 132.69 19.3365C132.844 19.6024 133.004 19.8704 133.165 20.1299C133.573 20.7931 133.999 21.4487 134.433 22.0873C134.539 22.2432 134.646 22.3987 134.754 22.5539C135.228 23.2374 135.704 23.9016 136.172 24.538C136.991 25.6518 137.775 26.679 138.459 27.5771C138.644 27.8227 138.82 28.0565 138.987 28.2808C139.749 29.3048 140.512 30.2755 141.396 31.3348C142.051 31.3348 142.86 31.2665 143.747 31.228C144.898 31.1693 146.185 31.1501 147.454 31.3647C148.776 31.5868 150.078 32.062 151.188 33.0071L157.855 32.8757L163.698 32.7604L173.127 32.5692L180.903 32.4155L177.17 28.725L174.901 28.5894ZM162.855 27.2738C162.723 27.2802 162.591 27.2856 162.459 27.2898C161.39 27.3347 160.318 27.3681 159.243 27.3902C158.244 25.2097 156.482 23.8151 153.045 23.3324C157.282 23.0505 161.307 22.7846 164.947 22.5123C164.836 21.9908 164.542 21.526 164.118 21.2021C161.267 21.1487 158.4 21.2085 155.531 21.3377C152.814 21.4615 149.451 21.6185 145.751 21.8257C145.618 21.6705 145.487 21.5146 145.355 21.358C149.211 21.138 152.717 20.9746 155.531 20.8475C158.4 20.7183 161.267 20.6575 164.118 20.7119C164.707 21.1924 164.962 21.7584 164.989 22.3692C164.989 22.4162 164.989 22.4632 164.989 22.5091C164.989 22.5804 164.986 22.6517 164.979 22.7227C164.979 22.7654 164.986 22.8102 164.988 22.8551C165.056 24.2689 163.906 25.9155 162.855 27.2738Z" fill="#A9ABB0"/>
<path d="M173.438 22.304C173.452 22.2624 173.466 22.2207 173.481 22.1812L176.493 22.21L174.348 19.6974C173.267 19.6622 172.051 19.6355 170.715 19.6184L170.667 19.6664L173.395 22.3424L173.438 22.304Z" fill="#A9ABB0"/>
<path d="M130.208 13.6684C130.538 14.984 131.099 16.3508 131.795 17.7123L131.803 17.7294C131.831 17.7839 131.858 17.8362 131.887 17.8917L132.263 17.7166L132.293 17.7027C135.009 16.4469 137.685 15.3172 140.377 14.3048C138.794 11.6545 137.435 8.87624 136.316 5.99916C136.142 5.54746 135.975 5.09576 135.817 4.64727C135.757 4.47748 135.699 4.30983 135.642 4.14111C135.585 3.97239 135.381 3.98734 135.084 4.12937C134.584 4.36749 133.821 4.96869 133.044 5.68842C132.189 6.47969 131.321 7.41512 130.769 8.17115C130.551 8.44787 130.371 8.75241 130.234 9.07668C129.896 10.0228 129.824 11.0234 129.914 12.0133L130.208 13.6684Z" fill="#A9ABB0"/>
<path d="M121.905 22.9587C123.643 22.014 125.348 21.1163 127.02 20.2656C127.772 19.8818 128.52 19.5085 129.264 19.1454L129.401 19.0781C129.206 18.651 129.017 18.2238 128.837 17.7967L128.824 17.7689C128.328 16.6039 127.883 15.4421 127.492 14.292C127.437 14.1255 127.232 14.1383 126.936 14.2803C126.857 14.3177 126.772 14.3647 126.68 14.4191C125.676 15.0224 123.991 16.6103 122.95 17.8949L122.921 17.9302C122.512 18.4395 122.206 18.8987 122.089 19.2265C122.073 19.2714 122.058 19.3173 122.043 19.3622C121.934 19.6942 121.854 20.0351 121.805 20.3809C121.723 20.9719 121.711 21.5704 121.769 22.1642L121.905 22.9587Z" fill="#A9ABB0"/>
<path d="M121.451 32.551C120.819 31.3613 120.248 30.1398 119.741 28.8915C117.474 29.1371 115.226 29.4144 112.996 29.7234C111.455 30.5948 109.86 31.4992 108.212 32.4368L107.498 32.8426L105.626 33.9104L122.003 33.5901C121.902 33.4064 121.802 33.2249 121.703 33.0412C121.617 32.8725 121.534 32.7123 121.451 32.551Z" fill="#A9ABB0"/>
<path d="M103.513 28.8787C106.948 28.0629 110.887 27.3656 115.123 26.7622C116.288 26.0916 117.433 25.441 118.557 24.8102C118.53 24.6372 118.509 24.4664 118.492 24.2998C111.079 25.3965 105.213 26.8733 103.513 28.8787Z" fill="#A9ABB0"/>
<path d="M109.079 30.2989C107.312 30.5723 105.554 30.866 103.805 31.1799C103.667 31.2034 103.53 31.229 103.392 31.2536C103.158 30.9387 103.026 30.559 103.016 30.1665C103.012 30.0641 103.017 29.9615 103.032 29.8601C103.024 29.8003 103.019 29.7383 103.016 29.6764C103.006 29.4335 103.051 29.1915 103.147 28.9684C104.123 26.6683 110.364 25.0174 118.456 23.8139C118.423 23.2468 118.464 22.6777 118.579 22.1214C118.709 21.5519 118.894 20.9965 119.132 20.463C107.66 20.8122 96.9864 21.4241 87.6439 22.2239C87.4277 21.8807 87.1885 21.5525 86.9279 21.2415C84.9637 18.9168 83.0935 19.5757 82.6596 20.038L80.7488 21.8811L66.6421 35.4812C66.7578 35.4299 66.8831 35.4033 67.0097 35.4032L68.4108 35.3958C69.2767 35.3921 70.1301 35.6027 70.8947 36.0089C71.6592 36.4151 72.3112 37.0043 72.7924 37.7237L87.6471 36.643L99.9883 35.7471C100.959 35.1605 101.914 34.5853 102.854 34.0214C103.743 33.4861 104.618 32.9607 105.48 32.4453L106.055 32.1004C107.08 31.4875 108.088 30.887 109.079 30.2989Z" fill="#A9ABB0"/>
<path d="M26.6938 45.1559C28.315 44.7042 30.0517 44.2589 31.9155 43.8211L31.488 41.0447C28.8857 43.0106 29.0877 43.1163 26.6938 45.1559Z" fill="#A9ABB0"/>
<path d="M283.469 58.6769C281.09 60.0295 278.641 61.3892 276.122 62.756C259.853 65.8026 241.808 69.0254 224.57 69.0254C223.146 69.0254 191.347 68.1924 173.38 68.1924C142.777 68.1924 93.0687 69.5668 60.9824 78.0593C48.7994 78.0935 34.3924 78.2547 21.7872 78.1586C16.7793 73.5487 11.717 69.5518 2.47709 69.0521C2.29434 67.7557 2.16503 66.4593 2.06885 65.1544C41.4639 64.4069 113.181 56.1493 158.407 56.1493C181.42 56.1472 245.88 61.2643 283.469 58.6769Z" fill="#2B2C7C"/>
<path d="M2.06898 65.1523C41.464 64.4048 113.182 56.1472 158.407 56.1472C181.42 56.1472 245.881 61.2643 283.469 58.6769C285.045 57.782 286.59 56.8922 288.107 56.0073C251.485 59.4842 182.477 53.8641 158.407 53.8641C113.13 53.8641 41.3027 62.1453 1.93539 62.8725C1.29418 62.8846 0.660449 62.8945 0.034198 62.9023H0C0.0464087 63.6666 0.137761 64.4276 0.273584 65.1811C0.864212 65.174 1.46268 65.1644 2.06898 65.1523Z" fill="#2B2C7C"/>
<path style="mix-blend-mode:multiply" opacity="0.28" d="M284.485 52.1898L284.54 52.1289C285.715 53.1902 286.797 54.3491 287.775 55.593C251.071 59.0101 182.403 53.4189 158.405 53.4189C113.122 53.4189 41.277 61.7032 1.91295 62.4283C1.85738 61.1255 1.82318 59.811 1.79433 58.4773C27.9024 53.4894 89.1884 45.8991 127.649 45.3321C195.339 44.3379 221.25 48.7332 284.485 52.1898ZM158.407 53.8695C113.13 53.8695 41.3027 62.1506 1.93539 62.8778C1.29418 62.89 0.660449 62.8999 0.034198 62.9077H0C0.0466171 63.6703 0.137969 64.4294 0.273584 65.1812C0.864569 65.1737 1.46303 65.163 2.06898 65.1524C2.16516 66.4573 2.29447 67.7536 2.47722 69.05C11.7171 69.5497 16.7795 73.5467 21.7873 78.1566C23.0879 79.3525 24.3853 80.5912 25.75 81.8203C33.8122 83.8652 47.3974 87.1884 59.6274 88.3427C66.6391 89.0037 171.94 90 176.663 90C218.499 90 250.882 76.417 276.119 62.7561C278.639 61.3935 281.088 60.0338 283.466 58.677C285.042 57.7821 286.587 56.8922 288.103 56.0073C251.485 59.4896 182.477 53.8695 158.407 53.8695Z" fill="url(#paint0_linear)"/>
<g style="mix-blend-mode:multiply" opacity="0.32">
<path d="M283.05 50.8796L283.072 50.8518C282.826 50.6447 282.577 50.4329 282.324 50.2165C251.805 48.5079 196.679 35.791 178.605 35.791C128.43 35.791 42.8865 36.2597 8.17876 52.8957C5.76459 54.3907 3.76721 55.8621 1.77197 57.2546C27.864 52.2656 89.1778 44.6722 127.652 44.102C194.822 43.1153 220.854 47.4358 283.05 50.8796Z" fill="#EDEDED"/>
</g>
<path style="mix-blend-mode:multiply" opacity="0.09" d="M280.839 48.9073C281.36 49.3867 281.851 49.8117 282.323 50.2132C251.804 48.5047 196.678 35.7877 178.604 35.7877C128.429 35.7877 42.8855 36.2565 8.17773 52.8925C11.8572 50.6126 16.5135 48.2751 23.6053 46.0583C24.5864 45.7514 25.6159 45.4482 26.6938 45.1484C29.0449 44.4928 31.6397 43.851 34.5156 43.2263C39.1515 42.2226 44.5206 41.2658 50.7927 40.3795C51.1561 40.3271 51.5227 40.2727 51.8924 40.2257C53.5125 40.0036 55.1922 39.7854 56.9313 39.5711L67.0069 30.7262L75.8139 22.9843C64.5061 24.2561 52.7495 26.5893 49.864 28.7827C49.3949 28.5979 48.9899 28.3342 48.5175 28.3086C48.7879 28.1494 49.1929 27.8035 49.3724 27.7063C54.625 24.9096 66.9481 23.1893 80.731 21.8673L80.7438 21.8812L66.6371 35.4813C66.5176 35.5335 66.4105 35.6105 66.3228 35.707C66.2352 35.8036 66.169 35.9176 66.1287 36.0416C66.0883 36.1656 66.0746 36.2967 66.0886 36.4263C66.1025 36.5559 66.1438 36.6811 66.2096 36.7936L67.0069 38.1445L72.7927 37.7237L87.6475 36.6431L99.9887 35.7472C109.31 35.2218 123.144 34.7797 138.796 34.4796C151.843 34.2297 166.154 34.0792 180.167 34.06C200.703 34.0215 201.278 30.6087 197.933 27.041C197.914 27.0165 197.894 26.993 197.873 26.9684C197.773 26.8517 197.663 26.7445 197.544 26.6481C197.278 26.3843 196.995 26.1216 196.699 25.86C195.076 24.1995 193.503 22.6266 191.955 21.1198C207.841 24.2401 229.447 31.4715 280.839 48.9073ZM260.603 46.2494L254.917 41.5071L254.854 41.4558C250.96 39.9609 250.959 39.664 246.974 38.4467C229.925 33.2399 204.44 25.041 195.877 23.1893C198.077 25.2182 200.936 28.0854 203.807 30.9472C205.402 32.5394 207.005 34.1262 208.501 35.5646C209.099 36.1401 209.677 36.6911 210.235 37.209C211.441 37.4226 212.658 37.6412 213.885 37.8647C224.754 39.8349 236.313 42.12 246.977 44.0123C249.692 44.4939 252.348 44.9498 254.921 45.3695C256.865 45.6866 258.764 45.9835 260.603 46.2526V46.2494ZM234.122 37.0542C234.354 37.5207 234.392 38.0599 234.229 38.5545L234.507 38.5983C234.586 38.0571 234.459 37.5058 234.15 37.0542H234.122ZM207.249 30.9387C208.626 32.6472 210.044 34.3899 210.626 35.0114C210.777 35.1727 210.946 35.3414 211.117 35.508C218.859 36.0686 226.559 37.3564 234.228 38.5545C234.391 38.0599 234.353 37.5207 234.121 37.0542C223.715 34.8042 219.829 33.0487 207.249 30.9376V30.9387ZM232.256 35.4642C225.078 33.1032 215.148 30.078 206.684 27.6091C206.496 27.5613 206.298 27.5755 206.119 27.6496C205.939 27.7237 205.789 27.8537 205.689 28.0202C205.587 28.1838 205.538 28.3752 205.55 28.5678C205.562 28.7603 205.633 28.9445 205.755 29.0945L205.81 29.1618C205.76 29.029 205.742 28.8865 205.756 28.7454C205.77 28.6043 205.816 28.4684 205.891 28.3481C205.99 28.1813 206.141 28.051 206.32 27.9767C206.499 27.9024 206.697 27.8881 206.885 27.9359C215.349 30.4047 225.28 33.4289 232.454 35.7909C233.099 35.9942 233.663 36.396 234.065 36.9389C233.675 36.2313 233.026 35.7024 232.254 35.4631L232.256 35.4642ZM210.628 35.0114C210.046 34.3899 208.628 32.6429 207.251 30.9387L207.178 30.9269C208.637 32.7316 210.209 34.675 210.831 35.3382L210.983 35.4983L211.119 35.508C210.942 35.3456 210.777 35.1716 210.626 35.0103L210.628 35.0114ZM184.207 19.942C179.444 19.2889 174.651 18.8921 169.846 18.7535L170.72 19.6184C172.051 19.6355 173.267 19.6622 174.353 19.6975L176.493 22.2112L173.481 22.1823C173.466 22.2218 173.452 22.2635 173.438 22.3051L179.939 28.725H182.055L185.944 32.3802C190.843 32.1667 194.393 31.3743 196.492 30.4165C196.639 30.3492 196.782 30.2729 196.92 30.188C191.181 24.3469 187.563 20.4236 184.207 19.942ZM170.514 22.1503L169.017 22.2902L174.907 28.5905L177.176 28.7304L170.514 22.1503ZM159.818 18.6723C157.717 18.6723 150.498 18.7684 143.403 18.8635C143.663 19.2137 143.926 19.5622 144.193 19.9089C153.077 19.7316 163.094 19.5618 167.918 19.5885L167.021 18.7022C164.77 18.6777 162.39 18.6723 159.818 18.6723ZM164.122 20.7098C161.27 20.6553 158.403 20.7162 155.535 20.8454C152.72 20.9725 149.215 21.1358 145.359 21.3558C145.491 21.5124 145.622 21.6683 145.754 21.8235C149.454 21.61 152.817 21.4594 155.535 21.3355C158.403 21.2063 161.27 21.1465 164.122 21.1999C164.546 21.5239 164.839 21.9886 164.95 22.5102C164.965 22.5113 164.979 22.5113 164.994 22.5102C164.994 22.4642 164.994 22.4173 164.994 22.3703C164.965 21.7563 164.711 21.1903 164.122 20.7098ZM164.983 22.7259C164.848 24.2369 163.507 25.9593 162.459 27.2898C162.591 27.2898 162.723 27.2802 162.855 27.2738C163.906 25.9155 165.056 24.2689 164.993 22.8583C164.991 22.8134 164.987 22.7686 164.983 22.7259ZM153.048 23.3303C156.482 23.8151 158.244 25.2097 159.246 27.3881C160.319 27.3646 161.391 27.3311 162.462 27.2877C163.51 25.9572 164.852 24.2347 164.986 22.7237C164.979 22.652 164.968 22.5807 164.953 22.5102C161.31 22.7825 157.285 23.0484 153.048 23.3303ZM86.9272 21.2416C87.1878 21.5525 87.427 21.8808 87.6432 22.224C96.9857 21.4274 107.66 20.8123 119.131 20.4631C119.282 20.118 119.451 19.7808 119.637 19.4529C115.621 19.5971 111.472 19.7733 107.289 19.973C100.441 20.3051 93.5039 20.7215 86.9272 21.2416ZM113.003 29.7234C115.235 29.4145 117.483 29.1372 119.749 28.8916C119.421 28.0851 119.14 27.2604 118.907 26.4217C117.009 27.466 115.049 28.5659 112.999 29.7234H113.003ZM103.151 28.9685L103.518 28.8788C105.218 26.8734 111.084 25.3965 118.496 24.2999C118.48 24.1354 118.467 23.9731 118.46 23.814C110.364 25.0143 104.122 26.6683 103.147 28.9685H103.151ZM103.518 28.8788C103.268 29.1542 103.101 29.4943 103.036 29.8601C103.066 30.1211 103.151 30.373 103.283 30.6002C103.415 30.8274 103.592 31.0251 103.804 31.1811C105.554 30.8671 107.312 30.5735 109.078 30.3001C111.162 29.0642 113.177 27.8853 115.122 26.7634C110.883 27.3656 106.948 28.063 103.513 28.8788H103.518ZM103.036 29.8601C103.021 29.9616 103.015 30.0642 103.02 30.1666C103.03 30.5591 103.161 30.9388 103.396 31.2537C103.534 31.2291 103.67 31.2035 103.808 31.18C103.595 31.0249 103.416 30.8277 103.283 30.6007C103.149 30.3737 103.063 30.1216 103.031 29.8601H103.036ZM103.02 29.6765C103.02 29.7384 103.028 29.8003 103.036 29.8601C103.101 29.4943 103.268 29.1542 103.518 28.8788L103.151 28.9685C103.053 29.1912 103.006 29.4333 103.015 29.6765H103.02ZM32.2873 39.3084C30.6544 40.5001 29.1005 41.6577 27.7315 42.7084C25.9853 44.0486 24.5404 45.2168 23.6096 46.0668C24.5906 45.76 25.6201 45.4567 26.6981 45.157C29.0791 43.1281 31.6899 41.0661 34.2783 39.1151V39.0884C33.6082 39.1546 32.9478 39.2294 32.2831 39.3084H32.2873Z" fill="url(#paint1_linear)"/>
<path style="mix-blend-mode:multiply" opacity="0.17" d="M144.193 19.9089C144.574 20.398 144.963 20.8803 145.359 21.3558C149.214 21.1358 152.72 20.9725 155.535 20.8454C158.403 20.7162 161.27 20.6553 164.121 20.7098C164.71 21.1903 164.965 21.7563 164.992 22.3671C164.992 22.414 164.992 22.461 164.992 22.507C164.992 22.5783 164.989 22.6496 164.982 22.7205C164.982 22.7632 164.989 22.8081 164.991 22.8529C165.054 24.2636 163.905 25.9102 162.854 27.2685C162.245 28.0555 161.669 28.7442 161.381 29.2344C160.863 29.3988 160.206 29.5601 159.446 29.7202C159.103 30.9119 158.314 32.1763 157.853 32.8672L163.696 32.7518V32.6387L166.226 27.7127L169.013 22.2848L170.509 22.145L167.92 19.5821C163.093 19.5618 153.077 19.7316 144.193 19.9089ZM173.481 22.1813C173.998 20.714 174.348 19.6975 174.348 19.6975C173.267 19.6622 172.051 19.6355 170.714 19.6184L173.306 22.1813H173.481ZM87.9914 22.8081L92.5119 31.1896C92.7994 31.1896 97.6416 30.3204 100.352 30.4261C100.966 30.4506 101.582 30.8991 102.102 31.4864C102.582 32.0278 102.776 33.336 102.85 34.0215C103.74 33.4862 104.615 32.9608 105.477 32.4454C104.446 32.1517 103.767 31.7598 103.392 31.2537C103.158 30.9388 103.026 30.559 103.016 30.1666C103.012 30.0642 103.017 29.9616 103.032 29.8601C103.025 29.8003 103.019 29.7384 103.016 29.6765C103.006 29.4336 103.051 29.1915 103.147 28.9685C104.123 26.6683 110.364 25.0175 118.456 23.814C118.423 23.2469 118.464 22.6778 118.579 22.1215C118.709 21.552 118.894 20.9966 119.132 20.4631C107.661 20.8123 96.9865 21.4242 87.644 22.224C87.7595 22.4066 87.8749 22.602 87.9914 22.8081ZM174.901 28.5894L173.127 32.5692L180.903 32.4155L177.17 28.725L174.901 28.5894ZM246.974 38.4499V44.0123C236.309 42.12 224.75 39.8349 213.882 37.8647C212.656 37.6419 211.439 37.4233 210.231 37.209C209.675 36.6911 209.095 36.1412 208.498 35.5645C207.002 34.1262 205.398 32.5393 203.807 30.9504C200.936 28.0886 198.077 25.2182 195.876 23.1925C204.44 25.0441 229.925 33.2431 246.974 38.4499ZM234.149 37.0617C234.124 37.0211 234.097 36.9816 234.067 36.9421C233.676 36.2335 233.024 35.7044 232.25 35.4663C225.077 33.1032 215.148 30.078 206.684 27.6091C206.496 27.5613 206.298 27.5755 206.118 27.6496C205.939 27.7237 205.788 27.8537 205.689 28.0202C205.587 28.1838 205.538 28.3752 205.55 28.5678C205.561 28.7603 205.633 28.9445 205.754 29.0945L205.81 29.1618C205.844 29.256 205.894 29.3437 205.957 29.4212L207.175 30.9258C208.633 32.7305 210.205 34.674 210.827 35.3371L210.979 35.4973C211.776 36.3195 212.871 37.2347 213.962 37.4194L229.565 40.1958C232.83 40.7938 234.296 39.8092 234.508 38.6004C234.588 38.0582 234.46 37.5061 234.149 37.0542V37.0617ZM181.784 30.5564L182.051 28.7293H179.935L181.784 30.5564Z" fill="url(#paint2_linear)"/>
<path style="mix-blend-mode:multiply" opacity="0.17" d="M254.917 41.5103L254.854 41.459C250.96 39.964 250.959 39.6672 246.974 38.4498V44.0122C249.688 44.4938 252.345 44.9498 254.917 45.3695C256.864 45.6898 258.764 45.9835 260.603 46.2526L254.917 41.5103Z" fill="url(#paint3_linear)"/>
<path style="mix-blend-mode:multiply" opacity="0.34" d="M147.173 23.4125C147.144 23.4563 147.111 23.5043 147.073 23.5588L146.944 23.7435C146.39 24.5273 145.304 25.9945 144.227 27.4489C143.01 29.0945 141.804 30.724 141.389 31.337C140.506 30.2776 139.743 29.308 138.981 28.2829C138.814 28.0587 138.638 27.8248 138.453 27.5792C137.774 26.6812 136.984 25.6571 136.166 24.5401C135.698 23.8994 135.221 23.2395 134.748 22.5561C134.641 22.4016 134.534 22.246 134.427 22.0894C133.992 21.4487 133.567 20.7952 133.158 20.1321C132.997 19.8694 132.838 19.6046 132.684 19.3387C132.934 19.2223 133.185 19.108 133.432 18.9948C134.714 18.4139 135.993 17.8601 137.269 17.3333C138.597 16.7865 139.929 16.2654 141.278 15.7742C141.587 16.2576 141.904 16.7381 142.228 17.2158C142.607 17.7711 142.997 18.3203 143.398 18.8635C143.658 19.2137 143.921 19.5622 144.187 19.9089C144.569 20.398 144.958 20.8803 145.353 21.3558C145.485 21.5124 145.617 21.6683 145.749 21.8235C146.215 22.3667 146.69 22.8964 147.173 23.4125ZM130.208 13.6684C130.539 14.9893 131.103 16.3615 131.803 17.7262L132.263 17.7134C134.988 16.4533 137.675 15.3172 140.377 14.3016C138.794 11.6513 137.435 8.87304 136.316 5.99596C136.142 5.54426 135.975 5.09256 135.817 4.64407C135.757 4.47428 135.699 4.30663 135.642 4.13791C135.585 3.96919 135.381 3.98414 135.084 4.12616C134.584 4.36429 133.821 4.96549 133.044 5.68521C132.189 6.47649 131.321 7.41192 130.769 8.16795C130.551 8.44466 130.371 8.7492 130.234 9.07348C129.896 10.0196 129.824 11.0202 129.914 12.01L130.208 13.6684ZM137.403 31.7449C136.319 30.4635 135.296 29.1244 134.34 27.7469C133.681 26.7986 133.054 25.8333 132.458 24.8509C132.056 24.186 131.668 23.5168 131.296 22.8433L131.04 22.3745C130.714 21.7716 130.402 21.1665 130.103 20.5592C128.558 21.3067 126.993 22.098 125.393 22.9298C124.999 23.1359 124.601 23.3431 124.201 23.5556C123.564 23.8909 122.92 24.234 122.271 24.585C122.396 24.99 122.541 25.398 122.704 25.8087C123.069 26.7199 123.488 27.6085 123.958 28.4698C124.692 29.8093 125.493 31.1106 126.359 32.3685L126.689 32.8447C126.837 33.0583 126.985 33.2719 127.134 33.4854L138.728 33.2548C138.413 32.9124 138.104 32.5643 137.799 32.2104C137.664 32.0553 137.532 31.9001 137.403 31.7449ZM129.263 19.1443L129.4 19.077C129.205 18.6499 129.017 18.2228 128.836 17.7956C128.334 16.621 127.885 15.4464 127.491 14.291C127.436 14.1244 127.231 14.1372 126.935 14.2792C126.856 14.3166 126.771 14.3636 126.679 14.418C125.666 15.0278 123.959 16.6392 122.92 17.928C122.511 18.4385 122.205 18.8976 122.088 19.2255C122.072 19.2703 122.057 19.3162 122.042 19.3611C121.933 19.6931 121.853 20.034 121.804 20.3798C121.722 20.9708 121.71 21.5694 121.768 22.1631L121.906 22.9533C123.645 22.0086 125.349 21.1109 127.021 20.2602C127.773 19.8808 128.52 19.5095 129.263 19.1464V19.1443Z" fill="url(#paint4_linear)"/>
<path style="mix-blend-mode:multiply" opacity="0.34" d="M87.643 22.224C87.4267 21.8807 87.1875 21.5525 86.927 21.2416C84.9627 18.9169 83.0925 19.5757 82.6586 20.0381L80.7478 21.8812L66.6411 35.4813C66.7569 35.4299 66.8821 35.4034 67.0087 35.4033L68.4098 35.3958C69.2757 35.3921 70.1291 35.6028 70.8937 36.009C71.6583 36.4152 72.3103 37.0043 72.7914 37.7237L87.6462 36.6431C89.5837 34.7797 90.5092 32.975 92.5151 31.1896L87.9946 22.8081C87.8749 22.602 87.7595 22.4066 87.643 22.224Z" fill="url(#paint5_linear)"/>
<path style="mix-blend-mode:multiply" opacity="0.28" d="M2.06898 65.1523C41.464 64.4049 113.182 56.1472 158.407 56.1472C181.42 56.1472 245.881 61.2643 283.469 58.677C285.045 57.7821 286.59 56.8922 288.107 56.0074C251.485 59.4842 182.477 53.8642 158.407 53.8642C113.13 53.8642 41.3027 62.1453 1.93539 62.8725C1.29418 62.8846 0.660449 62.8946 0.034198 62.9024H0C0.0464087 63.6667 0.137761 64.4276 0.273584 65.1812C0.864212 65.1741 1.46268 65.1644 2.06898 65.1523Z" fill="url(#paint6_linear)"/>
<path d="M168.426 3.67127C166 2.44539 162.783 1.59965 158.833 1.86661L165.337 8.29717C167.117 8.03768 169.037 7.67248 170.879 7.41406C171.704 7.29873 172.249 7.10225 172.567 6.8481C171.002 5.54213 169.152 4.04074 168.426 3.67127ZM156.115 1.96913C148.904 2.39626 142.338 3.89125 136.32 5.99917C137.439 8.87625 138.797 11.6545 140.381 14.3049C147.434 11.6502 154.595 9.80283 162.864 8.63461L156.115 1.96913ZM127.621 9.61062C122.163 12.2183 117.2 15.2179 112.636 18.1758C114.471 18.1235 117.356 18.0594 120.6 17.9889C122.241 15.8169 124.567 14.1383 126.658 14.26C126.557 13.4976 126.582 12.7238 126.732 11.9695C126.923 11.1474 127.222 10.3542 127.621 9.61062Z" fill="url(#paint7_linear)"/>
<path opacity="0.59" d="M182.816 13.8959C180.777 12.1254 178.531 10.2951 175.931 8.3121C175.752 8.44879 175.311 8.59508 174.7 8.74565C172.883 9.19201 169.57 9.6704 167.081 9.99503C166.03 10.1317 165.128 10.2406 164.553 10.309L161.775 10.6432L165.212 14.1116L167.976 16.9008L169.851 18.7535L170.726 19.6184L173.318 22.1813H173.487C173.472 22.2218 173.459 22.2624 173.444 22.3041L179.946 28.7303L183.658 32.3995L185.95 32.3845C190.849 32.1709 194.399 31.3786 196.498 30.4218C196.645 30.3542 196.787 30.2775 196.925 30.1922C197.377 29.9338 197.732 29.5358 197.937 29.0582C192.427 23.1455 188.394 18.7396 182.816 13.8959ZM177.17 28.7303L170.514 22.1503L167.925 19.5875L167.029 18.7012L165.178 16.8719L162.416 14.1436L159.184 10.9497C157.322 11.2914 155.526 11.663 153.782 12.0698C153.599 12.1118 153.416 12.1546 153.234 12.198L152.69 12.3283C152.439 12.3891 152.188 12.4511 151.942 12.5151C151.675 12.5813 151.408 12.6486 151.144 12.7191C150.941 12.7714 150.74 12.8259 150.538 12.8793L150.415 12.9124L149.684 13.1089H149.677C149.392 13.1865 149.107 13.2655 148.822 13.3459C148.537 13.4264 148.255 13.5075 147.976 13.5894C147.695 13.6716 147.414 13.7549 147.135 13.8393C146.763 13.9517 146.393 14.066 146.023 14.182C145.343 14.3956 144.666 14.6174 143.993 14.8473C143.94 14.8644 143.886 14.8836 143.834 14.9018C142.985 15.1865 142.142 15.4852 141.305 15.7977C139.999 16.2793 138.704 16.7886 137.409 17.3236C136.114 17.8586 134.852 18.4054 133.568 18.9873C133.283 19.1155 132.998 19.2447 132.713 19.3771C132.163 19.6312 131.61 19.8897 131.054 20.1524C130.747 20.2997 130.437 20.4485 130.127 20.5987C127.586 21.8257 124.997 23.1615 122.282 24.6095C121.179 25.199 120.055 25.808 118.91 26.4366C114.838 28.6705 110.467 31.1501 105.631 33.9008L122.007 33.5805L127.137 33.479L138.731 33.2495L151.19 33.0017L154.724 32.9323L157.856 32.8704L160.184 32.8255L162.836 32.7721L163.7 32.755L164.176 32.7454L166.398 32.7017L168.628 32.6579L169.092 32.6483L170.054 32.629L170.958 32.6109L173.128 32.5692L180.902 32.4155L177.17 28.7303Z" fill="url(#paint8_linear)"/>
<path opacity="0.59" d="M182.815 13.8959C180.777 12.1254 178.531 10.2951 175.931 8.3121C175.752 8.44879 175.311 8.59508 174.7 8.74565C172.883 9.19201 169.57 9.6704 167.081 9.99503C166.03 10.1317 165.128 10.2406 164.553 10.309L161.775 10.6432L165.212 14.1116L167.977 16.9008L169.851 18.7535L170.726 19.6184L173.317 22.1813H173.487C173.472 22.2218 173.458 22.2624 173.444 22.3041L179.946 28.7303L183.658 32.3995L185.95 32.3845C190.849 32.1709 194.399 31.3786 196.498 30.4218C196.645 30.3542 196.788 30.2775 196.925 30.1922C197.377 29.9338 197.732 29.5358 197.937 29.0582C192.427 23.1455 188.394 18.7396 182.815 13.8959Z" fill="url(#paint9_linear)"/>
<path style="mix-blend-mode:lighten" d="M150.533 12.8836L150.411 12.9167L149.68 13.1131H149.673C149.388 13.1907 149.103 13.2698 148.818 13.3502C148.533 13.4306 148.251 13.5118 147.972 13.5937C147.691 13.6759 147.41 13.7592 147.131 13.8435C146.759 13.956 146.388 14.0703 146.019 14.1863C145.339 14.3999 144.662 14.6216 143.989 14.8516C143.935 14.8687 143.882 14.8879 143.83 14.906C146.637 19.4679 151.687 27.8729 154.72 32.9323L157.852 32.8704L160.179 32.8255L162.832 32.7721L163.695 32.7551L164.172 32.7454L150.533 12.8836ZM153.782 12.0741C153.599 12.1161 153.416 12.1588 153.234 12.2023L152.69 12.3325L152.274 12.4393C155.901 17.5308 163.782 28.9226 166.397 32.707L168.627 32.6632L153.782 12.0741Z" fill="url(#paint10_linear)"/>
<path d="M103.873 34.7167C104.058 34.7167 104.209 34.5665 104.209 34.3814C104.209 34.1962 104.058 34.0461 103.873 34.0461C103.688 34.0461 103.538 34.1962 103.538 34.3814C103.538 34.5665 103.688 34.7167 103.873 34.7167Z" fill="#BCBCBC"/>
<path d="M111.068 30.4175C111.253 30.4175 111.403 30.2674 111.403 30.0822C111.403 29.897 111.253 29.7469 111.068 29.7469C110.882 29.7469 110.732 29.897 110.732 30.0822C110.732 30.2674 110.882 30.4175 111.068 30.4175Z" fill="#BCBCBC"/>
<path d="M118.781 26.0138C118.967 26.0138 119.117 25.8637 119.117 25.6785C119.117 25.4933 118.967 25.3432 118.781 25.3432C118.596 25.3432 118.446 25.4933 118.446 25.6785C118.446 25.8637 118.596 26.0138 118.781 26.0138Z" fill="#BCBCBC"/>
<path d="M128.151 21.0248C128.337 21.0248 128.487 20.8747 128.487 20.6895C128.487 20.5043 128.337 20.3542 128.151 20.3542C127.966 20.3542 127.816 20.5043 127.816 20.6895C127.816 20.8747 127.966 21.0248 128.151 21.0248Z" fill="#BCBCBC"/>
<path d="M139.394 15.8917C139.58 15.8917 139.73 15.7416 139.73 15.5564C139.73 15.3712 139.58 15.2211 139.394 15.2211C139.209 15.2211 139.059 15.3712 139.059 15.5564C139.059 15.7416 139.209 15.8917 139.394 15.8917Z" fill="#BCBCBC"/>
<path d="M149.847 12.5002C150.033 12.5002 150.183 12.3501 150.183 12.1649C150.183 11.9797 150.033 11.8296 149.847 11.8296C149.662 11.8296 149.512 11.9797 149.512 12.1649C149.512 12.3501 149.662 12.5002 149.847 12.5002Z" fill="#BCBCBC"/>
<path d="M160.221 10.4062C160.406 10.4062 160.556 10.2561 160.556 10.0709C160.556 9.88569 160.406 9.73557 160.221 9.73557C160.036 9.73557 159.885 9.88569 159.885 10.0709C159.885 10.2561 160.036 10.4062 160.221 10.4062Z" fill="#BCBCBC"/>
<path d="M172.01 8.64635C172.196 8.64635 172.346 8.49622 172.346 8.31104C172.346 8.12586 172.196 7.97574 172.01 7.97574C171.825 7.97574 171.675 8.12586 171.675 8.31104C171.675 8.49622 171.825 8.64635 172.01 8.64635Z" fill="#BCBCBC"/>
<path d="M162.068 39.3799L159.182 39.412L159.225 40.1029L160.968 40.0836V40.0932L159.534 42.4649L160.7 42.4521L162.108 39.9032L162.072 39.3799H162.068ZM154.85 39.4579L153.963 39.4675L152.859 39.8626L153.063 40.4937L153.824 40.2128H153.837L153.944 42.5279L155 42.5162L154.846 39.4579H154.85ZM143.304 39.4579H143.227H142.982C142.845 39.4579 142.715 39.4632 142.59 39.4675C142.465 39.4718 142.346 39.4792 142.235 39.4878C142.124 39.4963 142.021 39.5038 141.924 39.5134C141.827 39.523 141.742 39.5326 141.665 39.5422L141.719 42.671L142.81 42.6593L142.786 41.4612H143.043C143.106 41.4626 143.169 41.4716 143.23 41.4878C143.283 41.5013 143.332 41.5261 143.374 41.5605C143.418 41.5989 143.454 41.6453 143.481 41.6971C143.518 41.7649 143.548 41.8365 143.57 41.9107C143.601 42.009 143.632 42.0987 143.661 42.1787C143.689 42.2588 143.718 42.3304 143.744 42.3923C143.77 42.4542 143.795 42.5066 143.817 42.5482C143.833 42.5822 143.852 42.6154 143.872 42.6475L144.993 42.6358C144.965 42.5883 144.941 42.5386 144.921 42.4873C144.894 42.4211 144.864 42.3411 144.832 42.2556L144.735 41.9865C144.702 41.8958 144.668 41.805 144.635 41.7238C144.61 41.6582 144.579 41.5947 144.543 41.5338C144.51 41.4767 144.472 41.423 144.428 41.3736C144.385 41.3257 144.335 41.2834 144.282 41.2476C144.225 41.21 144.164 41.1802 144.1 41.159V41.1451C144.184 41.1185 144.264 41.0827 144.34 41.0383C144.421 40.9914 144.495 40.9348 144.562 40.8696C144.627 40.8039 144.681 40.7278 144.722 40.6443C144.762 40.5587 144.782 40.4652 144.78 40.3709C144.778 40.2986 144.767 40.2269 144.747 40.1573C144.73 40.0922 144.703 40.03 144.667 39.9726C144.631 39.9155 144.588 39.8634 144.538 39.8177C144.485 39.7688 144.426 39.7262 144.363 39.6907C144.295 39.6526 144.223 39.6208 144.149 39.5956C144.069 39.5668 143.987 39.5439 143.904 39.5273C143.817 39.5081 143.722 39.4942 143.621 39.4824C143.521 39.4707 143.407 39.4654 143.3 39.4611L143.304 39.4579ZM137.887 39.5358L135.236 39.5647V42.7447L137.993 42.7127L137.987 42.0111L136.337 42.0292V41.4419L137.808 41.427V40.7382L136.339 40.7542V40.2459L137.897 40.2289L137.891 39.5358H137.887ZM129.507 39.6106H129.421H129.152C129.031 39.6106 128.911 39.6106 128.793 39.6181C128.675 39.6255 128.561 39.6277 128.45 39.6351C128.339 39.6426 128.236 39.6501 128.129 39.6608C128.023 39.6714 127.933 39.6811 127.845 39.6939L127.79 42.8109L127.896 42.8227L128.021 42.8333L128.167 42.8429L128.335 42.8504H128.459H128.592H128.89C129.092 42.8504 129.286 42.8387 129.471 42.8205C129.646 42.8047 129.821 42.7791 129.993 42.7436C130.149 42.7127 130.301 42.6702 130.451 42.6166C130.583 42.5684 130.711 42.5073 130.832 42.434C130.933 42.3713 131.028 42.2979 131.113 42.215C131.297 42.0334 131.43 41.8065 131.498 41.5573C131.536 41.4112 131.556 41.2609 131.558 41.1098C131.559 40.974 131.542 40.8386 131.508 40.7073C131.475 40.5896 131.426 40.4773 131.361 40.3741C131.297 40.2743 131.219 40.1841 131.13 40.1061C131.038 40.0255 130.936 39.9563 130.827 39.9C130.741 39.8549 130.653 39.8156 130.562 39.7825C130.463 39.7469 130.362 39.718 130.259 39.696C130.144 39.6701 130.028 39.6509 129.911 39.6383C129.786 39.6234 129.651 39.6138 129.506 39.6084L129.507 39.6106ZM124 39.6843L122.902 39.6949L122.805 42.8803L123.913 42.8675L124 39.6843ZM117.695 39.7515L116.594 39.7633L116.448 42.9508L119.144 42.9209L119.172 42.2022L117.588 42.2193L117.695 39.7515ZM111.839 39.7718H111.626C111.39 39.7725 111.156 39.8008 110.927 39.8562C110.739 39.8997 110.559 39.9717 110.392 40.0698C110.256 40.1507 110.138 40.2599 110.047 40.3901C109.967 40.5063 109.92 40.6421 109.91 40.7831C109.902 40.8936 109.924 41.0042 109.973 41.1034C110.027 41.2051 110.102 41.294 110.193 41.364C110.301 41.4472 110.42 41.5165 110.546 41.5701C110.698 41.6343 110.853 41.6878 111.012 41.7302C111.127 41.7601 111.226 41.7868 111.305 41.8135C111.372 41.8352 111.438 41.8623 111.501 41.8947C111.543 41.9157 111.579 41.946 111.607 41.9833C111.63 42.0142 111.64 42.0521 111.637 42.0901C111.635 42.129 111.621 42.1661 111.597 42.1969C111.568 42.2321 111.531 42.2605 111.49 42.2802C111.433 42.3063 111.373 42.3246 111.311 42.3346C111.229 42.3482 111.145 42.355 111.061 42.3549H110.942C110.848 42.3549 110.758 42.3475 110.669 42.3325C110.58 42.3218 110.496 42.3069 110.415 42.2898C110.334 42.2727 110.259 42.2535 110.189 42.2332C110.12 42.2129 110.057 42.1905 110.001 42.1691L109.749 42.8803C109.809 42.9039 109.87 42.9238 109.933 42.9401C110.004 42.9593 110.086 42.9786 110.174 42.9946C110.263 43.0106 110.358 43.0255 110.459 43.0362C110.559 43.0469 110.665 43.0554 110.773 43.0597H110.952C111.218 43.0593 111.483 43.0288 111.742 42.9689C111.94 42.9235 112.13 42.846 112.303 42.7394C112.44 42.6565 112.556 42.5441 112.643 42.4105C112.719 42.2923 112.763 42.1566 112.77 42.0164C112.778 41.9118 112.762 41.8068 112.724 41.7089C112.684 41.611 112.623 41.5231 112.545 41.4515C112.449 41.365 112.341 41.2931 112.224 41.238C112.073 41.1673 111.916 41.1102 111.755 41.0671C111.628 41.0308 111.519 40.9998 111.427 40.971C111.35 40.9484 111.275 40.9213 111.201 40.8899C111.154 40.8705 111.111 40.8418 111.074 40.8055C111.061 40.7913 111.051 40.7744 111.045 40.756C111.038 40.7376 111.036 40.7181 111.038 40.6987C111.04 40.663 111.054 40.6289 111.077 40.6015C111.107 40.569 111.144 40.5432 111.184 40.5257C111.237 40.5022 111.293 40.4857 111.35 40.4766C111.424 40.4631 111.498 40.4563 111.573 40.4563H111.696C111.782 40.4563 111.864 40.4627 111.94 40.4755C112.015 40.4851 112.084 40.4969 112.147 40.5108C112.21 40.5247 112.268 40.5385 112.319 40.5535C112.371 40.5684 112.415 40.5823 112.455 40.5951L112.724 39.9117C112.669 39.8936 112.609 39.8754 112.546 39.8594C112.483 39.8434 112.413 39.8284 112.34 39.8156C112.266 39.8028 112.189 39.7921 112.105 39.7836C112.022 39.775 111.933 39.7686 111.838 39.7654L111.839 39.7718ZM128.981 42.1798H128.939H128.922H128.906L128.934 40.2769L128.985 40.2694L129.058 40.263H129.152H129.269H129.366C129.507 40.2657 129.647 40.288 129.783 40.3292C129.899 40.3646 130.008 40.4223 130.103 40.499C130.196 40.5726 130.269 40.6675 130.317 40.7756C130.369 40.898 130.394 41.0302 130.391 41.1632C130.392 41.3231 130.358 41.4813 130.291 41.6267C130.23 41.7532 130.139 41.8631 130.026 41.947C129.907 42.0333 129.773 42.0964 129.631 42.1328C129.469 42.1745 129.301 42.1942 129.134 42.1916H128.978L128.981 42.1798ZM142.764 40.8568L142.749 40.1093L142.8 40.1018L142.876 40.0954L142.983 40.09C143.024 40.09 143.069 40.09 143.12 40.09H143.181C143.253 40.0923 143.325 40.1027 143.395 40.121C143.452 40.1354 143.506 40.16 143.554 40.1936C143.595 40.2226 143.629 40.2611 143.653 40.3057C143.677 40.3521 143.689 40.4033 143.689 40.4552C143.691 40.5112 143.677 40.5665 143.65 40.6154C143.619 40.6663 143.577 40.7088 143.526 40.7393C143.464 40.7779 143.395 40.8057 143.324 40.8215C143.234 40.8415 143.142 40.8519 143.049 40.8525H142.764V40.8568ZM168.379 39.3223L166.107 39.3468L165.979 41.0073C166.021 41.002 166.061 40.9966 166.102 40.9934L166.225 40.9828C166.267 40.9828 166.309 40.9774 166.355 40.9764C166.401 40.9753 166.449 40.9764 166.503 40.9764H166.726C166.86 40.9794 166.993 40.9926 167.125 41.0159C167.221 41.0316 167.314 41.06 167.403 41.1002C167.467 41.1291 167.523 41.1726 167.567 41.2273C167.604 41.2758 167.626 41.3341 167.63 41.3949C167.637 41.4598 167.619 41.5248 167.579 41.5765C167.536 41.6294 167.481 41.6706 167.418 41.6961C167.345 41.7279 167.268 41.7502 167.189 41.7623C167.106 41.7767 167.021 41.7842 166.937 41.7847H166.821C166.742 41.7847 166.663 41.7751 166.586 41.7666C166.509 41.758 166.434 41.7463 166.364 41.7345C166.293 41.7228 166.229 41.7078 166.171 41.6929C166.114 41.6779 166.065 41.664 166.024 41.6502L165.891 42.2909C165.943 42.309 165.998 42.3272 166.069 42.3443C166.139 42.3613 166.21 42.3763 166.29 42.3902C166.37 42.4041 166.457 42.4158 166.55 42.4254C166.643 42.435 166.739 42.4414 166.84 42.4457H167.054C167.31 42.4455 167.564 42.4118 167.811 42.3453C168.002 42.2938 168.183 42.2093 168.345 42.0954C168.477 42.0047 168.584 41.8839 168.659 41.7431C168.726 41.6183 168.754 41.4769 168.742 41.3362C168.736 41.2544 168.72 41.1737 168.694 41.096C168.67 41.0233 168.636 40.9543 168.593 40.8909C168.549 40.8275 168.498 40.7698 168.44 40.719C168.378 40.6655 168.31 40.6186 168.237 40.5791C168.169 40.5417 168.097 40.5099 168.023 40.4841C167.944 40.4555 167.863 40.4323 167.781 40.4147C167.695 40.3952 167.608 40.3802 167.52 40.3698C167.431 40.3591 167.342 40.3527 167.252 40.3495H167.051H166.998H166.942H166.882L166.91 40.0217L168.439 40.0046L168.38 39.3137" fill="#6A777A"/>
<defs>
<linearGradient id="paint0_linear" x1="132.918" y1="46.5986" x2="188.68" y2="118.514" gradientUnits="userSpaceOnUse">
<stop/>
<stop offset="0.67" stop-color="#E6E6E6" stop-opacity="0.1"/>
<stop offset="0.7" stop-color="white" stop-opacity="0"/>
<stop offset="1"/>
</linearGradient>
<linearGradient id="paint1_linear" x1="144.995" y1="44.1756" x2="143.957" y2="14.0645" gradientUnits="userSpaceOnUse">
<stop offset="0.3" stop-color="white" stop-opacity="0"/>
<stop offset="0.39" stop-color="#A6A6A6" stop-opacity="0.35"/>
<stop offset="1"/>
</linearGradient>
<linearGradient id="paint2_linear" x1="167.556" y1="8.62071" x2="167.233" y2="40.5621" gradientUnits="userSpaceOnUse">
<stop offset="0.44" stop-color="white" stop-opacity="0"/>
<stop offset="0.52" stop-color="#A6A6A6" stop-opacity="0.35"/>
<stop offset="1"/>
</linearGradient>
<linearGradient id="paint3_linear" x1="32622.1" y1="2593.07" x2="32617.7" y2="3350.45" gradientUnits="userSpaceOnUse">
<stop offset="0.44" stop-color="white" stop-opacity="0"/>
<stop offset="0.52" stop-color="#A6A6A6" stop-opacity="0.35"/>
<stop offset="1"/>
</linearGradient>
<linearGradient id="paint4_linear" x1="121.494" y1="11.5477" x2="146.269" y2="29.708" gradientUnits="userSpaceOnUse">
<stop offset="0.1" stop-color="white" stop-opacity="0"/>
<stop offset="0.22" stop-color="#A6A6A6" stop-opacity="0.35"/>
<stop offset="1"/>
</linearGradient>
<linearGradient id="paint5_linear" x1="75.5358" y1="26.9716" x2="89.6686" y2="42.6971" gradientUnits="userSpaceOnUse">
<stop stop-color="white" stop-opacity="0"/>
<stop offset="0.13" stop-color="#A6A6A6" stop-opacity="0.35"/>
<stop offset="0.96"/>
</linearGradient>
<linearGradient id="paint6_linear" x1="361349" y1="5090.37" x2="361715" y2="17114.4" gradientUnits="userSpaceOnUse">
<stop/>
<stop offset="0.67" stop-color="#E6E6E6" stop-opacity="0.1"/>
<stop offset="0.7" stop-color="white" stop-opacity="0"/>
<stop offset="1"/>
</linearGradient>
<linearGradient id="paint7_linear" x1="146.474" y1="18.9158" x2="134.148" y2="-1.50572" gradientUnits="userSpaceOnUse">
<stop stop-color="#1DB8FF" stop-opacity="0.3"/>
<stop offset="1" stop-color="#1DB8FF"/>
</linearGradient>
<linearGradient id="paint8_linear" x1="138226" y1="10775" x2="135990" y2="-2584.01" gradientUnits="userSpaceOnUse">
<stop stop-color="#1DB8FF" stop-opacity="0.3"/>
<stop offset="1" stop-color="#1DB8FF"/>
</linearGradient>
<linearGradient id="paint9_linear" x1="62975.3" y1="6641.97" x2="58498.7" y2="-4484.78" gradientUnits="userSpaceOnUse">
<stop stop-color="#1DB8FF" stop-opacity="0.3"/>
<stop offset="1" stop-color="#1DB8FF"/>
</linearGradient>
<linearGradient id="paint10_linear" x1="164.315" y1="33.4556" x2="146.252" y2="13.7674" gradientUnits="userSpaceOnUse">
<stop stop-color="white" stop-opacity="0"/>
<stop offset="1" stop-color="white" stop-opacity="0.7"/>
</linearGradient>
</defs>
</svg>
