<svg width="290" height="90" viewBox="0 0 290 90" fill="none" xmlns="http://www.w3.org/2000/svg">
<path d="M52.2396 32.4884C51.3238 33.345 53.2707 43.0698 52.4971 44.0965L40.5755 41.5528C38.1136 41.4838 34.0388 41.3707 30.4219 41.2834C36.6601 36.5632 44.174 33.9731 52.2396 32.4884Z" fill="#646567"/>
<path d="M41.2381 35.7703C40.5216 36.184 36.4436 38.5414 35.6172 39.0176C35.6366 39.0295 35.6905 39.0596 35.7109 39.0683C35.7734 39.1017 35.8618 39.1394 35.9264 39.1674C36.06 39.2191 36.2022 39.2665 36.3326 39.3031L41.8037 36.0935L41.2381 35.7703Z" fill="#4B4B4D"/>
<path d="M40.972 33.8084C40.3697 33.4463 40.0099 33.1716 38.8172 32.7363C38.5855 32.8742 40.1198 31.9681 33.3633 35.9578C34.1821 36.2444 34.4978 36.4103 35.5181 37.0288L40.972 33.8084Z" fill="#4B4B4D"/>
<path d="M45.6987 48.8427L45.8506 50.5934C45.8022 50.0084 45.7526 49.4255 45.6987 48.8427Z" fill="#1A171C"/>
<path d="M38.5186 56.5569C35.9554 60.0326 35.3391 64.4393 35.9263 68.7392L41.7616 67.7836L35.9253 68.7392C36.1828 70.169 36.2808 70.7206 36.3153 70.9102V70.9178V70.9296L36.3207 70.9566V70.9727V70.9813V70.9975L41.7756 67.7771C40.7736 63.1022 40.6293 58.0071 43.1924 53.9861C41.0861 55.2456 40.5463 55.6324 38.5186 56.5569ZM36.3196 70.9361V70.949V70.9361Z" fill="#1A171C"/>
<path d="M41.8038 36.0935L36.3413 39.2999C38.41 42.1938 39.9097 48.4806 40.2448 52.063L45.6998 48.8426C45.3302 44.8809 43.9522 39.4691 41.8082 36.0967L41.8038 36.0935Z" fill="#1A171C"/>
<path d="M40.6359 35.4169C39.7276 35.5095 39.2794 35.6043 38.6696 35.7142L40.9742 33.8072L35.4794 37.0621L33.2168 38.9346L35.1842 38.6373C35.3027 38.7908 35.4511 38.9187 35.6205 39.0133L41.2382 35.7703L40.6359 35.4169Z" fill="#1A171C"/>
<path d="M35.9329 39.1642C35.3489 38.925 36.0568 39.2342 36.3401 39.2999C36.2108 39.2633 36.0686 39.2159 35.934 39.1642H35.9329Z" fill="#1A171C"/>
<path d="M26.1814 54.3687C25.5425 54.4765 25.6147 55.4235 26.2676 55.4235C27.0304 55.4235 26.9356 54.2437 26.1814 54.3687Z" fill="#1A171C"/>
<path d="M25.287 39.0888C15.0515 43.0688 20.3524 43.6269 29.3811 38.8948C29.7044 38.7289 30.7689 38.1687 30.7365 37.811C30.2118 37.2259 26.0207 38.799 25.287 39.0888Z" fill="#1A171C"/>
<path d="M38.7869 32.7535L38.7998 32.746L38.8084 32.7406C24.7804 33.9301 14.9932 40.0089 14.1636 42.1443C19.1994 37.7926 26.7295 36.5202 33.3631 35.9567L38.7869 32.7535Z" fill="#1A171C"/>
<path d="M11.8257 56.0624C11.9276 56.55 12.0644 57.0296 12.2351 57.4975C14.1044 57.1237 15.8639 56.8284 17.6556 56.502L17.8474 56.4675C18.4076 56.0365 19.1855 55.3976 18.7998 54.9074L11.8257 56.0624Z" fill="#1A171C"/>
<path d="M16.7841 54.0497C15.0749 54.2158 13.3769 54.4817 11.6987 54.846C11.6987 54.9321 11.6987 55.0183 11.7063 55.1035C13.8891 54.8449 16.0799 54.6513 18.2785 54.5227C17.8004 54.3077 17.2989 54.149 16.7841 54.0497Z" fill="#1A171C"/>
<path d="M45.6987 48.8426L40.2437 52.063C39.8838 48.2112 38.5608 42.4686 36.3542 39.3215C34.1121 39.8602 31.2903 40.3127 28.5742 40.3342C23.9865 42.1087 17.2085 44.6859 12.5465 46.3247C12.5174 46.3979 12.4894 46.4712 12.4614 46.5402C12.4226 48.7564 12.8632 51.5361 13.3233 53.6856C21.5925 53.2471 31.9627 52.6599 40.2426 52.0598C40.3385 53.1706 40.3331 53.1049 40.5454 55.5614C41.3847 55.0647 45.9519 52.3679 46.0014 52.3399L45.6987 48.8426Z" fill="#646567"/>
<path d="M17.8024 56.5031C17.8175 56.4912 17.8336 56.4805 17.8487 56.4675L17.658 56.502C16.8457 56.6496 16.0311 56.7929 15.2188 56.9384C15.6971 57.4027 16.1518 57.9177 16.6032 58.4144C19.871 58.8648 22.0981 60.7578 23.6819 63.4373C25.173 65.966 35.9407 68.8169 35.9278 68.7415C35.9278 68.2028 34.6425 61.8126 38.5201 56.5559C32.4025 56.5645 23.8909 56.5548 17.8024 56.5031Z" fill="#646567"/>
<path d="M28.9578 39.7966C31.2646 40.0541 31.8668 39.662 35.6831 39.05C35.4873 38.9511 35.3159 38.8102 35.181 38.6373L33.2136 38.9347L35.5204 37.0277C34.472 36.3931 34.152 36.2325 33.3655 35.9567C26.72 36.5245 19.1964 37.7959 14.1638 42.1443C13.6509 43.406 13.1844 44.6881 12.6909 45.9595C15.7756 44.6052 20.5862 43.2853 28.9578 39.7966ZM25.0715 38.8636C26.1091 38.4434 31.1051 36.5407 31.7246 37.4683C31.7742 38.2333 29.0677 39.4077 28.362 39.718C16.9058 44.7 17.3648 41.987 25.0715 38.8636Z" fill="#646567"/>
<path d="M18.2754 54.5226C16.0803 54.6498 13.8896 54.8434 11.7031 55.1034C11.7185 55.4256 11.7585 55.7462 11.8227 56.0623L18.799 54.9073C18.6541 54.7429 18.4755 54.6117 18.2754 54.5226Z" fill="#646567"/>
<path d="M19.9428 49.0053C21.5988 48.2662 23.0964 47.6585 23.7881 47.4054C23.7978 47.3245 23.8065 47.2427 23.8205 47.1619C22.1052 47.734 20.3835 48.2684 18.7081 48.9439H18.4765L18.4409 48.7403C21.9792 47.3062 30.0329 44.6051 36.2453 43.3661C33.2134 44.3422 25.7835 46.8354 20.8242 49.0915C20.5322 49.056 20.237 49.028 19.9428 49.0053Z" fill="#C0000F"/>
<path d="M33.6156 43.5276C33.1784 42.7321 32.8697 41.8725 32.7009 40.9806C32.9983 40.9088 33.2856 40.8441 33.5628 40.7867C33.7934 41.7219 34.0056 42.4836 34.4011 43.3283L33.6156 43.5276ZM31.1742 44.1601C31.0977 43.9026 31.0169 43.6451 30.9393 43.3876C31.2949 43.5783 31.6493 43.7657 32.0113 43.9414C32.536 43.8045 33.0424 43.6742 33.5133 43.5546C32.8668 43.2421 32.2031 42.9674 31.5739 42.6075C31.9381 42.0688 32.2753 41.5236 32.6438 40.9914C32.2739 41.0776 31.8892 41.171 31.4899 41.2715C31.2076 41.6572 30.9512 42.0602 30.6667 42.4481C30.5848 42.1453 30.5116 41.8426 30.4512 41.5387C30.128 41.6217 29.8048 41.709 29.4729 41.8005C29.6949 42.6754 29.9438 43.5481 30.2142 44.41C30.5331 44.326 30.8542 44.242 31.172 44.159L31.1742 44.1601ZM28.2889 45.0716C30.3694 44.7311 29.8231 43.8196 29.1691 41.9471C28.9073 42.0192 28.6422 42.0914 28.3718 42.1679C28.7597 43.4727 29.1336 44.2064 28.3815 44.3303C27.8008 44.4251 27.4679 43.268 27.3041 42.4728C27.0003 42.5598 26.6921 42.6495 26.3797 42.7422C26.9173 44.1946 26.704 45.3302 28.2867 45.0705L28.2889 45.0716ZM19.356 50.0891C20.3073 49.9674 21.1876 49.8736 21.8103 49.8068C25.3658 47.9343 32.1848 45.4411 35.7478 44.214C31.3132 45.0867 24.8206 47.1909 19.3538 50.088L19.356 50.0891ZM25.174 43.8789C24.7862 44.5113 24.3875 45.1718 23.977 45.8031L24.1031 46.2438C24.5804 46.0553 25.5845 45.7503 26.8257 45.3991C26.746 45.1696 26.6673 44.9358 26.5941 44.6999C26.148 44.8076 25.7041 44.925 25.2656 45.0683C25.5242 44.674 25.8528 44.1989 26.2935 43.6063C26.2267 43.3078 26.1857 43.0676 26.1491 42.8112C25.2671 43.0712 24.3495 43.3495 23.3963 43.6462C23.4545 43.8983 23.5166 44.1497 23.5827 44.4003C24.1092 44.2208 24.6382 44.0466 25.1697 43.8778L25.174 43.8789ZM22.2391 46.9948C24.1785 46.678 23.8176 45.6275 23.086 43.742L22.2499 44.006C22.5279 44.7602 23.0774 46.0693 22.2812 46.1996C21.6455 46.3074 21.3794 45.1222 21.2393 44.3271L20.3041 44.6288C20.7448 46.4981 21.0389 47.1909 22.2348 46.9937L22.2391 46.9948ZM23.7885 47.4063C23.7982 47.3255 23.8068 47.2437 23.8208 47.1628C21.6832 47.8761 19.4152 48.5635 17.3197 49.5429C17.2798 49.7917 17.2485 50.0417 17.2119 50.2906C19.4788 49.1593 22.4557 47.8923 23.7885 47.4063ZM18.4014 46.8396C18.6632 46.7965 18.9347 46.7093 19.1319 46.6769C20.3774 46.469 19.5768 47.6466 18.9606 46.9624C18.7332 47.0389 18.118 47.2501 17.8304 47.346C18.3464 48.7036 21.0163 47.6919 20.831 46.5606C20.6456 45.4293 19.1987 46.0219 18.9994 46.0563C18.2904 46.1727 18.647 45.3786 19.314 45.759C19.6372 45.6437 19.9604 45.5564 20.2966 45.4702C19.9346 45.1319 19.3926 45.0393 18.8895 45.1211C17.3089 45.3765 17.1473 47.0519 18.396 46.8385L18.4014 46.8396Z" fill="white"/>
<path d="M40.2435 52.0641C31.9528 52.6642 21.5762 53.2492 13.3242 53.6899C13.3824 53.9614 13.4427 54.2286 13.5041 54.4958C14.5191 54.3148 15.673 54.1532 16.7838 54.0498C19.5495 54.6337 19.2867 55.3664 17.8494 56.4675C17.8343 56.4804 17.8181 56.4912 17.803 56.503C23.8969 56.5548 32.415 56.5612 38.5196 56.5569C39.2017 56.2455 39.8772 55.9105 40.5474 55.5657C40.3254 53.009 40.3157 52.9012 40.2435 52.0641ZM26.2672 55.4235C25.6143 55.4235 25.5421 54.4721 26.1811 54.3687C26.9352 54.2437 27.0301 55.4235 26.2672 55.4235Z" fill="#929395"/>
<path d="M28.3618 39.7179C29.061 39.4141 31.774 38.2354 31.7244 37.4683C31.1071 36.5406 26.1089 38.4433 25.0713 38.8635C17.1781 42.0634 17.1566 44.59 28.3618 39.7179ZM25.4937 39.009C27.9642 38.0608 30.3669 37.3982 30.7386 37.8109C30.7709 38.1686 29.7021 38.7288 29.3832 38.8948C20.3091 43.6494 14.9597 43.0137 25.4937 39.009Z" fill="#929395"/>
<path d="M28.5741 40.3342C31.2945 40.3127 34.112 39.858 36.3541 39.3215C36.3503 39.3137 36.3456 39.3065 36.3401 39.2999C36.1216 39.251 35.9109 39.1719 35.7141 39.065L35.6861 39.051C31.8882 39.6598 31.2687 40.0552 28.9609 39.7977C20.5785 43.2864 15.7776 44.6051 12.6897 45.9605C12.6412 46.0823 12.5949 46.204 12.5464 46.3247C17.2084 44.6859 23.9864 42.1087 28.5741 40.3342Z" fill="#929395"/>
<path d="M289.974 42.8607C289.791 43.6548 289.474 44.395 289.142 45.1341C288.264 45.2192 287.353 45.3043 286.414 45.3916C275.26 46.4227 260.213 47.5464 251.308 47.5464C238.117 47.5464 173.417 47.4947 160.652 47.5712C106.052 47.8944 42.377 64.909 2.22595 66.7492C1.58524 66.7794 0.951001 66.8049 0.323226 66.8257C0.170408 66.1062 0.0624584 65.3779 0 64.645C0.521471 64.6289 1.04833 64.6084 1.5795 64.5869C2.29777 64.5567 3.02395 64.5208 3.75804 64.4791C43.9835 62.2877 106.741 45.6986 160.651 45.3776C173.416 45.3011 238.117 45.3528 251.307 45.3528C261.201 45.3517 278.68 43.9672 289.974 42.8607Z" fill="#7C7C7B"/>
<path d="M21.9104 83.0248C20.5098 82.9387 19.3537 82.8643 18.4907 82.804C18.2558 82.1489 18.035 81.4906 17.8389 80.8291L18.8958 80.8948C44.3283 82.4527 91.1011 84.989 124.086 84.989C178.34 84.989 225.233 83.7306 267.047 58.9305C256.505 66.4003 240.126 74.5897 239.555 74.8214C235.541 76.4547 231.113 77.8888 226.391 79.1483C197.288 86.9154 156.988 88.0542 133.138 88.0542C113.426 88.0553 41.9407 84.2596 21.9104 83.0248Z" fill="#A9ABB0"/>
<path d="M255.319 35.0538C253.813 34.8919 252.297 34.83 250.783 34.8685C250.675 35.2994 250.765 35.1615 250.655 35.5968L251.624 35.6679C251.624 35.6841 251.615 35.7099 251.608 35.7423C251.574 35.9276 251.501 36.3553 251.435 36.7712L252.485 36.8951C252.536 36.3844 252.586 35.8532 252.622 35.7455C254.755 35.9157 256.126 36.0536 257.071 36.1657C257.049 36.2519 256.998 36.8358 256.944 37.3918C257.279 37.4284 257.614 37.4618 257.947 37.4995C257.966 36.9414 257.982 36.3704 258.008 36.2907C258.762 36.3984 259.138 36.4706 259.632 36.5234C259.771 36.0612 259.69 36.1808 259.74 35.7153C258.276 35.4384 256.804 35.2068 255.319 35.0538Z" fill="#1A171C"/>
<path d="M255.319 35.0538C253.813 34.8921 252.297 34.8298 250.783 34.8674C250.675 35.3038 250.765 35.1616 250.655 35.5968L251.624 35.668C251.624 35.6841 251.615 35.71 251.608 35.7423C247.664 35.2478 242.602 34.7134 237.197 34.1865C240.315 32.7794 243.544 31.3303 243.547 31.3303C243.556 31.3291 243.564 31.3291 243.573 31.3303C244.851 30.6461 246.187 29.9501 247.559 29.3338L247.658 29.3575C250.526 30.7928 253.119 32.7209 255.319 35.0538Z" fill="#FAFAFA"/>
<path d="M241.724 26.3903L240.755 26.1672C239.294 25.8318 237.835 25.5054 236.377 25.1879L235.356 24.967C216.474 20.8901 198.363 18.2148 188.433 17.1396L197.383 24.6395C198.697 25.8322 199.16 26.5174 198.892 27.1628C198.204 28.8349 195.885 31.3389 188.577 31.7623C192.148 31.6815 194.898 31.6492 196.476 31.6815C203.442 31.8248 210.043 32.2202 216.315 32.746C229.317 33.8417 240.911 35.5203 251.438 36.7712C251.507 36.3553 251.577 35.9276 251.612 35.7423C247.667 35.2477 242.606 34.7133 237.2 34.1865C235.733 34.0443 234.242 33.9031 232.74 33.762L231.262 33.6251C230.428 33.5476 229.595 33.4714 228.762 33.3967L227.989 33.3267L227.551 33.2922L226.541 33.2017C224.728 33.039 222.931 32.8785 221.178 32.7298L220.349 32.6576L216.355 32.3172C211.881 31.9401 207.925 31.619 205.043 31.3906C202.749 28.3178 200.371 25.2493 197.831 22.3812C197.607 22.1269 197.382 21.8755 197.155 21.627C196.589 20.9999 196.018 20.3891 195.444 19.7943C208.408 21.126 235.248 26.3256 247.569 29.3359L247.668 29.3596C250.534 30.7948 253.125 32.7222 255.324 35.0538C256.808 35.2068 258.281 35.4384 259.751 35.711C259.699 36.1765 259.78 36.0569 259.643 36.5191C259.149 36.4663 258.769 36.3909 258.019 36.2864C257.993 36.3661 257.977 36.9328 257.958 37.4952C266.047 38.3173 273.496 38.7278 280.476 38.2052C269.543 33.5767 255.65 29.6128 241.724 26.3903Z" fill="#EDEDED"/>
<path d="M252.49 36.8951C253.998 37.0704 255.484 37.2356 256.948 37.3907C257.002 36.8348 257.056 36.2508 257.075 36.1646C256.13 36.0569 254.76 35.9147 252.627 35.7444C252.59 35.8533 252.54 36.3844 252.49 36.8951Z" fill="#EDEDED"/>
<path d="M247.565 29.336C246.191 29.9523 244.855 30.6483 243.579 31.3324C243.57 31.3313 243.561 31.3313 243.553 31.3324C243.553 31.3324 240.32 32.7816 237.202 34.1887C235.735 34.0465 234.244 33.9053 232.742 33.7642C233.335 33.227 233.765 32.5325 233.979 31.7613C234.194 30.9901 234.186 30.1738 233.955 29.4072C233.724 28.6406 233.281 27.9551 232.677 27.4303C232.072 26.9055 231.331 26.563 230.54 26.4424C229.748 26.3218 228.939 26.4282 228.205 26.7491C227.472 27.0701 226.845 27.5925 226.396 28.2556C225.948 28.9188 225.697 29.6956 225.672 30.4957C225.647 31.2959 225.85 32.0866 226.257 32.7762C226.343 32.9221 226.438 33.0628 226.541 33.1975C224.728 33.0348 222.931 32.8742 221.178 32.7255C213.603 26.2977 202.402 22.7056 197.152 21.6206C196.588 20.9978 196.018 20.3891 195.444 19.7944C208.404 21.1261 235.244 26.3257 247.565 29.336Z" fill="#C6C7C8"/>
<path d="M234.854 23.1925C234.704 23.6149 234.803 23.4834 234.648 23.9036L235.609 24.0803C235.576 24.1697 235.469 24.5533 235.355 24.967L236.376 25.1879C236.431 24.8764 236.503 24.5682 236.592 24.2645C238.694 24.6643 240.039 24.9487 240.969 25.1631C240.941 25.2385 240.852 25.6889 240.754 26.1673L241.723 26.3903C241.793 25.9055 241.856 25.454 241.888 25.384C242.622 25.5693 242.991 25.6857 243.477 25.7913C243.665 25.3463 243.571 25.4562 243.672 24.9993C240.803 24.1342 237.894 23.4349 234.854 23.1925Z" fill="#1A171C"/>
<path d="M230.732 30.1332C230.828 30.2975 230.874 30.4868 230.864 30.6772C230.853 30.8676 230.786 31.0505 230.671 31.2029C230.557 31.3553 230.399 31.4702 230.219 31.5332C230.039 31.5962 229.845 31.6045 229.66 31.5569C229.476 31.5093 229.309 31.408 229.182 31.2658C229.055 31.1237 228.973 30.947 228.946 30.7582C228.919 30.5694 228.949 30.3769 229.032 30.205C229.115 30.0332 229.246 29.8897 229.411 29.7927C229.52 29.7282 229.64 29.6858 229.766 29.668C229.891 29.6501 230.019 29.6572 230.142 29.6889C230.264 29.7205 230.38 29.776 230.481 29.8523C230.582 29.9285 230.667 30.024 230.732 30.1332Z" fill="#7B7C7E"/>
<path d="M232.518 30.9704L233.437 30.9607C233.389 31.4592 233.236 31.9419 232.989 32.3773C232.742 32.8127 232.405 33.191 232.002 33.4873L231.535 32.6965C232.075 32.2707 232.427 31.6516 232.518 30.9704ZM232.96 28.8156C232.707 28.3871 232.367 28.0163 231.962 27.7274L231.51 28.5268C232.06 28.9509 232.421 29.5732 232.517 30.2604L233.435 30.2518C233.381 29.7452 233.219 29.256 232.96 28.8178V28.8156ZM228.952 29.0138C228.633 29.2016 228.378 29.4794 228.218 29.8122C228.058 30.145 228 30.5178 228.052 30.8835C228.104 31.2491 228.263 31.5913 228.509 31.8665C228.755 32.1418 229.077 32.3379 229.435 32.43C229.793 32.5221 230.17 32.506 230.518 32.3839C230.867 32.2617 231.171 32.039 231.393 31.7438C231.615 31.4486 231.744 31.0942 231.765 30.7254C231.785 30.3567 231.696 29.9901 231.508 29.6721C231.383 29.4611 231.218 29.2768 231.022 29.1296C230.826 28.9825 230.603 28.8753 230.366 28.8144C230.128 28.7535 229.881 28.7399 229.639 28.7745C229.396 28.8091 229.162 28.8912 228.952 29.016V29.0138ZM229.071 31.1105C228.974 30.9462 228.928 30.7569 228.939 30.5664C228.949 30.376 229.016 30.193 229.131 30.0405C229.245 29.8881 229.403 29.7731 229.583 29.71C229.763 29.647 229.958 29.6388 230.142 29.6864C230.327 29.7341 230.493 29.8355 230.621 29.9777C230.748 30.12 230.83 30.2967 230.856 30.4856C230.883 30.6745 230.853 30.867 230.77 31.0389C230.687 31.2107 230.555 31.3541 230.391 31.451C230.171 31.5809 229.909 31.6182 229.661 31.5548C229.414 31.4914 229.201 31.3324 229.071 31.1127V31.1105ZM228.413 27.3999L228.879 28.1907C229.199 28.0556 229.542 27.9849 229.889 27.9827C230.236 27.9804 230.579 28.0467 230.901 28.1778L231.352 27.3794C230.889 27.1726 230.387 27.0674 229.88 27.0709C229.373 27.0745 228.873 27.1866 228.413 27.3999ZM228.944 33.0822L228.767 33.3968C229.6 33.4686 230.434 33.5447 231.267 33.6252L230.931 33.0563C230.296 33.3242 229.581 33.3335 228.94 33.0822H228.944ZM227.632 31.9649C227.46 31.6745 227.346 31.3537 227.296 31.02L226.375 31.0286C226.476 31.9018 226.895 32.7075 227.551 33.2923L227.992 33.3321L228.322 32.7439C228.041 32.533 227.805 32.2682 227.627 31.9649H227.632ZM226.894 28.7391C226.595 29.2179 226.414 29.7607 226.366 30.3229L227.284 30.3132C227.324 29.9688 227.432 29.6357 227.602 29.3331C227.771 29.0305 227.998 28.7642 228.271 28.5495L227.804 27.7597C227.439 28.0247 227.129 28.3571 226.889 28.7391H226.894Z" fill="#A7A8AA"/>
<path d="M233.545 28.4708C232.966 27.5218 232.037 26.8387 230.958 26.5693C229.88 26.2999 228.738 26.4658 227.781 27.0311C226.824 27.5964 226.127 28.5157 225.842 29.5903C225.557 30.665 225.706 31.8086 226.258 32.774C226.344 32.9202 226.439 33.0609 226.542 33.1953L227.552 33.2858C226.894 32.7018 226.475 31.8965 226.373 31.0232L227.293 31.0146C227.397 31.7005 227.767 32.3179 228.323 32.7331L227.992 33.3214L228.765 33.3914L228.942 33.0768C229.582 33.3269 230.295 33.3176 230.928 33.0509L231.264 33.6198L232.743 33.7566C233.464 33.1021 233.937 32.2192 234.083 31.2564C234.23 30.2936 234.04 29.3099 233.545 28.4708ZM231.962 27.7296C232.372 28.0223 232.715 28.3986 232.969 28.8338C233.223 29.2689 233.381 29.753 233.434 30.2539L232.516 30.2626C232.421 29.5754 232.059 28.9531 231.51 28.529L231.962 27.7296ZM231.347 27.3794L230.896 28.1778C230.575 28.0467 230.231 27.9804 229.884 27.9827C229.537 27.9849 229.194 28.0556 228.875 28.1907L228.408 27.3999C228.868 27.1866 229.369 27.0745 229.876 27.0709C230.383 27.0674 230.885 27.1726 231.347 27.3794ZM227.279 30.3132L226.361 30.3229C226.409 29.7606 226.59 29.2179 226.889 28.7391C227.127 28.3575 227.436 28.0251 227.8 27.7597L228.266 28.5495C227.994 28.7642 227.766 29.0305 227.597 29.3331C227.428 29.6357 227.32 29.9688 227.279 30.3132ZM230.85 32.231C230.532 32.4188 230.165 32.5082 229.796 32.4877C229.428 32.4672 229.073 32.3378 228.778 32.1159C228.483 31.8939 228.26 31.5895 228.138 31.2409C228.016 30.8924 228 30.5155 228.092 30.1578C228.184 29.8002 228.38 29.4778 228.655 29.2316C228.931 28.9854 229.273 28.8264 229.638 28.7746C230.004 28.7229 230.377 28.7807 230.71 28.9409C231.042 29.101 231.32 29.3562 231.508 29.6743C231.759 30.1007 231.831 30.6095 231.708 31.0888C231.584 31.5682 231.276 31.979 230.85 32.231ZM232.001 33.4873L231.535 32.6965C232.074 32.2712 232.426 31.653 232.518 30.9726L233.437 30.9629C233.388 31.461 233.236 31.9433 232.988 32.3783C232.741 32.8133 232.405 33.1912 232.001 33.4873Z" fill="#EDEDED"/>
<path d="M221.177 32.7245L220.348 32.6523C213.129 26.9075 203.109 23.5675 197.83 22.3748C197.606 22.1205 197.38 21.8691 197.153 21.6206C202.4 22.7034 213.601 26.2966 221.177 32.7245Z" fill="#EDEDED"/>
<path d="M220.348 32.6522L216.354 32.3118C211.88 31.9347 207.923 31.6136 205.041 31.3852C202.747 28.3124 200.37 25.2439 197.83 22.3758C203.108 23.5674 213.126 26.9074 220.348 32.6522Z" fill="#A7A8AA"/>
<path d="M226.392 79.1493C213.531 84.4631 192.619 90 144.775 90C135.246 90 55.2417 88.2578 23.0549 83.9438C22.6756 83.627 22.2942 83.3207 21.9106 83.0248C41.9409 84.2595 113.427 88.0552 133.138 88.0552C156.989 88.0552 197.289 86.9164 226.392 79.1493Z" fill="#A9ABB0"/>
<path d="M182.612 29.921C189.236 29.2832 193.782 28.5203 195.88 27.1434C196.404 26.8008 196.774 26.4194 196.987 25.9927L187.679 18.1276L186.245 16.9155L184.744 15.6463L173.148 5.84176C173.137 5.90065 173.12 5.95837 173.098 6.01415C172.134 8.44912 170.267 8.92318 166.643 9.24641C165.8 9.32075 164.862 9.38647 163.818 9.46189C162.618 9.55455 161.278 9.66444 159.781 9.82929C161.572 11.4648 163.858 13.5388 166.432 15.8445C166.932 16.2927 167.445 16.7495 167.965 17.215L169.085 18.2116C169.771 18.82 170.469 19.4377 171.178 20.0648L171.738 20.5593C173.127 21.7822 174.554 23.0277 175.991 24.2732C178.198 26.191 180.433 28.1002 182.612 29.921ZM188.43 17.1396L197.383 24.6395C198.697 25.8322 199.16 26.5174 198.892 27.1628C198.204 28.835 195.885 31.3389 188.577 31.7623C176.941 32.023 156.578 32.7934 139.476 33.4862L139.458 33.0326C139.496 32.6016 139.516 32.1814 139.515 31.7623L140.485 31.7257L146.619 31.4886L152.886 31.2451L154.861 31.1686L162.391 30.8777C163.228 30.8641 164.054 30.8479 164.869 30.8293C170.126 30.714 174.889 30.519 179.047 30.2184C177.496 28.8177 175.814 27.3018 174.058 25.7363C172.619 24.4434 171.134 23.1257 169.648 21.8091L169.046 21.2769C168.118 20.4569 167.192 19.6413 166.277 18.8387C166.097 18.6814 165.918 18.5241 165.738 18.3689C165.357 18.0349 164.978 17.7041 164.602 17.3766C164.071 16.914 163.546 16.4594 163.029 16.0126C160.494 13.8233 158.15 11.8419 156.235 10.2958C150.094 11.217 141.854 13.1219 130.777 17.5393C129.503 18.0471 128.19 18.5891 126.839 19.1651C126.336 19.3806 125.828 19.6004 125.316 19.8245C124.513 19.5541 123.721 19.3073 122.956 19.0875C123.977 18.6286 124.977 18.1886 125.957 17.7677C143.858 10.0685 155.083 8.51161 161.991 7.91687C163.019 7.82852 163.951 7.76172 164.792 7.70139C168.228 7.44927 170.213 7.27042 171.269 6.02061C171.557 5.66811 171.774 5.26258 171.908 4.82683C172.069 4.33122 172.039 3.65353 171.507 2.96182L188.43 17.1396Z" fill="#363636"/>
<path d="M184.744 15.6463L186.244 16.9155C184.09 16.7097 182.487 16.6052 181.55 16.6052C181.55 16.6052 176.192 16.8433 167.965 17.2215C167.445 16.756 166.932 16.2992 166.432 15.851L171.065 15.6355C169.018 13.8901 166.432 11.6857 163.821 9.47375C164.865 9.39403 165.803 9.3283 166.646 9.25827L174.099 15.4976L174.603 15.4739C176.029 15.4545 177.474 15.4287 178.923 15.4287C180.864 15.419 182.815 15.4664 184.744 15.6463Z" fill="black"/>
<path d="M177.59 21.8479C177.59 22.5827 176.984 23.4091 175.991 24.2796C174.554 23.0341 173.127 21.7887 171.738 20.5658C172.625 20.1122 173.553 19.7825 174.509 19.7825C175.868 19.7825 177.59 20.5324 177.59 21.8479Z" fill="#929395"/>
<path d="M196.987 25.9928C196.771 26.4237 196.404 26.8008 195.88 27.1434C193.782 28.5172 189.236 29.2832 182.612 29.921C180.433 28.1002 178.194 26.191 175.991 24.2797C176.984 23.4091 177.59 22.5827 177.59 21.8479C177.59 20.5324 175.866 19.7825 174.509 19.7825C173.553 19.7825 172.625 20.1122 171.738 20.5658L171.178 20.0713C170.469 19.4449 169.771 18.8272 169.085 18.2181C176.675 17.8701 181.548 17.6525 181.55 17.6525C182.477 17.6525 184.055 17.7548 186.174 17.9563H186.19C186.691 17.9599 187.19 18.0166 187.679 18.1255L196.987 25.9928ZM164.869 30.8282C170.125 30.7129 174.889 30.5179 179.046 30.2173C177.496 28.8167 175.814 27.3008 174.058 25.7353C171.48 27.4656 167.916 29.2692 164.869 30.8282Z" fill="#EDEDED"/>
<path d="M171.509 2.96073C172.041 3.65244 172.071 4.33013 171.91 4.82575C171.776 5.26149 171.559 5.66702 171.271 6.01953C171.271 4.80097 170.367 3.5587 169.379 3.07494C166.444 2.06217 162.753 1.46851 157.376 1.48898L164.794 7.7003C163.951 7.76171 163.019 7.82851 161.993 7.91578C159.114 5.47112 156.369 3.14713 154.482 1.55901C141.503 2.33152 122.433 11.1814 108.369 18.593L115.089 18.2698C114.086 18.5531 113.103 19.0638 112.534 19.873C109.113 20.0497 105.45 20.2415 102.228 20.4117C116.671 12.4711 140.482 0.465433 155.435 0.0333883C162.476 -0.170244 166.855 0.572097 170.255 1.90917C170.736 2.17613 171.162 2.53312 171.509 2.96073Z" fill="black"/>
<path d="M170.01 24.4251C170.353 24.9455 170.684 25.4734 171.009 26.0046C168.208 27.429 165.892 28.4493 163.828 29.4114C163.632 28.6637 163.435 27.9138 163.218 27.1715C165.265 25.9863 167.24 24.6481 169.267 23.4177C169.527 23.7431 169.78 24.0749 170.01 24.4251Z" fill="#EDEDED"/>
<path d="M169.648 21.808C171.134 23.1246 172.619 24.4466 174.058 25.7352C171.48 27.4655 167.917 29.2691 164.869 30.8281C164.055 30.8461 163.229 30.8622 162.39 30.8766L154.86 31.1675C155.643 30.6784 156.413 30.1687 157.197 29.6893C163.231 26.0013 158.677 28.4179 168.99 22.2163C169.205 22.087 169.425 21.9491 169.648 21.808ZM171.009 26.0099C170.686 25.4787 170.353 24.9508 170.01 24.4304C169.779 24.0803 169.527 23.7484 169.267 23.423C167.24 24.6534 165.27 25.9884 163.218 27.1768C163.433 27.9191 163.632 28.669 163.828 29.4167C165.892 28.4492 168.208 27.4289 171.009 26.0045V26.0099Z" fill="#929395"/>
<path d="M169.047 21.2758L169.649 21.8081C169.426 21.9492 169.206 22.0871 168.992 22.2164C158.679 28.418 163.23 26.0014 157.2 29.6894C156.415 30.1688 155.645 30.6784 154.863 31.1676L152.886 31.2452C154.038 30.4985 156.872 28.7122 160.017 26.7599C163.162 24.8076 166.64 22.6808 169.047 21.2758Z" fill="#EDEDED"/>
<path d="M166.277 18.8376C167.192 19.6403 168.118 20.4537 169.046 21.2758C166.64 22.6765 163.172 24.8033 160.018 26.7588C161.065 23.4091 163.368 20.7026 166.277 18.8376Z" fill="#929395"/>
<path d="M163.03 16.0115C163.547 16.4576 164.071 16.9123 164.603 17.3755C154.17 17.8561 140.265 18.5058 126.84 19.1641C128.191 18.5894 129.504 18.0475 130.778 17.5382L163.03 16.0115Z" fill="black"/>
<path d="M152.245 21.474C152.147 21.7024 152.048 21.9287 151.949 22.1528C145.442 21.6065 138.871 21.0754 132.327 21.0754C131.185 21.0754 130.037 21.0969 128.885 21.14C128.348 20.9245 127.807 20.7144 127.263 20.5097C128.955 20.4203 130.647 20.3718 132.327 20.3718C138.97 20.3761 145.641 20.9181 152.245 21.474Z" fill="#B2BDD6"/>
<path d="M151.948 22.1528C150.52 25.385 148.868 28.2089 146.623 30.7818H140.514C140.42 29.3542 139.739 27.9514 138.78 26.8611C137.173 25.0295 133.164 22.8746 128.885 21.1443C130.034 21.1026 131.182 21.0811 132.327 21.0797C138.871 21.0797 145.442 21.6065 151.948 22.1528Z" fill="#3458AD"/>
<path d="M139.518 31.7601C139.518 32.1792 139.499 32.6037 139.461 33.0304L139.479 33.484L133.321 33.7361C133.143 33.1291 132.87 32.5542 132.512 32.0327L139.518 31.7601Z" fill="#363636"/>
<path d="M133.321 33.7351L130.767 33.8428C130.65 33.2312 130.414 32.6484 130.072 32.1275L132.512 32.0338C132.869 32.5546 133.142 33.1288 133.321 33.7351Z" fill="#363636"/>
<path d="M130.768 33.8406L125.352 34.0658C125.056 33.4454 124.675 32.8689 124.221 32.3527L130.073 32.1254C130.414 32.6463 130.65 33.229 130.768 33.8406Z" fill="#363636"/>
<path d="M118.923 18.1006L125.958 17.7688C124.977 18.189 123.977 18.6289 122.957 19.0886C121.341 18.6243 119.833 18.2838 118.578 18.119L118.923 18.1006Z" fill="black"/>
<path d="M125.352 34.0658L124.382 34.1067C124.162 33.573 123.856 33.0786 123.477 32.6425C123.405 32.5596 123.324 32.4755 123.239 32.3904L124.215 32.3527C124.672 32.8686 125.054 33.4451 125.352 34.0658Z" fill="#363636"/>
<path d="M125.317 19.8245C124.983 19.9682 124.646 20.1165 124.307 20.2695C123.411 19.9463 122.632 19.6888 122.036 19.5045L122.287 19.3935L122.956 19.0908C123.722 19.3063 124.514 19.553 125.317 19.8245Z" fill="#363636"/>
<path d="M124.307 20.2684L124.154 20.3373C122.944 20.3977 121.439 20.4752 119.751 20.5614C120.525 20.198 121.286 19.8453 122.036 19.5034C122.632 19.6877 123.411 19.9495 124.307 20.2684Z" fill="#363636"/>
<path d="M112.451 32.8074L123.245 32.3904C123.33 32.4756 123.411 32.5596 123.483 32.6426C123.862 33.0786 124.167 33.5731 124.388 34.1068C120.536 34.2684 117.24 34.4084 114.761 34.5162C113.831 33.8934 112.862 33.3302 111.86 32.83L112.451 32.8074Z" fill="#363636"/>
<path d="M121.122 21.7175C119.872 22.2986 118.592 22.9091 117.282 23.5491C116.519 23.2453 115.855 22.9619 115.332 22.6958C116.84 21.9466 118.313 21.2352 119.749 20.5614C121.438 20.4753 122.943 20.3977 124.153 20.3373C123.799 20.4946 123.441 20.6548 123.081 20.8179C122.437 21.1102 121.784 21.4101 121.122 21.7175Z" fill="#363636"/>
<path d="M121.748 19.4151L122.287 19.3892L122.035 19.5034L121.748 19.4151Z" fill="#1F3A78"/>
<path d="M118.577 18.1157L115.086 18.2805C115.533 18.1537 115.99 18.0679 116.452 18.0241C117.161 17.9761 117.874 18.0068 118.577 18.1157Z" fill="#1F3A78"/>
<path d="M139.518 31.7602L132.515 32.0317C132.208 31.584 131.861 31.1656 131.477 30.7819C128.097 27.3664 121.312 25.1567 117.285 23.5491C118.596 22.9092 119.876 22.2986 121.125 21.7175C121.787 21.4094 122.44 21.1095 123.085 20.8179L124.157 20.3363L124.31 20.2684C124.633 20.3837 124.972 20.5054 125.322 20.6347C125.829 20.8233 126.363 21.0237 126.912 21.2381C131.179 22.8973 136.393 25.2622 138.055 27.1639C138.928 28.1637 139.348 29.42 139.475 30.784C139.502 31.1029 139.517 31.4305 139.518 31.7602ZM122.036 19.5013L121.749 19.4129C121.534 19.3504 121.358 19.3052 121.21 19.2621C118.639 18.6027 116.652 18.8721 115.203 19.5239C115.059 19.5898 114.922 19.6707 114.796 19.7652C114.422 20.0314 114.148 20.4154 114.019 20.8556C113.932 21.1727 113.971 21.5109 114.126 21.8005L114.139 21.8253C114.297 22.0946 114.716 22.3823 115.325 22.6937C116.833 21.9445 118.305 21.2331 119.742 20.5593C120.521 20.198 121.286 19.8453 122.036 19.5013Z" fill="#A7A8AA"/>
<path d="M117.282 23.5491C116.649 23.8594 116.008 24.1762 115.359 24.4994C114.561 24.2042 113.948 23.9488 113.473 23.6288C114.1 23.3114 114.72 23.0003 115.332 22.6958C115.855 22.9619 116.52 23.2453 117.282 23.5491Z" fill="#363636"/>
<path d="M113.473 23.6289C113.948 23.9521 114.561 24.2042 115.359 24.4994C114.431 24.9627 113.489 25.4411 112.533 25.9346C112.152 25.7909 111.771 25.6541 111.391 25.5241C111.387 25.2446 111.39 24.9667 111.401 24.6901C112.099 24.3281 112.79 23.9744 113.473 23.6289Z" fill="#363636"/>
<path d="M130.073 32.1254L124.226 32.3527L124.218 32.3419C122.386 30.2625 117.446 27.7521 112.539 25.9345C113.495 25.4411 114.437 24.9627 115.365 24.4994C116.023 24.744 116.808 25.0144 117.745 25.37C119.376 25.9884 127.182 29.3295 128.802 30.6913C128.839 30.7204 128.873 30.7506 128.91 30.7818C129.358 31.1732 129.75 31.6255 130.073 32.1254ZM112.716 22.9048C112.575 22.7038 112.458 22.4868 112.368 22.2584C112.326 22.1506 112.285 22.0429 112.249 21.9212C112.149 21.6081 112.11 21.2792 112.131 20.9515H112.043C111.889 21.4191 111.763 21.8954 111.665 22.378C111.617 22.6193 111.576 22.8617 111.54 23.1052C111.465 23.6277 111.419 24.1539 111.401 24.6815C112.099 24.3224 112.79 23.9686 113.473 23.6202C113.178 23.4308 112.922 23.1882 112.716 22.9048Z" fill="#A7A8AA"/>
<path d="M111.86 32.83C112.862 33.3302 113.831 33.8934 114.761 34.5162L111.655 34.6509C110.59 34.1122 109.347 33.5228 108.137 32.9744L111.86 32.83Z" fill="#363636"/>
<path d="M165.739 18.3679C165.918 18.523 166.097 18.6803 166.278 18.8376C163.369 20.7026 161.066 23.4091 160.019 26.7588C156.872 28.7111 154.038 30.4975 152.886 31.2452L146.622 31.4876L146.628 31.4822L146.622 30.783C148.868 28.2101 150.52 25.3819 151.948 22.1539C152.047 21.9298 152.146 21.7036 152.244 21.4751C145.641 20.9192 138.97 20.3772 132.326 20.3772C130.647 20.3772 128.955 20.4257 127.262 20.5152C126.999 20.416 126.736 20.3201 126.473 20.2253C138.735 19.6295 155.669 18.8333 165.739 18.3679ZM140.514 30.7819C140.536 31.0959 140.527 31.4113 140.488 31.7236L146.622 31.4865L146.628 31.4811L146.622 30.7819H140.514ZM95.7953 21.8242C91.727 23.6917 87.6899 25.6239 83.684 27.6207C77.0741 27.5906 70.1086 27.2975 68.3308 27.2975H68.083C69.3608 29.7293 70.4048 34.2426 71.0524 36.3252L71.0621 36.3597C73.2277 36.2455 75.125 36.1173 76.906 36.1173C78.8453 36.1173 80.6371 36.2681 82.4913 36.7508C82.8045 36.5842 83.1155 36.415 83.4244 36.2433C86.2925 36.1356 89.0205 35.9998 91.6882 35.8436C92.5717 35.3049 93.4458 34.7766 94.3106 34.2587C90.0785 33.8989 84.8164 33.0617 84.8164 31.3497C84.8323 31.2564 84.8822 31.1724 84.9565 31.1137C84.8663 30.9739 84.8177 30.8114 84.8164 30.6451C84.8164 29.9631 90.0214 27.7576 97.8359 25.5639C98.6084 24.2441 100.438 23.6451 101.882 23.5072C102.668 23.4317 103.734 23.5255 104.979 23.7528C107.115 23.2669 109.354 22.8058 111.659 22.3888C111.757 21.9061 111.884 21.4298 112.038 20.9623C105.569 21.2963 98.8153 21.6561 95.7953 21.8242Z" fill="#A8A8A7"/>
<path d="M112.533 25.9345C112.219 26.0968 111.901 26.2613 111.582 26.428L111.419 26.3655C111.403 26.0843 111.393 25.8031 111.391 25.524C111.77 25.6569 112.151 25.7937 112.533 25.9345Z" fill="#363636"/>
<path d="M111.655 34.6508L111.515 34.6573C106.494 34.8728 101.904 35.1885 97.3103 35.488C97.1423 34.5636 97.0011 33.637 96.916 32.7115C98.4108 31.833 99.8764 30.9862 101.313 30.1709C101.852 30.3659 102.47 30.5847 103.172 30.8508L103.319 30.9079C101.941 31.6836 100.535 32.4888 99.1032 33.3235L108.137 32.9744C109.347 33.5228 110.591 34.1078 111.655 34.6508Z" fill="#363636"/>
<path d="M111.582 26.428L111.426 26.5088C111.426 26.4614 111.426 26.4129 111.419 26.3655L111.582 26.428Z" fill="#363636"/>
<path d="M111.665 22.3866C111.617 22.6279 111.576 22.8703 111.54 23.1138C109.852 23.4198 108.2 23.7495 106.602 24.0943C106.035 23.9596 105.492 23.8432 104.986 23.7506C107.116 23.2647 109.358 22.8035 111.665 22.3866Z" fill="#B2BDD6"/>
<path d="M111.419 26.3655C111.419 26.4129 111.419 26.4614 111.427 26.5088C109.373 27.5797 107.251 28.7222 105.059 29.9361C104.358 29.6678 103.691 29.4146 103.08 29.1743C105.295 27.9353 107.442 26.7677 109.521 25.6716C110.106 25.8785 110.745 26.1112 111.419 26.3655Z" fill="#363636"/>
<path d="M111.54 23.1138C111.465 23.6363 111.419 24.1625 111.401 24.6901C111.078 24.856 110.755 25.0248 110.431 25.1965C109.096 24.7569 107.799 24.3819 106.606 24.0943C108.201 23.7495 109.852 23.4198 111.54 23.1138Z" fill="#3458AD"/>
<path d="M111.391 25.5241C111.391 25.8031 111.403 26.0843 111.419 26.3655C110.745 26.1113 110.106 25.8785 109.521 25.6717L110.427 25.1965C110.746 25.3021 111.068 25.412 111.391 25.5241Z" fill="#363636"/>
<path d="M111.405 24.6901C111.394 24.9666 111.391 25.2446 111.395 25.524C111.072 25.4163 110.749 25.3021 110.431 25.2008C110.755 25.027 111.08 24.8567 111.405 24.6901Z" fill="#363636"/>
<path d="M123.245 32.3905L112.451 32.8074L111.86 32.83C109.619 31.6934 107.176 30.7463 105.059 29.9361C107.25 28.7208 109.373 27.5783 111.426 26.5088L111.582 26.428C115.786 28.0226 121.25 30.4199 123.245 32.3905ZM106.645 24.7408C106.118 24.6035 105.582 24.502 105.041 24.4369C103.956 24.2904 102.853 24.347 101.789 24.6039C101.395 24.703 101.01 24.8364 100.638 25.0026C100.279 25.1674 99.9689 25.4224 99.7376 25.7428C99.4144 26.1921 99.2819 26.7523 99.5598 27.2792C99.8378 27.806 101.204 28.4331 103.08 29.17C105.295 27.931 107.442 26.7634 109.521 25.6673C108.218 25.2116 107.187 24.8884 106.645 24.7451V24.7408Z" fill="#A7A8AA"/>
<path d="M105.059 29.9361C104.485 30.255 103.905 30.5782 103.319 30.9057L103.172 30.8486C102.47 30.5825 101.854 30.3638 101.313 30.1688C101.906 29.8319 102.495 29.4997 103.08 29.1722C103.691 29.4135 104.358 29.6678 105.059 29.9361Z" fill="#363636"/>
<path d="M140.488 31.7235L139.518 31.7601C139.518 31.4305 139.502 31.1029 139.472 30.7818C139.341 29.4178 138.924 28.1616 138.052 27.1617C136.394 25.2622 131.176 22.8973 126.909 21.2359C126.36 21.0204 125.826 20.8211 125.319 20.6326C124.969 20.5033 124.63 20.3815 124.307 20.2662C124.647 20.1154 124.983 19.9671 125.317 19.8213C125.7 19.9495 126.086 20.0842 126.473 20.2221C126.736 20.3169 127 20.4128 127.263 20.5119C127.806 20.7145 128.346 20.9245 128.885 21.1422C133.164 22.8725 137.173 25.0317 138.78 26.859C139.739 27.9493 140.42 29.3521 140.514 30.7797C140.536 31.0944 140.527 31.4105 140.488 31.7235ZM117.282 23.5491C116.649 23.8594 116.008 24.1762 115.359 24.4994C116.017 24.744 116.803 25.0144 117.739 25.37C119.37 25.9884 127.176 29.3295 128.797 30.6913C128.833 30.7204 128.868 30.7506 128.904 30.7818C129.355 31.1728 129.749 31.6251 130.073 32.1254L132.513 32.0317C132.206 31.584 131.859 31.1656 131.475 30.7818C128.094 27.3664 121.309 25.1566 117.282 23.5491ZM112.533 25.9345C112.218 26.0969 111.901 26.2614 111.582 26.428C115.784 28.0226 121.25 30.4144 123.245 32.3904L124.221 32.3527L124.212 32.3419C122.383 30.2625 117.439 27.7521 112.533 25.9345ZM112.368 22.2616C112.458 22.4901 112.575 22.7071 112.716 22.9081C112.92 23.1943 113.176 23.4399 113.47 23.6321C114.097 23.3146 114.717 23.0036 115.33 22.6991C114.716 22.3877 114.297 22.1 114.145 21.8307L114.132 21.8059C113.976 21.5163 113.938 21.1781 114.024 20.861C114.154 20.4207 114.427 20.0367 114.801 19.7706C114.928 19.6761 115.064 19.5952 115.208 19.5293C116.657 18.8828 118.644 18.6081 121.216 19.2675C121.36 19.3052 121.539 19.3558 121.755 19.4183L122.293 19.3925L122.963 19.0897C121.346 18.6253 119.838 18.2849 118.583 18.12L115.092 18.2849C114.089 18.5682 113.106 19.0789 112.537 19.8881C112.405 20.0737 112.296 20.2754 112.214 20.4882C112.214 20.5022 112.204 20.5162 112.198 20.5302C112.164 20.6718 112.143 20.816 112.133 20.9612C112.112 21.2889 112.151 21.6178 112.251 21.9309C112.285 22.0429 112.326 22.156 112.368 22.2616ZM103.318 30.9079C104.167 31.2387 106.105 32.0543 108.136 32.9744L111.859 32.83C109.618 31.6933 107.175 30.7463 105.058 29.9361C104.483 30.255 103.905 30.5789 103.324 30.9079H103.318ZM99.5588 27.2835C99.2808 26.7566 99.4133 26.1964 99.7365 25.7471C99.9678 25.4267 100.278 25.1717 100.637 25.0069C101.008 24.8407 101.393 24.7073 101.788 24.6082C102.852 24.3514 103.955 24.2947 105.04 24.4412C105.581 24.5063 106.117 24.6078 106.644 24.7451C107.183 24.8841 108.217 25.2127 109.52 25.6717L110.426 25.1965C109.091 24.7569 107.793 24.382 106.601 24.0943C106.034 23.9596 105.491 23.8433 104.985 23.7506C103.739 23.5233 102.674 23.4274 101.887 23.505C100.443 23.6429 98.6139 24.2419 97.8414 25.5618C97.7661 25.6906 97.7016 25.8253 97.6485 25.9647L97.6323 26.0078C97.6051 26.1172 97.586 26.2285 97.5752 26.3407C97.5378 26.6992 97.5745 27.0615 97.683 27.4052C98.1764 28.9826 99.1558 29.3931 101.316 30.171C101.909 29.8341 102.498 29.5019 103.083 29.1743C101.204 28.4374 99.8464 27.8265 99.5598 27.2835H99.5588Z" fill="#1F3A78"/>
<path d="M108.137 32.9744L99.103 33.3235C100.535 32.4889 101.94 31.6837 103.319 30.9079C104.168 31.2387 106.106 32.0543 108.137 32.9744ZM97.571 26.3408L97.502 26.3602C96.8017 28.4223 96.7133 30.5621 96.9159 32.7169C98.4106 31.8385 99.8763 30.9916 101.313 30.1764C99.1526 29.3985 98.1732 28.9912 97.6798 27.4106C97.5702 27.0653 97.5331 26.7011 97.571 26.3408Z" fill="#A7A8AA"/>
<path d="M97.6279 26.0078C97.5841 26.1249 97.5421 26.2423 97.5018 26.3601C90.6128 28.3124 85.8205 30.2582 84.9575 31.1115C84.8673 30.9717 84.8187 30.8092 84.8174 30.6429C84.8174 29.9609 90.0224 27.7554 97.8369 25.5618C97.7617 25.6906 97.6972 25.8253 97.6441 25.9647L97.6279 26.0078Z" fill="#B2BDD6"/>
<path d="M97.6281 26.0078C97.6008 26.1172 97.5817 26.2285 97.5709 26.3407L97.502 26.3601C97.5422 26.2409 97.5842 26.1234 97.6281 26.0078Z" fill="#B2BDD6"/>
<path d="M96.916 32.7115C97.0011 33.637 97.1423 34.5636 97.3103 35.488C95.4475 35.6097 93.5836 35.7293 91.6895 35.8414C92.5729 35.3027 93.4471 34.7744 94.3119 34.2565C95.1903 33.7307 96.0584 33.2157 96.916 32.7115Z" fill="#363636"/>
<path d="M97.5063 26.3601C96.806 28.4223 96.7176 30.562 96.9202 32.7169C96.0582 33.2197 95.1902 33.7347 94.316 34.2619C90.0839 33.902 84.8218 33.0649 84.8218 31.3528C84.8377 31.2596 84.8876 31.1755 84.9618 31.1169C85.8205 30.2582 90.6108 28.3124 97.5063 26.3601Z" fill="#3458AD"/>
<path d="M76.906 36.1151C78.8453 36.1151 80.6371 36.2659 82.4913 36.7486C79.5823 38.2925 76.3964 39.6307 73.0359 40.8083C70.5837 40.8503 68.0507 40.888 65.7095 40.9225C67.4732 39.2945 69.1852 37.7452 71.0567 36.323L71.0664 36.3575C73.2277 36.2433 75.125 36.1151 76.906 36.1151Z" fill="#929395"/>
<path d="M71.0525 36.323C69.181 37.7452 67.469 39.2946 65.7052 40.9225C61.7414 40.9786 58.3152 41.0217 56.726 41.0411C60.0484 37.6638 63.7298 34.6597 67.7049 32.0823C67.6198 31.8862 67.5304 31.6923 67.4356 31.4973C63.225 34.2233 59.3451 37.4289 55.8738 41.0497H55.7801C54.7662 41.0497 53.6802 40.9861 52.7762 40.7512L52.6318 40.7146V40.6758C52.6318 39.1674 53.0984 37.6375 54.0702 36.5277C57.6709 32.4174 61.6046 29.4653 67.4302 26.2729C67.6842 26.589 67.9041 26.931 68.0863 27.2932C69.3609 29.7271 70.4049 34.2404 71.0525 36.323Z" fill="#929395"/>
<path d="M67.4358 31.4973C67.5306 31.6923 67.62 31.8862 67.7052 32.0823C63.7297 34.6596 60.0478 37.6637 56.7252 41.0411L55.874 41.0508C59.3453 37.4296 63.2252 34.2237 67.4358 31.4973Z" fill="#0E3599"/>
<path d="M52.2397 32.4885C57.3704 27.6961 64.184 25.5521 66.4617 25.6641C66.7935 25.6803 67.1157 25.9022 67.4313 26.275C61.6133 29.4674 57.6753 32.4163 54.0714 36.5299C53.1017 37.6396 52.633 39.1685 52.633 40.6779V40.7167C50.3952 40.1511 47.2685 39.6781 48.5388 36.991L48.5765 36.9555C48.918 36.3889 49.2888 35.8404 49.6873 35.3124C50.4547 34.2989 51.3087 33.354 52.2397 32.4885Z" fill="#DADADA"/>
<path d="M5.86772 59.1999C9.69686 56.0312 16.7001 54.0423 25.2225 52.3529H25.2289C43.0225 48.8254 67.4368 46.6038 83.4257 37.7C93.3509 37.3423 185.888 32.9227 196.479 33.1414C233.136 33.8956 260.256 40.9516 282.214 38.9595C282.586 39.124 282.954 39.2895 283.318 39.4562C283.732 39.6451 284.139 39.8351 284.541 40.0261C285.776 40.6108 286.958 41.2059 288.089 41.8114C276.81 42.8824 260.665 44.1203 251.307 44.1203C238.116 44.1203 173.416 44.0697 160.651 44.1451C106.898 44.4683 44.3499 60.9593 4.10937 63.2273C3.73551 63.2488 3.36272 63.2682 2.99316 63.2876C3.44783 61.7361 4.4369 60.3829 5.86772 59.1999ZM192.046 56.5634C107.266 58.2561 57.8866 72.9133 15.0247 72.9133C11.9691 72.9133 8.89311 72.6062 5.81923 72.255C7.90727 74.3279 10.5265 75.9182 13.3612 77.5645C15.1464 78.6042 17.0179 79.6676 18.8959 80.8937C44.3283 82.4517 91.1012 84.9879 124.086 84.9879C178.34 84.9879 225.233 83.7295 267.047 58.9295C270.965 56.6051 274.841 54.0678 278.673 51.3175C244.251 57.8208 223.869 55.9278 192.04 56.5645L192.046 56.5634ZM46.1761 40.0154C46.1761 39.3905 47.3613 38.1051 48.5389 36.991L48.5766 36.9555C48.9181 36.3889 49.2889 35.8405 49.6874 35.3124C49.6583 35.334 49.1121 35.7315 48.4128 36.3478C47.829 36.8582 47.2807 37.4079 46.7719 37.993C46.1556 38.7113 45.5709 39.449 45.0179 40.2061C43.1863 42.7057 41.7328 45.396 40.8041 48.2716C50.0182 46.6555 59.7559 44.895 68.5929 42.2467C63.6238 42.3544 56.654 42.5171 55.4559 42.5171C53.1373 42.5171 46.1761 42.3307 46.1761 40.0154Z" fill="#DADADA"/>
<path d="M18.896 80.8937L17.839 80.828C16.4807 80.7447 15.1878 80.6642 13.9603 80.5867C13.6523 79.6054 13.45 78.5941 13.3569 77.5699C15.1465 78.6042 17.0234 79.6676 18.896 80.8937Z" fill="#A9ABB0"/>
<path d="M25.2224 52.3528C16.7 54.0422 9.69682 56.0311 5.86768 59.1998C9.38222 55.8103 16.4544 53.8881 25.2224 52.3528Z" fill="#EBF3F5"/>
<path d="M169.085 18.2181L167.969 17.2214C176.197 16.8433 181.552 16.6052 181.555 16.6052C182.492 16.6052 184.096 16.7129 186.249 16.9155L187.683 18.1265C187.194 18.0176 186.695 17.9609 186.194 17.9573H186.178C184.06 17.7558 182.481 17.6535 181.555 17.6535C181.555 17.6535 176.679 17.869 169.089 18.2191L169.085 18.2181ZM165.745 18.3678C165.363 18.0338 164.984 17.7031 164.608 17.3755C154.175 17.856 140.27 18.5057 126.845 19.164C126.343 19.3795 125.835 19.5993 125.322 19.8234C125.706 19.9516 126.091 20.0863 126.478 20.2242C138.735 19.6295 155.669 18.8333 165.739 18.3678H165.745ZM68.3308 27.2942C70.1064 27.2942 77.0741 27.5905 83.684 27.6175C87.6899 25.6293 91.7266 23.6971 95.7942 21.8209C98.811 21.6486 105.569 21.293 112.043 20.959C112.091 20.8136 112.142 20.6692 112.196 20.528C112.202 20.514 112.207 20.5 112.212 20.486C112.294 20.2732 112.403 20.0716 112.535 19.8859C109.114 20.0626 105.451 20.2544 102.229 20.4246C99.7074 20.5582 97.4556 20.681 95.7974 20.7759C91.7305 22.6434 87.6938 24.5755 83.6872 26.5724C77.0773 26.5422 70.1118 26.2491 68.334 26.2491C68.0467 26.2491 67.7594 26.252 67.4721 26.2578L67.4344 26.2782C67.6884 26.5943 67.9083 26.9363 68.0905 27.2985L68.3308 27.2942ZM288.09 41.8124C276.811 42.8834 260.666 44.1213 251.308 44.1213C238.117 44.1213 173.417 44.0707 160.652 44.1461C106.899 44.4694 44.3507 60.9603 4.11017 63.2283C3.73631 63.2498 3.36352 63.2692 2.99397 63.2886C2.43802 63.3159 1.88746 63.3407 1.34229 63.363C1.41052 63.7832 1.48989 64.1901 1.58039 64.5837C2.29867 64.5535 3.02485 64.5176 3.75894 64.4759C43.9844 62.2845 106.742 45.6955 160.652 45.3744C173.417 45.2979 238.118 45.3496 251.308 45.3496C261.202 45.3496 278.681 43.9651 289.975 42.8586C289.366 42.5081 288.738 42.1594 288.09 41.8124ZM5.86744 59.1998C9.38198 55.8092 16.4542 53.8881 25.2222 52.3528H25.2287C43.0222 48.8254 68.3545 46.0747 83.4254 37.6999C93.3506 37.3422 101.589 36.5503 111.515 36.1151C122.735 35.6227 185.887 32.9227 196.479 33.1414C233.136 33.8956 260.255 40.9516 282.214 38.9594C281.642 38.7052 281.062 38.4538 280.472 38.2052C273.491 38.7278 266.041 38.313 257.954 37.4952C257.621 37.4618 257.286 37.4284 256.951 37.3875C255.487 37.2345 254.001 37.0693 252.493 36.8919L251.442 36.768C240.917 35.5171 229.323 33.8385 216.319 32.7427C210.047 32.2148 203.446 31.8215 196.48 31.6782C194.902 31.6459 192.152 31.6782 188.582 31.7591C176.945 32.0198 156.582 32.7901 139.48 33.4829L133.322 33.735L130.768 33.8428L125.353 34.068L124.384 34.1089C120.532 34.2705 117.236 34.4106 114.757 34.5183L111.651 34.653L111.511 34.6595C106.49 34.8749 101.9 35.1906 97.3058 35.4902C95.443 35.6119 93.579 35.7315 91.6849 35.8435C89.0172 35.9998 86.2892 36.1398 83.4211 36.2433C83.113 36.4142 82.802 36.5834 82.4881 36.7507C79.579 38.2947 76.3931 39.6328 73.0326 40.8104C72.1937 41.1049 71.3429 41.389 70.4802 41.6627C71.3422 41.3883 72.193 41.1042 73.0326 40.8104C70.5804 40.8525 68.0474 40.8902 65.7062 40.9246C61.7435 40.9807 58.3173 41.0238 56.7281 41.0432L55.8769 41.0529H55.7832C54.7693 41.0529 53.6833 40.9893 52.7793 40.7544L52.635 40.7178C50.3972 40.1521 47.2705 39.6792 48.5408 36.9921C47.361 38.1061 46.178 39.3915 46.178 40.0164C46.178 42.3318 53.1392 42.5182 55.4589 42.5182C56.657 42.5182 63.6268 42.3587 68.5958 42.2477C59.761 44.896 50.0211 46.6511 40.8071 48.2726L40.3836 48.347C35.9522 49.127 31.6479 49.8769 27.6302 50.6839C26.1829 50.9712 24.7765 51.27 23.4111 51.5803C12.4214 54.0681 4.31812 57.2831 2.99505 63.2897C3.44756 61.7361 4.43663 60.3828 5.86744 59.1998Z" fill="#EDEDED"/>
<path d="M286.413 45.3916C283.853 47.4746 281.273 49.4499 278.674 51.3174C244.251 57.8207 223.869 55.9277 192.04 56.5644C107.266 58.256 57.8867 72.9132 15.0248 72.9132C11.9693 72.9132 8.89324 72.6061 5.81936 72.2549C4.229 70.7071 3.00147 68.8261 2.2251 66.7471C42.3762 64.9069 106.052 47.8923 160.651 47.5691C173.416 47.4926 238.117 47.5443 251.307 47.5443C260.212 47.5443 275.259 46.4227 286.413 45.3916Z" fill="#2B2C7C"/>
<path d="M250.349 44.8971C260.287 44.8971 277.431 43.5858 289.408 42.4535C287.862 41.6296 286.223 40.8223 284.491 40.0315C284.06 39.8311 283.611 39.6317 283.163 39.4346C283.081 39.3969 282.48 39.0736 282.397 39.037C258.694 40.6725 232.668 33.5896 193.585 33.2761C186.451 33.2189 155.522 34.3233 131.835 35.2768C121.672 35.6852 112.991 36.17 107.416 36.4706C117.069 38.1363 126.736 39.8246 136.635 41.2231C146.298 42.4837 155.84 43.7432 165.327 44.8928C189.536 44.8594 238.738 44.8971 250.349 44.8971Z" fill="#EDEDED"/>
<path style="mix-blend-mode:multiply" opacity="0.28" d="M5.86785 59.1999C9.697 56.0312 16.7002 54.0423 25.2226 52.3529H25.2291C43.0226 48.8254 67.437 46.6038 83.4259 37.7C93.351 37.3423 185.888 32.9227 196.479 33.1414C233.136 33.8956 260.256 40.9516 282.214 38.9595C282.586 39.124 282.954 39.2895 283.318 39.4562C283.732 39.6451 284.14 39.8351 284.541 40.0261C285.776 40.6108 286.959 41.2059 288.089 41.8114C276.811 42.8824 260.666 44.1203 251.307 44.1203C238.116 44.1203 173.416 44.0697 160.651 44.1451C106.898 44.4683 44.35 60.9593 4.1095 63.2273C3.73564 63.2488 3.36285 63.2682 2.9933 63.2876C3.44797 61.7361 4.43704 60.3829 5.86785 59.1999ZM192.046 56.5634C107.266 58.2561 57.8867 72.9132 15.0248 72.9132C11.9693 72.9132 8.89324 72.6062 5.81937 72.255C7.90741 74.3279 10.5266 75.9182 13.3613 77.5645C15.1466 78.6042 17.0181 79.6676 18.896 80.8937C44.3285 82.4516 91.1014 84.9879 124.087 84.9879C178.34 84.9879 225.234 83.7295 267.047 58.9294C270.965 56.6051 274.841 54.0678 278.674 51.3175C244.251 57.8208 223.87 55.9278 192.04 56.5645L192.046 56.5634ZM286.414 45.3917C283.853 47.4747 281.273 49.45 278.675 51.3175C244.251 57.8208 223.87 55.9278 192.04 56.5645C107.266 58.2561 57.8867 72.9132 15.0248 72.9132C11.9693 72.9132 8.89324 72.6062 5.81937 72.255C4.229 70.7072 3.00147 68.8261 2.2251 66.7472C42.3762 64.907 106.052 47.8924 160.651 47.5691C173.416 47.4926 238.117 47.5444 251.307 47.5444C260.212 47.5444 275.259 46.4228 286.414 45.3917ZM21.9074 83.0248C20.5067 82.9386 19.3507 82.8643 18.4877 82.804C18.2528 82.1489 18.0319 81.4906 17.8358 80.829L18.8928 80.8948C44.3252 82.4527 91.0982 84.989 124.083 84.989C178.337 84.989 225.23 83.7305 267.044 58.9305C256.502 66.4003 240.124 74.5897 239.552 74.8214C235.538 76.4547 231.11 77.8888 226.389 79.1483C197.285 86.9154 156.986 88.0542 133.135 88.0542C113.427 88.0553 41.9409 84.2595 21.9106 83.0248H21.9074ZM226.389 79.1461C213.527 84.4599 192.616 89.9968 144.772 89.9968C135.243 89.9968 55.2384 88.2546 23.0516 83.9406C22.6724 83.6239 22.291 83.3175 21.9074 83.0216C41.9377 84.2563 113.423 88.0521 133.135 88.0521C156.989 88.0553 197.289 86.9165 226.392 79.1493L226.389 79.1461ZM18.896 80.8937L17.8391 80.828C16.4808 80.7446 15.1879 80.6642 13.9603 80.5866C13.6524 79.6054 13.4501 78.5941 13.357 77.5699C15.1466 78.6042 17.0234 79.6676 18.896 80.8937ZM46.1763 40.0154C46.1763 39.3905 47.3614 38.1051 48.539 36.991L48.5767 36.9555C48.9183 36.3889 49.289 35.8405 49.6876 35.3124C49.6585 35.334 49.1122 35.7315 48.413 36.3478C47.8291 36.8582 47.2809 37.4079 46.7721 37.993C46.1558 38.7113 45.5711 39.449 45.018 40.2061C43.1864 42.7057 41.733 45.396 40.8042 48.2716C50.0183 46.6555 59.756 44.895 68.593 42.2467C63.624 42.3544 56.6542 42.5171 55.4561 42.5171C53.1375 42.5171 46.1763 42.3307 46.1763 40.0154Z" fill="url(#paint0_linear)"/>
<path style="mix-blend-mode:multiply" d="M165.739 18.3679L166.277 18.8376C163.368 20.7026 161.066 23.4091 160.019 26.7588C156.872 28.7111 154.038 30.4974 152.886 31.2452L146.623 31.4876L146.628 31.4822L146.623 30.783C148.868 28.2101 150.519 25.3819 151.95 22.155C152.049 21.9302 152.147 21.7036 152.245 21.4751C145.641 20.9192 138.97 20.3772 132.327 20.3772C129.264 20.3772 126.161 20.5378 123.084 20.819L124.155 20.3374C136.509 19.734 155.209 18.8549 165.739 18.3679ZM83.6845 27.6197C77.0746 27.5906 70.109 27.2964 68.3313 27.2964H68.0835C69.3613 29.7282 70.4053 34.2415 71.0518 36.3241C71.0518 36.336 71.0593 36.3468 71.0626 36.3586C73.2282 36.2433 75.1255 36.1162 76.9065 36.1162C78.8458 36.1162 80.6387 36.267 82.4918 36.7497C82.8064 36.5827 83.1167 36.4136 83.4259 36.2423C86.294 36.1345 89.0221 35.9988 91.6897 35.8425C92.5732 35.3024 93.4474 34.7741 94.3122 34.2576C90.079 33.8978 84.819 33.0606 84.819 31.3486C84.8344 31.2554 84.8839 31.1713 84.958 31.1127C84.8683 30.9727 84.8201 30.8102 84.819 30.644C84.819 29.6937 94.9468 25.7773 108.146 23.0676C108.174 22.8661 108.202 22.6937 108.227 22.5569C108.313 22.0617 108.466 21.5806 108.683 21.1271C103.952 21.3739 99.5775 21.6087 95.7958 21.8242C91.7275 23.6932 87.6904 25.625 83.6845 27.6197ZM247.668 29.3597L247.567 29.3349C243.625 28.3728 238.194 27.1801 232.21 25.9723C219.49 23.394 204.258 20.6994 195.443 19.7944C196.021 20.3913 196.591 20.9996 197.153 21.6195C197.381 21.8695 197.606 22.1209 197.829 22.3737C200.369 25.2429 202.746 28.3103 205.041 31.3831C207.927 31.6115 211.883 31.9326 216.354 32.3107C217.646 32.4185 218.981 32.5327 220.346 32.6512L221.176 32.7223C222.9 32.8721 224.678 33.0283 226.467 33.1878L227.568 33.2869C229.237 33.4367 230.916 33.5896 232.583 33.7459C233.445 33.8256 234.296 33.9064 235.144 33.9872L237.201 34.1844C242.606 34.7112 247.668 35.2456 251.612 35.7413C251.619 35.7068 251.624 35.6831 251.628 35.6669L250.659 35.5947C250.766 35.1638 250.683 35.3017 250.787 34.8664C252.301 34.8279 253.816 34.8898 255.323 35.0517C253.123 32.721 250.531 30.7944 247.666 29.3597H247.668Z" fill="url(#paint1_linear)"/>
<path style="mix-blend-mode:multiply" d="M152.245 21.474C145.641 20.9181 138.97 20.3761 132.326 20.3761C129.263 20.3761 126.16 20.5367 123.083 20.8179C122.437 21.1099 108.175 22.865 108.147 23.0664C94.9422 25.7761 84.8198 29.6926 84.8198 30.6428C84.8209 30.8091 84.8691 30.9716 84.9588 31.1115C84.8847 31.1701 84.8351 31.2543 84.8198 31.3475C84.8198 33.0595 90.0798 33.8967 94.313 34.2565C93.451 34.7737 92.5769 35.302 91.6905 35.8414C97.3308 35.5095 102.705 35.1023 108.582 34.7974C109.545 34.7478 110.523 34.7011 111.516 34.6573L115.555 34.4817L119.865 34.2974C122.406 34.1897 125.331 34.0658 128.526 33.9333L130.294 33.86C132.321 33.7771 134.442 33.6887 136.631 33.6004C135.661 32.9414 134.616 32.4017 133.517 31.9929L146.622 31.4865L146.627 31.4811L146.622 30.7818C148.867 28.209 150.518 25.3807 151.948 22.1539C152.048 21.929 152.147 21.7024 152.245 21.474Z" fill="url(#paint2_linear)"/>
<path style="mix-blend-mode:multiply" d="M196.987 25.9928C196.771 26.4237 196.404 26.8008 195.88 27.1445C193.782 28.5172 189.236 29.2832 182.612 29.921C180.433 28.1002 178.194 26.191 175.991 24.2797C174.553 23.0353 173.127 21.7887 171.738 20.5658L171.178 20.0713C170.468 19.4449 169.771 18.8272 169.085 18.2181C176.674 17.8701 181.547 17.6525 181.548 17.6525C182.476 17.6525 184.055 17.7548 186.173 17.9563H186.189C186.69 17.9599 187.189 18.0166 187.678 18.1255L196.987 25.9928ZM169.648 21.8081L169.046 21.2758C168.119 20.4559 167.193 19.6403 166.277 18.8376C163.368 20.7026 161.065 23.4091 160.018 26.7588C156.872 28.7111 154.038 30.4975 152.886 31.2452L154.86 31.1687L162.391 30.8778C163.228 30.8641 164.054 30.848 164.869 30.8293C170.126 30.714 174.889 30.519 179.048 30.2195C177.496 28.8188 175.815 27.3018 174.06 25.7363C172.618 24.4467 171.135 23.1247 169.648 21.8081Z" fill="url(#paint3_linear)"/>
<path style="mix-blend-mode:multiply" opacity="0.33" d="M49.6884 35.3124C49.2899 35.8405 48.9191 36.3889 48.5776 36.9555L48.5399 36.991C47.3601 38.104 46.1771 39.3894 46.1771 40.0143C46.1771 42.3296 53.1383 42.516 55.459 42.516C56.6561 42.516 63.6291 42.3566 68.5971 42.2445C59.759 44.895 50.0202 46.6522 40.8062 48.2684C41.7338 45.3927 43.1894 42.7024 45.0199 40.2028C45.5705 39.4486 46.1577 38.7106 46.7729 37.9898C47.2817 37.4046 47.83 36.8549 48.4138 36.3446C49.1131 35.7315 49.6593 35.3393 49.6884 35.3124Z" fill="url(#paint4_linear)"/>
<path style="mix-blend-mode:multiply" opacity="0.34" d="M76.9064 36.1151C75.1254 36.1151 73.2281 36.2422 71.0625 36.3575C71.0625 36.3456 71.0549 36.3349 71.0517 36.323C70.4052 34.2404 69.3612 29.727 68.0834 27.2953C67.9011 26.9331 67.6812 26.5911 67.4273 26.275C61.6092 29.4674 57.6712 32.4163 54.0673 36.5299C53.0976 37.6396 52.6289 39.1685 52.6289 40.6779V40.7167L52.7733 40.7544C53.6772 40.9882 54.7633 41.0518 55.7771 41.0518H55.8709L56.722 41.0421C58.3123 41.0227 61.7374 40.9796 65.7001 40.9236C68.0457 40.8891 70.5798 40.8514 73.0266 40.8094C76.3881 39.6318 79.5687 38.2947 82.482 36.7497C80.6386 36.2659 78.8414 36.1151 76.9064 36.1151Z" fill="url(#paint5_linear)"/>
<path d="M169.379 3.07493C166.444 2.06216 162.753 1.46742 157.376 1.48897L164.794 7.69921C168.23 7.44817 170.215 7.26824 171.271 6.01951C171.271 4.79988 170.368 3.55546 169.379 3.07493ZM154.481 1.56654C141.5 2.33905 122.431 11.189 108.368 18.6005L115.155 18.2773C115.692 18.113 116.247 18.0189 116.807 17.9972C117.561 18.0036 118.1 18.0672 118.695 18.1049L125.96 17.7612C143.858 10.0674 155.082 8.51158 161.991 7.91685C159.112 5.47218 156.367 3.14819 154.481 1.56439V1.56654Z" fill="url(#paint6_linear)"/>
<path opacity="0.59" d="M173.147 5.845C173.137 5.90401 173.12 5.96178 173.098 6.01739C171.652 9.66984 168.174 8.91457 159.781 9.83468C164.939 14.5441 174.2 22.8908 182.611 29.9199C190.891 29.1237 195.926 28.1249 196.986 25.9927L173.147 5.845ZM156.232 10.2947C154.417 10.5673 152.417 10.9261 150.214 11.4099L149.652 11.5348L149.05 11.6738L148.583 11.7816C148.398 11.8258 148.212 11.8699 148.024 11.9163C147.075 12.1468 146.091 12.4015 145.072 12.6801C144.393 12.8669 143.699 13.0648 142.988 13.2738L142.652 13.3729C142.314 13.4728 141.972 13.5762 141.628 13.6832L141.545 13.7091L140.857 13.9246C140.346 14.0862 139.826 14.2539 139.297 14.4277C129.147 17.7677 116.036 23.4576 99.0986 33.3224L146.613 31.4908L151.024 31.3206L158.219 31.0415L161.927 30.8982L162.383 30.881C162.783 30.8745 163.179 30.868 163.568 30.8594L164.69 30.8368H164.741C170.043 30.7215 174.844 30.5254 179.032 30.2237C171.984 23.8433 162.099 15.0257 156.236 10.2947H156.232Z" fill="url(#paint7_linear)"/>
<path d="M145.076 12.6823C144.397 12.869 143.703 13.0669 142.993 13.2759L142.656 13.375C142.318 13.4763 141.976 13.5797 141.632 13.6853L141.549 13.7112L140.861 13.9267C140.35 14.0883 139.83 14.256 139.301 14.4298L151.033 31.3173L158.228 31.0393L145.076 12.6823ZM150.218 11.4098L149.656 11.5348L149.054 11.6738L148.588 11.7815C148.402 11.8257 148.216 11.8699 148.028 11.9162L161.936 30.8928L162.391 30.8745C162.791 30.868 163.188 30.8615 163.577 30.8529L164.698 30.8303H164.75L150.218 11.4098Z" fill="url(#paint8_linear)"/>
<path opacity="0.46" d="M181.024 35.9352C181.617 35.9352 182.099 35.4518 182.099 34.8556C182.099 34.2593 181.617 33.776 181.024 33.776C180.43 33.776 179.948 34.2593 179.948 34.8556C179.948 35.4518 180.43 35.9352 181.024 35.9352Z" fill="black"/>
<path opacity="0.46" d="M84.4525 40.0531C84.9101 40.0531 85.281 39.6807 85.281 39.2213C85.281 38.7619 84.9101 38.3895 84.4525 38.3895C83.995 38.3895 83.624 38.7619 83.624 39.2213C83.624 39.6807 83.995 40.0531 84.4525 40.0531Z" fill="black"/>
<path opacity="0.46" d="M68.3774 45.773C68.8349 45.773 69.2059 45.4006 69.2059 44.9413C69.2059 44.4819 68.8349 44.1095 68.3774 44.1095C67.9198 44.1095 67.5488 44.4819 67.5488 44.9413C67.5488 45.4006 67.9198 45.773 68.3774 45.773Z" fill="black"/>
<path opacity="0.46" d="M55.7898 44.0341C56.0594 44.0341 56.2779 43.8151 56.2779 43.5449C56.2779 43.2748 56.0594 43.0558 55.7898 43.0558C55.5203 43.0558 55.3018 43.2748 55.3018 43.5449C55.3018 43.8151 55.5203 44.0341 55.7898 44.0341Z" fill="black"/>
<path opacity="0.46" d="M48.2444 43.0967C48.514 43.0967 48.7325 42.8777 48.7325 42.6076C48.7325 42.3374 48.514 42.1184 48.2444 42.1184C47.9749 42.1184 47.7563 42.3374 47.7563 42.6076C47.7563 42.8777 47.9749 43.0967 48.2444 43.0967Z" fill="black"/>
<path opacity="0.46" d="M43.0375 64.5795C43.4951 64.5795 43.8661 64.2071 43.8661 63.7477C43.8661 63.2883 43.4951 62.916 43.0375 62.916C42.5799 62.916 42.209 63.2883 42.209 63.7477C42.209 64.2071 42.5799 64.5795 43.0375 64.5795Z" fill="black"/>
<path d="M119.198 39.2557C119.442 39.3318 119.697 39.3632 119.952 39.3483C120.215 39.3311 120.338 39.2535 120.33 39.1404C120.323 39.0273 120.193 38.9799 119.866 38.9131C119.375 38.8053 119.04 38.6222 119.019 38.2903C118.994 37.8949 119.403 37.562 120.123 37.5167C120.384 37.4948 120.647 37.5167 120.9 37.5814L120.77 38.0727C120.567 38.0144 120.356 37.9918 120.145 38.0059C119.912 38.0199 119.789 38.0953 119.796 38.1944C119.802 38.2936 119.958 38.341 120.324 38.4239C120.846 38.5414 121.088 38.7396 121.107 39.052C121.132 39.4367 120.771 39.7901 119.937 39.8429C119.652 39.8639 119.366 39.8355 119.09 39.7588L119.198 39.2557Z" fill="#6A777A"/>
<path d="M122.268 37.4144L123.034 37.367L123.141 39.1038L124.238 39.0338L124.269 39.5358L122.408 39.649L122.268 37.4144Z" fill="#6A777A"/>
<path d="M126.117 37.171L126.257 39.4098L125.49 39.4583L125.35 37.2194L126.117 37.171Z" fill="#6A777A"/>
<path d="M127.491 37.1192C127.791 37.0644 128.094 37.0284 128.398 37.0114C128.945 36.977 129.296 37.0255 129.583 37.1601C129.748 37.2286 129.889 37.343 129.99 37.4898C130.092 37.6365 130.149 37.8094 130.154 37.9876C130.173 38.1714 130.143 38.3569 130.065 38.5248C129.988 38.6927 129.867 38.8369 129.716 38.9422C129.415 39.1576 128.95 39.2654 128.39 39.302C128.136 39.3217 127.881 39.3245 127.626 39.3106L127.491 37.1192ZM128.368 38.8301C128.422 38.8338 128.476 38.8338 128.529 38.8301C129.025 38.8053 129.379 38.5661 129.348 38.0619C129.321 37.6234 128.973 37.4392 128.516 37.4672C128.438 37.4708 128.36 37.4802 128.284 37.4952L128.368 38.8301Z" fill="#6A777A"/>
<path d="M133.218 38.0652L132.193 38.1298L132.219 38.5414L133.367 38.4692L133.397 38.9605L131.484 39.0812L131.344 36.8423L133.198 36.726L133.229 37.2173L132.141 37.2862L132.163 37.645L133.188 37.5803L133.218 38.0652Z" fill="#6A777A"/>
<path d="M134.531 36.6753C134.835 36.6215 135.142 36.5855 135.45 36.5676C135.881 36.5396 136.204 36.5676 136.427 36.6818C136.517 36.7238 136.593 36.7897 136.647 36.8722C136.702 36.9547 136.733 37.0506 136.736 37.1494C136.755 37.4284 136.499 37.6417 136.284 37.7215V37.7312C136.374 37.76 136.456 37.8093 136.523 37.8751C136.591 37.9409 136.642 38.0214 136.674 38.1104C136.773 38.3345 136.889 38.6491 136.946 38.7364L136.167 38.786C136.07 38.6273 135.993 38.4577 135.936 38.2807C135.843 38.0199 135.733 37.9693 135.496 37.9844L135.373 37.9919L135.426 38.8323L134.672 38.8808L134.531 36.6753ZM135.346 37.5609L135.546 37.548C135.833 37.5297 135.992 37.4101 135.977 37.2442C135.962 37.0783 135.82 36.9899 135.566 37.0061C135.48 37.0093 135.394 37.0194 135.309 37.0362L135.346 37.5609Z" fill="#6A777A"/>
<path d="M143.452 38.327L143.429 37.965L143.794 37.6784C144.333 37.2646 144.599 37.0211 144.589 36.8013C144.58 36.6451 144.442 36.5406 144.158 36.5578C143.951 36.5796 143.752 36.6538 143.581 36.7733L143.347 36.3585C143.63 36.1862 143.951 36.0877 144.281 36.0719C144.921 36.0321 145.319 36.2799 145.346 36.7055C145.367 37.0513 145.071 37.3519 144.759 37.5793L144.498 37.7624V37.7689L145.455 37.7085L145.486 38.1998L143.452 38.327Z" fill="#6A777A"/>
<path d="M147.45 36.4373H147.441L146.911 36.6635L146.76 36.2229L147.531 35.8996L148.153 35.8598L148.288 38.0146L147.552 38.0609L147.45 36.4373Z" fill="#6A777A"/>
<path d="M151.04 37.8853C150.252 37.9348 149.926 37.408 149.89 36.8402C149.854 36.2562 150.13 35.7024 150.904 35.655C151.709 35.6044 152.019 36.1485 152.054 36.7001C152.094 37.3369 151.781 37.84 151.044 37.8853H151.04ZM151.021 37.436C151.215 37.4241 151.321 37.214 151.292 36.7486C151.263 36.2831 151.136 36.0924 150.932 36.1021C150.729 36.1118 150.623 36.3176 150.652 36.7874C150.681 37.2571 150.817 37.4468 151.016 37.4338L151.021 37.436Z" fill="#6A777A"/>
<path d="M154.199 35.4352C154.496 35.3811 154.796 35.3451 155.098 35.3275C155.505 35.3016 155.752 35.3103 155.977 35.3824C156.202 35.4546 156.378 35.5979 156.392 35.8199C156.404 36.0052 156.284 36.197 155.961 36.3176V36.3241C156.313 36.378 156.537 36.5676 156.553 36.8337C156.555 36.9373 156.529 37.0395 156.478 37.1296C156.427 37.2196 156.352 37.2942 156.262 37.3455C156.059 37.4845 155.708 37.5804 155.098 37.6181C154.847 37.6382 154.595 37.6411 154.344 37.6267L154.199 35.4352ZM155.008 36.2142L155.161 36.2045C155.485 36.184 155.639 36.0849 155.63 35.9416C155.621 35.7983 155.489 35.738 155.231 35.7542C155.147 35.7575 155.064 35.7673 154.981 35.7832L155.008 36.2142ZM155.069 37.1742C155.141 37.1757 155.213 37.1732 155.284 37.1667C155.538 37.1516 155.75 37.0589 155.737 36.8585C155.724 36.6581 155.5 36.6096 155.212 36.6279L155.03 36.6398L155.069 37.1742Z" fill="#6A777A"/>
<path d="M158.693 35.1519C158.997 35.098 159.304 35.0621 159.613 35.0441C160.044 35.0161 160.367 35.0441 160.589 35.1594C160.679 35.2013 160.755 35.2671 160.81 35.3496C160.865 35.4321 160.896 35.5281 160.899 35.627C160.917 35.905 160.662 36.1183 160.446 36.198V36.2088C160.535 36.2376 160.617 36.2868 160.685 36.3524C160.752 36.418 160.803 36.4983 160.835 36.587C160.934 36.8111 161.05 37.1311 161.107 37.214L160.328 37.2625C160.231 37.1039 160.154 36.9343 160.097 36.7572C160.004 36.4965 159.895 36.4469 159.657 36.462L159.534 36.4695L159.587 37.3099L158.833 37.3573L158.693 35.1519ZM159.508 36.0375L159.708 36.0246C159.995 36.0063 160.154 35.8867 160.139 35.7207C160.124 35.5548 159.983 35.4675 159.728 35.4837C159.642 35.4868 159.556 35.4965 159.471 35.5128L159.508 36.0375Z" fill="#6A777A"/>
<defs>
<linearGradient id="paint0_linear" x1="135.32" y1="42.1551" x2="187.136" y2="108.929" gradientUnits="userSpaceOnUse">
<stop/>
<stop offset="0.67" stop-color="#E6E6E6" stop-opacity="0.1"/>
<stop offset="0.7" stop-color="white" stop-opacity="0"/>
<stop offset="1"/>
</linearGradient>
<linearGradient id="paint1_linear" x1="161.027" y1="8.39095" x2="162.331" y2="52.438" gradientUnits="userSpaceOnUse">
<stop stop-color="white" stop-opacity="0"/>
<stop offset="0.83"/>
</linearGradient>
<linearGradient id="paint2_linear" x1="118.398" y1="20.8039" x2="118.913" y2="42.4276" gradientUnits="userSpaceOnUse">
<stop offset="0.4" stop-color="white" stop-opacity="0"/>
<stop offset="0.48" stop-color="#A6A6A6" stop-opacity="0.35"/>
<stop offset="1"/>
</linearGradient>
<linearGradient id="paint3_linear" x1="71325.5" y1="2090.68" x2="71395.4" y2="4709.03" gradientUnits="userSpaceOnUse">
<stop stop-color="white" stop-opacity="0"/>
<stop offset="0.83"/>
</linearGradient>
<linearGradient id="paint4_linear" x1="54.8622" y1="29.308" x2="54.6844" y2="46.9528" gradientUnits="userSpaceOnUse">
<stop offset="0.17" stop-color="white" stop-opacity="0"/>
<stop offset="0.28" stop-color="#A6A6A6" stop-opacity="0.35"/>
<stop offset="1"/>
</linearGradient>
<linearGradient id="paint5_linear" x1="60.5695" y1="30.9585" x2="78.111" y2="50.4609" gradientUnits="userSpaceOnUse">
<stop stop-color="white" stop-opacity="0"/>
<stop offset="0.13" stop-color="#A6A6A6" stop-opacity="0.35"/>
<stop offset="0.96"/>
</linearGradient>
<linearGradient id="paint6_linear" x1="144.024" y1="18.8699" x2="131.391" y2="-2.04498" gradientUnits="userSpaceOnUse">
<stop stop-color="#1DB8FF" stop-opacity="0.3"/>
<stop offset="1" stop-color="#1DB8FF"/>
</linearGradient>
<linearGradient id="paint7_linear" x1="142102" y1="11054.5" x2="139651" y2="-3400.65" gradientUnits="userSpaceOnUse">
<stop stop-color="#1DB8FF" stop-opacity="0.3"/>
<stop offset="1" stop-color="#1DB8FF"/>
</linearGradient>
<linearGradient id="paint8_linear" x1="160.259" y1="31.856" x2="142.518" y2="12.5336" gradientUnits="userSpaceOnUse">
<stop stop-color="white" stop-opacity="0"/>
<stop offset="1" stop-color="white" stop-opacity="0.7"/>
</linearGradient>
</defs>
</svg>
