<svg width="40" height="40" viewBox="0 0 40 40" fill="none" xmlns="http://www.w3.org/2000/svg">
<circle cx="20" cy="20" r="20" fill="#373736"/>
<g clip-path="url(#clip0)">
<path d="M29.7593 14.833C29.6493 14.3936 29.4253 13.991 29.1099 13.6658C28.7945 13.3407 28.3989 13.1045 27.963 12.9812C26.3704 12.5923 20 12.5923 20 12.5923C20 12.5923 13.6297 12.5923 12.0371 13.0182C11.6012 13.1415 11.2056 13.3777 10.8902 13.7028C10.5748 14.028 10.3508 14.4306 10.2408 14.8701C9.94932 16.4863 9.80675 18.1259 9.81486 19.7682C9.80447 21.4229 9.94705 23.075 10.2408 24.7034C10.362 25.1292 10.5911 25.5165 10.9057 25.8279C11.2204 26.1393 11.6101 26.3643 12.0371 26.4812C13.6297 26.9071 20 26.9071 20 26.9071C20 26.9071 26.3704 26.9071 27.963 26.4812C28.3989 26.3579 28.7945 26.1217 29.1099 25.7965C29.4253 25.4714 29.6493 25.0688 29.7593 24.6293C30.0485 23.0252 30.1911 21.3981 30.1852 19.7682C30.1956 18.1135 30.053 16.4614 29.7593 14.833V14.833Z" stroke="white" stroke-width="2" stroke-linecap="round" stroke-linejoin="round"/>
<path d="M17.9167 22.7958L23.2408 19.768L17.9167 16.7402V22.7958Z" stroke="white" stroke-width="2" stroke-linecap="round" stroke-linejoin="round"/>
</g>
<defs>
<clipPath id="clip0">
<rect width="22.2222" height="22.2222" fill="white" transform="translate(8.88892 8.88867)"/>
</clipPath>
</defs>
</svg>
