<svg width="40" height="40" viewBox="0 0 40 40" fill="none" xmlns="http://www.w3.org/2000/svg">
<circle cx="20" cy="20" r="20" fill="#373736"/>
<path d="M19.9972 14.2987C16.8423 14.2987 14.2962 16.8449 14.2962 19.9998C14.2962 23.1547 16.8423 25.7009 19.9972 25.7009C23.1522 25.7009 25.6983 23.1547 25.6983 19.9998C25.6983 16.8449 23.1522 14.2987 19.9972 14.2987ZM19.9972 23.7051C17.957 23.7051 16.292 22.04 16.292 19.9998C16.292 17.9595 17.957 16.2945 19.9972 16.2945C22.0375 16.2945 23.7025 17.9595 23.7025 19.9998C23.7025 22.04 22.0375 23.7051 19.9972 23.7051ZM25.9318 12.7365C25.1952 12.7365 24.6004 13.3314 24.6004 14.068C24.6004 14.8046 25.1952 15.3995 25.9318 15.3995C26.6684 15.3995 27.2633 14.8074 27.2633 14.068C27.2635 13.8931 27.2292 13.7199 27.1624 13.5582C27.0955 13.3966 26.9975 13.2497 26.8738 13.126C26.7501 13.0023 26.6032 12.9043 26.4416 12.8374C26.28 12.7706 26.1067 12.7363 25.9318 12.7365ZM31.1103 19.9998C31.1103 18.4654 31.1242 16.9449 31.038 15.4134C30.9519 13.6344 30.546 12.0555 29.2452 10.7546C27.9415 9.45099 26.3654 9.04794 24.5865 8.96177C23.0521 8.8756 21.5316 8.8895 20 8.8895C18.4657 8.8895 16.9452 8.8756 15.4136 8.96177C13.6346 9.04794 12.0558 9.45377 10.7549 10.7546C9.45123 12.0583 9.04818 13.6344 8.96201 15.4134C8.87584 16.9477 8.88974 18.4682 8.88974 19.9998C8.88974 21.5314 8.87584 23.0546 8.96201 24.5862C9.04818 26.3652 9.45401 27.944 10.7549 29.2449C12.0586 30.5486 13.6346 30.9516 15.4136 31.0378C16.948 31.124 18.4684 31.1101 20 31.1101C21.5344 31.1101 23.0549 31.124 24.5865 31.0378C26.3654 30.9516 27.9443 30.5458 29.2452 29.2449C30.5488 27.9413 30.9519 26.3652 31.038 24.5862C31.127 23.0546 31.1103 21.5342 31.1103 19.9998ZM28.6642 26.5542C28.4613 27.0601 28.2167 27.4381 27.8248 27.8273C27.4328 28.2192 27.0576 28.4638 26.5517 28.6667C25.0896 29.2477 21.6178 29.1171 19.9972 29.1171C18.3767 29.1171 14.9021 29.2477 13.44 28.6695C12.9341 28.4666 12.5561 28.222 12.167 27.8301C11.775 27.4381 11.5304 27.0629 11.3275 26.557C10.7493 25.0921 10.88 21.6203 10.88 19.9998C10.88 18.3792 10.7493 14.9047 11.3275 13.4426C11.5304 12.9367 11.775 12.5586 12.167 12.1695C12.5589 11.7803 12.9341 11.533 13.44 11.33C14.9021 10.7519 18.3767 10.8825 19.9972 10.8825C21.6178 10.8825 25.0924 10.7519 26.5545 11.33C27.0604 11.533 27.4384 11.7776 27.8275 12.1695C28.2195 12.5614 28.4641 12.9367 28.667 13.4426C29.2452 14.9047 29.1145 18.3792 29.1145 19.9998C29.1145 21.6203 29.2452 25.0921 28.6642 26.5542Z" fill="#FFF8F8"/>
</svg>
