<svg width="96" height="13" viewBox="0 0 96 13" fill="none" xmlns="http://www.w3.org/2000/svg">
<path fill-rule="evenodd" clip-rule="evenodd" d="M3.08061 7.44877C3.6519 6.95465 4.13531 6.49583 4.83844 5.86053C5.23396 5.54289 5.67342 5.18995 6.11288 4.90759C6.24472 4.80171 6.4205 4.69583 6.59628 4.58995C7.60704 3.91936 8.39807 3.77818 8.83753 3.98995C9.45277 4.237 9.54066 4.66053 9.36488 5.11936C8.57385 6.91936 4.53082 8.50759 7.34337 11.0488C8.31018 12.0017 9.80434 12.3547 11.3425 12.3547C14.0232 12.3194 16.1326 11.2605 18.0662 9.95465C21.0545 7.97818 21.5819 7.34289 23.2518 5.86053C23.6473 5.54289 24.0868 5.18995 24.4823 4.90759C24.6581 4.76642 24.8339 4.66053 24.9657 4.55465C25.9765 3.88406 26.8114 3.77818 27.2509 3.95465C27.8661 4.237 27.954 4.66053 27.7343 5.08406C26.9433 6.91936 22.9442 8.50759 25.7128 11.0488C26.7235 11.9664 28.2177 12.3547 29.7558 12.3194C32.4365 12.3194 34.5459 11.2605 36.4796 9.91936C39.4679 7.97818 39.9952 7.30759 41.6652 5.86053C42.0607 5.50759 42.5002 5.18995 42.8957 4.8723C43.0714 4.76642 43.2472 4.66053 43.3791 4.55465C44.3898 3.88406 45.1809 3.74289 45.6643 3.95465C46.2795 4.237 46.3674 4.62524 46.1477 5.08406C45.3566 6.91936 41.3576 8.4723 44.1262 11.0488C45.1369 11.9664 46.6311 12.3194 48.1692 12.3194C50.8059 12.2841 52.9154 11.2605 54.849 9.95465C57.9252 7.90759 58.4525 7.2723 60.1664 5.78995C60.562 5.43701 61.0014 5.11936 61.3969 4.83701C61.5727 4.69583 61.7045 4.58995 61.8803 4.48406C62.8911 3.81348 63.6821 3.70759 64.1655 3.88406C64.7808 4.16642 64.8247 4.58995 64.6489 5.01348C63.8579 6.84877 59.8588 8.43701 62.6274 10.9782C63.6382 11.8958 65.0884 12.2841 66.6265 12.2488C69.3072 12.2488 71.4606 11.1899 73.3502 9.88406C76.3386 7.90759 76.9099 7.23701 78.5359 5.78995C78.9753 5.43701 79.3708 5.11936 79.8103 4.80171C79.9421 4.69583 80.1179 4.58995 80.2937 4.48406C81.3045 3.81348 82.0955 3.6723 82.5789 3.88406C83.1941 4.16642 83.2381 4.55465 83.0623 5.01348C82.2713 6.84877 78.2282 8.40171 81.0408 10.9782C82.0076 11.8958 83.5018 12.2488 85.0399 12.2488C87.7206 12.2135 89.8739 11.1899 91.7636 9.84877C93.3896 8.78995 94.3125 8.08406 95.0595 7.44877L92.5107 5.43701C91.7197 6.14289 90.9726 6.84877 89.6102 7.80171C89.2587 8.01348 88.9511 8.22524 88.5995 8.40171C86.534 9.53112 85.9188 8.54289 85.9188 8.54289C84.8201 6.91936 90.9286 4.97818 88.3798 1.94289C87.0174 0.284063 83.8533 0.354652 83.8533 0.354652C83.8533 0.354652 81.5681 0.319358 78.2282 2.36642C77.4372 2.82524 76.778 3.24877 76.2507 3.637C74.0973 5.18995 73.6579 6.10759 71.1969 7.80171C70.8453 8.01348 70.5377 8.22524 70.1861 8.43701C68.1646 9.53112 67.5054 8.57818 67.5054 8.57818C66.4068 6.91936 72.5592 5.01348 70.0103 1.94289C68.6041 0.284063 65.44 0.354652 65.44 0.354652C65.44 0.354652 63.1548 0.319358 59.8149 2.36642C59.0238 2.82524 58.3647 3.28406 57.8373 3.6723C55.7279 5.18995 55.2445 6.10759 52.7835 7.83701C52.4319 8.04877 52.0804 8.26053 51.6849 8.4723C49.6633 9.60171 49.0042 8.64877 49.0042 8.64877C47.9495 6.98995 54.0579 5.04877 51.5091 2.01348C50.1028 0.354652 46.9387 0.42524 46.9387 0.42524C46.9387 0.42524 44.6535 0.389946 41.3136 2.437C40.5665 2.89583 39.9073 3.31936 39.38 3.70759C37.2266 5.26053 36.7872 6.17818 34.2823 7.8723C33.9746 8.08406 33.6231 8.29583 33.2715 8.50759C31.25 9.60171 30.5908 8.64877 30.5908 8.64877C29.5361 6.98995 35.6446 5.08406 33.0957 2.01348C31.7334 0.354652 28.5253 0.42524 28.5253 0.42524C28.5253 0.42524 26.2401 0.389946 22.9002 2.437C22.1532 2.89583 21.494 3.35465 20.9666 3.74289C18.8133 5.26053 18.3738 6.17818 15.8689 7.90759C15.5613 8.11936 15.2097 8.29583 14.8581 8.50759C12.8366 9.60171 12.2214 8.64877 12.2214 8.64877C11.1227 7.02524 17.2312 5.08406 14.6823 2.01348C13.32 0.389946 10.112 0.460534 10.112 0.460534C10.112 0.460534 7.82677 0.42524 4.53082 2.437C3.73979 2.93112 3.08061 3.35465 2.55325 3.74289C1.67433 4.34289 1.10304 4.8723 0.531738 5.40171L3.08061 7.44877Z" fill="#FEFEFE"/>
</svg>
