<svg width="28" height="27" viewBox="0 0 28 27" fill="none" xmlns="http://www.w3.org/2000/svg">
<path d="M25.4844 7.3125C26.39 7.3125 27.125 8.0475 27.125 8.95312V20.4375C27.125 21.3431 26.39 22.0781 25.4844 22.0781H22.2031V27L17.2812 22.0781H9.07812L12.0772 18.7969H22.2031C23.1087 18.7969 23.8438 18.0619 23.8438 17.1562V7.3125H25.4844ZM2.51562 0.75H18.9219C19.8275 0.75 20.5625 1.485 20.5625 2.39062V13.875C20.5625 14.7806 19.8275 15.5156 18.9219 15.5156H10.7188L5.79688 20.4375V15.5156H2.51562C1.61 15.5156 0.875 14.7806 0.875 13.875V2.39062C0.875 1.485 1.61 0.75 2.51562 0.75Z" fill="white"/>
</svg>
