<svg width="80" height="80" viewBox="0 0 80 80" fill="none" xmlns="http://www.w3.org/2000/svg">
<path fill-rule="evenodd" clip-rule="evenodd" d="M40 0C50.9941 0 61.0526 4.44444 68.1871 11.6959C75.4386 18.9474 80 28.8889 80 40C80 50.9941 75.4386 61.0526 68.1871 68.1871C61.0526 75.4386 50.9941 80 40 80C28.8889 80 18.9474 75.4386 11.6959 68.1871C4.44444 61.0526 0 50.9941 0 40C0 28.8889 4.44444 18.9474 11.6959 11.6959C18.9474 4.44444 28.8889 0 40 0ZM64.9123 15.0877C58.4795 8.65497 49.7076 4.67836 40 4.67836C30.2924 4.67836 21.4035 8.65497 15.0877 15.0877C8.65497 21.4035 4.67836 30.2924 4.67836 40C4.67836 49.7076 8.65497 58.4795 15.0877 64.9123C21.4035 71.345 30.2924 75.2047 40 75.2047C49.7076 75.2047 58.4795 71.345 64.9123 64.9123C71.345 58.4795 75.2047 49.7076 75.2047 40C75.2047 30.2924 71.345 21.4035 64.9123 15.0877ZM21.6374 31.462C23.3918 28.1871 25.2632 25.0292 27.0175 21.8713C28.0702 20.2339 29.7076 19.7661 31.462 19.7661C40.3509 19.7661 49.1228 19.7661 57.8947 19.7661C58.8304 20 59.5322 20.3509 59.883 21.2865C60.5848 22.5731 61.2865 23.9766 61.9883 25.2632C62.3392 26.6667 61.8713 27.6023 60.7018 28.1871C56.3743 29.4737 52.0468 30.6433 47.7193 31.9298C46.4327 32.6316 46.5497 33.4503 47.4854 34.152C50.9941 37.5439 54.6199 40.8187 58.2456 44.0936C59.2982 45.3801 59.1813 46.6667 58.3626 47.9532C56.6082 51.5789 54.7368 55.0877 52.9825 58.5965C52.3977 59.5322 51.5789 60.117 50.4094 60.117C41.0526 60.117 31.8129 60.117 22.4561 60.117C21.5205 60.117 20.3509 60.117 19.883 59.1813C19.1813 57.7778 18.5965 56.4912 17.8947 55.0877C17.5439 53.3333 18.1287 52.1637 19.5322 51.5789C23.7427 50.4094 27.8363 49.2398 32.0468 48.0702C33.0994 47.8363 33.2164 47.8363 32.0468 46.7836C28.538 43.1579 24.9123 39.5322 21.4035 35.9064C20.4678 34.8538 20.7018 32.8655 21.6374 31.462ZM30.9942 24.5614C38.5965 24.6784 44.7953 24.6784 52.3977 24.6784C55.2047 24.5614 54.9708 25.3801 53.4503 25.731C50.0585 26.6667 47.8363 27.3684 44.4444 28.1871C43.7427 28.3041 42.1053 28.7719 41.7544 30.0585C41.5205 30.7602 41.1696 31.5789 40.9357 32.2807C40.5848 33.2164 40.5848 34.152 41.1696 35.0877C44.9123 38.5965 48.538 42.1053 52.1637 45.614C52.9825 46.1988 53.3333 47.2515 52.7485 48.4211C51.6959 50.5263 50.7602 52.1637 49.5906 54.152C49.2398 54.9708 48.655 55.4386 48.0702 55.5556C40.7018 55.5556 34.0351 55.6725 26.6667 55.7895C22.6901 55.7895 24.0936 55.0877 26.6667 54.386C30.4094 53.5672 33.2164 52.8655 36.9591 52.0468C37.7778 50.5263 38.5965 48.8889 39.4152 47.3684C39.6491 46.5497 39.5322 45.614 38.8304 44.9123C34.8538 41.2865 30.9942 37.6608 27.0175 34.0351C26.5497 33.3333 26.4327 32.6316 26.7836 31.9298C28.3041 29.4737 29.5906 27.1345 30.9942 24.5614Z" fill="black"/>
</svg>
