<svg width="35" height="35" viewBox="0 0 35 35" fill="none" xmlns="http://www.w3.org/2000/svg">
<rect x="0.5" y="0.5" width="34" height="34" stroke="white"/>
<path d="M17.665 30.165C10.7615 30.165 5.16504 24.5686 5.16504 17.665C5.16504 10.7615 10.7615 5.16504 17.665 5.16504C24.5686 5.16504 30.165 10.7615 30.165 17.665C30.1572 24.5654 24.5654 30.1572 17.665 30.165ZM17.665 5.99837C11.2217 5.99837 5.99837 11.2217 5.99837 17.665C5.99837 24.1084 11.2217 29.3317 17.665 29.3317C24.1084 29.3317 29.3317 24.1084 29.3317 17.665C29.3244 11.2248 24.1053 6.00572 17.665 5.99837Z" fill="white"/>
<path d="M23.1805 18.0327H14.3564C14.1534 18.0327 13.9888 17.8681 13.9888 17.665C13.9888 17.462 14.1534 17.2973 14.3564 17.2973H23.1805C23.3835 17.2973 23.5481 17.462 23.5481 17.665C23.5481 17.8681 23.3835 18.0327 23.1805 18.0327Z" fill="white"/>
<path d="M23.1805 21.7094H14.3564C14.1534 21.7094 13.9888 21.5447 13.9888 21.3417C13.9888 21.1386 14.1534 20.974 14.3564 20.974H23.1805C23.3835 20.974 23.5481 21.1386 23.5481 21.3417C23.5481 21.5447 23.3835 21.7094 23.1805 21.7094Z" fill="white"/>
<path d="M23.1805 14.3561H14.3564C14.1534 14.3561 13.9888 14.1914 13.9888 13.9884C13.9888 13.7853 14.1534 13.6207 14.3564 13.6207H23.1805C23.3835 13.6207 23.5481 13.7853 23.5481 13.9884C23.5481 14.1914 23.3835 14.3561 23.1805 14.3561Z" fill="white"/>
<path d="M12.8857 14.3561H12.1504C11.9473 14.3561 11.7827 14.1914 11.7827 13.9884C11.7827 13.7853 11.9473 13.6207 12.1504 13.6207H12.8857C13.0888 13.6207 13.2534 13.7853 13.2534 13.9884C13.2534 14.1914 13.0888 14.3561 12.8857 14.3561Z" fill="white"/>
<path d="M12.8857 18.0327H12.1504C11.9473 18.0327 11.7827 17.8681 11.7827 17.665C11.7827 17.462 11.9473 17.2973 12.1504 17.2973H12.8857C13.0888 17.2973 13.2534 17.462 13.2534 17.665C13.2534 17.8681 13.0888 18.0327 12.8857 18.0327Z" fill="white"/>
<path d="M12.8857 21.7094H12.1504C11.9473 21.7094 11.7827 21.5447 11.7827 21.3417C11.7827 21.1386 11.9473 20.974 12.1504 20.974H12.8857C13.0888 20.974 13.2534 21.1386 13.2534 21.3417C13.2534 21.5447 13.0888 21.7094 12.8857 21.7094Z" fill="white"/>
</svg>
