<svg width="303" height="90" viewBox="0 0 303 90" fill="none" xmlns="http://www.w3.org/2000/svg">
<path d="M170.583 20.8708C170.299 22.1588 169.77 23.5055 169.132 24.8206L164.091 20.3562C166.259 20.5041 168.422 20.6756 170.583 20.8708ZM151.024 19.8777C148.439 19.8777 147.144 19.8777 144.127 20.122C144.567 21.2209 144.674 22.3548 144.701 23.1519C145.047 23.5832 145.364 23.9649 145.619 24.2452C146.245 24.1546 146.881 24.1493 147.509 24.2295C147.917 24.1169 148.315 23.9784 148.695 23.9784C149.763 23.9784 150.866 24.2216 151.815 24.8082C154.19 25.3994 153.895 26.2956 153.846 27.4081C153.846 27.4081 153.745 27.7459 153.593 28.2165C157.499 28.1433 162.416 28.0217 167.531 27.7402C167.664 27.5195 167.796 27.2943 167.929 27.0646L159.98 20.1085C156.995 19.9632 154.008 19.8777 151.024 19.8777ZM134.111 22.8457C133.71 23.0221 133.316 23.1992 132.927 23.3771C135.051 24.5211 135.651 26.7043 135.818 28.2987L137.184 28.2919C135.857 26.0524 134.86 24.2711 134.111 22.8457ZM123.41 28.3798L125.263 28.3674C125.115 28.0836 124.973 27.8044 124.843 27.5297C124.352 27.8149 123.874 28.0983 123.41 28.3798ZM111.444 28.4563C112.027 28.4563 115.052 28.4383 118.896 28.4113C120.512 27.3371 122.248 26.2956 124.088 25.2901C123.968 24.6612 123.968 24.0151 124.088 23.3861C124.153 23.0955 124.24 22.8104 124.35 22.5338C118.568 23.7419 112.068 25.2034 109.962 25.9443C110.404 26.8113 110.899 27.6502 111.444 28.4563Z" fill="#005EAA"/>
<path d="M65.0941 24.1721L65.1244 24.2092C64.5999 24.6476 64.0753 25.086 63.5508 25.5243C57.1987 27.5409 47.1901 31.3478 41.8677 34.5511C43.9764 32.3645 51.8718 28.5836 57.1818 26.7145C57.3752 26.6458 57.5674 26.5782 57.7607 26.5118C58.66 26.1988 59.5682 25.897 60.4585 25.611C60.6451 25.5491 60.8317 25.4894 61.0205 25.4298C62.4357 24.9726 63.8127 24.5515 65.0941 24.1721Z" fill="#EDEFF2"/>
<path d="M61.4713 23.0191C61.6242 23.5077 61.6242 23.3636 61.7265 23.8737C61.4218 23.9547 61.1734 23.9863 60.7024 24.082C60.5372 24.1169 60.3461 24.1597 60.1157 24.2171C59.5278 24.3623 58.6859 24.5977 57.3932 25.0053L56.7896 25.2012L56.2028 25.4005C56.0904 24.9276 56.1017 25.0953 55.9893 24.6224C57.7057 23.6958 59.5604 23.2713 61.4713 23.0191Z" fill="#383C3D"/>
<path d="M60.6994 24.082C60.7218 24.2103 60.8871 24.8927 61.0175 25.4264C60.8309 25.486 60.6443 25.5457 60.4554 25.6076C60.3183 25.0661 60.1418 24.3545 60.1104 24.2182C60.3464 24.1597 60.5375 24.1169 60.6994 24.082Z" fill="#383C3D"/>
<path d="M57.3932 25.0109C57.4235 25.1854 57.6124 25.9263 57.7607 26.5118C57.5674 26.5782 57.3752 26.6458 57.1818 26.7144C57.0278 26.1301 56.8289 25.3768 56.7896 25.2068L57.3932 25.0109Z" fill="#383C3D"/>
<path d="M63.5511 25.5243C58.739 29.5721 51.8192 36.0013 48.3976 39.3094C47.3601 39.2452 41.7241 35.4249 41.8679 34.5511C47.1904 31.3478 57.199 27.5409 63.5511 25.5243Z" fill="#A9ABB0"/>
<path d="M44.7241 32.0211L38.8599 35.4147C38.8801 35.4271 38.9363 35.4586 38.9577 35.4676C39.0229 35.5025 39.115 35.542 39.1825 35.5712C39.323 35.6253 39.4714 35.6748 39.6074 35.7131L45.3075 32.3634L44.7241 32.0211Z" fill="#4B4B4D"/>
<path d="M44.4464 29.9752C43.8169 29.5969 43.4426 29.3097 42.1983 28.8549C41.9566 28.999 43.5573 28.0521 36.5083 32.2203C37.3626 32.521 37.6919 32.6944 38.7564 33.3463L44.4464 29.9752Z" fill="#4B4B4D"/>
<path d="M49.3774 45.6868L49.5359 47.5154C49.4854 46.9051 49.4336 46.296 49.3774 45.6868Z" fill="#1A171C"/>
<path d="M41.8858 53.7487C39.2117 57.381 38.5698 61.9862 39.1824 66.4821L45.2703 65.4834L39.1813 66.4832C39.4488 67.9774 39.5523 68.5539 39.5882 68.752V68.7588V68.7701V68.7993V68.8162V68.8264V68.8432L45.2996 65.48C44.2542 60.5945 44.1036 55.2698 46.7777 51.0677C44.5655 52.3784 44.0024 52.7826 41.8858 53.7487ZM39.5927 68.7757V68.7892V68.7757Z" fill="#1A171C"/>
<path d="M45.3163 32.3645L39.6162 35.7142C41.7744 38.7385 43.3391 45.3085 43.6887 49.0523L49.3798 45.6868C48.9942 41.5467 47.5566 35.891 45.3197 32.3668L45.3163 32.3645Z" fill="#1A171C"/>
<path d="M44.0958 31.6563C43.1482 31.752 42.6806 31.8522 42.0443 31.9671L44.4487 29.9741L38.716 33.3756L36.3555 35.3326L38.4046 35.0173C38.5266 35.1772 38.6796 35.3108 38.8543 35.4102L44.7185 32.0166L44.0958 31.6563Z" fill="#1A171C"/>
<path d="M39.1892 35.5724C38.5799 35.3224 39.3185 35.6456 39.6141 35.7142C39.4781 35.676 39.3297 35.6264 39.1892 35.5724Z" fill="#1A171C"/>
<path d="M29.0155 51.4619C28.3478 51.5745 28.4243 52.5642 29.1054 52.5642C29.9002 52.5642 29.7979 51.3313 29.0155 51.4619Z" fill="#1A171C"/>
<path d="M28.0825 35.4935C17.404 39.6528 22.9343 40.236 32.354 35.2908C32.6912 35.1174 33.8017 34.5308 33.768 34.1581C33.2206 33.5467 28.848 35.1906 28.0825 35.4935Z" fill="#1A171C"/>
<path d="M42.1704 28.8707L42.1839 28.8628L42.1929 28.8571C27.5486 30.1047 17.3377 36.4585 16.4722 38.6901C21.726 34.1424 29.5821 32.8126 36.5029 32.2226L42.1704 28.8707Z" fill="#1A171C"/>
<path d="M14.0386 53.2319C14.1449 53.7414 14.2877 54.2426 14.4657 54.7316C16.416 54.3409 18.2515 54.0324 20.1209 53.6913C20.1512 53.6845 20.2906 53.6597 20.3209 53.6552C20.9054 53.2048 21.7159 52.5372 21.3146 52.0248L14.0386 53.2319Z" fill="#1A171C"/>
<path d="M19.2113 51.1286C17.4281 51.3021 15.6566 51.58 13.9058 51.9607C13.9058 52.0508 13.9058 52.1408 13.9136 52.2287C16.191 51.9584 18.4766 51.7565 20.7704 51.6229C20.2718 51.3977 19.7485 51.2318 19.2113 51.1286Z" fill="#1A171C"/>
<path d="M49.3778 45.6868L43.6867 49.0523C43.3113 45.027 41.9298 39.0313 39.6288 35.7356C37.2886 36.2986 34.3458 36.7726 31.5109 36.7951C26.7258 38.6496 19.6543 41.3429 14.7894 43.0554L14.7017 43.2806C14.6612 45.5956 15.121 48.5017 15.601 50.748C24.2281 50.2897 35.0472 49.6761 43.6856 49.0489C43.7856 50.2087 43.78 50.1411 44.0003 52.7072L49.6925 49.3405L49.3778 45.6868Z" fill="#646567"/>
<path d="M20.2736 53.6913C20.2894 53.68 20.3062 53.6688 20.322 53.6553L20.123 53.6913C19.2755 53.8456 18.4257 53.9953 17.5781 54.1417C18.0772 54.627 18.5516 55.1652 19.0225 55.6842C22.4318 56.1549 24.7552 58.1332 26.4076 60.9334C27.9633 63.5761 39.1972 66.5542 39.1837 66.4765C39.1837 65.9136 37.8427 59.2355 41.887 53.742C35.5057 53.7532 26.6257 53.7465 20.2736 53.6913Z" fill="#646567"/>
<path d="M31.9122 36.2333C34.3188 36.5024 34.9471 36.0926 38.9285 35.453C38.7241 35.35 38.5452 35.2027 38.4047 35.0218L36.3522 35.3326L38.7588 33.3396C37.6651 32.6764 37.3312 32.5087 36.5107 32.2137C29.582 32.8048 21.7293 34.1357 16.4799 38.6812C15.946 39.9996 15.4593 41.3395 14.9434 42.6682C18.1593 41.2607 23.1782 39.878 31.9122 36.2333ZM27.8577 35.2582C28.9401 34.8191 34.1524 32.8307 34.7987 33.8001C34.8504 34.5996 32.0268 35.8269 31.2905 36.1511C19.3339 41.3564 19.8173 38.5224 27.8577 35.2582Z" fill="#646567"/>
<path d="M20.7669 51.6229C18.4768 51.7557 16.1912 51.9576 13.9102 52.2286C13.9261 52.5657 13.9678 52.9011 14.0349 53.2318L21.3132 52.0248C21.1621 51.8531 20.9757 51.716 20.7669 51.6229Z" fill="#646567"/>
<path d="M22.5069 45.8568C24.2346 45.0844 25.797 44.4494 26.5186 44.1848C26.5288 44.1003 26.5378 44.0147 26.5524 43.9303C24.7629 44.5282 22.9666 45.0867 21.2187 45.7926L20.977 45.787C20.9635 45.7161 20.9523 45.6451 20.9399 45.5742C24.6358 44.0812 33.0337 41.2607 39.515 39.9636C36.3519 40.9837 28.5993 43.5891 23.4264 45.9469C23.1217 45.9097 22.8182 45.8805 22.5069 45.8568Z" fill="#C0000F"/>
<path d="M36.7693 40.1314C36.3131 39.3001 35.991 38.4017 35.8149 37.4696C36.1252 37.3976 36.4242 37.3289 36.7142 37.267C36.9547 38.2432 37.1762 39.0403 37.5887 39.922L36.7693 40.1314ZM34.2222 40.7923C34.1412 40.5232 34.058 40.2541 33.9771 39.985C34.3469 40.1843 34.7179 40.3802 35.1012 40.5638C35.6486 40.4208 36.1769 40.2845 36.6681 40.1584C35.9937 39.833 35.3013 39.5448 34.6448 39.1687C35.0247 38.6114 35.3766 38.0371 35.761 37.4798C35.3758 37.5698 34.9742 37.6674 34.556 37.7725C34.2626 38.1756 33.994 38.5967 33.6983 39.0021C33.6129 38.6857 33.5354 38.3693 33.4735 38.0518C33.1416 38.1381 32.8017 38.2289 32.454 38.3242C32.6856 39.2385 32.9452 40.1517 33.2274 41.0524C33.5556 40.9669 33.8906 40.8779 34.2222 40.7923ZM31.2119 41.7449C33.3825 41.3891 32.8126 40.4365 32.1303 38.4796C31.8571 38.5551 31.5806 38.6316 31.2985 38.7116C31.7031 40.0751 32.0932 40.8408 31.3086 40.9714C30.7027 41.0704 30.3554 39.8612 30.1845 39.0302C29.8683 39.1218 29.5472 39.2156 29.2212 39.3117C29.7877 40.8295 29.5629 42.0162 31.2119 41.7449ZM21.8923 46.9885C22.8849 46.8612 23.8032 46.7633 24.453 46.6935C28.1623 44.7366 35.2765 42.1311 38.9938 40.8486C34.3694 41.7618 27.5958 43.9653 21.8923 46.9885ZM27.9623 40.4985C27.5576 41.1583 27.1417 41.8496 26.7123 42.5094C26.7573 42.6637 26.8011 42.8157 26.845 42.9699C27.3429 42.7729 28.3905 42.4542 29.6855 42.0872C29.6015 41.8462 29.521 41.6026 29.4438 41.3564C28.9784 41.469 28.5153 41.5918 28.0578 41.7415C28.3276 41.3294 28.6704 40.8329 29.1302 40.2136C29.0594 39.9017 29.0178 39.6506 28.9784 39.3826C28.0589 39.654 27.099 39.9456 26.1076 40.2541C26.1683 40.5191 26.2331 40.7818 26.302 41.0423C26.8521 40.8539 27.4047 40.6726 27.96 40.4985H27.9623ZM24.8981 43.7547C26.9214 43.4237 26.5448 42.3248 25.7816 40.3555L24.9093 40.6313C25.1993 41.4195 25.7726 42.7875 24.9419 42.9238C24.2787 43.0364 24.0011 41.7978 23.855 40.9669L22.8793 41.2821C23.3435 43.2368 23.6493 43.9596 24.8981 43.7547ZM26.519 44.1848C26.5291 44.1004 26.5381 44.0148 26.5527 43.9304C24.3226 44.6758 21.9564 45.3941 19.7701 46.4176C19.7285 46.6766 19.6959 46.9389 19.6577 47.199C22.0227 46.0179 25.1285 44.6926 26.519 44.1848ZM20.8987 43.5926C21.1718 43.5475 21.4551 43.4563 21.6608 43.4226C22.9591 43.2053 22.125 44.4359 21.4821 43.7209C21.2449 43.8009 20.603 44.0216 20.3029 44.1218C20.8402 45.5405 23.6256 44.4832 23.4334 43.301C23.2412 42.1187 21.7305 42.738 21.5225 42.774C20.7829 42.8956 21.155 42.0658 21.8508 42.4633C22.1824 42.3428 22.5252 42.2516 22.8759 42.1615C22.4971 41.8079 21.9328 41.7111 21.4079 41.7967C19.7589 42.0647 19.5903 43.8155 20.8931 43.5926H20.8987Z" fill="white"/>
<path d="M43.6867 49.0534C35.037 49.6806 24.2112 50.292 15.6021 50.7525C15.6627 51.0362 15.7257 51.3155 15.7898 51.5936C16.8475 51.4055 18.0525 51.2366 19.2114 51.1285C22.0969 51.7388 21.8226 52.5045 20.3231 53.6552C20.3074 53.6687 20.2905 53.68 20.2748 53.6912C26.6324 53.7464 35.5193 53.752 41.887 53.7486C42.5997 53.4232 43.3034 53.0731 44.0025 52.7116C43.7721 50.0442 43.762 49.9238 43.6867 49.0534ZM29.1054 52.5641C28.4242 52.5641 28.3478 51.5699 29.0154 51.4618C29.7978 51.3312 29.9001 52.5641 29.1054 52.5641Z" fill="#929395"/>
<path d="M31.2907 36.1511C32.0202 35.8336 34.8506 34.6018 34.7989 33.8001C34.1536 32.8307 28.9403 34.8135 27.8578 35.2582C19.6218 38.6012 19.6005 41.2427 31.2907 36.1511ZM28.2984 35.4102C30.8759 34.4194 33.3825 33.7269 33.7703 34.1582C33.8041 34.532 32.689 35.1175 32.3563 35.2909C22.8895 40.2598 17.3108 39.5954 28.2984 35.4102Z" fill="#929395"/>
<path d="M31.5106 36.7951C34.35 36.7726 37.2883 36.2975 39.6286 35.7356C39.6286 35.7277 39.6184 35.721 39.6139 35.7142C39.386 35.6631 39.1662 35.5805 38.9609 35.4688L38.9316 35.4541C34.9693 36.0903 34.323 36.5035 31.9153 36.2344C23.1768 39.8814 18.1635 41.2607 14.942 42.676C14.8925 42.8033 14.8442 42.9305 14.7925 43.0566C19.654 41.3429 26.7244 38.6496 31.5106 36.7951Z" fill="#929395"/>
<path d="M302.27 53.8579C302.439 54.1957 302.416 54.6461 302.351 55.0661C284.458 61.609 262.018 61.9839 224.109 61.9839C210.268 61.9839 149.553 60.9357 137.788 60.7949C97.5582 60.3141 56.104 65.5082 2.30994 70.2068L1.22185 70.3014C0.791074 69.8745 0.383216 69.425 0 68.9547C54.9204 64.2043 96.9838 58.8549 137.788 59.3424C149.553 59.4832 210.268 60.5315 224.109 60.5315C261.85 60.5315 284.417 60.3153 302.27 53.8579Z" fill="#383C3D"/>
<path d="M301.991 53.5955L302.27 53.859C284.417 60.3164 261.85 60.5326 224.109 60.5326C210.268 60.5326 149.553 59.4843 137.788 59.3436C96.9838 58.8549 54.9204 64.2043 0 68.9547L2.79666 65.6354C2.54487 66.4315 2.3268 67.2557 2.13571 68.1632C53.9953 63.6391 94.3794 58.4372 133.239 58.4732C133.333 58.4732 133.426 58.4732 133.519 58.4732C134.977 58.4732 136.432 58.4826 137.886 58.5013C149.65 58.6432 210.5 59.7027 224.344 59.7027C261.902 59.7027 282.766 59.7027 301.991 53.5944V53.5955Z" fill="#EDEDED"/>
<path d="M302.351 55.066C302.32 55.2575 302.281 55.4399 302.247 55.5964C301.237 55.9905 300.213 56.3658 299.174 56.7223C281.614 62.7034 259.607 63.057 224.109 63.057C210.268 63.057 149.553 62.0098 137.788 61.8691C97.8315 61.3917 56.6673 66.5114 3.40714 71.1841C3.03245 70.8553 2.66676 70.5311 2.31006 70.2113C56.1041 65.5127 97.5583 60.3186 137.788 60.7994C149.553 60.9402 210.268 61.9884 224.109 61.9884C262.018 61.9839 284.458 61.609 302.351 55.066Z" fill="#D9DBDE"/>
<path d="M290.212 61.3106C292.809 60.4402 295.282 59.2433 297.699 57.9237C288.528 65.5464 289.12 67.6283 272.374 76.7565C254.726 86.3766 195.825 89.4449 193.924 89.4449C182.768 89.4449 180.896 90 149.464 90L125.192 89.1138C96.3912 87.6298 53.5601 84.7609 25.2742 84.2992C23.6548 84.273 22.0845 84.255 20.5633 84.2452C16.8876 81.6825 12.7601 78.6942 8.99561 75.7589C10.1365 75.6553 11.2774 75.5337 12.415 75.5337C37.1364 75.5337 61.2261 77.6111 85.1416 83.3703C119.397 66.5373 250.734 74.5316 290.212 61.3106Z" fill="#DADADA"/>
<path d="M295.119 47.6685L290.216 46.6146C290.225 46.5459 290.237 46.4547 290.26 46.3196C288.574 45.7161 286.865 45.2657 285.069 45.2353C258.204 38.8331 234.149 34.0737 206.767 29.4776C206.671 26.9667 206.363 21.8886 205.571 21.1342C228.801 22.8963 266.902 32.0763 289.3 43.4282C289.895 43.7862 290.36 44.0891 290.693 44.3289C292.063 45.3074 293.56 46.4311 295.119 47.6685ZM252.953 31.3568C252.857 31.5614 252.776 31.7724 252.71 31.9884C253.32 32.8892 254.198 34.3743 255.839 37.6959C257.248 37.9639 268.991 40.5029 273.428 41.621C273.495 41.4465 273.563 41.2742 273.633 41.1019C272.57 39.2846 271.335 37.8175 269.674 36.5373C265.046 34.961 253.937 31.672 252.959 31.341L252.953 31.3568ZM253.515 37.3075L253.724 36.5767C252.923 34.3417 252.216 32.9905 250.44 30.6835C240.589 28.1489 233.524 26.5726 225.359 25.0616L224.774 25.6482L228.266 31.9772L228.709 32.0706L253.515 37.3075Z" fill="#EDEDED"/>
<path d="M290.26 46.314C290.236 46.4491 290.225 46.5392 290.216 46.609C290.2 46.8071 290.161 47.0026 290.098 47.1911C289.789 47.1247 289.555 47.0358 289.087 46.9074C288.925 46.8635 288.735 46.814 288.503 46.7588C287.914 46.6192 287.059 46.4435 285.72 46.2194L285.093 46.117L284.482 46.0213C284.584 45.6171 284.548 45.6711 284.607 45.3998C284.617 45.3536 284.631 45.2984 284.648 45.2297C284.786 45.2297 284.925 45.2297 285.064 45.2297C286.865 45.2635 288.575 45.7139 290.26 46.314Z" fill="#383C3D"/>
<path d="M289.091 46.9074C289.034 47.0943 288.693 48.5344 288.618 48.8496L288.041 48.7899V48.755C288.095 48.4904 288.451 46.9637 288.503 46.7587C288.739 46.8139 288.929 46.8634 289.091 46.9074Z" fill="#383C3D"/>
<path d="M285.724 46.2194C285.643 46.4818 285.275 48.1549 285.199 48.4342C285.003 48.4079 284.804 48.3801 284.603 48.3508V48.3272C284.665 48.0637 285.029 46.3793 285.094 46.1169L285.724 46.2194Z" fill="#383C3D"/>
<path d="M285.068 45.2297C284.93 45.2297 284.791 45.2297 284.652 45.2297C284.636 45.2984 284.622 45.3535 284.612 45.3997C257.866 39.6404 234.142 34.7392 208.233 31.3376L206.772 29.4719C234.153 34.0681 258.197 38.8275 285.068 45.2297Z" fill="#EDEDED"/>
<path d="M284.786 39.2745C284.603 39.7035 284.688 39.6044 284.457 40.0154C284.198 39.8904 284.007 39.7621 283.627 39.5504C283.493 39.4772 283.336 39.3928 283.144 39.2959C282.653 39.046 281.933 38.7093 280.799 38.2263C280.632 38.1553 280.454 38.0799 280.267 38.0011L279.748 37.7849C279.953 37.3942 279.86 37.5147 280.062 37.1217C281.793 37.5057 283.32 38.3141 284.786 39.2745Z" fill="#383C3D"/>
<path d="M283.627 39.5503C283.549 39.6832 283.35 39.9906 283.225 40.209L282.747 39.9838C282.87 39.7586 283.069 39.4423 283.144 39.2993C283.336 39.3927 283.493 39.4772 283.627 39.5503Z" fill="#383C3D"/>
<path d="M283.225 40.2091C285.898 41.4971 287.938 42.6006 289.295 43.4192C266.897 32.0706 228.796 22.8907 205.566 21.1252C204.912 20.6039 204.501 20.2841 204.007 19.8867C239.008 22.965 265.703 32.2936 279.895 38.6631L280.398 38.8883C281.222 39.2636 282.003 39.6266 282.742 39.9771L283.225 40.2091Z" fill="#DADADA"/>
<path d="M280.799 38.2262C280.693 38.4053 280.526 38.6766 280.403 38.8917L279.901 38.6665C280.013 38.4537 280.174 38.1835 280.267 38.0056C280.453 38.0799 280.632 38.1553 280.799 38.2262Z" fill="#383C3D"/>
<path d="M273.633 41.0975C273.563 41.2697 273.495 41.442 273.429 41.6165C268.995 40.4984 257.242 37.9594 255.839 37.6914C254.198 34.3699 253.32 32.8858 252.71 31.984C252.776 31.768 252.857 31.5569 252.953 31.3523C253.837 32.4726 255.012 34.1807 256.498 37.089C259.299 37.5788 264.426 38.5179 273.633 41.0975Z" fill="#A7A8AA"/>
<path d="M269.674 36.5373C271.335 37.8175 272.57 39.2846 273.633 41.1019C264.426 38.5122 259.299 37.5788 256.498 37.0935C255.012 34.1852 253.837 32.4771 252.953 31.3568L252.959 31.341C253.935 31.672 265.046 34.9587 269.674 36.5373Z" fill="#DADADA"/>
<path style="mix-blend-mode:multiply" opacity="0.17" d="M186 37.3818C241.721 38.2105 270.737 42.2391 282.69 47.0954C254.061 41.6176 225.88 39.9039 186 37.3818Z" fill="url(#paint0_linear)"/>
<path d="M253.719 36.5767L253.51 37.3075L228.708 32.0718L228.852 31.3928L253.719 36.5767Z" fill="#A7A8AA"/>
<path d="M253.719 36.5767L228.852 31.3973L225.359 25.066C233.525 26.5726 240.589 28.1489 250.441 30.6834C252.217 32.9905 252.924 34.3417 253.719 36.5767ZM231.146 31.1271L252.811 35.7345C252.197 34.2707 251.583 32.8565 250.008 30.9548C241.447 28.7029 234.84 27.2391 228.037 25.9049L231.146 31.1271Z" fill="#DADADA"/>
<path d="M252.811 35.7345L231.146 31.1271L228.037 25.9049C234.839 27.2414 241.447 28.704 250.008 30.9548C251.582 32.8565 252.197 34.2674 252.811 35.7345Z" fill="#929395"/>
<path d="M225.359 25.0616L228.851 31.3928L228.708 32.0718L228.266 31.9783L224.773 25.6482L225.359 25.0616Z" fill="#A7A8AA"/>
<path d="M208.233 31.4142C208.446 33.7787 208.492 36.1004 208.255 37.7578C206.139 35.5555 203.871 33.2169 202.162 31.5336C204.227 30.4448 204.635 25.7743 204.143 22.2129C204.001 21.2322 203.715 20.2777 203.296 19.38C203.568 19.6052 203.798 19.7921 204.011 19.9643C204.506 20.3641 204.91 20.6838 205.57 21.2029C206.357 21.9584 206.67 27.0365 206.766 29.5462L208.228 31.412L208.233 31.4142Z" fill="#EDEDED"/>
<path d="M193.889 17.4524L194.002 17.4614C194.002 17.4828 194.002 17.5042 194.002 17.5278L193.889 17.4524Z" fill="#363636"/>
<path d="M193.173 16.9625L193.463 17.1596L193.146 17.1337C193.155 17.074 193.164 17.0166 193.173 16.9625Z" fill="#363636"/>
<path d="M202.276 23.1407L193.999 17.5233C193.999 17.4996 193.999 17.4782 193.999 17.4569L199.777 17.8577L202.018 19.4532C202.258 20.6667 202.344 21.9056 202.276 23.1407ZM193.058 18.1122L191.958 17.3578L190.666 17.297L190.42 18.415C187.852 18.3024 186.814 18.0964 185.397 18.0581L182.645 23.6091C185.031 23.6091 190.721 24.3601 190.721 24.3601C190.721 24.3601 191.57 30.0259 191.664 30.4403C192.406 30.3761 193.126 30.2984 193.822 30.2094C194.152 30.1674 194.476 30.1224 194.793 30.0743C197.715 29.6296 199.986 28.9427 200.842 28.0037C201.236 27.5486 201.526 27.0135 201.693 26.4352C201.843 26.049 202.007 25.5142 202.163 24.35L193.934 18.71L193.058 18.1122Z" fill="#D9DBDE"/>
<path d="M182.557 23.6789C184.944 23.6203 190.65 24.2284 190.65 24.2284C190.65 24.2284 191.853 30.9244 191.959 31.3377C189.598 31.6023 186.809 30.6925 184.315 30.7127L179.119 30.7195L182.557 23.6789Z" fill="#929395"/>
<path d="M147.039 89.9808L45.9415 89.1578C45.4065 88.7974 44.8175 88.3977 44.1768 87.9518L141.933 89.8513C143.8 89.9144 145.508 89.9572 147.039 89.9808Z" fill="#A9ABB0"/>
<path d="M44.1757 87.9519L35.5654 87.7841C35.2282 87.1333 34.9134 86.4701 34.6392 85.8069L125.191 89.1139C131.56 89.4416 137.244 89.7016 141.932 89.8537L44.1757 87.9519Z" fill="#A9ABB0"/>
<path d="M153.845 27.4081C153.845 27.4081 153.744 27.7458 153.592 28.2165C153.328 29.0452 152.911 30.2939 152.611 30.8963L150.968 30.9075C150.443 30.4571 149.443 30.152 148.281 29.9471C147.411 29.5056 146.447 29.2812 145.471 29.2929C145.066 29.2929 144.64 29.4539 144.203 29.5631C143.139 29.5237 142.242 29.5237 141.776 29.5237C141.188 28.8178 140.681 28.1726 140.176 27.4891C140.049 27.318 139.886 27.0939 139.697 26.8316C139.66 25.4466 139.39 22.9369 137.449 21.4371C138.928 20.8403 140.473 20.2548 142.084 19.6806C142.592 19.5005 143.108 19.3214 143.63 19.1435C143.694 19.246 143.756 19.3496 143.813 19.4543C143.93 19.6703 144.034 19.8933 144.124 20.122C144.564 21.2209 144.672 22.3548 144.699 23.1519C145.044 23.5832 145.361 23.9649 145.616 24.2452C146.243 24.1546 146.879 24.1493 147.507 24.2295C147.915 24.1169 148.313 23.9784 148.693 23.9784C149.76 23.9784 150.863 24.2216 151.812 24.8082C154.189 25.3993 153.895 26.2956 153.845 27.4081ZM142.057 17.5649C141.527 17.2365 140.947 16.9955 140.34 16.8511C140.127 16.4615 139.923 16.0712 139.729 15.6801C139.594 15.4076 139.463 15.1344 139.336 14.8604C139.082 14.3109 138.844 13.7569 138.619 13.194L138.457 12.7762C138.28 12.345 137.69 11.853 137.029 11.7629C136.484 12.1907 135.974 12.6606 135.502 13.1681C134.953 13.7547 134.49 14.3413 134.368 14.6971C134.351 14.7467 134.334 14.7962 134.318 14.8458C134.241 15.0991 134.187 15.3592 134.159 15.6227C134.124 15.9656 134.124 16.3111 134.159 16.654L134.35 17.7552C134.563 18.5639 134.858 19.349 135.229 20.0983C137.095 19.3496 139.011 18.6346 140.961 17.9455C141.325 17.8164 141.69 17.6895 142.057 17.5649Z" fill="#2972B7"/>
<path d="M150.968 30.9075L138.805 30.9897C138.216 30.0236 137.676 29.1229 137.183 28.2874C135.857 26.0479 134.86 24.2666 134.11 22.8412C134.813 22.5319 135.532 22.2238 136.267 21.9167C136.656 21.7546 137.054 21.5925 137.451 21.4326C139.39 22.9324 139.66 25.4421 139.699 26.827C139.888 27.0894 140.051 27.3135 140.178 27.4846C140.684 28.1669 141.19 28.8132 141.779 29.5192C142.244 29.5192 143.141 29.5192 144.205 29.5586C144.643 29.446 145.069 29.2884 145.473 29.2884C146.449 29.2766 147.413 29.5011 148.284 29.9426C149.444 30.152 150.443 30.456 150.968 30.9075ZM134.346 17.7541L134.155 16.6529C134.121 16.31 134.121 15.9644 134.155 15.6215C134.184 15.3581 134.237 15.0979 134.315 14.8446C134.331 14.7951 134.347 14.7455 134.364 14.696C134.491 14.3402 134.95 13.7535 135.498 13.1669C135.97 12.6594 136.481 12.1896 137.026 11.7617C136.75 11.7246 136.221 11.5782 135.632 11.8304C134.872 12.1536 134.172 12.6015 133.559 13.1557C133.02 13.6318 132.575 14.2046 132.245 14.8446C132.124 15.0868 132.029 15.3412 131.961 15.6035C131.875 15.9301 131.844 16.2688 131.87 16.6056C131.907 17.074 131.611 17.4906 132.739 20.0533C132.86 20.328 132.997 20.6264 133.153 20.954C133.835 20.6658 134.525 20.3817 135.222 20.1017C134.852 19.3508 134.558 18.5642 134.346 17.7541Z" fill="#003D73"/>
<path d="M137.501 30.9976L131.015 31.0415C130.653 30.0405 130.03 29.0474 128.962 28.3392C128.616 28.1099 128.244 27.9211 127.855 27.7762C127.581 27.2673 127.317 26.7539 127.087 26.2674C128.745 25.3723 130.54 24.4659 132.474 23.5775L132.923 23.3704C135.048 24.5143 135.647 26.6976 135.814 28.2919C135.832 28.4574 135.846 28.6173 135.855 28.7693C135.741 28.6139 135.629 28.4552 135.518 28.293C135.632 28.4552 135.745 28.6139 135.855 28.7693C136.365 29.4821 136.913 30.1669 137.496 30.8208L137.501 30.9976ZM131.19 21.1556C131.078 20.9079 130.965 20.6624 130.837 20.4226C130.611 19.9744 130.331 19.5561 130.002 19.1773C129.718 18.8587 129.275 18.7438 128.857 18.6999C127.94 19.4464 126.767 20.6962 126.459 21.3571C126.442 21.3932 126.429 21.427 126.416 21.4585C126.338 21.68 126.28 21.9079 126.242 22.1397C126.175 22.5612 126.162 22.9895 126.204 23.4143L126.324 24.109C127.963 23.2743 129.666 22.4681 131.434 21.6904C131.352 21.5137 131.272 21.3335 131.19 21.1556Z" fill="#2972B7"/>
<path d="M190.666 17.2969L190.42 18.415C187.852 18.3024 186.814 18.0964 185.397 18.0581L179.12 30.7195L175.817 30.7409L169.132 24.8206C169.77 23.5055 170.298 22.1588 170.583 20.8707L169.364 20.3145C167.403 20.1276 165.439 19.9587 163.472 19.8078L159.209 16.0325C166.923 16.2239 181.296 16.8623 190.666 17.2969ZM167.928 27.0691C167.795 27.2943 167.662 27.5195 167.53 27.7447C162.415 28.0262 157.499 28.1478 153.591 28.221C153.327 29.0497 152.91 30.2984 152.61 30.9007L172.151 30.7701L167.928 27.0691ZM143.632 19.1412C143.696 19.2437 143.758 19.3473 143.815 19.452C146.056 19.309 147.965 19.2471 149.806 19.2471C152.974 19.2471 156.146 19.3518 159.315 19.5297L155.056 15.8028C150.945 16.8207 147.139 17.9466 143.632 19.1412ZM139.729 15.6767C139.924 16.067 140.128 16.4573 140.34 16.8477C140.947 16.9921 141.527 17.2331 142.057 17.5615C143.872 16.94 145.712 16.3462 147.579 15.7803C145.715 15.7476 142.777 15.7116 139.729 15.6789V15.6767ZM138.806 30.9897L137.5 30.9976V30.8276C136.917 30.1737 136.369 29.4888 135.859 28.7761C135.85 28.6241 135.837 28.4642 135.819 28.2987L137.185 28.2919C137.676 29.1266 138.217 30.0259 138.806 30.9897ZM84.7664 26.2438C87.8497 24.6956 91.1375 23.6192 94.4659 22.7004C94.7975 22.1705 95.0898 21.6169 95.3404 21.0441C95.4697 20.757 95.5944 20.4631 95.7181 20.1636C91.6875 21.084 87.8292 22.6423 84.2886 24.78C84.3044 24.9242 84.3269 25.066 84.3561 25.2068C84.426 25.575 84.5653 25.9266 84.7664 26.2427V26.2438ZM132.742 20.051L132.595 20.0724C132.097 20.167 131.505 20.2863 130.837 20.4237C130.611 19.9755 130.331 19.5572 130.002 19.1784C129.718 18.8598 129.275 18.7449 128.856 18.701C127.351 18.8857 126.692 19.3034 126.179 19.827C125.606 20.3988 125.114 21.0471 124.718 21.7535C119.068 23.0247 112.606 24.5988 110.423 25.4218L109.959 25.9488C110.402 26.8159 110.899 27.6548 111.445 28.4608C112.028 28.4608 115.053 28.4428 118.897 28.4158C117.064 29.6219 115.317 30.9541 113.668 32.4028C108.692 32.6133 101.882 33.12 94.4692 33.9656C93.325 31.7238 90.8239 31.2115 87.146 31.2115C85.2299 31.223 83.3181 31.3936 81.4302 31.7216L81.3076 31.743C80.1074 28.7608 78.7521 25.8436 77.2475 23.0033L77.2262 22.9627C76.4809 21.5823 75.3254 20.3956 73.8057 20.3956V19.9384C77.3037 19.9328 83.3152 20.185 86.1894 20.319C95.2078 18.0232 108.725 15.2004 125.675 14.8626C112.123 16.3905 97.9448 21.2355 87.3551 28.2232C100.836 21.6026 114.054 16.7126 128.591 15.5641C129.324 15.5742 130.513 15.5855 131.963 15.6001C131.877 15.9267 131.846 16.2654 131.872 16.6022C131.911 17.0706 131.615 17.4872 132.742 20.0499V20.051ZM126.762 31.0764L119.238 31.1271C120.474 30.2432 121.865 29.3255 123.409 28.3854L125.263 28.373C125.802 29.4032 126.413 30.4526 126.762 31.0764Z" fill="#A8A8A7"/>
<path d="M131.015 31.0415L129.792 31.0494L126.757 31.0708C126.407 30.4526 125.797 29.4033 125.257 28.3685C125.109 28.0848 124.967 27.8055 124.837 27.5308C125.555 27.1142 126.304 26.6957 127.085 26.2753C127.31 26.7618 127.579 27.2752 127.853 27.7841C128.242 27.9289 128.614 28.1178 128.96 28.3471C130.03 29.0497 130.653 30.0405 131.015 31.0415ZM126.204 23.4199C126.162 22.9952 126.175 22.5668 126.242 22.1453C126.28 21.9136 126.338 21.6856 126.416 21.4641C126.429 21.4326 126.442 21.3988 126.459 21.3628C126.767 20.7019 127.94 19.4487 128.857 18.7055C127.351 18.8902 126.692 19.3079 126.179 19.8315C125.606 20.4034 125.114 21.0516 124.718 21.758C124.577 22.0124 124.453 22.2757 124.347 22.5462C124.238 22.823 124.151 23.108 124.086 23.3985C123.966 24.0275 123.966 24.6735 124.086 25.3025C124.817 24.9039 125.562 24.511 126.322 24.1236L126.204 23.4199Z" fill="#003D73"/>
<path d="M34.6401 85.8069L25.7117 85.4804C25.5498 85.0931 25.4041 84.6993 25.2744 84.2993C53.5602 84.7609 96.3914 87.6298 125.192 89.1139L34.6401 85.8069Z" fill="#A9ABB0"/>
<path d="M169.364 20.3145L170.583 20.8707C168.422 20.6785 166.259 20.507 164.091 20.3561L163.472 19.8078C165.438 19.9557 167.403 20.1246 169.364 20.3145ZM149.806 19.2493C147.966 19.2493 146.056 19.3113 143.816 19.4543C143.933 19.6703 144.037 19.8933 144.127 20.1219C147.144 19.872 148.442 19.8776 151.024 19.8776C154.007 19.8776 156.995 19.9632 159.978 20.1129L159.315 19.5319C156.147 19.354 152.974 19.2538 149.806 19.2538V19.2493ZM131.19 21.1556C131.078 20.9079 130.965 20.6624 130.837 20.4226C131.505 20.2852 132.097 20.1659 132.595 20.0713L132.743 20.0499C132.864 20.3246 133.001 20.623 133.156 20.9507C132.576 21.1946 132.002 21.4423 131.434 21.6938C131.352 21.5136 131.272 21.3335 131.19 21.1556ZM124.717 21.749C124.576 22.0032 124.453 22.2665 124.347 22.5371C118.565 23.7453 112.064 25.2068 109.959 25.9476L110.423 25.4207C112.605 24.5942 119.067 23.0202 124.717 21.749Z" fill="#8FAED9"/>
<path d="M204.143 22.1363C204 21.1556 203.715 20.2011 203.296 19.3034C202.726 18.075 201.889 16.9062 200.776 16.0325C200.175 15.983 199.4 15.9199 198.519 15.8569L181.005 3.22249C181.031 3.05134 181.044 2.95451 181.044 2.95451L181.157 2.1168C179.768 1.16874 178.804 0.561853 178.529 0.507807C176.917 0.185783 174.398 0 170.575 0C157.665 0 137.135 5.292 126.561 14.097C126.256 14.3492 125.961 14.6044 125.675 14.8626C126.716 14.8484 127.775 14.8405 128.852 14.839H129.69H132.249C132.578 14.199 133.024 13.6262 133.563 13.1501L131.877 13.1422C133.892 11.7614 136.024 10.5599 138.248 9.55149C141.826 7.95716 145.512 6.61917 149.279 5.54759C153.14 4.42326 157.07 3.55514 161.044 2.94888L170.711 10.3802C165.871 11.1841 160.89 12.2189 155.943 13.4608C150.705 13.328 144.108 13.2356 138.615 13.1883C138.84 13.7513 139.079 14.3053 139.333 14.8548C143.33 14.8705 147.515 14.8998 150.38 14.9527C149.442 15.2207 148.507 15.4958 147.575 15.778C145.711 16.3463 143.872 16.9419 142.057 17.5649C141.691 17.691 141.325 17.8179 140.96 17.9455C139.008 18.6312 137.091 19.3496 135.228 20.0983C134.531 20.3783 133.841 20.6624 133.158 20.9507C132.578 21.1946 132.004 21.4424 131.436 21.6938C129.671 22.4715 127.968 23.2777 126.326 24.1124C125.566 24.4997 124.821 24.8927 124.09 25.2912C122.25 26.2967 120.514 27.3382 118.898 28.4124C117.065 29.6186 115.318 30.9508 113.669 32.3994C113.279 32.7462 112.902 33.0956 112.54 33.4477C115.44 33.325 118.091 33.2833 120.438 33.3216C131.408 33.5017 165.476 33.4004 172.797 33.4004C189.538 33.4004 198.44 33.4375 202.164 31.4581C204.227 30.3671 204.64 25.6977 204.143 22.1363ZM180.832 4.36196L196.793 15.7285C194.851 15.5878 192.655 15.4324 190.723 15.2973L180.187 8.14405C180.441 6.7974 180.673 5.37645 180.832 4.36196ZM179.287 11.7572L179.636 10.6392C179.748 10.2034 179.868 9.69337 179.983 9.14953L188.745 15.1543C185.86 14.9448 180.923 14.5913 180.109 14.5372L176.849 12.005C177.654 11.9179 178.467 11.8353 179.287 11.7572ZM164.636 2.4985C166.573 2.2956 168.519 2.19038 170.467 2.18323C173.076 2.1698 175.682 2.34326 178.267 2.7023C177.968 4.98574 177.575 7.24891 176.95 9.46367C176.006 9.58527 175.053 9.71588 174.092 9.8555L164.636 2.4985ZM173.359 12.4182L175.763 14.2659C172.061 14.0531 168.355 13.8808 164.741 13.7434C167.501 13.2458 170.374 12.804 173.359 12.4182ZM132.414 23.4773L132.152 23.0269C132.398 23.1143 132.637 23.2189 132.868 23.34C132.637 23.2189 132.398 23.1143 132.152 23.0269L132.414 23.4773ZM152.616 30.8963L150.972 30.9075L138.81 30.9897L137.505 30.9976L131.019 31.0415L129.796 31.0494L126.761 31.0708L119.237 31.1215C120.473 30.2376 121.864 29.3199 123.408 28.3797C123.871 28.0983 124.349 27.8149 124.841 27.5296C125.559 27.113 126.309 26.6946 127.089 26.2742C128.747 25.3791 130.542 24.4727 132.476 23.5843L132.925 23.3771C133.314 23.1992 133.709 23.0221 134.109 22.8457C134.812 22.5364 135.531 22.2283 136.266 21.9213C136.655 21.7591 137.053 21.597 137.45 21.4371C138.929 20.8403 140.474 20.2548 142.085 19.6806C142.594 19.5005 143.109 19.3214 143.631 19.1435C147.138 17.9466 150.944 16.8207 155.055 15.8051L159.314 19.532L159.977 20.113L167.926 27.0691L172.151 30.7656L152.616 30.8963ZM201.698 26.4363C201.531 27.0146 201.24 27.5497 200.847 28.0048C199.99 28.9439 197.718 29.6307 194.797 30.0754C194.48 30.1235 194.156 30.1685 193.826 30.2106C193.132 30.2995 192.411 30.3772 191.669 30.4414C189.196 30.6476 186.714 30.7287 184.233 30.6846L179.124 30.7195L175.822 30.7409L169.136 24.8206L164.096 20.3562L163.476 19.8078L159.214 16.0325L158.202 15.1385L157.911 15.1306L158.136 15.0799L158.202 15.1385C166.295 15.3772 191.209 16.9806 191.435 16.9986L202.165 24.3511C202.007 25.5153 201.843 26.0501 201.693 26.4363H201.698ZM202.28 23.1407L194.003 17.5233L193.891 17.4478L194.003 17.4568L199.781 17.8577L202.023 19.4532C202.26 20.6669 202.345 21.9057 202.275 23.1407H202.28Z" fill="#1A171C"/>
<path d="M191.958 17.3578L190.666 17.297C181.296 16.8624 166.918 16.2239 159.209 16.0325L158.198 15.1385C166.291 15.3772 181.217 16.2296 190.742 16.9457L191.431 16.9986L191.958 17.3578ZM139.336 14.8627C139.463 15.1366 139.595 15.4099 139.729 15.6824C142.777 15.715 145.715 15.751 147.579 15.7848C148.509 15.5026 149.444 15.2275 150.383 14.9595C147.518 14.9043 143.333 14.8751 139.336 14.8627ZM128.852 14.8424C127.776 14.8424 126.717 14.8503 125.675 14.866C112.123 16.394 97.9448 21.239 87.355 28.2266C100.836 21.606 114.054 16.716 128.591 15.5675C129.324 15.5776 130.513 15.5889 131.963 15.6035C132.031 15.3412 132.126 15.0868 132.248 14.8447H129.689L128.852 14.8424ZM299.852 51.6375C293.811 52.6216 258.519 51.7265 220.086 50.435L220.065 51.0723C255.283 52.2523 286.597 53.1936 291.299 52.8547C294.62 52.6149 297.389 52.2332 299.867 51.6511L299.853 51.6375H299.852ZM288.618 48.8497C291.628 49.1537 294.217 49.2145 296.65 48.9206C295.384 49.371 294.297 49.416 292.862 49.416C278.303 49.416 269.019 44.0677 218.249 41.7302C189.212 40.3937 117.888 42.8427 112.537 33.4466C117.954 40.9702 189.212 39.5887 218.249 40.9252C254.348 42.5882 272.711 46.6563 284.603 48.3509C284.803 48.3802 285.002 48.4079 285.2 48.4342C286.19 48.5716 287.135 48.6909 288.041 48.79L288.618 48.8497ZM220.091 50.435L220.069 51.0723C173.614 49.514 120.365 47.5413 112.438 47.5413C108.492 47.5413 104.447 47.7552 100.424 48.1234C104.301 47.074 108.42 46.627 112.438 46.627C120.076 46.627 172.49 48.835 220.091 50.435ZM133.524 58.4732C133.43 58.4732 133.337 58.4732 133.244 58.4732C110.245 50.3438 76.8159 44.1116 57.6664 41.5321L56.7761 41.4139L47.2666 40.5131C48.1524 39.5481 49.2292 38.4492 50.4567 37.2478L50.8164 36.8976C54.2335 33.5896 58.7432 29.5699 63.5565 25.5255C64.0773 25.0879 64.6018 24.6495 65.1301 24.2104C67.0174 22.6419 68.9373 21.0802 70.8437 19.5647C71.1801 19.4734 71.5233 19.4097 71.87 19.3744L71.9397 19.9824C71.7149 19.9959 71.5384 20.0139 71.4035 20.0353C64.1578 26.0029 52.6621 35.7221 49.1696 39.7666C50.3195 39.8792 51.6482 40.0289 53.1038 40.2023C54.863 40.4118 56.8132 40.6527 58.8601 40.9353C69.5938 42.3901 85.289 44.8019 100.411 48.1764C112.866 50.9541 124.933 54.3838 133.519 58.4732H133.524ZM126.566 14.097C126.261 14.3492 125.965 14.6044 125.68 14.8627C108.725 15.2005 95.2077 18.0232 86.1883 20.3191C83.3141 20.1851 77.3082 19.9329 73.8045 19.9385C73.0424 19.9385 72.3994 19.952 71.9341 19.9813L71.8644 19.3732C74.7296 19.0355 81.0963 19.2224 83.9851 19.3732C93.3272 16.7881 106.774 14.2997 126.561 14.097H126.566ZM113.667 32.3983C113.277 32.7451 112.9 33.0945 112.537 33.4466C98.327 34.0478 78.176 36.5734 58.8579 40.9342C64.2399 39.1327 70.6942 37.6396 77.388 36.4304C83.0769 35.4069 88.9411 34.5872 94.4681 33.9533C101.881 33.1156 108.696 32.6089 113.667 32.3983Z" fill="#EDEDED"/>
<path d="M95.718 20.1636C95.5944 20.4631 95.4696 20.757 95.3403 21.0441C91.2488 21.7557 87.8193 23.2071 84.356 25.2102C84.3268 25.0694 84.3043 24.9276 84.2886 24.7834C87.8289 22.6446 91.6872 21.085 95.718 20.1636Z" fill="#EDEDED"/>
<path d="M95.3403 21.0441C95.0897 21.617 94.7974 22.1706 94.4658 22.7004C91.1374 23.6192 87.8495 24.6956 84.7662 26.2438C84.5651 25.9277 84.4259 25.5761 84.356 25.2079C87.8192 23.2071 91.2487 21.7557 95.3403 21.0441Z" fill="#929395"/>
<path d="M94.4683 33.96C88.9413 34.5894 83.0771 35.4091 77.3882 36.4371C78.7483 34.8765 80.0646 33.2844 81.4348 31.725C83.3227 31.397 85.2346 31.2264 87.1507 31.2149C90.8241 31.2115 93.3251 31.7239 94.4683 33.96Z" fill="#A8A8A7"/>
<path d="M54.4586 37.464C54.3046 37.6239 54.1832 37.7534 54.1012 37.8468C53.411 38.3816 53.1098 39.3973 53.103 40.2001C54.8622 40.4095 56.8124 40.6504 58.8593 40.9331C59.4588 40.7311 60.0726 40.5341 60.7005 40.3419C60.4919 39.9256 60.2529 39.5252 59.9856 39.1439C58.5884 37.1363 56.4505 36.8188 54.4586 37.464Z" fill="#646363"/>
<path d="M81.4303 31.7216L81.3078 31.743C80.1075 28.7608 78.7523 25.8436 77.2477 23.0033L77.2263 22.9628C76.4811 21.5823 75.3244 19.9384 73.8047 19.9384C73.5698 19.9384 73.3258 20.4237 73.0729 20.4845C68.6115 24.0583 56.9741 34.8731 54.4585 37.464C56.4503 36.821 58.5883 37.1363 59.9844 39.145C60.2517 39.5263 60.4906 39.9267 60.6993 40.343C65.6856 38.8016 71.4408 37.5056 77.3882 36.4337C78.7483 34.8731 80.0646 33.2799 81.4303 31.7216Z" fill="#A8A8A7"/>
<path d="M73.8044 19.9385C69.0688 23.7307 55.5149 36.2311 54.1008 37.8412C53.4107 38.376 53.1094 39.3916 53.1027 40.1944C51.6414 40.021 50.315 39.8747 49.1685 39.7587C52.6564 35.721 64.1522 26.0096 71.3978 20.0342C71.5327 20.0128 74.0574 19.8777 73.8044 19.9385Z" fill="#EDEFF2"/>
<path d="M296.658 48.9104L296.65 48.9206C294.217 49.2144 291.628 49.1536 288.618 48.8496C288.693 48.5344 289.034 47.0943 289.091 46.9073C289.555 47.0357 289.789 47.1247 290.103 47.1911C290.165 47.0025 290.205 46.807 290.221 46.609L295.124 47.6685C295.628 48.0708 296.14 48.4848 296.658 48.9104ZM285.725 46.2194C285.644 46.4817 285.275 48.1549 285.2 48.4341C286.19 48.5715 287.135 48.6909 288.041 48.7899V48.755C288.095 48.4904 288.452 46.9636 288.503 46.7587C287.919 46.6146 287.063 46.4435 285.725 46.2194ZM299.867 51.651C297.395 52.2331 294.62 52.6148 291.299 52.8547C286.597 53.1924 255.283 52.2523 220.065 51.0723C173.61 49.5139 120.361 47.5413 112.434 47.5413C108.487 47.5413 104.443 47.7552 100.42 48.1234L100.409 48.1752C112.866 50.954 124.934 54.3848 133.519 58.4732C134.977 58.4732 136.432 58.4826 137.886 58.5013C149.65 58.6432 210.5 59.7027 224.344 59.7027C261.902 59.7027 282.766 59.7027 301.991 53.5944C301.287 52.9301 300.579 52.2823 299.867 51.651ZM296.658 48.9104C297.713 49.7763 298.783 50.6872 299.852 51.6375C293.811 52.6216 258.519 51.7264 220.086 50.435C172.49 48.835 120.077 46.627 112.434 46.627C108.416 46.627 104.297 47.0774 100.42 48.1234L100.409 48.1752C85.2869 44.7973 69.5916 42.3889 58.858 40.9341C78.1761 36.5733 98.3271 34.0478 112.537 33.4465C117.888 42.8426 189.212 40.3937 218.25 41.7302C269.019 44.0677 278.304 49.416 292.862 49.416C294.297 49.416 295.384 49.3766 296.65 48.9206L296.658 48.9104ZM285.097 46.1169C285.032 46.3793 284.669 48.0637 284.606 48.3272V48.3508C272.715 46.6563 254.351 42.5882 218.253 40.9251C189.215 39.5886 117.958 40.9702 112.541 33.4465C115.441 33.3238 118.093 33.2821 120.44 33.3204C131.409 33.5006 165.477 33.3992 172.798 33.3992C189.539 33.3992 198.441 33.4364 202.165 31.457C203.871 33.1403 206.142 35.4778 208.258 37.6813C208.495 36.0238 208.449 33.7055 208.236 31.3376C234.142 34.7391 257.866 39.6404 284.612 45.3997C284.552 45.671 284.588 45.617 284.487 46.0212L285.097 46.1169ZM282.69 47.0909C270.736 42.2346 241.721 38.206 186 37.3772C225.88 39.9039 254.061 41.6176 282.69 47.0909ZM33.5982 48.0311C34.4847 47.7203 35.3839 47.414 36.2959 47.1123L36.8579 46.9276C39.4478 46.0741 42.1208 45.2634 44.85 44.4854C49.8262 43.1703 52.8713 42.5904 57.6643 41.5309C76.816 44.1105 110.243 50.3426 133.241 58.4721C94.3794 58.4371 53.9953 63.6391 2.13574 68.1632C3.43291 65.3483 5.28873 63.3429 8.34055 60.8444C11.6992 58.0994 15.974 55.5457 20.9075 53.1958C22.47 52.4504 24.0957 51.7257 25.7848 51.0216C28.0993 50.0544 30.5205 49.1255 33.0283 48.2349L33.5982 48.0311ZM57.6643 41.5309C54.6079 41.7246 51.5943 42.1277 45.5671 43.3077L46.2832 42.1288C46.6485 41.5287 46.9576 41.0242 47.1228 40.7461L47.2645 40.5119L56.774 41.4127L57.6643 41.5309Z" fill="#D9DBDE"/>
<path d="M45.565 43.3077C51.5944 42.1277 54.6058 41.7246 57.6644 41.5309C52.8703 42.5905 49.8252 43.1703 44.8501 44.4855C45.0749 44.106 45.3233 43.704 45.565 43.3077Z" fill="#A9ABB0"/>
<path d="M37.2648 44.4753C37.4244 44.9617 37.421 44.8131 37.5301 45.3265C37.2254 45.4121 36.9782 45.4391 36.5072 45.5517C36.3431 45.5877 36.152 45.6328 35.9227 45.6924C35.3359 45.8445 34.4974 46.0888 33.2092 46.5178L32.6078 46.7193L32.0222 46.9197C31.9098 46.448 31.9176 46.6157 31.7974 46.144C33.5071 45.188 35.3561 44.7433 37.2648 44.4753Z" fill="#383C3D"/>
<path d="M36.507 45.5416C36.5317 45.6733 36.7138 46.3894 36.8521 46.9276L36.29 47.1123C36.145 46.5673 35.9528 45.8219 35.918 45.6823C36.1518 45.6226 36.3429 45.5776 36.507 45.5416Z" fill="#383C3D"/>
<path d="M33.2093 46.5076C33.2419 46.6822 33.4453 47.4433 33.6016 48.031L33.0227 48.2348C32.8619 47.6505 32.6495 46.8837 32.6079 46.7092L33.2093 46.5076Z" fill="#383C3D"/>
<path d="M15.5403 52.8344C17.333 52.8516 19.1232 52.9723 20.902 53.1958C15.9742 55.5457 11.6994 58.0994 8.3373 60.8467C7.18626 60.7623 6.0341 60.6913 4.87744 60.6429C8.07427 57.9406 11.4217 55.316 14.8096 52.8434C15.0532 52.8382 15.2967 52.8352 15.5403 52.8344Z" fill="#4A4A49"/>
<path d="M2.79664 65.6354C3.31259 63.9971 3.96342 62.4973 4.80646 60.7014L4.87728 60.6429C6.03393 60.6913 7.18609 60.7622 8.33713 60.8467C5.28531 63.3429 3.42949 65.3505 2.13232 68.1654C2.32679 67.2556 2.54485 66.4314 2.79664 65.6354Z" fill="#A9ABB0"/>
<path d="M299.174 56.7178C298.655 57.1356 298.162 57.5364 297.699 57.9237C295.283 59.2434 292.81 60.4402 290.212 61.3106C250.734 74.5316 119.398 66.5373 85.1465 83.3794C61.2265 77.6201 37.1368 75.5427 12.4198 75.5427C11.2823 75.5427 10.1414 75.6553 9.00044 75.7679C6.99287 74.2017 5.08872 72.6524 3.41162 71.1886C56.6718 66.5159 97.8326 61.3928 137.793 61.8736C149.557 62.0143 210.272 63.0615 224.114 63.0615C259.605 63.0536 281.614 62.6989 299.174 56.7178Z" fill="#2B2C7C"/>
<g style="mix-blend-mode:multiply">
<path style="mix-blend-mode:multiply" d="M199.408 17.5897L193.463 17.1596L193.888 17.449L199.78 17.8577L199.408 17.5897Z" fill="url(#paint1_linear)"/>
</g>
<path style="mix-blend-mode:multiply" opacity="0.17" d="M299.852 51.6375C298.783 50.6872 297.716 49.7763 296.658 48.9105C296.14 48.4849 295.627 48.072 295.119 47.6719L290.216 46.6147C290.2 46.8127 290.161 47.0082 290.098 47.1968C289.789 47.1292 289.556 47.0414 289.087 46.913C289.029 47.0999 288.689 48.54 288.613 48.8553L288.038 48.7956V48.7607C288.092 48.4961 288.449 46.9693 288.501 46.7644C287.911 46.6248 287.055 46.4491 285.717 46.2251C285.636 46.4874 285.267 48.1628 285.192 48.441L284.595 48.3565V48.3329C284.658 48.0683 285.021 46.385 285.087 46.1226L284.476 46.0258C284.577 45.6238 284.541 45.6767 284.602 45.4043C284.611 45.3592 284.624 45.304 284.641 45.2354C284.779 45.2354 284.919 45.2354 285.057 45.2354C286.855 45.2658 288.563 45.7161 290.248 46.3197C290.238 46.3805 290.23 46.4323 290.222 46.4784C291.839 46.8703 293.467 47.2688 295.107 47.6742C293.548 46.4356 292.051 45.3097 290.679 44.3267C290.342 44.0858 289.884 43.784 289.292 43.4259C281.278 38.6023 249.725 23.9142 204 19.8934C203.775 19.7077 203.521 19.5039 203.221 19.2562C203.699 20.1538 204.008 21.1321 204.131 22.142C204.629 25.7034 204.216 30.3738 202.151 31.4627C198.427 33.4421 189.524 33.4038 172.784 33.4038C165.463 33.4038 131.395 33.5063 120.425 33.3261C118.078 33.2878 115.426 33.3261 112.526 33.4522C112.89 33.1002 113.266 32.7507 113.656 32.404C108.68 32.6145 101.87 33.1201 94.4569 33.9657C88.9287 34.5962 83.0668 35.4148 77.3768 36.4428C70.6819 37.6475 64.2253 39.1383 58.8467 40.9466C56.7975 40.6696 54.8495 40.423 53.0904 40.2136C51.6291 40.0402 50.3027 39.8938 49.1562 39.7778C52.6565 35.721 64.1522 26.0096 71.399 20.0342C71.5328 20.0128 71.7138 19.9948 71.9341 19.9813C72.3995 19.952 73.0424 19.9385 73.8045 19.9385C77.3026 19.9385 83.3141 20.1851 86.1883 20.3191C95.2077 18.0232 108.725 15.2005 125.675 14.8627C125.962 14.6044 126.257 14.3492 126.56 14.097C106.777 14.3042 93.3283 16.7881 83.9851 19.3778C81.0963 19.2224 74.7296 19.0332 71.8644 19.3778C71.5177 19.4131 71.1745 19.4768 70.8381 19.568C68.9272 21.0836 67.0107 22.6453 65.1245 24.2137C64.5962 24.6521 64.0717 25.0905 63.5509 25.5289C58.7388 29.5767 54.2302 33.5952 50.8119 36.901C49.7744 36.8368 48.4064 36.7603 46.917 36.6826L42.7524 40.7856L31.3994 40.3555C31.106 40.6741 30.8216 41.0187 30.5474 41.3823C31.559 41.3542 42.4624 41.871 46.2842 42.1255C46.6484 41.5253 46.9586 41.0209 47.1239 40.7428L43.8776 40.5086L47.2655 37.0846L50.4556 37.2467C49.227 38.4447 48.1501 39.5436 47.2655 40.512L56.775 41.4127L57.6653 41.531C76.817 44.1105 110.245 50.3427 133.243 58.4721C133.336 58.4721 133.429 58.4721 133.521 58.4721C124.937 54.3849 112.869 50.953 100.412 48.1741L100.423 48.1212C104.446 47.7541 108.491 47.5402 112.437 47.5402C120.364 47.5402 173.613 49.5129 220.068 51.0712C255.286 52.2512 286.599 53.1925 291.302 52.8536C294.623 52.6138 297.392 52.2321 299.87 51.6499C299.864 51.645 299.858 51.6409 299.852 51.6375ZM256.498 37.0936C259.299 37.5788 264.426 38.5179 273.633 41.102C273.563 41.2742 273.495 41.4465 273.428 41.621C268.995 40.503 257.242 37.9639 255.838 37.696C254.198 34.3744 253.32 32.8904 252.71 31.9885C252.776 31.7725 252.857 31.5614 252.953 31.3568C253.837 32.4771 255.012 34.1852 256.498 37.0936ZM252.811 35.7357L231.146 31.1271L228.037 25.9049C234.839 27.2414 241.447 28.7041 250.008 30.9548C251.582 32.8566 252.197 34.2674 252.811 35.7357ZM228.85 31.3928L253.718 36.5722L253.51 37.303L228.708 32.0673L228.266 31.9738L224.774 25.6437L225.358 25.0571L228.85 31.3928Z" fill="url(#paint2_linear)"/>
<path style="mix-blend-mode:multiply" opacity="0.17" d="M193.113 17.4524L192.551 16.9265C183.407 16.1767 166.946 15.3919 158.2 15.1419L159.212 16.0359C167.872 16.2476 184.172 17.0256 193.113 17.4524Z" fill="url(#paint3_linear)"/>
<path style="mix-blend-mode:multiply" opacity="0.17" d="M147.579 15.7814C148.51 15.4992 149.446 15.2241 150.389 14.9561C144.385 14.8435 139.19 14.8176 135.439 14.8165C135.56 15.077 135.686 15.3397 135.814 15.6047C138.912 15.6384 142.948 15.6959 147.579 15.7814Z" fill="url(#paint4_linear)"/>
<g style="mix-blend-mode:multiply">
<path style="mix-blend-mode:multiply" d="M132.722 20.0038C132.106 20.1412 131.309 20.3258 130.862 20.4159C130.543 19.6653 130.259 18.918 130.009 18.1741C129.984 18.1043 129.922 18.0818 129.831 18.0987C128.053 17.8532 125.857 19.7178 124.73 21.7457C119.078 23.018 112.607 24.5943 110.421 25.4163L109.959 25.9444C110.402 26.811 110.898 27.6496 111.444 28.4552C112.028 28.4552 115.052 28.4384 118.896 28.4125C117.064 29.6186 115.316 30.9504 113.667 32.3983C108.692 32.6089 101.883 33.1156 94.4694 33.9612C93.324 31.7239 90.8241 31.2116 87.1462 31.2116C85.2301 31.2228 83.3182 31.3938 81.4304 31.7228C81.3888 31.7284 81.3472 31.7374 81.3078 31.743C80.1078 28.7608 78.7525 25.8436 77.2477 23.0034C77.2409 22.9899 77.2334 22.9767 77.2252 22.964C76.6194 21.838 74.931 20.2695 73.8047 19.9385C73.7598 19.7471 73.8812 20.1288 73.8047 19.9385C77.3568 19.961 83.4795 20.1918 86.1896 20.318C95.2079 18.0233 108.724 15.2005 125.676 14.8627C126.718 14.8481 127.775 14.8379 128.852 14.8379C129.663 14.8379 130.846 14.8379 132.267 14.8379C132.143 15.0799 132.045 15.3343 131.975 15.5968C131.883 15.9224 131.849 16.2615 131.873 16.5989C131.911 17.0684 131.62 17.4828 132.722 20.0038ZM135.815 28.2616C135.835 28.4384 135.848 28.6095 135.857 28.7716C136.286 29.3571 137.053 30.3131 137.628 30.9932L138.807 30.9853C138.207 30.0046 137.66 29.0937 137.16 28.2481C136.71 28.2616 136.262 28.2616 135.815 28.2616ZM150.385 14.9516C147.521 14.901 143.342 14.8706 139.347 14.8537C139.476 15.1284 139.608 15.402 139.743 15.6745C139.938 16.0663 140.141 16.4574 140.351 16.8478C140.955 16.994 141.531 17.2361 142.059 17.565C143.871 16.9435 145.711 16.3497 147.579 15.7837C148.509 15.5007 149.444 15.2249 150.385 14.9561V14.9516ZM123.407 28.3753C121.864 29.3155 120.475 30.2343 119.236 31.117L126.767 31.0663C126.416 30.4471 125.804 29.3965 125.264 28.364C124.176 28.3742 123.505 28.3798 123.411 28.3798L123.407 28.3753ZM158.197 15.134L159.208 16.0348L163.471 19.809C165.437 19.9591 167.401 20.128 169.364 20.3157L170.582 20.8787C170.298 22.1645 169.77 23.5123 169.131 24.8263L175.818 30.7387L179.12 30.7162L185.396 18.0548C186.813 18.0942 187.853 18.3059 190.42 18.4128L190.666 17.2959L191.958 17.3556L191.433 16.9975C181.955 16.2724 166.487 15.3818 158.2 15.1386L158.197 15.134ZM167.527 27.7358C162.412 28.0184 157.494 28.1389 153.588 28.212C153.325 29.0407 152.906 30.2906 152.607 30.8929L172.146 30.7612L167.921 27.0636C167.795 27.2955 167.663 27.5196 167.531 27.7403L167.527 27.7358ZM155.049 15.8006C150.939 16.814 147.132 17.9399 143.625 19.1391C143.691 19.2404 143.75 19.344 143.807 19.4498C146.047 19.3068 147.957 19.2449 149.797 19.2449C152.965 19.2449 156.136 19.3496 159.306 19.5287L155.049 15.8006Z" fill="url(#paint5_linear)"/>
</g>
<path style="mix-blend-mode:multiply" opacity="0.33" d="M2.13574 68.1632C3.43291 65.3483 5.28873 63.3419 8.34055 60.8445C7.18951 60.76 6.03735 60.6891 4.87957 60.6407L4.811 60.6992C3.96683 62.4951 3.316 63.9949 2.79894 65.6354C2.5449 66.4315 2.32683 67.2568 2.13574 68.1632Z" fill="url(#paint6_linear)"/>
<g style="mix-blend-mode:multiply" opacity="0.28">
<path style="mix-blend-mode:multiply" opacity="0.28" d="M302.27 53.858C302.38 54.1121 302.423 54.3907 302.394 54.6664C302.387 54.8003 302.372 54.9337 302.351 55.0661C284.458 61.6091 262.018 61.984 224.109 61.984C210.268 61.984 149.553 60.9369 137.788 60.795C97.5582 60.3142 56.104 65.5083 2.31107 70.2069L1.22185 70.3014C0.791074 69.8745 0.383216 69.425 0 68.9548C54.9204 64.2044 96.9838 58.855 137.788 59.3425C149.553 59.4833 210.268 60.5315 224.109 60.5315C261.85 60.5315 284.417 60.3153 302.27 53.858Z" fill="url(#paint7_linear)"/>
<path style="mix-blend-mode:multiply" opacity="0.28" d="M302.35 55.066C302.32 55.2575 302.281 55.4399 302.247 55.5964C301.238 55.9905 300.214 56.3658 299.175 56.7223C281.614 62.7034 259.608 63.0581 224.109 63.0581C210.267 63.0581 149.553 62.0098 137.788 61.8691C97.8312 61.3872 56.6681 66.5069 3.40797 71.1796C3.03328 70.8509 2.66796 70.5266 2.31201 70.2068C56.105 65.5082 97.5592 60.3141 137.789 60.7949C149.554 60.9368 210.269 61.9839 224.11 61.9839C262.018 61.9839 284.458 61.609 302.35 55.066Z" fill="url(#paint8_linear)"/>
<path style="mix-blend-mode:multiply" opacity="0.28" d="M299.867 51.6511C300.578 52.2816 301.285 52.929 301.99 53.5933C282.768 59.7073 261.902 59.7028 224.345 59.7028C210.504 59.7028 149.651 58.6432 137.887 58.5025C136.433 58.4852 134.976 58.4755 133.518 58.4732C124.933 54.386 112.866 50.9541 100.409 48.1752L100.42 48.1223C104.443 47.7553 108.487 47.5413 112.434 47.5413C120.361 47.5413 173.61 49.514 220.065 51.0723C255.283 52.2523 286.596 53.1936 291.299 52.8547C294.619 52.6149 297.389 52.2332 299.866 51.6511H299.867Z" fill="url(#paint9_linear)"/>
<path style="mix-blend-mode:multiply" opacity="0.28" d="M299.175 56.7179C298.655 57.1345 298.163 57.5353 297.699 57.9227C295.282 59.2412 292.81 60.4392 290.212 61.3095C250.735 74.5305 119.398 66.5362 85.1463 83.3783C61.2263 77.619 37.1377 75.5416 12.4197 75.5416C11.2833 75.5416 10.1412 75.6542 9.0003 75.7668C6.99385 74.2018 5.08969 72.6513 3.4126 71.1876C56.6728 66.5148 97.8336 61.3917 137.793 61.8725C149.557 62.0133 210.272 63.0615 224.114 63.0615C259.605 63.0537 281.614 62.699 299.175 56.7179Z" fill="url(#paint10_linear)"/>
<path style="mix-blend-mode:multiply" opacity="0.28" d="M290.212 61.3106C292.809 60.4403 295.282 59.2423 297.699 57.9238C288.528 65.5465 289.12 67.6284 272.374 76.7565C254.726 86.3767 195.825 89.4449 193.924 89.4449C182.768 89.4449 180.896 90 149.464 90L125.191 89.1128C96.3901 87.6299 53.5589 84.761 25.2742 84.2993C23.6548 84.273 22.0849 84.255 20.5644 84.2453C16.8887 81.6826 12.7601 78.6943 8.99561 75.7589C10.1365 75.6553 11.2786 75.5337 12.415 75.5337C37.1376 75.5337 61.2261 77.6111 85.1416 83.3704C119.397 66.5373 250.735 74.5316 290.212 61.3106Z" fill="url(#paint11_linear)"/>
<path style="mix-blend-mode:multiply" opacity="0.28" d="M147.04 89.9798L45.9414 89.1578C45.4063 88.7975 44.8173 88.3978 44.1777 87.9519L141.936 89.8514C143.801 89.9133 145.509 89.9573 147.04 89.9798Z" fill="url(#paint12_linear)"/>
<path style="mix-blend-mode:multiply" opacity="0.28" d="M44.1753 87.9519L35.5639 87.7841C35.2267 87.1333 34.912 86.4702 34.6377 85.8058L125.189 89.1128C131.56 89.4416 137.244 89.7016 141.937 89.8537L44.1753 87.9519Z" fill="url(#paint13_linear)"/>
<path style="mix-blend-mode:multiply" opacity="0.28" d="M20.9008 53.1959C22.4647 52.4512 24.0909 51.7265 25.7792 51.0216C31.5715 48.5997 38.0393 46.4199 44.8466 44.4855C49.8228 43.1703 52.8679 42.5905 57.6609 41.5309C76.8126 44.1105 110.241 50.3427 133.238 58.4721C94.3794 58.4372 53.9953 63.6391 2.13574 68.1632C3.43291 65.3483 5.28873 63.3419 8.34055 60.8445C11.6992 58.0994 15.974 55.5457 20.9008 53.1959Z" fill="url(#paint14_linear)"/>
<path style="mix-blend-mode:multiply" opacity="0.28" d="M34.6401 85.8059L25.7117 85.4793C25.5498 85.0935 25.4041 84.7002 25.2744 84.2993C53.5591 84.761 96.3903 87.6299 125.191 89.1128L34.6401 85.8059Z" fill="url(#paint15_linear)"/>
<path style="mix-blend-mode:multiply" opacity="0.28" d="M56.7718 41.4127L57.6621 41.531C54.6058 41.7246 51.5921 42.1277 45.5649 43.3077C45.8145 42.899 46.0595 42.4959 46.2821 42.1288C46.6463 41.5287 46.9565 41.0243 47.1218 40.7462L47.2634 40.512L56.7718 41.4127Z" fill="url(#paint16_linear)"/>
<path style="mix-blend-mode:multiply" opacity="0.28" d="M45.565 43.3077C51.5944 42.1277 54.6058 41.7246 57.6644 41.5309C52.8703 42.5905 49.8252 43.1703 44.8501 44.4855C45.0828 44.1049 45.3267 43.7029 45.5672 43.3077H45.565Z" fill="url(#paint17_linear)"/>
</g>
<path style="mix-blend-mode:multiply" opacity="0.17" d="M202.024 19.4532L199.784 17.8577L193.889 17.4524L202.276 23.1441C202.346 21.9081 202.261 20.6682 202.024 19.4532Z" fill="url(#paint18_linear)"/>
<path style="mix-blend-mode:multiply" opacity="0.45" d="M193.933 18.7112L202.163 24.3522C202.007 25.5165 201.843 26.0502 201.693 26.4364C201.526 27.0146 201.236 27.5497 200.843 28.0048C199.987 28.9439 197.714 29.6307 194.793 30.0755C194.477 30.1239 194.152 30.1689 193.822 30.2117C193.129 30.3007 192.408 30.3772 191.665 30.4369C189.192 30.6431 186.711 30.7243 184.23 30.6801L179.12 30.715L185.397 18.0525C186.814 18.0919 187.852 18.3025 190.42 18.4117L190.666 17.2925L191.957 17.3533L193.057 18.1077L193.933 18.7112Z" fill="url(#paint19_linear)"/>
<path style="mix-blend-mode:multiply" opacity="0.34" d="M87.146 31.2116C85.2299 31.2231 83.318 31.3937 81.4301 31.7216L81.3076 31.743C80.1073 28.7609 78.7521 25.8437 77.2475 23.0033L77.2261 22.9628C76.4809 21.5824 75.3242 19.9385 73.8045 19.9385C73.5684 19.9385 73.2548 19.8833 73.0019 19.9385C68.2663 23.7318 55.5149 36.2255 54.0997 37.8412C53.4096 38.376 53.1083 39.3917 53.1016 40.1945C54.8607 40.4039 56.811 40.6448 58.8579 40.9275C64.241 39.1259 70.6931 37.6329 77.388 36.4236C83.078 35.3979 88.94 34.5793 94.4681 33.9465C93.3249 31.7239 90.8239 31.2116 87.146 31.2116Z" fill="url(#paint20_linear)"/>
<path d="M161.048 2.95452C153.967 3.85529 145.406 6.40107 139.074 9.15854C136.008 10.4928 133.678 11.9734 131.864 13.1478C131.87 13.1647 132.042 13.1895 133.583 13.2041C133.583 13.2041 135.439 11.3091 137.028 11.7618C138.152 12.0815 138.368 12.5364 138.66 13.2863C143.874 13.3291 150.919 13.3381 155.945 13.4653C160.891 12.2268 165.874 11.1875 170.713 10.3847L161.048 2.95452ZM170.467 2.18324C168.519 2.19039 166.572 2.29561 164.635 2.49851L174.092 9.85776C175.053 9.71739 176.006 9.58678 176.95 9.46593C177.575 7.25117 177.962 4.98687 178.267 2.70343C175.682 2.34463 173.076 2.1708 170.467 2.18324Z" fill="url(#paint21_linear)"/>
<path opacity="0.59" d="M188.742 15.1532L179.98 9.14842C179.867 9.69339 179.749 10.2023 179.634 10.6392L179.285 11.7573C176.737 12.0005 174.264 12.2868 171.866 12.6164C170.765 12.7665 169.678 12.9256 168.606 13.0938L167.805 13.221C167.008 13.3494 166.222 13.4822 165.445 13.6196C162.915 14.064 160.48 14.5519 158.138 15.0833L175.817 30.7386L179.218 30.7161L184.229 30.6823C184.854 30.6925 185.483 30.6947 186.113 30.6902C187.998 30.6756 189.888 30.5923 191.664 30.4391C196.031 30.0608 199.699 29.2569 200.842 28.0026C201.236 27.5473 201.526 27.0123 201.693 26.4341C201.843 26.0468 202.006 25.5131 202.163 24.3488L188.742 15.1532ZM201.056 16.761L200.775 16.0325C200.775 16.0325 181.26 2.13934 181.157 2.11682L181.044 2.95453C181.044 2.95453 181.031 3.05024 181.005 3.22251L201.667 18.1279C201.507 17.6539 201.303 17.1962 201.056 16.761ZM155.056 15.8051C153.996 16.0663 152.955 16.3354 151.936 16.6124L151.525 16.725L150.79 16.9288L150.411 17.0346C135.853 21.1489 125.561 26.6109 119.238 31.1215L152.052 30.9019L158.211 30.8602L160.329 30.8456L162.281 30.8332L172.151 30.7668L155.056 15.8051ZM202.023 19.4521L180.832 4.36423C180.673 5.37759 180.439 6.79855 180.182 8.14632L202.275 23.1429C202.345 21.9069 202.26 20.667 202.023 19.4521Z" fill="url(#paint22_linear)"/>
<path style="mix-blend-mode:lighten" d="M177.517 11.9352L192.175 30.3919C191.327 30.4729 190.451 30.5382 189.559 30.5867L175.074 12.2088C175.88 12.1131 176.702 12.023 177.517 11.9352Z" fill="url(#paint23_linear)"/>
<path style="mix-blend-mode:lighten" d="M165.442 13.6241L179.218 30.7229L184.23 30.6891C184.854 30.6992 185.483 30.7015 186.114 30.697L171.869 12.6175C169.664 12.9192 167.522 13.2548 165.442 13.6241Z" fill="url(#paint24_linear)"/>
<path style="mix-blend-mode:lighten" d="M151.936 16.6124L151.525 16.725L150.79 16.9288L150.412 17.0346L160.329 30.8456L162.282 30.8332L151.936 16.6124ZM148.67 17.5402C147.201 17.9763 145.777 18.4267 144.399 18.8913L152.052 30.9053L158.21 30.8636L148.67 17.5402Z" fill="url(#paint25_linear)"/>
<path d="M179.876 38.7926C180.713 38.7926 181.391 38.0626 181.391 37.1622C181.391 36.2617 180.713 35.5318 179.876 35.5318C179.04 35.5318 178.362 36.2617 178.362 37.1622C178.362 38.0626 179.04 38.7926 179.876 38.7926Z" fill="#A3A3A7"/>
<path d="M179.876 38.3152C180.467 38.3152 180.946 37.799 180.946 37.1622C180.946 36.5254 180.467 36.0092 179.876 36.0092C179.285 36.0092 178.806 36.5254 178.806 37.1622C178.806 37.799 179.285 38.3152 179.876 38.3152Z" fill="#747378"/>
<path d="M85.2306 38.0799C85.5373 38.0799 85.7859 37.8308 85.7859 37.5236C85.7859 37.2164 85.5373 36.9674 85.2306 36.9674C84.9239 36.9674 84.6753 37.2164 84.6753 37.5236C84.6753 37.8308 84.9239 38.0799 85.2306 38.0799Z" fill="#747378"/>
<path d="M72.713 40.5119C73.0197 40.5119 73.2683 40.2629 73.2683 39.9557C73.2683 39.6485 73.0197 39.3995 72.713 39.3995C72.4063 39.3995 72.1577 39.6485 72.1577 39.9557C72.1577 40.2629 72.4063 40.5119 72.713 40.5119Z" fill="#747378"/>
<path d="M59.1549 43.5948C59.4616 43.5948 59.7102 43.3458 59.7102 43.0386C59.7102 42.7314 59.4616 42.4824 59.1549 42.4824C58.8482 42.4824 58.5996 42.7314 58.5996 43.0386C58.5996 43.3458 58.8482 43.5948 59.1549 43.5948Z" fill="#747378"/>
<path d="M96.984 36.1331C97.2907 36.1331 97.5393 35.884 97.5393 35.5769C97.5393 35.2697 97.2907 35.0206 96.984 35.0206C96.6773 35.0206 96.4287 35.2697 96.4287 35.5769C96.4287 35.884 96.6773 36.1331 96.984 36.1331Z" fill="#747378"/>
<path d="M97.9428 40.5479C98.779 40.5479 99.4569 39.818 99.4569 38.9176C99.4569 38.0171 98.779 37.2872 97.9428 37.2872C97.1066 37.2872 96.4287 38.0171 96.4287 38.9176C96.4287 39.818 97.1066 40.5479 97.9428 40.5479Z" fill="#A3A3A7"/>
<path d="M97.9427 40.0706C98.5337 40.0706 99.0128 39.5543 99.0128 38.9176C99.0128 38.2808 98.5337 37.7646 97.9427 37.7646C97.3517 37.7646 96.8726 38.2808 96.8726 38.9176C96.8726 39.5543 97.3517 40.0706 97.9427 40.0706Z" fill="#747378"/>
<g style="mix-blend-mode:multiply">
<g style="mix-blend-mode:multiply">
<path d="M54.727 70.3014C55.5632 70.3014 56.2411 69.5714 56.2411 68.671C56.2411 67.7705 55.5632 67.0406 54.727 67.0406C53.8908 67.0406 53.2129 67.7705 53.2129 68.671C53.2129 69.5714 53.8908 70.3014 54.727 70.3014Z" fill="#A3A3A7"/>
</g>
<g style="mix-blend-mode:multiply">
<path d="M54.7268 69.8239C55.3178 69.8239 55.7969 69.3077 55.7969 68.6709C55.7969 68.0341 55.3178 67.5179 54.7268 67.5179C54.1358 67.5179 53.6567 68.0341 53.6567 68.6709C53.6567 69.3077 54.1358 69.8239 54.7268 69.8239Z" fill="#747378"/>
</g>
</g>
<path d="M110.358 44.6172C110.66 44.7327 110.98 44.793 111.303 44.7951C111.64 44.7951 111.8 44.7061 111.8 44.562C111.8 44.4179 111.638 44.3469 111.228 44.2366C110.612 44.0632 110.201 43.8008 110.201 43.3786C110.201 42.8753 110.747 42.4857 111.663 42.4857C111.996 42.4793 112.329 42.528 112.646 42.6299L112.441 43.2435C112.188 43.153 111.922 43.1069 111.654 43.1073C111.356 43.1073 111.194 43.1917 111.194 43.3189C111.194 43.4462 111.388 43.5182 111.848 43.6567C112.501 43.847 112.794 44.1172 112.794 44.5147C112.794 45.0056 112.307 45.4233 111.242 45.4233C110.879 45.4271 110.517 45.3689 110.173 45.2511L110.358 44.6172Z" fill="#6A777A"/>
<path d="M118.24 42.5285H119.218V44.7399H120.612V45.3761H118.24V42.5285Z" fill="#6A777A"/>
<path d="M126.985 42.5285V45.3761H126.007V42.5285H126.985Z" fill="#6A777A"/>
<path d="M132.57 42.5702C132.956 42.5251 133.344 42.504 133.733 42.5071C134.43 42.5071 134.872 42.5961 135.229 42.7909C135.432 42.8903 135.603 43.0465 135.72 43.2406C135.837 43.4347 135.895 43.6586 135.889 43.8853C135.898 44.1201 135.845 44.3533 135.733 44.5601C135.622 44.767 135.457 44.94 135.256 45.0608C134.857 45.3063 134.256 45.4121 133.544 45.4121C133.219 45.4158 132.893 45.3989 132.57 45.3614V42.5702ZM133.548 44.812C133.617 44.8188 133.685 44.8215 133.754 44.8199C134.386 44.8289 134.857 44.5541 134.857 43.9112C134.857 43.3482 134.43 43.0904 133.845 43.0904C133.745 43.0887 133.646 43.0944 133.547 43.1073L133.548 44.812Z" fill="#6A777A"/>
<path d="M143.608 44.2276H142.306V44.7523H143.767V45.3761H141.326V42.5285H143.686V43.1545H142.306V43.6106H143.613L143.608 44.2276Z" fill="#6A777A"/>
<path d="M149.22 42.5702C149.611 42.5263 150.004 42.5053 150.398 42.5071C150.96 42.5071 151.354 42.5668 151.634 42.7323C151.745 42.7922 151.836 42.8815 151.899 42.9904C151.962 43.0993 151.994 43.2236 151.991 43.3494C151.991 43.7052 151.653 43.954 151.369 44.0384V44.0519C151.481 44.0954 151.581 44.1641 151.662 44.2528C151.742 44.3415 151.801 44.4477 151.834 44.5631C151.947 44.8548 152.059 45.2691 152.131 45.3794H151.137C151.026 45.1708 150.941 44.9492 150.883 44.7196C150.786 44.3819 150.651 44.3098 150.348 44.3098H150.191V45.3761H149.224L149.22 42.5702ZM150.186 43.7592H150.44C150.808 43.7592 151.019 43.6196 151.019 43.4079C151.019 43.1962 150.841 43.0701 150.517 43.0701C150.406 43.0676 150.296 43.0733 150.186 43.087V43.7592Z" fill="#6A777A"/>
<path d="M163.519 43.3021H163.509L162.816 43.5475L162.66 42.9767L163.665 42.6299H164.46V45.3761H163.519V43.3021Z" fill="#6A777A"/>
<path d="M169.235 42.5837C170.126 42.5837 170.471 42.9721 170.471 43.302C170.471 43.5385 170.298 43.7671 169.985 43.8943V43.9022C170.287 43.9911 170.606 44.2107 170.606 44.5777C170.606 45.0856 170.065 45.4278 169.191 45.4278C168.223 45.4278 167.829 45.0135 167.829 44.6588C167.829 44.3289 168.061 44.1127 168.423 43.9832V43.9742C168.104 43.8346 167.937 43.6151 167.937 43.3741C167.937 42.8967 168.499 42.5859 169.234 42.5859L169.235 42.5837ZM169.224 44.9088C169.448 44.9088 169.607 44.786 169.607 44.625C169.607 44.4269 169.408 44.2873 169.157 44.2411C168.946 44.2827 168.82 44.41 168.82 44.5789C168.82 44.7478 168.982 44.9088 169.219 44.9088H169.224ZM169.197 43.0904C168.964 43.0904 168.851 43.2131 168.851 43.3572C168.851 43.5013 169.04 43.6106 169.272 43.6702C169.343 43.659 169.408 43.6255 169.459 43.5745C169.509 43.5234 169.542 43.4576 169.553 43.3865C169.553 43.239 169.44 43.0904 169.202 43.0904H169.197Z" fill="#6A777A"/>
<path d="M174.626 45.4245C173.621 45.4245 173.248 44.7309 173.248 44.008C173.248 43.2638 173.642 42.5837 174.631 42.5837C175.658 42.5837 176.008 43.2975 176.008 44.0001C176.008 44.812 175.571 45.4245 174.631 45.4245H174.626ZM174.637 44.8536C174.885 44.8536 175.036 44.5958 175.036 44.0035C175.036 43.4113 174.891 43.1579 174.631 43.1579C174.372 43.1579 174.221 43.4124 174.221 44.0035C174.221 44.5946 174.377 44.8536 174.631 44.8536H174.637Z" fill="#6A777A"/>
<defs>
<linearGradient id="paint0_linear" x1="232.87" y1="23.6102" x2="235.722" y2="59.4982" gradientUnits="userSpaceOnUse">
<stop offset="0.44" stop-color="white" stop-opacity="0"/>
<stop offset="0.52" stop-color="#A6A6A6" stop-opacity="0.35"/>
<stop offset="1"/>
</linearGradient>
<linearGradient id="paint1_linear" x1="196.561" y1="16.5392" x2="196.725" y2="19.1176" gradientUnits="userSpaceOnUse">
<stop offset="0.33" stop-color="white" stop-opacity="0.55"/>
<stop offset="0.39" stop-color="#C0C0C0" stop-opacity="0.66"/>
<stop offset="0.46" stop-color="#858585" stop-opacity="0.77"/>
<stop offset="0.53" stop-color="#545454" stop-opacity="0.85"/>
<stop offset="0.62" stop-color="#2F2F2F" stop-opacity="0.92"/>
<stop offset="0.71" stop-color="#141414" stop-opacity="0.96"/>
<stop offset="0.82" stop-color="#050505" stop-opacity="0.99"/>
<stop offset="1"/>
</linearGradient>
<linearGradient id="paint2_linear" x1="383368" y1="-7612.21" x2="383928" y2="35247.7" gradientUnits="userSpaceOnUse">
<stop offset="0.44" stop-color="white" stop-opacity="0"/>
<stop offset="0.52" stop-color="#A6A6A6" stop-opacity="0.35"/>
<stop offset="1"/>
</linearGradient>
<linearGradient id="paint3_linear" x1="54582.4" y1="237.801" x2="54583.5" y2="454.369" gradientUnits="userSpaceOnUse">
<stop offset="0.44" stop-color="white" stop-opacity="0"/>
<stop offset="0.52" stop-color="#A6A6A6" stop-opacity="0.35"/>
<stop offset="1"/>
</linearGradient>
<linearGradient id="paint4_linear" x1="19124.2" y1="127.262" x2="19124.3" y2="161.595" gradientUnits="userSpaceOnUse">
<stop offset="0.44" stop-color="white" stop-opacity="0"/>
<stop offset="0.52" stop-color="#A6A6A6" stop-opacity="0.35"/>
<stop offset="1"/>
</linearGradient>
<linearGradient id="paint5_linear" x1="138967" y1="1177.34" x2="139047" y2="8930.17" gradientUnits="userSpaceOnUse">
<stop offset="0.33" stop-color="white" stop-opacity="0.55"/>
<stop offset="0.39" stop-color="#C0C0C0" stop-opacity="0.66"/>
<stop offset="0.46" stop-color="#858585" stop-opacity="0.77"/>
<stop offset="0.53" stop-color="#545454" stop-opacity="0.85"/>
<stop offset="0.62" stop-color="#2F2F2F" stop-opacity="0.92"/>
<stop offset="0.71" stop-color="#141414" stop-opacity="0.96"/>
<stop offset="0.82" stop-color="#050505" stop-opacity="0.99"/>
<stop offset="1"/>
</linearGradient>
<linearGradient id="paint6_linear" x1="5.30896" y1="57.1435" x2="5.2052" y2="67.3503" gradientUnits="userSpaceOnUse">
<stop offset="0.17" stop-color="white" stop-opacity="0"/>
<stop offset="0.28" stop-color="#A6A6A6" stop-opacity="0.35"/>
<stop offset="1"/>
</linearGradient>
<linearGradient id="paint7_linear" x1="141.344" y1="48.7675" x2="198.094" y2="121.778" gradientUnits="userSpaceOnUse">
<stop/>
<stop offset="0.67" stop-color="#E6E6E6" stop-opacity="0.1"/>
<stop offset="0.7" stop-color="white" stop-opacity="0"/>
<stop offset="1"/>
</linearGradient>
<linearGradient id="paint8_linear" x1="141.344" y1="48.7674" x2="198.094" y2="121.777" gradientUnits="userSpaceOnUse">
<stop/>
<stop offset="0.67" stop-color="#E6E6E6" stop-opacity="0.1"/>
<stop offset="0.7" stop-color="white" stop-opacity="0"/>
<stop offset="1"/>
</linearGradient>
<linearGradient id="paint9_linear" x1="141.344" y1="48.7675" x2="198.094" y2="121.777" gradientUnits="userSpaceOnUse">
<stop/>
<stop offset="0.67" stop-color="#E6E6E6" stop-opacity="0.1"/>
<stop offset="0.7" stop-color="white" stop-opacity="0"/>
<stop offset="1"/>
</linearGradient>
<linearGradient id="paint10_linear" x1="141.344" y1="48.7675" x2="198.094" y2="121.778" gradientUnits="userSpaceOnUse">
<stop/>
<stop offset="0.67" stop-color="#E6E6E6" stop-opacity="0.1"/>
<stop offset="0.7" stop-color="white" stop-opacity="0"/>
<stop offset="1"/>
</linearGradient>
<linearGradient id="paint11_linear" x1="141.343" y1="48.7675" x2="198.094" y2="121.778" gradientUnits="userSpaceOnUse">
<stop/>
<stop offset="0.67" stop-color="#E6E6E6" stop-opacity="0.1"/>
<stop offset="0.7" stop-color="white" stop-opacity="0"/>
<stop offset="1"/>
</linearGradient>
<linearGradient id="paint12_linear" x1="141.344" y1="48.7671" x2="198.095" y2="121.777" gradientUnits="userSpaceOnUse">
<stop/>
<stop offset="0.67" stop-color="#E6E6E6" stop-opacity="0.1"/>
<stop offset="0.7" stop-color="white" stop-opacity="0"/>
<stop offset="1"/>
</linearGradient>
<linearGradient id="paint13_linear" x1="141.343" y1="48.7676" x2="198.094" y2="121.778" gradientUnits="userSpaceOnUse">
<stop/>
<stop offset="0.67" stop-color="#E6E6E6" stop-opacity="0.1"/>
<stop offset="0.7" stop-color="white" stop-opacity="0"/>
<stop offset="1"/>
</linearGradient>
<linearGradient id="paint14_linear" x1="141.344" y1="48.7675" x2="198.094" y2="121.777" gradientUnits="userSpaceOnUse">
<stop/>
<stop offset="0.67" stop-color="#E6E6E6" stop-opacity="0.1"/>
<stop offset="0.7" stop-color="white" stop-opacity="0"/>
<stop offset="1"/>
</linearGradient>
<linearGradient id="paint15_linear" x1="141.344" y1="48.7674" x2="198.094" y2="121.777" gradientUnits="userSpaceOnUse">
<stop/>
<stop offset="0.67" stop-color="#E6E6E6" stop-opacity="0.1"/>
<stop offset="0.7" stop-color="white" stop-opacity="0"/>
<stop offset="1"/>
</linearGradient>
<linearGradient id="paint16_linear" x1="141.344" y1="48.7675" x2="198.094" y2="121.778" gradientUnits="userSpaceOnUse">
<stop/>
<stop offset="0.67" stop-color="#E6E6E6" stop-opacity="0.1"/>
<stop offset="0.7" stop-color="white" stop-opacity="0"/>
<stop offset="1"/>
</linearGradient>
<linearGradient id="paint17_linear" x1="141.344" y1="48.7675" x2="198.095" y2="121.778" gradientUnits="userSpaceOnUse">
<stop/>
<stop offset="0.67" stop-color="#E6E6E6" stop-opacity="0.1"/>
<stop offset="0.7" stop-color="white" stop-opacity="0"/>
<stop offset="1"/>
</linearGradient>
<linearGradient id="paint18_linear" x1="15019.4" y1="770.068" x2="15016.7" y2="1153.37" gradientUnits="userSpaceOnUse">
<stop offset="0.44" stop-color="white" stop-opacity="0"/>
<stop offset="0.52" stop-color="#A6A6A6" stop-opacity="0.35"/>
<stop offset="1"/>
</linearGradient>
<linearGradient id="paint19_linear" x1="193.451" y1="16.3973" x2="188.986" y2="34.3393" gradientUnits="userSpaceOnUse">
<stop offset="0.49" stop-color="white"/>
<stop offset="0.5" stop-color="#F1F1F1"/>
<stop offset="0.54" stop-color="#BFBFBF"/>
<stop offset="0.58" stop-color="#919191"/>
<stop offset="0.62" stop-color="#6A6A6A"/>
<stop offset="0.66" stop-color="#494949"/>
<stop offset="0.71" stop-color="#2E2E2E"/>
<stop offset="0.76" stop-color="#1A1A1A"/>
<stop offset="0.82" stop-color="#0B0B0B"/>
<stop offset="0.89" stop-color="#030303"/>
<stop offset="1"/>
</linearGradient>
<linearGradient id="paint20_linear" x1="65.3437" y1="27.5702" x2="87.7869" y2="52.4815" gradientUnits="userSpaceOnUse">
<stop stop-color="white" stop-opacity="0"/>
<stop offset="0.13" stop-color="#A6A6A6" stop-opacity="0.35"/>
<stop offset="0.96"/>
</linearGradient>
<linearGradient id="paint21_linear" x1="160.051" y1="16.1935" x2="148.369" y2="-3.11383" gradientUnits="userSpaceOnUse">
<stop stop-color="#1DB8FF" stop-opacity="0.3"/>
<stop offset="1" stop-color="#1DB8FF"/>
</linearGradient>
<linearGradient id="paint22_linear" x1="125656" y1="10297" x2="122953" y2="-2521.17" gradientUnits="userSpaceOnUse">
<stop stop-color="#1DB8FF" stop-opacity="0.3"/>
<stop offset="1" stop-color="#1DB8FF"/>
</linearGradient>
<linearGradient id="paint23_linear" x1="190.714" y1="29.0903" x2="175.586" y2="12.6418" gradientUnits="userSpaceOnUse">
<stop stop-color="white" stop-opacity="0"/>
<stop offset="1" stop-color="white" stop-opacity="0.7"/>
</linearGradient>
<linearGradient id="paint24_linear" x1="33905.1" y1="4886.77" x2="31367.9" y2="1732.07" gradientUnits="userSpaceOnUse">
<stop stop-color="white" stop-opacity="0"/>
<stop offset="1" stop-color="white" stop-opacity="0.7"/>
</linearGradient>
<linearGradient id="paint25_linear" x1="25458.3" y1="4018.77" x2="23919.2" y2="1921.54" gradientUnits="userSpaceOnUse">
<stop stop-color="white" stop-opacity="0"/>
<stop offset="1" stop-color="white" stop-opacity="0.7"/>
</linearGradient>
</defs>
</svg>
